<svg xmlns="http://www.w3.org/2000/svg" width="50" height="50" viewBox="0 0 50 50">
  <g id="Files_-_PDF_BIG" data-name="Files - PDF BIG" transform="translate(0 -0.513)">
    <rect id="Rectangle_2914" data-name="Rectangle 2914" width="50" height="50" rx="4" transform="translate(0 0.513)" fill="#c80a0a"/>
    <path id="Path_34055" data-name="Path 34055" d="M134.092,124.889c-1.14-1.318-3.673-1.977-7.094-1.977a44,44,0,0,0-6.714.659,33.132,33.132,0,0,1-6.587-9.095,38.166,38.166,0,0,0,2.153-10.676c0-2.241-.76-5.8-3.8-5.8a2.6,2.6,0,0,0-2.153,1.318c-1.267,2.372-.76,7.645,1.647,13.181a120.985,120.985,0,0,1-6.334,15.421c-6.714,2.9-11.147,6.063-11.527,8.567-.253,1.186.507,3.163,3.167,3.163,3.927,0,8.234-5.931,11.527-11.994a76.823,76.823,0,0,1,11.654-3.163c4.814,4.35,8.994,5.009,11.02,5.009C135.105,129.5,135.485,126.47,134.092,124.889ZM110.531,99.713c1.013-1.582,3.294-1.054,3.294,2.109a34.76,34.76,0,0,1-1.9,9.49C109.644,105.777,109.644,101.427,110.531,99.713ZM94.444,136.619c.38-2.109,4.18-5.009,10.134-7.513-3.293,5.8-6.587,9.49-8.614,9.49A1.6,1.6,0,0,1,94.444,136.619ZM119.4,123.7a70.456,70.456,0,0,0-10.514,2.9,61.02,61.02,0,0,0,4.56-11.072A42.984,42.984,0,0,0,119.4,123.7Zm1.647.527a30.548,30.548,0,0,1,8.994-.264c3.673.791,2.407,5.4-1.647,4.35A17.662,17.662,0,0,1,121.045,124.229Z" transform="translate(-89.264 -93.368)" fill="#fff"/>
  </g>
</svg>
