<svg xmlns="http://www.w3.org/2000/svg" width="24" height="24" viewBox="0 0 24 24">
  <g id="Files_-_Image" data-name="Files - Image" transform="translate(-361 -999)">
    <rect id="Rectangle_5262" data-name="Rectangle 5262" width="22" height="20" transform="translate(362 1001)" fill="#fff"/>
    <path id="image-s-svgrepo-com" d="M3,18.621V19.5A1.5,1.5,0,0,0,4.5,21h15A1.5,1.5,0,0,0,21,19.5V12.621a1.5,1.5,0,0,0-.439-1.061l-1.5-1.5a1.5,1.5,0,0,0-2.121,0l-3.879,3.879a1.5,1.5,0,0,1-2.121,0l-.879-.879a1.5,1.5,0,0,0-2.121,0l-4.5,4.5A1.5,1.5,0,0,0,3,18.621ZM6.75,9A2.25,2.25,0,1,0,4.5,6.75,2.25,2.25,0,0,0,6.75,9ZM4.5,0h15A4.5,4.5,0,0,1,24,4.5v15A4.5,4.5,0,0,1,19.5,24H4.5A4.5,4.5,0,0,1,0,19.5V4.5A4.5,4.5,0,0,1,4.5,0Z" transform="translate(361 999)" fill="#c80a0a" fill-rule="evenodd"/>
  </g>
</svg>
