<svg xmlns="http://www.w3.org/2000/svg" width="24" height="24" viewBox="0 0 24 24">
  <g id="Files_-_Document" data-name="Files - Document" transform="translate(-361 -1053)">
    <rect id="Rectangle_5261" data-name="Rectangle 5261" width="13" height="10" transform="translate(367 1063)" fill="#fff"/>
    <g id="document-text-svgrepo-com" transform="translate(361 1053)">
      <rect id="Rectangle_4893" data-name="Rectangle 4893" width="24" height="24" fill="none"/>
      <path id="Path_34172" data-name="Path 34172" d="M9.077,11.139a1.015,1.015,0,1,0,0,2.031H15.17a1.015,1.015,0,0,0,0-2.031Zm0,3.046a1.015,1.015,0,0,0,0,2.031H15.17a1.015,1.015,0,0,0,0-2.031ZM12.613,2a4.78,4.78,0,0,1,1.866.232,4.78,4.78,0,0,1,1.484,1.155q1.446,1.451,2.9,2.9a4.78,4.78,0,0,1,1.155,1.484,4.779,4.779,0,0,1,.232,1.866q-.006,3.832,0,7.664a18.669,18.669,0,0,1-.083,2.3,2.774,2.774,0,0,1-2.63,2.63,18.671,18.671,0,0,1-2.3.083H9.01a18.671,18.671,0,0,1-2.3-.083,3.017,3.017,0,0,1-1.821-.809,3.017,3.017,0,0,1-.809-1.821A18.669,18.669,0,0,1,4,17.3V7.077q0-.034,0-.067a18.671,18.671,0,0,1,.083-2.3,3.017,3.017,0,0,1,.809-1.821,3.017,3.017,0,0,1,1.821-.809A18.671,18.671,0,0,1,9.01,2Q10.812,2,12.613,2Z" transform="translate(0.062 0.031)" fill="#24a9df" fill-rule="evenodd"/>
    </g>
  </g>
</svg>
