<svg xmlns="http://www.w3.org/2000/svg" width="18" height="18" viewBox="0 0 18 18">
  <g id="Files_-_Orange_" data-name="Files - Orange " transform="translate(-906 -205)">
    <rect id="Rectangle_5306" data-name="Rectangle 5306" width="18" height="18" transform="translate(906 205)" fill="none"/>
    <g id="files-svgrepo-com" transform="translate(905.819 204.729)">
      <path id="Path_34166" data-name="Path 34166" d="M13.181,2H8.163a1.168,1.168,0,0,0-.8.364,1.168,1.168,0,0,0-.364.8v9.307a1.251,1.251,0,0,0,1.163,1.163h7.126a1.251,1.251,0,0,0,1.163-1.163v-7.2Z" transform="translate(-1.092)" fill="none" stroke="#f60" stroke-linecap="round" stroke-linejoin="round" stroke-width="1.2"/>
      <path id="Path_34167" data-name="Path 34167" d="M3,7.6v9.307a1.168,1.168,0,0,0,.364.8,1.168,1.168,0,0,0,.8.364h7.126" transform="translate(0 -1.528)" fill="none" stroke="#f60" stroke-linecap="round" stroke-linejoin="round" stroke-width="1.2"/>
      <path id="Path_34168" data-name="Path 34168" d="M15,2V5.636h3.636" transform="translate(-3.275)" fill="none" stroke="#f60" stroke-linecap="round" stroke-linejoin="round" stroke-width="1.2"/>
    </g>
  </g>
</svg>
