<svg xmlns="http://www.w3.org/2000/svg" width="24" height="24" viewBox="0 0 24 24">
  <g id="Youtube" transform="translate(-1475 -650)">
    <rect id="Rectangle_6088" data-name="Rectangle 6088" width="24" height="24" transform="translate(1475 650)" fill="none"/>
    <g id="youtube-logo-2431" transform="translate(1475 615.665)">
      <path id="Path_34821" data-name="Path 34821" d="M23.5,40.558a3.006,3.006,0,0,0-2.122-2.122c-1.871-.5-9.377-.5-9.377-.5s-7.505,0-9.377.5A3.006,3.006,0,0,0,.5,40.558a33.513,33.513,0,0,0,0,11.553,3.006,3.006,0,0,0,2.122,2.122c1.871.5,9.377.5,9.377.5s7.505,0,9.377-.5A3.006,3.006,0,0,0,23.5,52.112a31.225,31.225,0,0,0,.5-5.777A31.225,31.225,0,0,0,23.5,40.558Z" transform="translate(0 0)" fill="red"/>
      <path id="Path_34822" data-name="Path 34822" d="M101.16,95.775l6.286-3.63-6.286-3.63Z" transform="translate(-91.588 -45.81)" fill="#fff"/>
    </g>
  </g>
</svg>
