<svg id="bank-grey" xmlns="http://www.w3.org/2000/svg" width="18" height="18" viewBox="0 0 18 18">
  <circle id="Ellipse_399" data-name="Ellipse 399" cx="1" cy="1" r="1" transform="translate(8 3)" fill="#707070"/>
  <path id="Path_34597" data-name="Path 34597" d="M1.125,7.031h15.75a1.125,1.125,0,0,0,.584-2.087L9.584.163a1.125,1.125,0,0,0-1.168,0L.541,4.945a1.125,1.125,0,0,0,.584,2.087ZM9,2.531A1.406,1.406,0,1,1,7.594,3.938,1.406,1.406,0,0,1,9,2.531Z" transform="translate(0)" fill="#707070"/>
  <rect id="Rectangle_5952" data-name="Rectangle 5952" width="2" height="7" transform="translate(9.999 8)" fill="#707070"/>
  <rect id="Rectangle_5953" data-name="Rectangle 5953" width="2" height="7" transform="translate(12.999 8)" fill="#707070"/>
  <rect id="Rectangle_5954" data-name="Rectangle 5954" width="2" height="7" transform="translate(6 8)" fill="#707070"/>
  <rect id="Rectangle_5955" data-name="Rectangle 5955" width="2" height="7" transform="translate(3 8)" fill="#707070"/>
  <path id="Path_34598" data-name="Path 34598" d="M4,55.125H19.75A1.125,1.125,0,0,0,18.625,54H5.125A1.125,1.125,0,0,0,4,55.125Z" transform="translate(-2.875 -38.813)" fill="#707070"/>
  <path id="Path_34599" data-name="Path 34599" d="M17.844,60H.156A1.113,1.113,0,0,0,0,60.563v.563H18v-.562A1.113,1.113,0,0,0,17.844,60Z" transform="translate(0 -43.125)" fill="#707070"/>
</svg>
