<svg xmlns="http://www.w3.org/2000/svg" width="20" height="20" viewBox="0 0 20 20">
  <g id="Color_selection_-_Clear_all" data-name="Color selection - Clear all" transform="translate(-442 -140)">
    <rect id="Rectangle_4388" data-name="Rectangle 4388" width="20" height="20" transform="translate(442 140)" fill="none"/>
    <g id="erase-text-svgrepo-com" transform="translate(443 99.485)">
      <path id="Path_34253" data-name="Path 34253" d="M17.593,57.073H10.187L17.96,49.3a.519.519,0,0,0,0-.734l-5.9-5.9a.519.519,0,0,0-.734,0L.152,53.843a.519.519,0,0,0,0,.734l3.383,3.382a.519.519,0,0,0,.367.152H17.593a.519.519,0,0,0,0-1.038Zm-5.9-13.305,5.165,5.165-6.108,6.108L5.586,49.876ZM8.719,57.073h-4.6L1.253,54.21l3.6-3.6,5.165,5.165Z" fill="#707070" stroke="#707070" stroke-width="0.3"/>
    </g>
  </g>
</svg>
