<svg width="29" height="29" viewBox="0 0 29 29" fill="none" xmlns="http://www.w3.org/2000/svg">
<path d="M16.7781 7.79797L15.5351 5.29098L13.0281 4.04797L15.5351 2.80498L16.7781 0.297974L18.0211 2.80498L20.5281 4.04797L18.0211 5.29098L16.7781 7.79797ZM25.3781 11.488L23.7941 8.31898L22.2941 11.488L19.1251 13.072L22.2941 14.572L23.8781 17.741L25.3781 14.572L28.5471 12.988L25.3781 11.488ZM6.4261 8.03898C5.22977 8.91608 4.23728 10.0415 3.51666 11.3381C2.79603 12.6347 2.36431 14.0718 2.25112 15.5509C2.13793 17.03 2.34594 18.5161 2.86088 19.9072C3.37581 21.2984 4.18549 22.5617 5.23441 23.6106C6.28334 24.6596 7.5467 25.4693 8.93786 25.9842C10.329 26.4991 11.8151 26.7071 13.2942 26.5939C14.7732 26.4807 16.2103 26.049 17.507 25.3284C18.8036 24.6078 19.929 23.6153 20.8061 22.419C18.9222 22.4269 17.0553 22.063 15.3123 21.3481C13.5693 20.6332 11.9844 19.5815 10.6486 18.2531C9.31277 16.9247 8.25217 15.3457 7.5276 13.6068C6.80302 11.8678 6.42871 10.0029 6.4261 8.11897M8.9531 4.54897C8.31123 6.68018 8.25899 8.94552 8.80195 11.104C9.34491 13.2626 10.4628 15.2336 12.0366 16.8075C13.6105 18.3813 15.5815 19.4992 17.74 20.0421C19.8985 20.5851 22.1639 20.5328 24.2951 19.891C23.6767 21.9218 22.543 23.7578 21.0044 25.2204C19.4658 26.683 17.5747 27.7222 15.5152 28.237C13.4557 28.7517 11.298 28.7244 9.25214 28.1576C7.20634 27.5909 5.34214 26.5041 3.84106 25.003C2.33997 23.5019 1.25317 21.6377 0.686441 19.5919C0.11971 17.5461 0.0923672 15.3884 0.607095 13.3289C1.12182 11.2694 2.16107 9.37828 3.62365 7.83965C5.08623 6.30103 6.92231 5.16734 8.9531 4.54897Z" fill="#262626"/>
</svg>
