<svg width="25" height="23" viewBox="0 0 25 23" fill="none" xmlns="http://www.w3.org/2000/svg">
<g opacity="0.58">
<path d="M13.0489 4.25498V1.79899C13.0489 1.56931 12.9577 1.34904 12.7953 1.18663C12.6329 1.02422 12.4126 0.932983 12.1829 0.932983C11.9532 0.932983 11.733 1.02422 11.5706 1.18663C11.4082 1.34904 11.3169 1.56931 11.3169 1.79899V4.25498C11.3169 4.48466 11.4082 4.70493 11.5706 4.86734C11.733 5.02975 11.9532 5.12099 12.1829 5.12099C12.4126 5.12099 12.6329 5.02975 12.7953 4.86734C12.9577 4.70493 13.0489 4.48466 13.0489 4.25498Z" fill="black"/>
<path d="M6.63995 6.37596C6.09995 5.83596 5.55995 5.29297 5.02295 4.75397L4.79195 4.52296C4.62963 4.36065 4.40949 4.26947 4.17995 4.26947C3.9504 4.26947 3.73026 4.36065 3.56795 4.52296C3.40563 4.68528 3.31445 4.90542 3.31445 5.13496C3.31445 5.36451 3.40563 5.58465 3.56795 5.74696C4.10795 6.28696 4.64795 6.82896 5.18495 7.36896L5.41595 7.59996C5.57827 7.76227 5.79841 7.85347 6.02795 7.85347C6.2575 7.85347 6.47764 7.76227 6.63995 7.59996C6.80227 7.43765 6.89345 7.21751 6.89345 6.98796C6.89345 6.75842 6.80227 6.53827 6.63995 6.37596Z" fill="black"/>
<path d="M23.5011 12.249H21.0471C20.8175 12.249 20.5972 12.3402 20.4348 12.5026C20.2724 12.665 20.1812 12.8853 20.1812 13.115C20.1812 13.3446 20.2724 13.5649 20.4348 13.7273C20.5972 13.8897 20.8175 13.981 21.0471 13.981H23.5011C23.7308 13.981 23.9511 13.8897 24.1135 13.7273C24.2759 13.5649 24.3671 13.3446 24.3671 13.115C24.3671 12.8853 24.2759 12.665 24.1135 12.5026C23.9511 12.3402 23.7308 12.249 23.5011 12.249Z" fill="black"/>
<path d="M19.5718 4.51797C19.0318 5.05797 18.4899 5.59796 17.9499 6.13496L17.7188 6.36597C17.6385 6.44634 17.5747 6.54175 17.5312 6.64676C17.4877 6.75177 17.4653 6.86431 17.4653 6.97797C17.4653 7.09163 17.4877 7.20418 17.5312 7.30919C17.5747 7.4142 17.6385 7.5096 17.7188 7.58997C17.7992 7.67033 17.8946 7.73409 17.9996 7.77759C18.1046 7.82108 18.2172 7.84348 18.3308 7.84348C18.4445 7.84348 18.557 7.82108 18.662 7.77759C18.7671 7.73409 18.8625 7.67033 18.9428 7.58997C19.4828 7.04997 20.0248 6.50998 20.5648 5.97298L20.7958 5.74197C20.9581 5.57966 21.0493 5.35952 21.0493 5.12997C21.0493 4.90043 20.9581 4.68029 20.7958 4.51797C20.6335 4.35566 20.4134 4.26447 20.1838 4.26447C19.9543 4.26447 19.7342 4.35566 19.5718 4.51797Z" fill="black"/>
<path d="M3.89798 12.249H0.866974C0.637296 12.249 0.41703 12.3402 0.254623 12.5026C0.0922169 12.665 0.000976562 12.8853 0.000976562 13.115C0.000976562 13.3446 0.0922169 13.5649 0.254623 13.7273C0.41703 13.8897 0.637296 13.981 0.866974 13.981H3.89798C4.12766 13.981 4.34792 13.8897 4.51033 13.7273C4.67274 13.5649 4.76398 13.3446 4.76398 13.115C4.76398 12.8853 4.67274 12.665 4.51033 12.5026C4.34792 12.3402 4.12766 12.249 3.89798 12.249Z" fill="black"/>
<path d="M5.42479 18.672L3.85779 20.517H5.08379C4.78979 20.223 4.50679 19.917 4.24079 19.593C4.17479 19.512 4.10479 19.428 4.04079 19.348C4.00579 19.305 3.90179 19.157 4.05479 19.371C4.02579 19.331 3.99679 19.293 3.96579 19.256C3.83879 19.089 3.71779 18.918 3.59879 18.742C3.1418 18.0711 2.75224 17.3566 2.43579 16.609L2.52279 16.817C2.16036 15.9602 1.91191 15.0595 1.78379 14.138C1.79579 14.216 1.80379 14.291 1.81579 14.369C1.70304 13.4598 1.70875 12.5398 1.83279 11.632C1.82079 11.71 1.81279 11.785 1.80079 11.863C1.93462 10.8727 2.19753 9.9041 2.58279 8.982L2.49579 9.19C2.71139 8.68009 2.96304 8.18618 3.24879 7.71201C3.39279 7.47501 3.54879 7.24401 3.70479 7.01901C3.74479 6.96101 3.78879 6.904 3.83179 6.846C3.87479 6.788 4.03179 6.60401 3.85479 6.81101C3.94679 6.70101 4.03379 6.583 4.12879 6.473C4.50191 6.03022 4.90808 5.61636 5.34379 5.235C5.44379 5.146 5.55179 5.056 5.65879 4.969L5.80879 4.848C5.91879 4.761 5.75679 4.88801 5.74779 4.89401C5.78579 4.86501 5.82279 4.836 5.86279 4.807C6.09079 4.637 6.32779 4.47501 6.56979 4.32201C7.0983 3.98806 7.65352 3.6984 8.22979 3.456L8.02179 3.543C8.94445 3.1594 9.91279 2.89656 10.9028 2.761L10.6718 2.793C11.6713 2.66308 12.6833 2.66308 13.6828 2.793L13.4518 2.761C14.4421 2.89484 15.4107 3.15774 16.3328 3.543L16.1248 3.456C16.6347 3.67161 17.1286 3.92325 17.6028 4.209C17.8398 4.353 18.0708 4.509 18.2958 4.665C18.3538 4.705 18.4108 4.749 18.4688 4.792C18.5268 4.835 18.7108 4.992 18.5038 4.815C18.6138 4.907 18.7318 4.99401 18.8418 5.08901C19.2846 5.46213 19.6984 5.86829 20.0798 6.304C20.1688 6.404 20.2588 6.512 20.3458 6.619L20.4668 6.76901C20.5538 6.87901 20.4268 6.717 20.4208 6.708C20.4498 6.746 20.4788 6.78301 20.5078 6.82301C20.6778 7.05101 20.8398 7.28801 20.9928 7.53001C21.3267 8.05851 21.6164 8.61374 21.8588 9.19L21.7718 8.982C22.1554 9.90467 22.4182 10.873 22.5538 11.863C22.5418 11.785 22.5338 11.71 22.5218 11.632C22.6531 12.6314 22.6531 13.6436 22.5218 14.643C22.5338 14.565 22.5418 14.49 22.5538 14.412C22.421 15.4013 22.1591 16.3688 21.7748 17.29L21.8618 17.082C21.5828 17.7461 21.2416 18.3822 20.8428 18.982C20.7428 19.126 20.6428 19.271 20.5428 19.412L20.4558 19.527C20.3488 19.671 20.5858 19.362 20.4728 19.504L20.2908 19.729C20.0598 20.006 19.8178 20.275 19.5638 20.529H20.7838C20.2438 19.989 19.7038 19.446 19.1668 18.907L18.9358 18.676C18.7735 18.5137 18.5533 18.4225 18.3238 18.4225C18.0942 18.4225 17.8741 18.5137 17.7118 18.676C17.5495 18.8383 17.4583 19.0585 17.4583 19.288C17.4583 19.5175 17.5495 19.7377 17.7118 19.9C18.2518 20.44 18.7918 20.982 19.3288 21.522L19.5598 21.753C19.7236 21.9126 19.9432 22.0018 20.1718 22.0018C20.4004 22.0018 20.62 21.9126 20.7838 21.753C22.1234 20.4091 23.1331 18.7729 23.7338 16.973C24.3047 15.2623 24.4824 13.4449 24.2538 11.656C23.9087 8.81894 22.5763 6.19379 20.4899 4.24055C18.4036 2.28731 15.6964 1.13055 12.8428 0.973001C11.0384 0.869579 9.23399 1.17448 7.56379 1.86501C5.79487 2.5891 4.22105 3.71908 2.96945 5.16367C1.71785 6.60827 0.823554 8.32699 0.358792 10.181C-0.100453 11.984 -0.114182 13.8716 0.318791 15.681C0.811303 17.5411 1.70945 19.2691 2.94879 20.741C3.23479 21.0903 3.53679 21.4237 3.85479 21.741C4.0178 21.902 4.23768 21.9923 4.46679 21.9923C4.69589 21.9923 4.91577 21.902 5.07879 21.741L6.64579 19.896C6.8024 19.7299 6.89277 19.5122 6.89979 19.284C6.89954 19.1129 6.84852 18.9457 6.75321 18.8035C6.65789 18.6614 6.52256 18.5507 6.36433 18.4855C6.2061 18.4203 6.03209 18.4035 5.86431 18.4373C5.69653 18.471 5.54253 18.5537 5.42179 18.675L5.42479 18.672Z" fill="#121212"/>
<path d="M12.8322 13.637C12.8675 13.681 12.9059 13.7225 12.9472 13.761C12.8552 13.64 12.8372 13.614 12.8892 13.686C12.9062 13.709 12.9212 13.732 12.9352 13.755C12.9948 13.846 13.0451 13.9428 13.0852 14.044L12.9982 13.836C13.0522 13.9726 13.0908 14.1148 13.1132 14.26C13.1012 14.182 13.0932 14.107 13.0812 14.029C13.1043 14.1995 13.1043 14.3724 13.0812 14.543C13.0932 14.465 13.1012 14.39 13.1132 14.312C13.0908 14.4572 13.0522 14.5994 12.9982 14.736L13.0852 14.528C13.0427 14.6281 12.9926 14.7247 12.9352 14.817C12.9212 14.84 12.9032 14.863 12.8892 14.886C12.8372 14.955 12.8572 14.932 12.9472 14.811C12.9072 14.849 12.8722 14.898 12.8322 14.935C12.7881 14.9703 12.7467 15.0087 12.7082 15.05C12.8292 14.958 12.8552 14.94 12.7832 14.992C12.7602 15.009 12.7372 15.024 12.7142 15.038C12.6231 15.0976 12.5263 15.1478 12.4252 15.188L12.6332 15.101C12.4966 15.1551 12.3544 15.1936 12.2092 15.216L12.4402 15.184C12.2696 15.2071 12.0967 15.2071 11.9262 15.184L12.1572 15.216C12.012 15.1936 11.8698 15.1551 11.7332 15.101L11.9412 15.188C11.8411 15.1455 11.7445 15.0954 11.6522 15.038L11.5832 14.992C11.5142 14.94 11.5372 14.96 11.6582 15.05C11.6202 15.01 11.5712 14.975 11.5342 14.935C11.4989 14.8909 11.4604 14.8495 11.4192 14.811C11.5112 14.932 11.5292 14.958 11.4772 14.886C11.4602 14.863 11.4452 14.84 11.4312 14.817C11.3716 14.726 11.3213 14.6291 11.2812 14.528L11.3682 14.736C11.3141 14.5994 11.2755 14.4572 11.2532 14.312C11.2652 14.39 11.2732 14.465 11.2852 14.543C11.2621 14.3724 11.2621 14.1995 11.2852 14.029C11.2732 14.107 11.2652 14.182 11.2532 14.26C11.2755 14.1148 11.3141 13.9726 11.3682 13.836L11.2812 14.044C11.3236 13.9439 11.3738 13.8473 11.4312 13.755C11.4452 13.732 11.4632 13.709 11.4772 13.686C11.5292 13.617 11.5092 13.64 11.4192 13.761C11.4592 13.723 11.4942 13.674 11.5342 13.637C11.5782 13.6017 11.6197 13.5632 11.6582 13.522C11.5372 13.614 11.5112 13.632 11.5832 13.58C11.6062 13.563 11.6292 13.548 11.6522 13.534C11.7432 13.4744 11.84 13.4241 11.9412 13.384L11.7332 13.471C11.8698 13.4169 12.012 13.3783 12.1572 13.356L11.9262 13.388C12.0967 13.3649 12.2696 13.3649 12.4402 13.388L12.2092 13.356C12.3544 13.3783 12.4966 13.4169 12.6332 13.471L12.4252 13.384C12.5252 13.4264 12.6219 13.4766 12.7142 13.534L12.7832 13.58C12.8522 13.632 12.8292 13.612 12.7082 13.522C12.7467 13.5632 12.7881 13.6017 12.8322 13.637C12.9945 13.7993 13.2146 13.8905 13.4442 13.8905C13.6737 13.8905 13.8939 13.7993 14.0562 13.637C14.2185 13.4747 14.3097 13.2545 14.3097 13.025C14.3097 12.7954 14.2185 12.5753 14.0562 12.413C13.6849 12.0389 13.209 11.7862 12.6912 11.688C12.1214 11.5894 11.535 11.668 11.0112 11.913C10.5399 12.1433 10.1483 12.5094 9.88705 12.9643C9.62576 13.4191 9.50668 13.9418 9.54516 14.465C9.59601 15.0429 9.82368 15.5911 10.1972 16.035C10.5447 16.4366 11.0073 16.7218 11.5222 16.852C12.0849 16.9967 12.6796 16.9526 13.2149 16.7264C13.7501 16.5001 14.1962 16.1043 14.4845 15.5998C14.7727 15.0953 14.8873 14.51 14.8104 13.934C14.7336 13.3581 14.4696 12.8233 14.0592 12.412C13.8969 12.2493 13.6766 12.1577 13.4467 12.1574C13.2169 12.1571 12.9964 12.2482 12.8337 12.4105C12.671 12.5728 12.5794 12.7931 12.5791 13.0229C12.5788 13.2527 12.6699 13.4743 12.8322 13.637Z" fill="black"/>
<path d="M13.0489 12.479V7.54301C13.0489 7.31334 12.9577 7.09306 12.7953 6.93065C12.6329 6.76824 12.4126 6.677 12.1829 6.677C11.9532 6.677 11.733 6.76824 11.5706 6.93065C11.4082 7.09306 11.3169 7.31334 11.3169 7.54301V12.479C11.3169 12.7087 11.4082 12.929 11.5706 13.0914C11.733 13.2538 11.9532 13.345 12.1829 13.345C12.4126 13.345 12.6329 13.2538 12.7953 13.0914C12.9577 12.929 13.0489 12.7087 13.0489 12.479Z" fill="black"/>
</g>
</svg>
