<svg xmlns="http://www.w3.org/2000/svg" width="24" height="24" viewBox="0 0 24 24">
  <g id="profile-circle-svgrepo-com" transform="translate(-2 -2.01)" opacity="0.5">
    <path id="Path_34381" data-name="Path 34381" d="M14,26.01a12,12,0,1,0-12-12A12,12,0,0,0,14,26.01Z" transform="translate(0 0)" fill="#292d32" opacity="0.4"/>
    <path id="Path_34382" data-name="Path 34382" d="M12.683,6.94a4.427,4.427,0,0,0-.059,8.854h.213a4.428,4.428,0,0,0-.154-8.854Z" transform="translate(1.317 1.039)" fill="#292d32"/>
    <path id="Path_34383" data-name="Path 34383" d="M21.608,20.042a12.282,12.282,0,0,1-16.387,0,5.068,5.068,0,0,1,2.224-2.813,11.851,11.851,0,0,1,11.94,0A5.017,5.017,0,0,1,21.608,20.042Z" transform="translate(0.587 2.835)" fill="#292d32"/>
  </g>
</svg>
