<svg width="29" height="22" viewBox="0 0 29 22" fill="none" xmlns="http://www.w3.org/2000/svg">
<path d="M2.70312 1.99994V19.989H26.2895L26.2593 4.94693H16.1768C15.7822 4.94693 15.3964 4.83021 15.068 4.61147L13.151 3.33457C13.1259 3.31783 13.1012 3.30054 13.0769 3.28269L11.3281 1.99994H2.70312ZM2.60866 -6.10352e-05H11.983L14.2598 1.67003L16.1768 2.94693H26.3536C27.406 2.94693 28.2592 3.80007 28.2592 4.85247L28.2897 20.0835C28.2897 21.1359 27.4366 21.989 26.3842 21.989H2.60866C1.55626 21.989 0.703125 21.1359 0.703125 20.0835V1.90548C0.703125 0.853079 1.55626 -6.10352e-05 2.60866 -6.10352e-05Z" fill="#3D3D3D"/>
</svg>
