<svg width="30" height="29" viewBox="0 0 30 29" fill="none" xmlns="http://www.w3.org/2000/svg">
<g clip-path="url(#clip0_359_2483)">
<path d="M-0.00195312 13.3189C0.0757087 12.783 0.130072 12.2471 0.223266 11.719C0.821262 8.35628 2.43663 5.56822 5.03053 3.36263C7.88072 0.939577 11.2046 -0.178752 14.9324 0.0231684C20.625 0.333816 25.7429 3.94509 27.6612 9.69983C28.3368 11.7268 27.7155 13.8625 26.0846 15.2449C26.0303 15.2915 25.9837 15.3381 25.9216 15.3924C26.4574 15.8972 26.9778 16.3943 27.5059 16.8913C27.9563 17.3184 28.4067 17.7378 28.8572 18.165C30.0221 19.2678 30.0687 21.0229 28.9581 22.1335C27.8553 23.244 26.0924 23.2052 24.9896 22.0403C23.2966 20.2541 21.6113 18.4678 19.9261 16.6661C19.7552 16.4797 19.6232 16.4642 19.4057 16.5574C18.598 16.9068 18.1321 17.7456 18.2796 18.6154C18.4505 19.6017 19.1417 20.223 20.1202 20.2851C20.4309 20.3007 20.7415 20.3084 21.0366 20.3861C22.3413 20.7356 23.1024 21.6131 23.3276 22.9179C23.5451 24.1682 23.1257 25.2322 22.0773 25.9622C20.4076 27.1271 18.5514 27.8494 16.54 28.1756C12.9753 28.7425 9.62811 28.1212 6.58377 26.1641C2.98803 23.8576 0.860093 20.5569 0.161137 16.3399C0.0990072 15.9283 0.0524101 15.4934 -0.00195312 15.0663C-0.00195312 14.4838 -0.00195312 13.9013 -0.00195312 13.3189ZM18.3806 15.0507C17.7671 14.3984 17.1225 13.7149 16.4701 13.0393C16.4158 12.9772 16.2837 12.9772 16.1905 12.9694C15.678 12.9539 15.1576 13.0238 14.6606 12.9306C13.0996 12.6354 12.0589 11.7035 11.492 10.2124C10.7853 8.34075 10.4436 6.39144 10.2106 4.41883C10.1329 3.7587 10.5911 3.30826 11.2435 3.40146C11.8881 3.48688 12.5327 3.57231 13.1695 3.68104C14.6218 3.93732 16.043 4.27127 17.4098 4.85373C19.1883 5.61482 20.0503 7.57966 19.7707 9.31928C19.7397 9.49791 19.7785 9.62217 19.9183 9.74642C20.7803 10.5463 21.6269 11.354 22.4811 12.1617C23.1879 12.8218 23.8868 13.4897 24.5858 14.1498C25.875 13.4354 26.4885 11.7579 25.9914 10.2745C23.8946 3.89849 17.371 0.675528 11.3677 2.07344C5.27905 3.49465 0.821262 9.51344 1.91629 16.1768C2.59195 20.2541 4.80531 23.2829 8.43988 25.2322C10.7387 26.467 13.2161 26.8631 15.81 26.5291C17.6739 26.2884 19.3902 25.6516 20.9667 24.6342C21.5259 24.2692 21.7511 23.6867 21.5803 23.0732C21.4016 22.4519 20.9201 22.0714 20.26 22.0481C20.0581 22.0403 19.8562 22.0325 19.6542 21.9937C18.2641 21.7529 17.2623 20.9919 16.7497 19.6794C16.2294 18.3591 16.4546 17.101 17.3477 15.9982C17.6428 15.641 18.0311 15.3691 18.3806 15.0507ZM12.0822 5.27311C12.3696 6.904 12.6181 8.4883 13.2937 9.96388C13.3947 10.1891 13.55 10.4065 13.7287 10.5774C14.4664 11.2919 15.5848 11.4705 16.5322 11.0589C17.4875 10.6395 18.1088 9.69206 18.0777 8.63586C18.0466 7.5486 17.5574 6.71761 16.5012 6.36814C15.5304 6.04196 14.5363 5.80121 13.55 5.54492C13.0763 5.42066 12.6026 5.35853 12.0822 5.27311ZM18.1398 12.2471C19.297 13.4742 20.5008 14.7478 21.7045 16.0215C23.2189 17.6291 24.7333 19.2289 26.2477 20.8365C26.5428 21.1472 26.8923 21.2637 27.2962 21.1472C27.6845 21.0384 27.9175 20.7589 27.9874 20.3628C28.0573 19.9745 27.9019 19.6716 27.6223 19.4076C24.8032 16.7515 21.9763 14.08 19.1572 11.4162C19.1028 11.3696 19.0407 11.323 19.0485 11.3307C18.7378 11.6414 18.4505 11.9287 18.1398 12.2471Z" fill="black"/>
<path d="M9.55247 13.9017C9.55247 15.6802 8.12349 17.1169 6.33727 17.1169C4.55881 17.1169 3.12207 15.6879 3.12207 13.9017C3.12207 12.1233 4.55105 10.6865 6.33727 10.6865C8.12349 10.6943 9.55247 12.1233 9.55247 13.9017ZM6.3528 12.4417C5.53735 12.4339 4.88499 13.0707 4.87723 13.8707C4.86946 14.7016 5.50629 15.354 6.32174 15.3618C7.14495 15.3695 7.79731 14.7249 7.79731 13.9017C7.80508 13.094 7.16825 12.4494 6.3528 12.4417Z" fill="black"/>
<path d="M15.2597 21.4732C15.3063 23.1818 13.885 24.6729 12.1765 24.7195C10.367 24.7661 8.87585 23.3837 8.82926 21.6208C8.78266 19.7879 10.1806 18.3279 12.0056 18.2891C13.7608 18.258 15.2131 19.6792 15.2597 21.4732ZM13.5045 21.5431C13.52 20.7277 12.891 20.0753 12.0833 20.052C11.2756 20.0287 10.5922 20.6578 10.5766 21.4577C10.5533 22.2887 11.1824 22.9643 11.9979 22.9798C12.8211 22.9954 13.489 22.3586 13.5045 21.5431Z" fill="black"/>
</g>
<defs>
<clipPath id="clip0_359_2483">
<rect width="29.76" height="28.3932" fill="white"/>
</clipPath>
</defs>
</svg>
