<svg width="19" height="18" viewBox="0 0 19 18" fill="none" xmlns="http://www.w3.org/2000/svg">
<path d="M4.81524 0H1.28624C1.13029 0 0.980732 0.0619508 0.870461 0.172222C0.760189 0.282494 0.698242 0.432052 0.698242 0.587999V4.117C0.698242 4.27295 0.760189 4.42251 0.870461 4.53278C0.980732 4.64305 1.13029 4.705 1.28624 4.705H4.81524C4.97119 4.705 5.12075 4.64305 5.23102 4.53278C5.34129 4.42251 5.40324 4.27295 5.40324 4.117V0.587999C5.40324 0.432052 5.34129 0.282494 5.23102 0.172222C5.12075 0.0619508 4.97119 0 4.81524 0ZM4.22724 3.529H1.87424V1.176H4.22624L4.22724 3.529Z" fill="black"/>
<path d="M11.2845 0H7.75549C7.59955 0 7.44996 0.0619508 7.33969 0.172222C7.22942 0.282494 7.16748 0.432052 7.16748 0.587999V4.117C7.16748 4.27295 7.22942 4.42251 7.33969 4.53278C7.44996 4.64305 7.59955 4.705 7.75549 4.705H11.2845C11.3617 4.705 11.4382 4.68979 11.5095 4.66024C11.5808 4.63069 11.6457 4.58738 11.7003 4.53278C11.7549 4.47818 11.7982 4.41336 11.8277 4.34202C11.8573 4.27068 11.8725 4.19422 11.8725 4.117V0.587999C11.8725 0.510782 11.8573 0.434321 11.8277 0.362982C11.7982 0.291642 11.7549 0.226823 11.7003 0.172222C11.6457 0.117621 11.5808 0.0743095 11.5095 0.0447598C11.4382 0.01521 11.3617 0 11.2845 0ZM10.6965 3.529H8.34448V1.176H10.6965V3.529Z" fill="black"/>
<path d="M17.7532 0H14.2242C14.0683 0 13.9187 0.0619508 13.8084 0.172222C13.6982 0.282494 13.6362 0.432052 13.6362 0.587999V4.117C13.6362 4.27295 13.6982 4.42251 13.8084 4.53278C13.9187 4.64305 14.0683 4.705 14.2242 4.705H17.7532C17.9092 4.705 18.0587 4.64305 18.169 4.53278C18.2793 4.42251 18.3412 4.27295 18.3412 4.117V0.587999C18.3412 0.432052 18.2793 0.282494 18.169 0.172222C18.0587 0.0619508 17.9092 0 17.7532 0ZM17.1652 3.529H14.8132V1.176H17.1652V3.529Z" fill="black"/>
<path d="M4.81524 6.46899H1.28624C1.13029 6.46899 0.980732 6.53095 0.870461 6.64122C0.760189 6.75149 0.698242 6.90104 0.698242 7.05699V10.586C0.698242 10.7419 0.760189 10.8915 0.870461 11.0018C0.980732 11.112 1.13029 11.174 1.28624 11.174H4.81524C4.97119 11.174 5.12075 11.112 5.23102 11.0018C5.34129 10.8915 5.40324 10.7419 5.40324 10.586V7.05699C5.40324 6.90104 5.34129 6.75149 5.23102 6.64122C5.12075 6.53095 4.97119 6.46899 4.81524 6.46899ZM4.22724 9.998H1.87424V7.646H4.22624L4.22724 9.998Z" fill="black"/>
<path d="M11.2845 6.46899H7.75549C7.59955 6.46899 7.44996 6.53095 7.33969 6.64122C7.22942 6.75149 7.16748 6.90104 7.16748 7.05699V10.586C7.16748 10.7419 7.22942 10.8915 7.33969 11.0018C7.44996 11.112 7.59955 11.174 7.75549 11.174H11.2845C11.3617 11.174 11.4382 11.1588 11.5095 11.1292C11.5808 11.0997 11.6457 11.0564 11.7003 11.0018C11.7549 10.9472 11.7982 10.8823 11.8277 10.811C11.8573 10.7397 11.8725 10.6632 11.8725 10.586V7.05699C11.8725 6.97977 11.8573 6.90331 11.8277 6.83197C11.7982 6.76063 11.7549 6.69582 11.7003 6.64122C11.6457 6.58662 11.5808 6.5433 11.5095 6.51375C11.4382 6.4842 11.3617 6.46899 11.2845 6.46899ZM10.6965 9.998H8.34448V7.646H10.6965V9.998Z" fill="black"/>
<path d="M17.7532 6.46899H14.2242C14.0683 6.46899 13.9187 6.53095 13.8084 6.64122C13.6982 6.75149 13.6362 6.90104 13.6362 7.05699V10.586C13.6362 10.7419 13.6982 10.8915 13.8084 11.0018C13.9187 11.112 14.0683 11.174 14.2242 11.174H17.7532C17.9092 11.174 18.0587 11.112 18.169 11.0018C18.2793 10.8915 18.3412 10.7419 18.3412 10.586V7.05699C18.3412 6.90104 18.2793 6.75149 18.169 6.64122C18.0587 6.53095 17.9092 6.46899 17.7532 6.46899ZM17.1652 9.998H14.8132V7.646H17.1652V9.998Z" fill="black"/>
<path d="M4.81524 12.938H1.28624C1.13029 12.938 0.980732 12.9999 0.870461 13.1102C0.760189 13.2205 0.698242 13.3701 0.698242 13.526V17.055C0.698242 17.2109 0.760189 17.3605 0.870461 17.4708C0.980732 17.581 1.13029 17.643 1.28624 17.643H4.81524C4.97119 17.643 5.12075 17.581 5.23102 17.4708C5.34129 17.3605 5.40324 17.2109 5.40324 17.055V13.526C5.40324 13.3701 5.34129 13.2205 5.23102 13.1102C5.12075 12.9999 4.97119 12.938 4.81524 12.938ZM4.22724 16.467H1.87424V14.115H4.22624L4.22724 16.467Z" fill="black"/>
<path d="M11.2845 12.938H7.75549C7.59955 12.938 7.44996 12.9999 7.33969 13.1102C7.22942 13.2205 7.16748 13.3701 7.16748 13.526V17.055C7.16748 17.2109 7.22942 17.3605 7.33969 17.4708C7.44996 17.581 7.59955 17.643 7.75549 17.643H11.2845C11.3617 17.643 11.4382 17.6278 11.5095 17.5982C11.5808 17.5687 11.6457 17.5254 11.7003 17.4708C11.7549 17.4162 11.7982 17.3513 11.8277 17.28C11.8573 17.2087 11.8725 17.1322 11.8725 17.055V13.526C11.8725 13.4488 11.8573 13.3723 11.8277 13.301C11.7982 13.2296 11.7549 13.1648 11.7003 13.1102C11.6457 13.0556 11.5808 13.0123 11.5095 12.9828C11.4382 12.9532 11.3617 12.938 11.2845 12.938ZM10.6965 16.467H8.34448V14.115H10.6965V16.467Z" fill="black"/>
<path d="M17.7532 12.938H14.2242C14.0683 12.938 13.9187 12.9999 13.8084 13.1102C13.6982 13.2205 13.6362 13.3701 13.6362 13.526V17.055C13.6362 17.2109 13.6982 17.3605 13.8084 17.4708C13.9187 17.581 14.0683 17.643 14.2242 17.643H17.7532C17.9092 17.643 18.0587 17.581 18.169 17.4708C18.2793 17.3605 18.3412 17.2109 18.3412 17.055V13.526C18.3412 13.3701 18.2793 13.2205 18.169 13.1102C18.0587 12.9999 17.9092 12.938 17.7532 12.938ZM17.1652 16.467H14.8132V14.115H17.1652V16.467Z" fill="black"/>
</svg>
