<svg width="40" height="40" viewBox="0 0 40 40" fill="none" xmlns="http://www.w3.org/2000/svg">
<path d="M20 32.7257C27.0281 32.7257 32.7256 27.0283 32.7256 20.0001C32.7256 12.9719 27.0281 7.27441 20 7.27441C12.9718 7.27441 7.27429 12.9719 7.27429 20.0001C7.27429 27.0283 12.9718 32.7257 20 32.7257Z" fill="#838383"/>
<path d="M18.4631 5.2745H21.5368C21.7618 5.2745 21.9226 5.04943 21.8518 4.83723L20.315 0.22667C20.2121 -0.0755566 19.7813 -0.0755566 19.6848 0.22667L18.148 4.83723C18.0772 5.05586 18.238 5.2745 18.4631 5.2745Z" fill="#838383"/>
<path d="M21.5368 34.7256H18.4631C18.238 34.7256 18.0772 34.9506 18.148 35.1628L19.6848 39.7734C19.7877 40.0756 20.2185 40.0756 20.315 39.7734L21.8518 35.1628C21.9226 34.9442 21.7618 34.7256 21.5368 34.7256Z" fill="#838383"/>
<path d="M4.83723 18.1482L0.22667 19.6851C-0.0755566 19.7879 -0.0755566 20.2188 0.22667 20.3152L4.83723 21.8521C5.05586 21.9228 5.2745 21.7621 5.2745 21.537V18.4633C5.2745 18.2382 5.05586 18.0775 4.83723 18.1482Z" fill="#838383"/>
<path d="M8.49603 10.6696L10.6759 8.48967C10.8367 8.32891 10.7917 8.05883 10.5923 7.95595L6.23898 5.78892C5.94961 5.64745 5.64739 5.94968 5.79528 6.23261L7.96874 10.5795C8.0652 10.7917 8.33527 10.8367 8.49603 10.6696Z" fill="#838383"/>
<path d="M39.7732 19.6851L35.1626 18.1482C34.944 18.0775 34.7253 18.2382 34.7253 18.4633V21.537C34.7253 21.7621 34.9504 21.9228 35.1626 21.8521L39.7732 20.3152C40.0754 20.2124 40.0754 19.7879 39.7732 19.6851Z" fill="#838383"/>
<path d="M33.7609 5.78888L29.414 7.96234C29.2082 8.06523 29.1696 8.3353 29.3304 8.49606L31.5103 10.6759C31.6711 10.8367 31.9411 10.7917 32.044 10.5924L34.211 6.23901C34.3525 5.94964 34.0503 5.64741 33.7609 5.78888Z" fill="#838383"/>
<path d="M8.56043 29.3304C8.39967 29.1697 8.12959 29.2147 8.02671 29.414L5.85325 33.7609C5.71178 34.0503 6.01401 34.3525 6.29694 34.2046L10.6439 32.0312C10.8496 31.9283 10.8882 31.6582 10.7275 31.4974L8.56043 29.3304Z" fill="#838383"/>
<path d="M31.9732 29.414C31.8703 29.2082 31.6003 29.1696 31.4395 29.3304L29.2596 31.5039C29.0989 31.6646 29.1439 31.9347 29.3432 32.0376L33.6966 34.211C33.9859 34.3525 34.2882 34.0503 34.1403 33.7673L31.9732 29.414Z" fill="#838383"/>
</svg>
