<svg width="96" height="96" viewBox="0 0 96 96" fill="none" xmlns="http://www.w3.org/2000/svg">
<circle cx="47.6702" cy="48" r="47.668" fill="#24B9FF"/>
<path d="M72.3008 35.8178V49.0165C72.1744 48.4657 71.8267 47.9572 71.2683 47.6395L48.5542 34.5255C47.1108 33.6886 45.3093 34.7373 45.3093 36.4216V49.2708C45.2355 48.6246 44.8773 48.0102 44.2347 47.6395L21.5205 34.5255C20.0772 33.6886 18.2756 34.7373 18.2756 36.4216V62.7767C18.2756 64.4504 20.0877 65.5097 21.5311 64.6622L44.2452 51.4317C44.8773 51.061 45.2355 50.4466 45.3093 49.811V62.7873C45.3093 64.461 47.1214 65.5202 48.5647 64.6728L71.2789 51.4423C71.8267 51.1245 72.1639 50.6161 72.3008 50.0652V63.3593C72.3008 64.5245 73.249 65.4779 74.4079 65.4779H74.6186C75.7775 65.4779 76.7257 64.5245 76.7257 63.3593V35.8178C76.7257 34.6526 75.7775 33.6992 74.6186 33.6992H74.4079C73.2385 33.6992 72.3008 34.6526 72.3008 35.8178Z" fill="#28552E"/>
</svg>
