<svg xmlns="http://www.w3.org/2000/svg" width="20" height="20" viewBox="0 0 20 20">
  <g id="Group_61171" data-name="Group 61171" transform="translate(-727 -614)">
    <g id="Rectangle_2966" data-name="Rectangle 2966" transform="translate(727 614)" fill="#fff" stroke="#707070" stroke-width="1" opacity="0">
      <rect width="20" height="20" stroke="none"/>
      <rect x="0.5" y="0.5" width="19" height="19" fill="none"/>
    </g>
    <g id="noun_help_3485919" transform="translate(728.329 615.329)">
      <path id="Path_12233" data-name="Path 12233" d="M8.764,0a8.764,8.764,0,1,0,8.764,8.764A8.764,8.764,0,0,0,8.764,0Zm3.264,11.2a4.009,4.009,0,0,0,0-4.875l2.5-2.5a7.561,7.561,0,0,1,0,9.872ZM5.843,8.764a2.921,2.921,0,1,1,2.921,2.921A2.921,2.921,0,0,1,5.843,8.764ZM13.7,3,11.2,5.5a4.009,4.009,0,0,0-4.875,0L3.828,3A7.561,7.561,0,0,1,13.7,3ZM3,3.828l2.5,2.5a4.009,4.009,0,0,0,0,4.875L3,13.7A7.561,7.561,0,0,1,3,3.828Zm.826,10.7,2.5-2.5a4.009,4.009,0,0,0,4.875,0l2.5,2.5a7.561,7.561,0,0,1-9.872,0Z" fill="#262626" stroke="#262626" stroke-width="0.5"/>
    </g>
  </g>
</svg>
