<svg id="instagram" xmlns="http://www.w3.org/2000/svg" xmlns:xlink="http://www.w3.org/1999/xlink" width="36" height="36" viewBox="0 0 36 36">
  <defs>
    <radialGradient id="radial-gradient" cx="0.065" cy="0.978" r="1.27" gradientTransform="translate(0)" gradientUnits="objectBoundingBox">
      <stop offset="0.09" stop-color="#fa8f21"/>
      <stop offset="0.78" stop-color="#d82d7e"/>
    </radialGradient>
    <radialGradient id="radial-gradient-2" cx="0.693" cy="0.946" r="1.117" gradientTransform="translate(0)" gradientUnits="objectBoundingBox">
      <stop offset="0.64" stop-color="#8c3aaa" stop-opacity="0"/>
      <stop offset="1" stop-color="#8c3aaa"/>
    </radialGradient>
  </defs>
  <path id="Path_34249" data-name="Path 34249" d="M9.129,35.873a12.12,12.12,0,0,1-4.078-.755,6.822,6.822,0,0,1-2.525-1.642A6.77,6.77,0,0,1,.884,30.951a12.12,12.12,0,0,1-.755-4.078C.021,24.559,0,23.865,0,18s.024-6.557.127-8.873A12.189,12.189,0,0,1,.883,5.051,6.848,6.848,0,0,1,2.525,2.525,6.778,6.778,0,0,1,5.05.883,12.12,12.12,0,0,1,9.128.127C11.443.021,12.138,0,18,0s6.557.024,8.873.127A12.189,12.189,0,0,1,30.95.883a6.8,6.8,0,0,1,2.525,1.642A6.8,6.8,0,0,1,35.117,5.05a12.12,12.12,0,0,1,.755,4.078C35.979,11.444,36,12.137,36,18s-.021,6.557-.127,8.873a12.176,12.176,0,0,1-.755,4.078,7.27,7.27,0,0,1-4.167,4.166,12.12,12.12,0,0,1-4.078.755C24.558,35.979,23.863,36,18,36s-6.557-.02-8.871-.127" fill="url(#radial-gradient)"/>
  <path id="Path_34250" data-name="Path 34250" d="M9.129,35.873a12.12,12.12,0,0,1-4.078-.755,6.822,6.822,0,0,1-2.525-1.642A6.77,6.77,0,0,1,.884,30.951a12.12,12.12,0,0,1-.755-4.078C.021,24.559,0,23.865,0,18s.024-6.557.127-8.873A12.189,12.189,0,0,1,.883,5.051,6.848,6.848,0,0,1,2.525,2.525,6.778,6.778,0,0,1,5.05.883,12.12,12.12,0,0,1,9.128.127C11.443.021,12.138,0,18,0s6.557.024,8.873.127A12.189,12.189,0,0,1,30.95.883a6.8,6.8,0,0,1,2.525,1.642A6.8,6.8,0,0,1,35.117,5.05a12.12,12.12,0,0,1,.755,4.078C35.979,11.444,36,12.137,36,18s-.021,6.557-.127,8.873a12.176,12.176,0,0,1-.755,4.078,7.27,7.27,0,0,1-4.167,4.166,12.12,12.12,0,0,1-4.078.755C24.558,35.979,23.863,36,18,36s-6.557-.02-8.871-.127" fill="url(#radial-gradient-2)"/>
  <path id="Path_34251" data-name="Path 34251" d="M445.123,453.429a4.636,4.636,0,1,1,4.635,4.637,4.636,4.636,0,0,1-4.635-4.637m-2.506,0a7.142,7.142,0,1,0,7.142-7.142,7.142,7.142,0,0,0-7.142,7.142m12.9-7.425a1.669,1.669,0,1,0,1.67-1.668h0A1.67,1.67,0,0,0,455.515,446M444.14,464.75a7.69,7.69,0,0,1-2.583-.478,4.606,4.606,0,0,1-2.64-2.639,7.681,7.681,0,0,1-.478-2.583c-.067-1.466-.081-1.906-.081-5.621s.015-4.153.081-5.621a7.739,7.739,0,0,1,.478-2.583,4.6,4.6,0,0,1,2.64-2.64,7.678,7.678,0,0,1,2.583-.478c1.466-.067,1.907-.081,5.619-.081s4.154.014,5.621.081a7.739,7.739,0,0,1,2.583.478,4.6,4.6,0,0,1,2.64,2.64,7.681,7.681,0,0,1,.478,2.583c.067,1.467.081,1.906.081,5.621s-.013,4.154-.081,5.621a7.715,7.715,0,0,1-.478,2.583,4.605,4.605,0,0,1-2.64,2.639,7.681,7.681,0,0,1-2.583.478c-1.466.067-1.907.081-5.621.081s-4.153-.013-5.619-.081m-.115-25.146a10.2,10.2,0,0,0-3.376.646,7.112,7.112,0,0,0-4.068,4.068,10.2,10.2,0,0,0-.646,3.376c-.068,1.483-.084,1.957-.084,5.734s.016,4.251.084,5.734a10.2,10.2,0,0,0,.646,3.376,7.111,7.111,0,0,0,4.068,4.068,10.209,10.209,0,0,0,3.376.646c1.484.067,1.957.084,5.734.084s4.251-.016,5.734-.084a10.2,10.2,0,0,0,3.376-.646,7.111,7.111,0,0,0,4.068-4.068,10.173,10.173,0,0,0,.646-3.376c.067-1.484.083-1.957.083-5.734s-.016-4.251-.083-5.734a10.2,10.2,0,0,0-.646-3.376,7.114,7.114,0,0,0-4.067-4.068,10.188,10.188,0,0,0-3.376-.646c-1.483-.068-1.957-.084-5.734-.084s-4.252.016-5.735.084" transform="translate(-431.726 -435.361)" fill="#fff"/>
</svg>
