<svg xmlns="http://www.w3.org/2000/svg" width="20.017" height="21" viewBox="0 0 20.017 21">
  <g id="Invite_icon_-_Team_members" data-name="Invite icon - Team members" transform="translate(-5.79 -4.406)">
    <path id="Path_34629" data-name="Path 34629" d="M9.865,12.9a4.391,4.391,0,1,1,4.391,4.391A4.391,4.391,0,0,1,9.865,12.9Zm6.423,5.74H12.224a6.449,6.449,0,0,0-6.434,6.43.332.332,0,0,0,.335.335H22.386a.332.332,0,0,0,.335-.335,6.438,6.438,0,0,0-6.434-6.43ZM25.435,7.491H22.722V4.777a.335.335,0,1,0-.667,0V7.491H19.337a.335.335,0,0,0,0,.667h2.718v2.718a.335.335,0,0,0,.667,0V8.158h2.714a.335.335,0,1,0,0-.667Z" transform="translate(0)" fill="#989898"/>
  </g>
</svg>
