<svg xmlns="http://www.w3.org/2000/svg" width="24" height="24" viewBox="0 0 24 24">
  <g id="Navigation_-_Files" data-name="Navigation - Files" transform="translate(19699 5512)">
    <rect id="Rectangle_5301" data-name="Rectangle 5301" width="24" height="24" transform="translate(-19699 -5512)" fill="none"/>
    <g id="files-svgrepo-com" transform="translate(-19698 -5511)">
      <path id="Path_34166" data-name="Path 34166" d="M14.926,2H8.492a1.5,1.5,0,0,0-1.026.466A1.5,1.5,0,0,0,7,3.492V15.427a1.6,1.6,0,0,0,1.492,1.492H17.63a1.6,1.6,0,0,0,1.492-1.492V6.2Z" transform="translate(-0.27)" fill="none" stroke="#000" stroke-linecap="round" stroke-linejoin="round" stroke-width="1.5"/>
      <path id="Path_34167" data-name="Path 34167" d="M3,7.6V19.535a1.5,1.5,0,0,0,.466,1.026,1.5,1.5,0,0,0,1.026.466H13.63" transform="translate(0 -0.378)" fill="none" stroke="#000" stroke-linecap="round" stroke-linejoin="round" stroke-width="1.5"/>
      <path id="Path_34168" data-name="Path 34168" d="M15,2V6.662h4.662" transform="translate(-0.811)" fill="none" stroke="#000" stroke-linecap="round" stroke-linejoin="round" stroke-width="1.5"/>
    </g>
  </g>
</svg>
