<svg width="21" height="21" viewBox="0 0 21 21" fill="none" xmlns="http://www.w3.org/2000/svg">
<path d="M17.934 6.44899L19.845 4.53799C19.9474 4.43543 20.0049 4.29642 20.0049 4.15149C20.0049 4.00656 19.9474 3.86755 19.845 3.76499L17.021 0.940992C16.9184 0.838585 16.7794 0.781067 16.6345 0.781067C16.4896 0.781067 16.3506 0.838585 16.248 0.940992L14.337 2.85199L17.934 6.44899ZM13.052 4.13699L0 17.189V20.562C0 20.5908 0.00566445 20.6192 0.0166702 20.6458C0.027676 20.6724 0.0438043 20.6965 0.0641403 20.7169C0.0844764 20.7372 0.108623 20.7533 0.135193 20.7643C0.161763 20.7753 0.190235 20.781 0.218994 20.781H3.601L16.649 7.73299L13.052 4.13699Z" fill="#797979"/>
</svg>
