<svg xmlns="http://www.w3.org/2000/svg" width="20" height="20" viewBox="0 0 20 20">
  <g id="Link" transform="translate(-5023 1224.641)">
    <rect id="Rectangle_3041" data-name="Rectangle 3041" width="20" height="20" transform="translate(5023 -1224.641)" fill="none"/>
    <path id="link-svgrepo-com" d="M9.7,12.7a.893.893,0,0,0,0-1.264,2.51,2.51,0,0,1,0-3.55L12.7,4.876a2.51,2.51,0,1,1,3.55,3.55l-.93.929a.894.894,0,0,0,1.264,1.264l.93-.929a4.3,4.3,0,1,0-6.077-6.077L8.432,6.621a4.3,4.3,0,0,0,0,6.077.894.894,0,0,0,1.264,0ZM11.44,8.426a.893.893,0,0,0,0,1.264,2.51,2.51,0,0,1,0,3.55L8.462,16.218a2.51,2.51,0,1,1-3.549-3.55l.872-.872a.894.894,0,1,0-1.264-1.264L3.65,11.4a4.3,4.3,0,0,0,6.077,6.077L12.705,14.5a4.3,4.3,0,0,0,0-6.077.893.893,0,0,0-1.264,0Z" transform="translate(5022.109 -1225.495)" fill="#5773d1" stroke="#fff" stroke-width="0.3" fill-rule="evenodd"/>
  </g>
</svg>
