<svg xmlns="http://www.w3.org/2000/svg" width="24" height="24" viewBox="0 0 24 24">
  <g id="Arrow_2" data-name="Arrow 2" transform="translate(-22350 -17598) rotate(180)">
    <circle id="Ellipse_95" data-name="Ellipse 95" cx="12" cy="12" r="12" transform="translate(-22374 -17622)" fill="#959595"/>
    <g id="Page-1" transform="translate(-22365 -17615.998)">
      <g id="Dribbble-Light-Preview" transform="translate(0 -0.002)">
        <g id="icons">
          <path id="arrow_left-_335_" data-name="arrow_left-[#335]" d="M295.244,6519.171h0a.619.619,0,0,0-.86,0l-5.028,4.9a1.155,1.155,0,0,0,0,1.669l5.064,4.932a.625.625,0,0,0,.854.006h0a.586.586,0,0,0,.006-.847l-4.635-4.5a.584.584,0,0,1,0-.84l4.6-4.47a.584.584,0,0,0,0-.84" transform="translate(-290 -6518.998)" fill="#fff" fill-rule="evenodd"/>
        </g>
      </g>
    </g>
  </g>
</svg>
