<svg id="twitter" xmlns="http://www.w3.org/2000/svg" width="36" height="36" viewBox="0 0 36 36">
  <rect id="Rectangle_4974" data-name="Rectangle 4974" width="36" height="36" rx="6" fill="#1da1f2"/>
  <path id="Path_34243" data-name="Path 34243" d="M117.522,121.628a5.133,5.133,0,0,1-2.851.855,5.133,5.133,0,0,0,2.281-2.851,5.133,5.133,0,0,1-3.208,1.212,5.133,5.133,0,0,0-8.7,4.634A14.257,14.257,0,0,1,94.711,120.2a5.133,5.133,0,0,0,1.568,6.7A5.132,5.132,0,0,1,94,126.4a5.133,5.133,0,0,0,3.992,4.919,5.132,5.132,0,0,1-2.281.071,5.133,5.133,0,0,0,4.776,3.564A14.257,14.257,0,0,1,93,137.026a14.257,14.257,0,0,0,22.027-12.76,14.258,14.258,0,0,0,2.495-2.638" transform="translate(-86.371 -110.793)" fill="#fff"/>
</svg>
