<svg width="40" height="22" viewBox="0 0 40 22" fill="none" xmlns="http://www.w3.org/2000/svg">
<path d="M36.9719 1.44196V10.4254C36.8854 10.0505 36.6474 9.7044 36.2653 9.4881L20.721 0.562365C19.7332 -0.00720959 18.5004 0.706561 18.5004 1.85292V10.5984C18.4499 10.1586 18.2048 9.74045 17.765 9.4881L2.22062 0.562365C1.23288 -0.00720959 0 0.706561 0 1.85292V19.7909C0 20.9301 1.24009 21.651 2.22783 21.0743L17.7722 12.0692C18.2048 11.8169 18.4499 11.3987 18.5004 10.9661V19.7981C18.5004 20.9373 19.7404 21.6583 20.7282 21.0815L36.2725 12.0764C36.6474 11.8601 36.8782 11.5141 36.9719 11.1391V20.1875C36.9719 20.9805 37.6208 21.6294 38.4138 21.6294H38.558C39.3511 21.6294 40 20.9805 40 20.1875V1.44196C40 0.648882 39.3511 0 38.558 0H38.4138C37.6136 0 36.9719 0.648882 36.9719 1.44196Z" fill="#838383"/>
</svg>
