<svg xmlns="http://www.w3.org/2000/svg" width="26" height="20" viewBox="0 0 26 20">
  <g id="What_I_shared_-_share_" data-name="What I shared - share " transform="translate(20056 -11515)">
    <rect id="Rectangle_4978" data-name="Rectangle 4978" width="26" height="20" transform="translate(-20056 11515)" fill="none"/>
    <path id="share-05-svgrepo-com" d="M18.978,5.663h-2.84a6.616,6.616,0,0,0-2.807.29,2.663,2.663,0,0,0-1.164,1.164,6.615,6.615,0,0,0-.29,2.807v1.065m7.1-5.326L16.315,3m2.663,2.663L16.315,8.326M9.213,3H7.261a6.616,6.616,0,0,0-2.807.29A2.663,2.663,0,0,0,3.29,4.454,6.616,6.616,0,0,0,3,7.261v7.456a6.616,6.616,0,0,0,.29,2.807,2.663,2.663,0,0,0,1.164,1.164,6.615,6.615,0,0,0,2.807.29h7.456a6.615,6.615,0,0,0,2.807-.29,2.662,2.662,0,0,0,1.164-1.164,6.615,6.615,0,0,0,.29-2.807V12.764" transform="translate(-20053.988 11514.012)" fill="none" stroke="#000" stroke-linecap="round" stroke-linejoin="round" stroke-width="2"/>
  </g>
</svg>
