<svg xmlns="http://www.w3.org/2000/svg" width="40" height="49" viewBox="0 0 40 49">
  <g id="_104490_apple_icon" data-name="104490_apple_icon" transform="translate(-8.315 -4.374)">
    <path id="Path_34478" data-name="Path 34478" d="M41.725,30.441a11.083,11.083,0,0,1,5.3-9.322,11.491,11.491,0,0,0-8.984-4.847c-3.824-.387-7.465,2.244-9.405,2.244s-4.933-2.187-8.1-2.132a12.027,12.027,0,0,0-10.163,6.137C6.04,30.008,9.264,41.1,13.485,47.181c2.064,2.97,4.525,6.312,7.754,6.19,3.112-.122,4.286-2.005,8.048-2.005s4.818,2.005,8.11,1.943c3.347-.061,5.468-3.027,7.515-6.009a27.016,27.016,0,0,0,3.4-6.961A10.818,10.818,0,0,1,41.725,30.441Z"/>
    <path id="Path_34479" data-name="Path 34479" d="M35.582,12.229a10.852,10.852,0,0,0,2.561-7.855A11.025,11.025,0,0,0,30.9,8.1a10.318,10.318,0,0,0-2.611,7.613A9.134,9.134,0,0,0,35.582,12.229Z" transform="translate(-0.041)"/>
  </g>
</svg>
