<svg xmlns="http://www.w3.org/2000/svg" width="41.615" height="41.583" viewBox="0 0 41.615 41.583">
  <g id="_3251292_advanture_camp_camping_guitar_music_icon" data-name="3251292_advanture_camp_camping_guitar_music_icon" transform="translate(0.776 0.833)">
    <g id="Group_65566" data-name="Group 65566" transform="translate(0 8.557)">
      <g id="Group_65565" data-name="Group 65565">
        <path id="Path_34463" data-name="Path 34463" d="M16.661,40.088a7.905,7.905,0,0,1-1.59-.166C8.337,38.54,3.5,34.369.683,27.524a7.844,7.844,0,0,1,.037-6.49A8.1,8.1,0,0,1,6,16.911a11.357,11.357,0,0,1,3-.263,5.406,5.406,0,0,0,3.032-.5,5.006,5.006,0,0,0,1.125-2.477C13.615,12.036,14.184,10,16.2,9.1a7.1,7.1,0,0,1,7.658,1.852.746.746,0,0,1,.174.39.747.747,0,0,1,.486.275c.524.656,1.065,1.3,1.606,1.945a49.783,49.783,0,0,1,3.555,4.595,5.456,5.456,0,0,1,.82,4.552,5.806,5.806,0,0,1-3.375,3.572c-2.61,1.166-4,2.433-3.863,5.784A7.918,7.918,0,0,1,20.8,38.619,6.286,6.286,0,0,1,16.661,40.088ZM8.822,18.148a9.489,9.489,0,0,0-2.419.208,6.629,6.629,0,0,0-4.335,3.337,6.368,6.368,0,0,0,0,5.261c2.612,6.354,7.087,10.223,13.3,11.5a5.128,5.128,0,0,0,4.453-.978,6.464,6.464,0,0,0,1.935-5.347c-.167-4.152,1.778-5.887,4.75-7.214a4.343,4.343,0,0,0,2.547-2.626,3.933,3.933,0,0,0-.635-3.307,48.451,48.451,0,0,0-3.45-4.453c-.548-.653-1.1-1.307-1.627-1.971a.745.745,0,0,1-.158-.371.75.75,0,0,1-.471-.256,5.566,5.566,0,0,0-5.91-1.457c-1.368.606-1.774,2.063-2.2,3.6a5.967,5.967,0,0,1-1.647,3.256c-1.045.816-2.53.813-3.957.813C8.94,18.148,8.881,18.148,8.822,18.148Z" transform="translate(0 -8.645)" stroke="#000" stroke-width="1.5"/>
      </g>
    </g>
    <g id="Group_65568" data-name="Group 65568" transform="translate(22.064 0)">
      <g id="Group_65567" data-name="Group 65567">
        <path id="Path_34464" data-name="Path 34464" d="M23.61,12.517a.75.75,0,0,1-.495-1.314L35.68.186a.749.749,0,0,1,1.045.055L40.6,4.433a.75.75,0,0,1-.037,1.055,13.686,13.686,0,0,1-2.451,1.766,11.09,11.09,0,0,0-1.916,1.355.75.75,0,1,1-1.026-1.094,12.323,12.323,0,0,1,2.164-1.544A16.053,16.053,0,0,0,38.969,4.88L36.12,1.8,24.1,12.331A.748.748,0,0,1,23.61,12.517Z" transform="translate(-22.86 0)" stroke="#000" stroke-width="1.5"/>
      </g>
    </g>
    <g id="Group_65570" data-name="Group 65570" transform="translate(26.257 7.293)">
      <g id="Group_65569" data-name="Group 65569">
        <path id="Path_34465" data-name="Path 34465" d="M27.8,15.743a.75.75,0,0,1-.495-1.313L35.184,7.5a.759.759,0,0,1,.607-.179.751.751,0,0,1,.528.35l1.48,2.413a.75.75,0,0,1-1.279.785L35.5,9.215,28.3,15.557A.742.742,0,0,1,27.8,15.743Z" transform="translate(-27.053 -7.313)" stroke="#000" stroke-width="1.5"/>
      </g>
    </g>
    <g id="Group_65572" data-name="Group 65572" transform="translate(6.081 24.498)">
      <g id="Group_65571" data-name="Group 65571">
        <path id="Path_34466" data-name="Path 34466" d="M13.6,33.488a.748.748,0,0,1-.554-.244l-6.774-7.42a.75.75,0,1,1,1.108-1.012l6.774,7.42a.75.75,0,0,1-.554,1.256Z" transform="translate(-6.081 -24.567)" stroke="#000" stroke-width="1.5"/>
      </g>
    </g>
    <g id="Group_65574" data-name="Group 65574" transform="translate(28.688 1.335)">
      <g id="Group_65573" data-name="Group 65573">
        <path id="Path_34467" data-name="Path 34467" d="M32,4.773a.747.747,0,0,1-.531-.221L29.531,2.615a.75.75,0,1,1,1.062-1.06l1.936,1.938A.751.751,0,0,1,32,4.773Z" transform="translate(-29.312 -1.335)" stroke="#000" stroke-width="1.5"/>
      </g>
    </g>
    <g id="Group_65576" data-name="Group 65576" transform="translate(12.997 17.691)">
      <g id="Group_65575" data-name="Group 65575">
        <path id="Path_34468" data-name="Path 34468" d="M18.752,26.409q-.338,0-.7-.036c-3.3-.322-4.209-2.856-4.7-5.547a.753.753,0,0,1,.241-.7l2.424-2.147a.75.75,0,0,1,.658-.172,6.025,6.025,0,0,1,.836-.042,6.515,6.515,0,0,1,1.735.065c2.546.547,3.787,2.318,3.5,4.986A3.659,3.659,0,0,1,18.752,26.409ZM14.9,20.968c.558,2.695,1.446,3.731,3.294,3.913,1.919.187,2.86-.5,3.048-2.226.209-1.906-.528-2.972-2.318-3.356a5.288,5.288,0,0,0-1.339-.034c-.266.015-.544.037-.792.026Z" transform="translate(-13.336 -17.74)" stroke="#000" stroke-width="1.5"/>
      </g>
    </g>
  </g>
</svg>
