<svg xmlns="http://www.w3.org/2000/svg" width="41" height="34.985" viewBox="0 0 41 34.985">
  <g id="_3406425_animal_bunny_domestic_mammal_pet_icon" data-name="3406425_animal_bunny_domestic_mammal_pet_icon" transform="translate(-34.094 -63.435)">
    <path id="Path_34499" data-name="Path 34499" d="M74.593,77.905a3.5,3.5,0,1,0-6.994.138,12.567,12.567,0,0,0-7.473-.828,17.288,17.288,0,0,1-2.8.277l-1.445.026-.734.016a29.71,29.71,0,0,1-3.429-.05,9.253,9.253,0,0,1-3.482-1.057,1.585,1.585,0,0,1,.6-.932c4.636-2.475,7.468-5.99,8.188-10.166a.764.764,0,0,0-.291-.752c-.256-.194-.7-.345-2.083,0a13.751,13.751,0,0,0-1.8.592c-.258.113-.508.232-.752.354.018-.152.028-.295.037-.422.006-.086.011-.166.02-.24a.839.839,0,0,0-.147-.591c-.364-.506-1.145-.373-1.861-.176a11.555,11.555,0,0,0-1.683.619,6.741,6.741,0,0,0-3.015,3,24.889,24.889,0,0,0-1.208,3.5,9.155,9.155,0,0,1-.513,1.278,5.634,5.634,0,0,1-1.405,1.452,8.175,8.175,0,0,0-4.792,2.578l-1.755,1.929a2.619,2.619,0,0,0-1.181,2.186,4.789,4.789,0,0,0,.3,1.654,2.539,2.539,0,0,0,.826.9l.289.191a6.924,6.924,0,0,0,1.684.823l.092.03h0a8.045,8.045,0,0,0,1.733.329c.13.012.269.021.441.029.2.009.4.014.63.014.178,0,.36,0,.539-.015q.2-.01.4-.029a5.945,5.945,0,0,1,3.844,3.432,7.964,7.964,0,0,1,.665,3.238v3.135a3.117,3.117,0,0,0-2.277,2.977v.575H48.39l2.3-4.971a13.64,13.64,0,0,0,1.758.562,14.043,14.043,0,0,0,3.982.377c.161.138.327.268.5.389H53.4a3.1,3.1,0,0,0-3.133,3.07v.574H60.926a.581.581,0,0,0,.587-.575h0a.581.581,0,0,0-.587-.575H51.532A1.958,1.958,0,0,1,53.4,95.426h6.622a.585.585,0,0,0,.59-.578v-.023a.587.587,0,0,0-.539-.576,5.239,5.239,0,0,1-2.9-1.256l-.034-.029a5.115,5.115,0,0,1-1.346-1.9,4.943,4.943,0,0,1-.255-.842c-.006-.027-.011-.054-.017-.088a4.968,4.968,0,0,1-.087-.929,5.124,5.124,0,0,1,4.652-5.05.575.575,0,0,0,.529-.564v-.018A.574.574,0,0,0,59.977,83a6.285,6.285,0,0,0-5.719,6.2,6.071,6.071,0,0,0,.106,1.134c.006.036.014.072.022.112A6.058,6.058,0,0,0,54.7,91.48a6.17,6.17,0,0,0,.692,1.265,12.3,12.3,0,0,1-4.491-.959l-.008,0a.9.9,0,0,0-1.067.29l-.039.052-2.152,4.644H45.02a1.991,1.991,0,0,1,1.9-1.376h.39a.581.581,0,0,0,.587-.575h0a.581.581,0,0,0-.587-.575h-.1V91.233a9.087,9.087,0,0,0-.762-3.7,6.942,6.942,0,0,0-2.958-3.36,10.008,10.008,0,0,0,1.363-.521l.079-.037a.57.57,0,0,0,.276-.767h0a.593.593,0,0,0-.783-.271l-.08.038a8.811,8.811,0,0,1-3.279.822c-.158.009-.318.013-.475.013-.207,0-.4,0-.573-.012-.154-.008-.278-.016-.394-.026a6.8,6.8,0,0,1-1.557-.3l-.034-.011a5.749,5.749,0,0,1-1.33-.651,2.311,2.311,0,0,0,.763-.846,2.231,2.231,0,0,0-.51-2.726l1.451-1.6A6.951,6.951,0,0,1,43.347,75l.191,0h.852a1.452,1.452,0,0,0,1.5-1.037,13.445,13.445,0,0,1,7.441-7.742,11.372,11.372,0,0,1,2.466-.7c-.769,3.691-3.3,6.7-7.518,8.957-1.1.589-1.377,2.224-1.442,3.146a3.571,3.571,0,0,0,0,.375.585.585,0,0,0,.707.543h0a.577.577,0,0,0,.466-.586,2.471,2.471,0,0,1,0-.253c0-.033.006-.066.008-.1a10.426,10.426,0,0,0,3.593,1.019,30.963,30.963,0,0,0,3.568.055l.728-.016,1.445-.026a18.494,18.494,0,0,0,2.994-.3,10.821,10.821,0,0,1,8.719,1.934,8.462,8.462,0,0,1,3.2,6.555q0,.111,0,.223a9.813,9.813,0,0,1-9.362,9.7.578.578,0,0,0-.55.574h0a.583.583,0,0,0,.62.575A10.975,10.975,0,0,0,73.437,87.057q0-.125,0-.249a9.714,9.714,0,0,0-1.849-5.571,3.5,3.5,0,0,0,2.273-1.291A3.373,3.373,0,0,0,74.593,77.905ZM36.114,79.688a1.091,1.091,0,0,1,.379.529,1.1,1.1,0,0,1-.073.864,1.159,1.159,0,0,1-.54.51,5.17,5.17,0,0,1-.113-.956A1.467,1.467,0,0,1,36.114,79.688Zm8.642-6.033a.279.279,0,0,1-.294.2h-.307a3.664,3.664,0,0,0,.64-.883,10.263,10.263,0,0,0,.57-1.425A25.543,25.543,0,0,1,46.5,68.235a5.673,5.673,0,0,1,2.477-2.483,9.12,9.12,0,0,1,1.985-.662,2.065,2.065,0,0,1-.48,1.373A14.256,14.256,0,0,0,44.757,73.655Zm24.016,4.337a2.293,2.293,0,0,1,1.964-2.4,1.876,1.876,0,0,1,.59,1.242,1.856,1.856,0,0,1-.475,1.371,1.934,1.934,0,0,1-1.327.641,1.965,1.965,0,0,1-.53-.038L68.98,78.8A2.227,2.227,0,0,1,68.772,77.992Zm4.07,1.354a2.33,2.33,0,0,1-1.6.771,2.377,2.377,0,0,1-.678-.055q-.107-.105-.218-.207a3.094,3.094,0,0,0,1.385-.892,2.986,2.986,0,0,0,.578-3.06,2.272,2.272,0,0,1,1.1,1.791A2.235,2.235,0,0,1,72.842,79.345Z" transform="translate(0 0)" stroke="#000" stroke-width="1"/>
    <path id="Path_34500" data-name="Path 34500" d="M89.153,214.086a.525.525,0,1,0,.658.348A.524.524,0,0,0,89.153,214.086Z" transform="translate(-48.881 -136.895)" stroke="#000" stroke-width="1"/>
  </g>
</svg>
