<svg xmlns="http://www.w3.org/2000/svg" width="41" height="35" viewBox="0 0 41 35">
  <path id="_8664959_car_rear_icon" data-name="8664959_car_rear_icon" d="M12.922,32H27.078a7.489,7.489,0,0,1,7.078,4.879l2.75,7.628A4.868,4.868,0,0,1,40,49v6.071a4.825,4.825,0,0,1-2.5,4.2v4.3A2.462,2.462,0,0,1,35,66H32.5A2.462,2.462,0,0,1,30,63.571V59.929H10v3.643A2.462,2.462,0,0,1,7.5,66H5a2.464,2.464,0,0,1-2.5-2.429v-4.3a4.821,4.821,0,0,1-2.5-4.2V49a4.863,4.863,0,0,1,3.095-4.493l2.749-7.628A7.487,7.487,0,0,1,12.922,32Zm0,4.857a2.5,2.5,0,0,0-2.359,1.624L8.523,44.143H31.477l-2.039-5.662a2.5,2.5,0,0,0-2.359-1.624ZM16.25,50.214A1.236,1.236,0,0,0,15,51.429v2.429a1.236,1.236,0,0,0,1.25,1.214h7.5A1.236,1.236,0,0,0,25,53.857V51.429a1.236,1.236,0,0,0-1.25-1.214ZM5.625,52.643h2.5a1.822,1.822,0,1,0,0-3.643h-2.5a1.822,1.822,0,1,0,0,3.643ZM31.875,49a1.822,1.822,0,1,0,0,3.643h2.5a1.822,1.822,0,1,0,0-3.643Z" transform="translate(0.5 -31.5)" stroke="#000" stroke-width="1"/>
</svg>
