<svg xmlns="http://www.w3.org/2000/svg" width="31" height="41.025" viewBox="0 0 31 41.025">
  <path id="_8665433_fire_flame_curved_icon" data-name="8665433_fire_flame_curved_icon" d="M30,24.911a15,15,0,1,1-30,.07A15.315,15.315,0,0,1,4.263,14.5,1.844,1.844,0,0,1,7.5,15.724V22.4a5.047,5.047,0,0,0,4.934,5.073,4.992,4.992,0,0,0,5.066-5c0-6.875-13.68-7.509-4.074-21.655a1.879,1.879,0,0,1,3.449,1.018C16.8,9.9,30,11.677,30,24.911Z" transform="translate(0.5 0.544)" stroke="#000" stroke-width="1"/>
</svg>
