<svg xmlns="http://www.w3.org/2000/svg" width="51" height="41" viewBox="0 0 51 41">
  <path id="_8665779_link_connection_icon" data-name="8665779_link_connection_icon" d="M46.765,3.235A11.132,11.132,0,0,0,38.953,0a11,11,0,0,0-7.809,3.235L27.756,6.623A13.5,13.5,0,0,1,31.03,8.968c.246.246.461.509.683.769l2.966-2.966A5.893,5.893,0,0,1,38.953,5a6.045,6.045,0,0,1,4.274,10.319L32.813,25.733A6.283,6.283,0,0,1,28.546,27.5,6.047,6.047,0,0,1,24.2,17.179l.347-.273a3.6,3.6,0,0,0-.586-.867,3.531,3.531,0,0,0-4.977-.026A11.022,11.022,0,0,0,36.356,29.265L46.765,18.852A11.014,11.014,0,0,0,50,10.781,10.88,10.88,0,0,0,46.765,3.235ZM18.281,30.266,15.32,33.227A6.291,6.291,0,0,1,11.047,35,6.045,6.045,0,0,1,6.773,24.681L17.186,14.267a6.039,6.039,0,0,1,8.541,0,6.045,6.045,0,0,1,0,8.548l-.274.275a3.484,3.484,0,0,0,5.563.893,11.012,11.012,0,0,0-1.749-13.25A11.133,11.133,0,0,0,21.453,7.5a11,11,0,0,0-7.8,3.234L3.235,21.148A11.044,11.044,0,0,0,18.856,36.765l3.387-3.388a13.5,13.5,0,0,1-3.274-2.345C18.718,30.789,18.508,30.523,18.281,30.266Z" transform="translate(0.5 0.5)" stroke="#000" stroke-width="1"/>
</svg>
