<svg id="_8678526_bug_line_insect_icon" data-name="8678526_bug_line_insect_icon" xmlns="http://www.w3.org/2000/svg" width="40" height="40" viewBox="0 0 40 40">
  <path id="Path_34471" data-name="Path 34471" d="M0,0H40V40H0Z" fill="none"/>
  <path id="Path_34472" data-name="Path 34472" d="M18.729,29.223a7.607,7.607,0,0,0,6.083-7.452V17.208a7.574,7.574,0,0,0-.631-3.042H10.235A7.574,7.574,0,0,0,9.6,17.208v4.563a7.607,7.607,0,0,0,6.082,7.452V20.25h3.042ZM7.378,25.862a10.614,10.614,0,0,1-.815-4.091H2V18.729H6.562V17.208a10.661,10.661,0,0,1,.379-2.823L3.576,12.442,5.1,9.808l3.072,1.773q.145-.232.3-.456H25.946c.1.149.205.3.3.456L29.32,9.808l1.521,2.634-3.366,1.944a10.653,10.653,0,0,1,.379,2.823v1.521h4.563v3.042H27.854a10.586,10.586,0,0,1-.815,4.091l3.8,2.2L29.32,30.692l-3.842-2.217a10.647,10.647,0,0,1-16.541,0L5.1,30.692,3.576,28.058l3.8-2.195ZM11.125,8.083a6.083,6.083,0,1,1,12.167,0Z" transform="translate(2.792 2.792)"/>
</svg>
