<svg xmlns="http://www.w3.org/2000/svg" width="24" height="40" viewBox="0 0 24 40">
  <g id="_9004776_smart_watch_clock_time_icon" data-name="9004776_smart_watch_clock_time_icon" transform="translate(-5)">
    <path id="Path_34482" data-name="Path 34482" d="M21.662,3.446V5.169H8V3.446A3.441,3.441,0,0,1,11.415,0h6.831a3.441,3.441,0,0,1,3.415,3.446Z" transform="translate(2.169)"/>
    <path id="Path_34483" data-name="Path 34483" d="M21.662,21v1.723a3.441,3.441,0,0,1-3.415,3.446H11.415A3.441,3.441,0,0,1,8,22.723V21Z" transform="translate(2.169 13.831)"/>
    <path id="Path_34484" data-name="Path 34484" d="M25.571,5H8.429A3.344,3.344,0,0,0,5,8.253V24.517A3.344,3.344,0,0,0,8.429,27.77H25.571A3.344,3.344,0,0,0,29,24.517V8.253A3.344,3.344,0,0,0,25.571,5ZM21.641,20.788a1.78,1.78,0,0,1-2.424,0l-3.429-3.253a1.585,1.585,0,0,1-.5-1.15V11.506a1.717,1.717,0,0,1,3.429,0v4.206l2.926,2.776A1.568,1.568,0,0,1,21.641,20.788Z" transform="translate(0 3.615)"/>
  </g>
</svg>
