<svg id="_9039985_calendar2_check_icon" data-name="9039985_calendar2_check_icon" xmlns="http://www.w3.org/2000/svg" width="40" height="40" viewBox="0 0 40 40">
  <path id="Path_34450" data-name="Path 34450" d="M18.612,8.359a1.224,1.224,0,0,1,0,1.734l-7.346,7.346a1.224,1.224,0,0,1-1.734,0L5.858,13.766a1.226,1.226,0,1,1,1.734-1.734L10.4,14.841l6.479-6.482a1.224,1.224,0,0,1,1.734,0Z" transform="translate(8.397 12.135)"/>
  <path id="Path_34451" data-name="Path 34451" d="M8.75,0A1.25,1.25,0,0,1,10,1.25V2.5H30V1.25a1.25,1.25,0,0,1,2.5,0V2.5H35a5,5,0,0,1,5,5V35a5,5,0,0,1-5,5H5a5,5,0,0,1-5-5V7.5a5,5,0,0,1,5-5H7.5V1.25A1.25,1.25,0,0,1,8.75,0ZM5,5A2.5,2.5,0,0,0,2.5,7.5V35A2.5,2.5,0,0,0,5,37.5H35A2.5,2.5,0,0,0,37.5,35V7.5A2.5,2.5,0,0,0,35,5Z"/>
  <path id="Path_34452" data-name="Path 34452" d="M2.5,4.724A1.243,1.243,0,0,1,3.762,3.5H28.994a1.243,1.243,0,0,1,1.262,1.224V7.173A1.243,1.243,0,0,1,28.994,8.4H3.762A1.243,1.243,0,0,1,2.5,7.173Z" transform="translate(3.622 5.276)"/>
</svg>
