<svg xmlns="http://www.w3.org/2000/svg" width="41" height="34.854" viewBox="0 0 41 34.854">
  <path id="_9040022_briefcase_icon" data-name="9040022_briefcase_icon" d="M16.25,1A3.83,3.83,0,0,0,12.5,4.906v1.3H3.75A3.83,3.83,0,0,0,0,10.114V30.947a3.83,3.83,0,0,0,3.75,3.906h32.5A3.83,3.83,0,0,0,40,30.947V10.114a3.83,3.83,0,0,0-3.75-3.906H27.5v-1.3A3.83,3.83,0,0,0,23.75,1Zm0,2.6h7.5A1.277,1.277,0,0,1,25,4.906v1.3H15v-1.3A1.277,1.277,0,0,1,16.25,3.6Zm4.715,18L37.5,17.018V30.947a1.277,1.277,0,0,1-1.25,1.3H3.75a1.277,1.277,0,0,1-1.25-1.3V17.015l16.535,4.594a3.605,3.605,0,0,0,1.93,0ZM3.75,8.812h32.5a1.277,1.277,0,0,1,1.25,1.3v4.208L20.322,19.093a1.2,1.2,0,0,1-.645,0L2.5,14.323V10.114a1.277,1.277,0,0,1,1.25-1.3Z" transform="translate(0.5 -0.5)" stroke="#000" stroke-width="1"/>
</svg>
