<svg xmlns="http://www.w3.org/2000/svg" width="25.5" height="40.5" viewBox="0 0 25.5 40.5">
  <g id="_9040463_mic_icon" data-name="9040463_mic_icon" transform="translate(-2.75 0.25)">
    <path id="Path_34445" data-name="Path 34445" d="M4.25,6.5A1.25,1.25,0,0,1,5.5,7.75v2.5a10,10,0,1,0,20,0V7.75a1.25,1.25,0,1,1,2.5,0v2.5A12.5,12.5,0,0,1,16.75,22.688V27.75h7.5a1.25,1.25,0,0,1,0,2.5H6.75a1.25,1.25,0,1,1,0-2.5h7.5V22.687A12.5,12.5,0,0,1,3,10.25V7.75A1.25,1.25,0,0,1,4.25,6.5Z" transform="translate(0 9.75)" stroke="#000" stroke-width="0.5"/>
    <path id="Path_34446" data-name="Path 34446" d="M17.5,20a5,5,0,0,1-10,0V7.5a5,5,0,0,1,10,0Zm-5-20A7.5,7.5,0,0,0,5,7.5V20a7.5,7.5,0,0,0,15,0V7.5A7.5,7.5,0,0,0,12.5,0Z" transform="translate(3)" stroke="#000" stroke-width="0.5"/>
  </g>
</svg>
