<svg xmlns="http://www.w3.org/2000/svg" width="36.908" height="41" viewBox="0 0 36.908 41">
  <path id="_9040343_handbag_icon" data-name="9040343_handbag_icon" d="M18.766,2.5a5,5,0,0,1,5,5v5h-10v-5A5,5,0,0,1,18.766,2.5Zm7.5,10v-5a7.5,7.5,0,1,0-15,0v5h-4.1a3.75,3.75,0,0,0-3.707,3.192L.891,32.825A6.25,6.25,0,0,0,7.071,40H30.459a6.25,6.25,0,0,0,6.183-7.175l-2.57-17.133a3.75,3.75,0,0,0-3.7-3.193Zm-2.5,2.5v3.75a1.25,1.25,0,0,0,2.5,0V15h4.1A1.25,1.25,0,0,1,31.6,16.065l2.57,17.128A3.75,3.75,0,0,1,30.461,37.5H7.071a3.75,3.75,0,0,1-3.708-4.308l2.57-17.127A1.25,1.25,0,0,1,7.166,15h4.1v3.75a1.25,1.25,0,0,0,2.5,0V15Z" transform="translate(-0.312 0.5)" stroke="#000" stroke-width="1"/>
</svg>
