<svg xmlns="http://www.w3.org/2000/svg" width="49.031" height="41" viewBox="0 0 49.031 41">
  <path id="_9040339_folder2_open_icon" data-name="9040339_folder2_open_icon" d="M2.777,6.615A4.6,4.6,0,0,1,7.353,2h8.432a9.647,9.647,0,0,1,7.05,3.643c1.251,1.428,2.761,2.511,4.347,2.511H40.91a4.6,4.6,0,0,1,4.576,4.615v1.969A4.619,4.619,0,0,1,48.1,19.5L46.145,35.261A7.649,7.649,0,0,1,38.57,42H9.69A7.65,7.65,0,0,1,2.121,35.26L.169,19.5a4.623,4.623,0,0,1,2.608-4.757Zm3.051,7.692H42.435V12.769a1.532,1.532,0,0,0-1.525-1.538H27.182c-2.941,0-5.217-1.935-6.632-3.551a6.666,6.666,0,0,0-4.765-2.6H7.353A1.532,1.532,0,0,0,5.828,6.615Zm-1.12,3.077a1.52,1.52,0,0,0-1.143.52,1.547,1.547,0,0,0-.37,1.209L5.148,34.88A4.59,4.59,0,0,0,9.69,38.923H38.573a4.59,4.59,0,0,0,4.542-4.043l1.952-15.766A1.547,1.547,0,0,0,44.7,17.9a1.52,1.52,0,0,0-1.143-.52Z" transform="translate(0.383 -1.5)" stroke="#000" stroke-width="1"/>
</svg>
