<svg xmlns="http://www.w3.org/2000/svg" width="40" height="40" viewBox="0 0 40 40">
  <g id="_9040800_vector_pen_icon" data-name="9040800_vector_pen_icon" transform="translate(-1.254 -0.499)">
    <path id="Path_34457" data-name="Path 34457" d="M27.623.912a1.4,1.4,0,0,1,1.988,0L40.842,12.142a1.4,1.4,0,0,1,0,1.988L35.5,19.47l-2.328,9.3A4.211,4.211,0,0,1,30.3,31.784L1.254,40.5,9.969,11.451a4.211,4.211,0,0,1,3.01-2.872l9.3-2.325ZM22.57,9.076,13.661,11.3a1.4,1.4,0,0,0-1.005.96L5.44,36.31l24.053-7.216a1.4,1.4,0,0,0,.955-1l2.229-8.911L22.57,9.073Z" transform="translate(0 0)" fill-rule="evenodd"/>
    <path id="Path_34458" data-name="Path 34458" d="M2.984,24.211,17.265,12.527A2.763,2.763,0,1,0,14.5,9.763L2.818,24.045l-.072.238.238-.072Z" transform="translate(2.631 12.094)" fill-rule="evenodd"/>
  </g>
</svg>
