<svg id="_9040166_dice_icon" data-name="9040166_dice_icon" xmlns="http://www.w3.org/2000/svg" width="40" height="40" viewBox="0 0 40 40">
  <path id="Path_34461" data-name="Path 34461" d="M32.5,2.5a5,5,0,0,1,5,5v25a5,5,0,0,1-5,5H7.5a5,5,0,0,1-5-5V7.5a5,5,0,0,1,5-5ZM7.5,0A7.5,7.5,0,0,0,0,7.5v25A7.5,7.5,0,0,0,7.5,40h25A7.5,7.5,0,0,0,40,32.5V7.5A7.5,7.5,0,0,0,32.5,0Z"/>
  <path id="Path_34462" data-name="Path 34462" d="M9.972,6.236A3.736,3.736,0,1,1,6.236,2.5,3.736,3.736,0,0,1,9.972,6.236Zm19.925,0A3.736,3.736,0,1,1,26.161,2.5,3.736,3.736,0,0,1,29.9,6.236Zm0,19.925a3.736,3.736,0,1,1-3.736-3.736A3.736,3.736,0,0,1,29.9,26.161Zm0-9.963a3.736,3.736,0,1,1-3.736-3.736A3.736,3.736,0,0,1,29.9,16.2ZM9.972,26.161a3.736,3.736,0,1,1-3.736-3.736A3.736,3.736,0,0,1,9.972,26.161Zm0-9.963a3.736,3.736,0,1,1-3.736-3.736A3.736,3.736,0,0,1,9.972,16.2Z" transform="translate(3.801 3.801)"/>
</svg>
