<svg xmlns="http://www.w3.org/2000/svg" width="39.09" height="41" viewBox="0 0 39.09 41">
  <path id="_9040751_signpost_2_icon" data-name="9040751_signpost_2_icon" d="M17.049,2.98v1.5H4.167A2.571,2.571,0,0,0,1.591,7.051v5.133A2.571,2.571,0,0,0,4.167,14.75H17.049v2.566H5.456a2.58,2.58,0,0,0-2.061,1.027L.883,21.679a1.279,1.279,0,0,0,0,1.54l2.512,3.336a2.58,2.58,0,0,0,2.061,1.027H17.049V40.414H22.2V27.582H35.083a2.571,2.571,0,0,0,2.576-2.566V19.883a2.571,2.571,0,0,0-2.576-2.566H22.2V14.75H33.794a2.58,2.58,0,0,0,2.061-1.027l2.512-3.336a1.279,1.279,0,0,0,0-1.54L35.856,5.511a2.58,2.58,0,0,0-2.061-1.027H22.2V2.98a2.576,2.576,0,0,0-5.153,0Zm16.746,4.07,1.932,2.566-1.932,2.566H4.167V7.051Zm1.288,12.832v5.133H5.456L3.523,22.449l1.932-2.566Z" transform="translate(-0.08 0.086)" stroke="#000" stroke-width="1"/>
</svg>
