<svg xmlns="http://www.w3.org/2000/svg" width="30" height="40" viewBox="0 0 30 40">
  <g id="_9040514_music_player_icon" data-name="9040514_music_player_icon" transform="translate(-2)">
    <path id="Path_34447" data-name="Path 34447" d="M4,4.5A2.5,2.5,0,0,1,6.5,2h15A2.5,2.5,0,0,1,24,4.5V12a2.5,2.5,0,0,1-2.5,2.5H6.5A2.5,2.5,0,0,1,4,12Zm2.5,0V12h15V4.5ZM14,27a2.5,2.5,0,1,0-2.5-2.5A2.5,2.5,0,0,0,14,27Z" transform="translate(3 3)"/>
    <path id="Path_34448" data-name="Path 34448" d="M20,15.5A7.5,7.5,0,1,1,12.5,8,7.5,7.5,0,0,1,20,15.5Zm-7.5,5a5,5,0,1,0-5-5A5,5,0,0,0,12.5,20.5Z" transform="translate(4.5 12)"/>
    <path id="Path_34449" data-name="Path 34449" d="M2,5A5,5,0,0,1,7,0H27a5,5,0,0,1,5,5V35a5,5,0,0,1-5,5H7a5,5,0,0,1-5-5ZM7,2.5A2.5,2.5,0,0,0,4.5,5V35A2.5,2.5,0,0,0,7,37.5H27A2.5,2.5,0,0,0,29.5,35V5A2.5,2.5,0,0,0,27,2.5Z"/>
  </g>
</svg>
