<svg xmlns="http://www.w3.org/2000/svg" width="54" height="41.079" viewBox="0 0 54 41.079">
  <path id="_9040828_truck_icon" data-name="9040828_truck_icon" d="M0,7A4.984,4.984,0,0,1,4.969,2H34.781A4.984,4.984,0,0,1,39.75,7v5h3.379A4.958,4.958,0,0,1,47,13.872l4.906,6.164A5.017,5.017,0,0,1,53,23.162v7.161a4.984,4.984,0,0,1-4.969,5H46.375a6.625,6.625,0,1,1-13.25,0H16.562a6.671,6.671,0,0,1-3.39,5.83,6.591,6.591,0,0,1-6.713-.144,6.675,6.675,0,0,1-3.141-5.97A5,5,0,0,1,0,30.323ZM4.286,31.843a6.6,6.6,0,0,1,11.388.147H34.013a6.678,6.678,0,0,1,2.425-2.439V7a1.661,1.661,0,0,0-1.656-1.666H4.969A1.661,1.661,0,0,0,3.312,7V30.323a1.667,1.667,0,0,0,.974,1.519ZM39.75,28.657a6.618,6.618,0,0,1,5.737,3.332h2.544a1.661,1.661,0,0,0,1.656-1.666V23.159a1.672,1.672,0,0,0-.364-1.04l-4.9-6.164a1.653,1.653,0,0,0-1.292-.626H39.75ZM9.937,31.989a3.332,3.332,0,1,0,3.313,3.332A3.322,3.322,0,0,0,9.937,31.989Zm29.812,0a3.332,3.332,0,1,0,3.313,3.332A3.322,3.322,0,0,0,39.75,31.989Z" transform="translate(0.5 -1.5)" stroke="#000" stroke-width="1"/>
</svg>
