<svg xmlns="http://www.w3.org/2000/svg" width="38.657" height="41.443" viewBox="0 0 38.657 41.443">
  <path id="bell_icon" d="M18.675,40.4a5.05,5.05,0,0,0,5.05-5.05h-10.1A5.05,5.05,0,0,0,18.675,40.4Zm0-35.557-2.012.407a10.1,10.1,0,0,0-8.088,9.9A54.8,54.8,0,0,1,7.416,24.6a32.663,32.663,0,0,1-1.674,5.7H31.608a32.817,32.817,0,0,1-1.674-5.7,54.8,54.8,0,0,1-1.159-9.448,10.1,10.1,0,0,0-8.088-9.9l-2.012-.412ZM34.38,30.3a6.425,6.425,0,0,0,1.969,2.525H1A6.425,6.425,0,0,0,2.969,30.3c2.272-4.545,3.08-12.928,3.08-15.15A12.629,12.629,0,0,1,16.162,2.776a2.525,2.525,0,1,1,5.025,0A12.63,12.63,0,0,1,31.3,15.151C31.3,17.373,32.108,25.756,34.38,30.3Z" transform="translate(0.654 0.542)" stroke="#000" stroke-width="1"/>
</svg>
