<svg xmlns="http://www.w3.org/2000/svg" width="38.713" height="31.904" viewBox="0 0 38.713 31.904">
  <path id="book_icon" d="M2.357,5.45a29.555,29.555,0,0,1,7.986-2.1c3.135-.316,5.794.148,7.335,1.773V28.09A12.932,12.932,0,0,0,10.1,26.927a31.52,31.52,0,0,0-7.748,1.912V5.45Zm17.678-.332c1.542-1.624,4.2-2.088,7.335-1.773a29.555,29.555,0,0,1,7.986,2.1V28.839a31.338,31.338,0,0,0-7.748-1.909,12.892,12.892,0,0,0-7.573,1.16ZM18.856,2.987C16.535.99,13.169.693,10.1,1A32.1,32.1,0,0,0,.691,3.6,1.179,1.179,0,0,0,0,4.677V30.6a1.179,1.179,0,0,0,1.666,1.072,29.839,29.839,0,0,1,8.674-2.4c3.321-.335,6.1.205,7.6,2.067a1.179,1.179,0,0,0,1.839,0c1.492-1.862,4.276-2.4,7.594-2.067a29.813,29.813,0,0,1,8.676,2.4A1.179,1.179,0,0,0,37.713,30.6V4.677A1.179,1.179,0,0,0,37.022,3.6,32.1,32.1,0,0,0,27.608,1C24.544.691,21.178.99,18.856,2.987Z" transform="translate(0.5 -0.393)" stroke="#000" stroke-width="1"/>
</svg>
