<svg xmlns="http://www.w3.org/2000/svg" width="41.5" height="41.5" viewBox="0 0 41.5 41.5">
  <path id="brightness_high_icon" d="M20,27.5A7.5,7.5,0,1,1,27.5,20,7.5,7.5,0,0,1,20,27.5ZM20,30A10,10,0,1,0,10,20,10,10,0,0,0,20,30ZM20,0a1.25,1.25,0,0,1,1.25,1.25v5a1.25,1.25,0,0,1-2.5,0v-5A1.25,1.25,0,0,1,20,0Zm0,32.5a1.25,1.25,0,0,1,1.25,1.25v5a1.25,1.25,0,0,1-2.5,0v-5A1.25,1.25,0,0,1,20,32.5ZM40,20a1.25,1.25,0,0,1-1.25,1.25h-5a1.25,1.25,0,0,1,0-2.5h5A1.25,1.25,0,0,1,40,20ZM7.5,20a1.25,1.25,0,0,1-1.25,1.25h-5a1.25,1.25,0,0,1,0-2.5h5A1.25,1.25,0,0,1,7.5,20ZM34.142,5.858a1.25,1.25,0,0,1,0,1.767l-3.535,3.538a1.251,1.251,0,0,1-1.767-1.77l3.535-3.535a1.25,1.25,0,0,1,1.768,0ZM11.16,28.84a1.25,1.25,0,0,1,0,1.767L7.625,34.142a1.25,1.25,0,1,1-1.768-1.768L9.392,28.84A1.25,1.25,0,0,1,11.16,28.84Zm22.982,5.3a1.25,1.25,0,0,1-1.767,0L28.84,30.608a1.25,1.25,0,1,1,1.768-1.768l3.535,3.535a1.25,1.25,0,0,1,0,1.768ZM11.16,11.163a1.25,1.25,0,0,1-1.767,0L5.858,7.625A1.25,1.25,0,1,1,7.625,5.857L11.16,9.392a1.25,1.25,0,0,1,0,1.77Z" transform="translate(0.75 0.75)" stroke="#000" stroke-width="1.5"/>
</svg>
