<svg xmlns="http://www.w3.org/2000/svg" width="41" height="41" viewBox="0 0 41 41">
  <g id="Camada_2" data-name="Camada 2" transform="translate(0.5 0.5)">
    <g id="Camada_1" data-name="Camada 1" transform="translate(0)">
      <path id="Path_34490" data-name="Path 34490" d="M39.113,38.261H2.974l12.852-12.87,5.635,5.635a.9.9,0,0,0,1.252,0l15.165-15.2v5.617a.87.87,0,1,0,1.739,0V13.722a.87.87,0,0,0-.87-.87h-7.7a.87.87,0,1,0,0,1.739h5.617L22.07,29.183l-5.635-5.635a.87.87,0,0,0-1.235,0L1.739,37.026V.87A.87.87,0,0,0,0,.87V39.13a.87.87,0,0,0,.243.609h0a.9.9,0,0,0,.278.174A.887.887,0,0,0,.87,40H39.13a.87.87,0,0,0,0-1.739Z" transform="translate(0 0)" stroke="#000" stroke-width="1"/>
    </g>
  </g>
</svg>
