<svg xmlns="http://www.w3.org/2000/svg" width="40" height="31.866" viewBox="0 0 40 31.866">
  <g id="camera2_icon" transform="translate(0 -2)">
    <path id="Path_34418" data-name="Path 34418" d="M5,14.622c0-4.4,6.222-7.967,10.622-7.967V4A10.622,10.622,0,0,0,5,14.622Z" transform="translate(7.241 3.311)"/>
    <path id="Path_34419" data-name="Path 34419" d="M30.8,4.656h5.038A4.3,4.3,0,0,1,40,9.082v17.7a4.3,4.3,0,0,1-4.167,4.427H30.8a14.283,14.283,0,0,1-16.59,0H4.168A4.3,4.3,0,0,1,0,26.784V9.082A4.3,4.3,0,0,1,4.168,4.656H5A2.581,2.581,0,0,1,7.5,2H10a2.581,2.581,0,0,1,2.5,2.656h1.705a14.283,14.283,0,0,1,16.59,0ZM5,8.639A1.291,1.291,0,0,0,3.75,7.311a1.33,1.33,0,0,0,0,2.656A1.291,1.291,0,0,0,5,8.639Zm30,9.294C35,10.6,29.4,4.656,22.5,4.656S10,10.6,10,17.933s5.6,13.278,12.5,13.278S35,25.266,35,17.933Z" transform="translate(0 0)"/>
  </g>
</svg>
