<svg xmlns="http://www.w3.org/2000/svg" width="41.001" height="39.938" viewBox="0 0 41.001 39.938">
  <g id="cloud_sun_icon" transform="translate(0.503 -0.5)">
    <path id="Path_34416" data-name="Path 34416" d="M17.4,9.6a8.522,8.522,0,0,1,6.2,2.712,9.3,9.3,0,0,1,2.5,6.516,1.321,1.321,0,0,0,.473,1.039,1.2,1.2,0,0,0,1.078.238,3.613,3.613,0,0,1,3.215.695,3.965,3.965,0,0,1,1.448,3.077,3.814,3.814,0,0,1-3.729,3.894H7.461A5.2,5.2,0,0,1,7.71,17.394a1.251,1.251,0,0,0,1.268-.972A8.782,8.782,0,0,1,17.4,9.6ZM28.524,17.39A11.445,11.445,0,0,0,18.668,7.071,11.169,11.169,0,0,0,6.847,14.82,7.678,7.678,0,0,0,0,22.9a7.611,7.611,0,0,0,7.457,7.467h21.13a6.357,6.357,0,0,0,6.215-6.49,6.357,6.357,0,0,0-6.215-6.49Z" transform="translate(0 9.569)" stroke="#000" stroke-width="1"/>
    <path id="Path_34417" data-name="Path 34417" d="M18.3,2.3a1.3,1.3,0,0,0-2.6,0v2.6a1.3,1.3,0,0,0,2.6,0Zm9.716,5.1a1.3,1.3,0,1,0-1.835-1.835L24.346,7.4a1.3,1.3,0,1,0,1.838,1.838ZM7.826,5.561A1.3,1.3,0,1,0,5.991,7.4L7.826,9.234A1.3,1.3,0,0,0,9.664,7.4L7.826,5.561Zm4.5,8.758a5.192,5.192,0,1,1,8.556,5.706,14.283,14.283,0,0,1,1.339,2.331A7.788,7.788,0,1,0,9.659,13.984a14.32,14.32,0,0,1,2.669.335Zm11.64,10.575a9.11,9.11,0,0,1,3.951,2.783,1.3,1.3,0,0,0,.1-1.926l-1.835-1.835a1.3,1.3,0,0,0-2.217.979Zm4.719-9.618a1.3,1.3,0,1,0,0,2.6h2.6a1.3,1.3,0,1,0,0-2.6Z" transform="translate(7.418 0)" stroke="#000" stroke-width="1"/>
  </g>
</svg>
