<svg xmlns="http://www.w3.org/2000/svg" width="41" height="31.015" viewBox="0 0 41 31.015">
  <g id="controller_icon" transform="translate(0.122 -1.607)">
    <path id="Path_34403" data-name="Path 34403" d="M24.216,6.864a1.3,1.3,0,1,1-1.295-1.337A1.316,1.316,0,0,1,24.216,6.864Zm-3.884,4.011a1.338,1.338,0,1,0-1.295-1.337A1.316,1.316,0,0,0,20.332,10.876Zm6.474-1.337A1.3,1.3,0,1,1,25.511,8.2,1.316,1.316,0,0,1,26.805,9.538ZM22.921,13.55a1.338,1.338,0,1,0-1.295-1.337A1.316,1.316,0,0,0,22.921,13.55ZM6.089,5.527H8.679V8.2h2.589v2.674H8.679V13.55H6.089V10.876H3.5V8.2H6.089Z" transform="translate(5.227 5.464)" stroke="#000" stroke-width="1"/>
    <path id="Path_34404" data-name="Path 34404" d="M7.392,5.119a1.309,1.309,0,0,1,.929-1.606l5.07-1.357a1.312,1.312,0,0,1,1.627,1.022,45.313,45.313,0,0,1,5.361-.306,45.257,45.257,0,0,1,5.563.33,1.312,1.312,0,0,1,1.632-1.045l5.07,1.357a1.309,1.309,0,0,1,.8,1.91,5.885,5.885,0,0,1,.979.778A15.537,15.537,0,0,1,37.3,10.842,38.537,38.537,0,0,1,39.413,17.3a34.859,34.859,0,0,1,.955,6.826,13.7,13.7,0,0,1-.861,5.789,3.727,3.727,0,0,1-3.792,2.174,6.728,6.728,0,0,1-3.97-2.025c-.643-.608-1.3-1.378-1.939-2.116-.331-.388-.656-.765-.966-1.108a10.482,10.482,0,0,0-8.46-4,10.482,10.482,0,0,0-8.46,4c-.312.343-.635.72-.966,1.108-.638.739-1.3,1.506-1.939,2.116a6.713,6.713,0,0,1-3.97,2.025,3.727,3.727,0,0,1-3.792-2.174,13.705,13.705,0,0,1-.863-5.789A35.1,35.1,0,0,1,1.346,17.3a38.777,38.777,0,0,1,2.112-6.459A15.588,15.588,0,0,1,6.329,6.2a6.139,6.139,0,0,1,1.136-.878,1.318,1.318,0,0,1-.073-.207ZM12.735,6.2A9.732,9.732,0,0,0,8.187,8.053,13.148,13.148,0,0,0,5.865,11.89,35.965,35.965,0,0,0,3.9,17.9a32.3,32.3,0,0,0-.89,6.3,11.215,11.215,0,0,0,.638,4.652,1.1,1.1,0,0,0,1.118.629A4.149,4.149,0,0,0,7.206,28.17,23.6,23.6,0,0,0,8.82,26.4c.349-.409.724-.846,1.155-1.32a13.071,13.071,0,0,1,10.405-4.859,13.071,13.071,0,0,1,10.405,4.859c.43.474.806.912,1.155,1.32a23.047,23.047,0,0,0,1.614,1.765,4.154,4.154,0,0,0,2.438,1.318,1.1,1.1,0,0,0,1.118-.631,11.251,11.251,0,0,0,.638-4.652,32.3,32.3,0,0,0-.89-6.3,35.978,35.978,0,0,0-1.963-6.012,13.169,13.169,0,0,0-2.322-3.837A9.732,9.732,0,0,0,28.024,6.2a38.406,38.406,0,0,0-7.644-.707,38.406,38.406,0,0,0-7.644.707Z" transform="translate(0)" stroke="#000" stroke-width="1"/>
  </g>
</svg>
