<svg xmlns="http://www.w3.org/2000/svg" width="31.371" height="47.557" viewBox="0 0 31.371 47.557">
  <path id="cup_straw_icon" d="M33.762.933a1.455,1.455,0,0,1-.815,1.891L26.39,5.449l-1.164,5.606a10.982,10.982,0,0,1,2.828,1.068,2.9,2.9,0,0,1,1.629,2.386,2.331,2.331,0,0,1-.032.384l-2.8,26.381a3.724,3.724,0,0,1-1.524,2.706,15.208,15.208,0,0,1-8.757,2.531,15.208,15.208,0,0,1-8.757-2.531A3.724,3.724,0,0,1,6.29,41.273L3.529,14.892a2.269,2.269,0,0,1-.029-.384,2.9,2.9,0,0,1,1.629-2.386,11.2,11.2,0,0,1,2.88-1.082,36.913,36.913,0,0,1,8.582-.9,42.967,42.967,0,0,1,5.775.369l1.35-6.444A1.455,1.455,0,0,1,24.6,3.034L31.871.125a1.455,1.455,0,0,1,1.891.809ZM21.735,13.365a40.7,40.7,0,0,0-5.144-.311,34.225,34.225,0,0,0-7.875.809,9.554,9.554,0,0,0-1.885.646,9.643,9.643,0,0,0,1.885.646,34.225,34.225,0,0,0,7.875.809,40.945,40.945,0,0,0,4.62-.247l.524-2.351Zm.849,5.109a43.37,43.37,0,0,1-5.993.4,36.913,36.913,0,0,1-8.582-.9q-.64-.159-1.266-.369L9.182,40.967a.835.835,0,0,0,.3.625A12.316,12.316,0,0,0,16.571,43.6a12.316,12.316,0,0,0,7.093-2.007.825.825,0,0,0,.3-.625l2.479-23.361q-.625.211-1.266.369a25.835,25.835,0,0,1-2.589.495ZM6.313,14.17a.048.048,0,0,1,.015.017Zm20.557,0-.015.017A.048.048,0,0,1,26.87,14.17Zm-.521.337a9.234,9.234,0,0,0-1.757-.611L24.3,15.192l.16-.038A9.643,9.643,0,0,0,26.349,14.508Z" transform="translate(-3 0.547)" stroke="#000" stroke-width="1"/>
</svg>
