<svg xmlns="http://www.w3.org/2000/svg" width="40" height="35" viewBox="0 0 40 35">
  <g id="image_icon" transform="translate(-0.002 -1)">
    <path id="Path_34401" data-name="Path 34401" d="M10.2,7.6A3.6,3.6,0,1,1,6.6,4,3.6,3.6,0,0,1,10.2,7.6Z" transform="translate(4.569 4.581)"/>
    <path id="Path_34402" data-name="Path 34402" d="M5,1A5,5,0,0,0,0,6V31a5,5,0,0,0,5,5H35a5,5,0,0,0,5-5V6a5,5,0,0,0-5-5H5ZM35,3.5A2.5,2.5,0,0,1,37.5,6V22.25L28.06,17.382a1.25,1.25,0,0,0-1.442.233L17.342,26.89l-6.65-4.43a1.25,1.25,0,0,0-1.575.155L2.5,28.5V6A2.5,2.5,0,0,1,5,3.5Z" transform="translate(0)"/>
  </g>
</svg>
