<svg xmlns="http://www.w3.org/2000/svg" width="41" height="38.077" viewBox="0 0 41 38.077">
  <path id="incognito_icon" d="M11.674,3.406,9.126,12.87l-.04.168C4.18,13.828,1,15.1,1,16.526c0,2.4,8.954,4.343,20,4.343s20-1.945,20-4.343c0-1.43-3.18-2.7-8.086-3.489q-.018-.085-.04-.168L30.326,3.4a3.006,3.006,0,0,0-3.54-2.125A30.331,30.331,0,0,1,21,2.051a30.1,30.1,0,0,1-5.786-.773A3,3,0,0,0,11.674,3.406Zm.043,11.2a.727.727,0,0,1,.259-.489.708.708,0,0,1,.524-.16,83.46,83.46,0,0,0,8.5.414,83.417,83.417,0,0,0,8.5-.414.724.724,0,0,1,.143,1.442,85.539,85.539,0,0,1-8.643.42,85.539,85.539,0,0,1-8.643-.42.712.712,0,0,1-.482-.262A.73.73,0,0,1,11.717,14.6ZM8.143,26.659h5.714a1.438,1.438,0,0,1,1.429,1.448V31a4.286,4.286,0,1,1-8.571,0v-2.9A1.438,1.438,0,0,1,8.143,26.659ZM3.857,28.106A4.407,4.407,0,0,1,4.1,26.659H3.857a1.448,1.448,0,0,1,0-2.9h10a4.305,4.305,0,0,1,4.251,3.8,9.875,9.875,0,0,1,5.783,0,4.306,4.306,0,0,1,4.251-3.8h10a1.448,1.448,0,0,1,0,2.9H37.9a4.406,4.406,0,0,1,.243,1.448V31a7.143,7.143,0,1,1-14.286,0V30.6l-.6-.2a7.054,7.054,0,0,0-4.514,0l-.6.2V31A7.143,7.143,0,1,1,3.857,31Zm24.286-1.448h5.714a1.438,1.438,0,0,1,1.429,1.448V31a4.286,4.286,0,1,1-8.571,0v-2.9A1.438,1.438,0,0,1,28.143,26.659Z" transform="translate(-0.5 -0.662)" stroke="#000" stroke-width="1" fill-rule="evenodd"/>
</svg>
