<svg xmlns="http://www.w3.org/2000/svg" width="34.313" height="47.015" viewBox="0 0 34.313 47.015">
  <g id="lamp_icon" transform="translate(-1.999)">
    <path id="Path_34411" data-name="Path 34411" d="M10.693.89A1.429,1.429,0,0,1,12.009,0H26.3A1.438,1.438,0,0,1,27.62.89L36.2,21.46a1.506,1.506,0,0,1-.051,1.264,1.434,1.434,0,0,1-.987.755h-.006c-.429.088-.858.165-1.287.238a91.129,91.129,0,0,1-13.281,1.249v14.7a1.43,1.43,0,1,1-2.859,0V24.962A91.193,91.193,0,0,1,4.446,23.713c-.429-.073-.858-.147-1.287-.235H3.151a1.434,1.434,0,0,1-.987-.757,1.506,1.506,0,0,1-.048-1.265L10.693.887ZM5.461,20.91a87.05,87.05,0,0,0,13.7,1.128,87.05,87.05,0,0,0,13.7-1.128L25.364,2.938H12.952L5.458,20.91Z" transform="translate(0 0)" fill-rule="evenodd"/>
    <path id="Path_34412" data-name="Path 34412" d="M12.932,13.389a1.465,1.465,0,0,1-1.169,1.69,15.784,15.784,0,0,0-4.706,1.449,3.756,3.756,0,0,0-1.052.779.886.886,0,0,0-.148.22l0,.012-.011.029v.012l.006.024a.438.438,0,0,0,.045.1,1.8,1.8,0,0,0,.412.441A7.7,7.7,0,0,0,8.618,19.3a27.579,27.579,0,0,0,8.6,1.217,27.493,27.493,0,0,0,8.6-1.217,7.766,7.766,0,0,0,2.312-1.161,1.8,1.8,0,0,0,.415-.441.442.442,0,0,0,.043-.1l.006-.024v-.012a.889.889,0,0,0-.162-.264,3.752,3.752,0,0,0-1.052-.776,15.812,15.812,0,0,0-4.706-1.449,1.431,1.431,0,0,1-1.135-.926,1.508,1.508,0,0,1,.237-1.474,1.4,1.4,0,0,1,1.364-.5A18.434,18.434,0,0,1,28.7,13.927c1.311.714,2.732,1.889,2.732,3.653a3.76,3.76,0,0,1-1.547,2.871,10.489,10.489,0,0,1-3.173,1.64,30.225,30.225,0,0,1-9.5,1.366,30.225,30.225,0,0,1-9.5-1.366,10.489,10.489,0,0,1-3.173-1.64A3.76,3.76,0,0,1,3,17.579c0-1.76,1.422-2.938,2.732-3.653A18.434,18.434,0,0,1,11.3,12.181,1.428,1.428,0,0,1,12.932,13.389Z" transform="translate(1.94 23.559)"/>
  </g>
</svg>
