<svg xmlns="http://www.w3.org/2000/svg" width="20.564" height="34.285" viewBox="0 0 20.564 34.285">
  <g id="Layer_56" data-name="Layer 56" transform="translate(-6.999 -0.987)">
    <path id="Path_34473" data-name="Path 34473" d="M17.281,35.272a1.142,1.142,0,0,1-.685-.228l-4.569-3.427a1.142,1.142,0,0,1-.457-.914V19.816a10.281,10.281,0,1,1,11.423,0v1.748a1.142,1.142,0,0,1-.331.811l-1.485,1.474,1.485,1.474a1.142,1.142,0,0,1,0,1.622l-1.485,1.474,1.485,1.474a1.144,1.144,0,0,1-.126,1.725l-4.569,3.427A1.142,1.142,0,0,1,17.281,35.272Zm-3.427-5.14,3.427,2.57,2.833-2.125-1.359-1.348a1.142,1.142,0,0,1,0-1.622l1.485-1.474L18.755,24.66a1.142,1.142,0,0,1,0-1.622L20.708,21.1V19.188a1.142,1.142,0,0,1,.571-.982,8,8,0,1,0-8,0,1.142,1.142,0,0,1,.571.982Zm8-8.567Z" transform="translate(0)"/>
    <circle id="Ellipse_128" data-name="Ellipse 128" cx="1.142" cy="1.142" r="1.142" transform="translate(16.139 7.856)"/>
    <path id="Path_34474" data-name="Path 34474" d="M16.285,10.569a2.285,2.285,0,1,1,2.285-2.285A2.285,2.285,0,0,1,16.285,10.569ZM16.285,8.285Z" transform="translate(0.996 0.714)"/>
  </g>
</svg>
