<svg xmlns="http://www.w3.org/2000/svg" width="28.547" height="41.096" viewBox="0 0 28.547 41.096">
  <path id="lightning_charge_icon" d="M24.377.171a1.25,1.25,0,0,1,.567,1.45l-4.5,14.629h8.307a1.25,1.25,0,0,1,.91,2.107l-20,21.249a1.25,1.25,0,0,1-2.1-1.225l4.5-14.632H3.75a1.25,1.25,0,0,1-.91-2.107l20-21.249A1.25,1.25,0,0,1,24.377.168ZM6.643,21.249H13.75a1.25,1.25,0,0,1,1.195,1.617l-3.42,11.107L25.854,18.75h-7.1a1.25,1.25,0,0,1-1.195-1.617l3.42-11.107Z" transform="translate(-1.976 0.548)" stroke="#000" stroke-width="1"/>
</svg>
