<svg xmlns="http://www.w3.org/2000/svg" width="41" height="41.047" viewBox="0 0 41 41.047">
  <g id="moon_stars_icon" transform="translate(0.5 0.544)">
    <path id="Path_34390" data-name="Path 34390" d="M14.968.694a1.924,1.924,0,0,1,.2,2.145A18.191,18.191,0,0,0,31.233,29.684a18.307,18.307,0,0,0,3.824-.4,1.961,1.961,0,0,1,2.021.79A1.836,1.836,0,0,1,37,32.307,20.777,20.777,0,1,1,12.783.149a1.873,1.873,0,0,1,2.185.545ZM12.119,3.277A18.211,18.211,0,1,0,33.8,32.062,20.735,20.735,0,0,1,12.119,3.277Z" transform="translate(0 0)" stroke="#3e3e3e" stroke-width="1"/>
    <path id="Path_34391" data-name="Path 34391" d="M15.22,8.131a.561.561,0,0,1,1.065,0l1,3a4.485,4.485,0,0,0,2.834,2.834l3,1a.561.561,0,0,1,0,1.065l-3,1a4.48,4.48,0,0,0-2.834,2.834l-1,3a.561.561,0,0,1-1.065,0l-1-3a4.48,4.48,0,0,0-2.834-2.834l-3-1a.561.561,0,0,1,0-1.065l3-1a4.48,4.48,0,0,0,2.834-2.834l1-3ZM23.15.253a.375.375,0,0,1,.708,0l.667,2a2.984,2.984,0,0,0,1.891,1.891l2,.667a.375.375,0,0,1,0,.708l-2,.667a2.987,2.987,0,0,0-1.891,1.891l-.667,2a.375.375,0,0,1-.708,0l-.667-2a2.987,2.987,0,0,0-1.891-1.891l-2-.667a.375.375,0,0,1,0-.708l2-.667a2.984,2.984,0,0,0,1.891-1.891l.667-2Z" transform="translate(11.332 0.001)" stroke="#3e3e3e" stroke-width="1"/>
  </g>
</svg>
