<svg xmlns="http://www.w3.org/2000/svg" width="46.777" height="40.002" viewBox="0 0 46.777 40.002">
  <g id="mortarboard_icon" transform="translate(0 -2)">
    <path id="Path_34395" data-name="Path 34395" d="M24.005,2.134a1.493,1.493,0,0,0-1.234,0l-21.928,10a1.416,1.416,0,0,0,.073,2.62l21.928,8.572a1.493,1.493,0,0,0,1.088,0l17-6.64V33.43a2.891,2.891,0,0,0-2.924,2.857V42h8.771V36.288a2.891,2.891,0,0,0-2.924-2.857V15.54l2.006-.786a1.416,1.416,0,0,0,.073-2.62l-21.927-10Zm-.617,18.324L5.139,13.329l18.25-8.323,18.25,8.323Z" transform="translate(0)"/>
    <path id="Path_34396" data-name="Path 34396" d="M6.486,9.092A1.532,1.532,0,0,0,5.3,9.15a1.443,1.443,0,0,0-.761.876L3.06,14.883a1.416,1.416,0,0,0,.871,1.729l13.335,5.143a1.533,1.533,0,0,0,1.1,0L31.7,16.612a1.416,1.416,0,0,0,.871-1.729l-1.482-4.858a1.443,1.443,0,0,0-.761-.876,1.532,1.532,0,0,0-1.183-.058l-11.332,4.1Zm-.2,5.352.652-2.137L17.3,16.052a1.533,1.533,0,0,0,1.043,0L28.7,12.306l.652,2.137L17.818,18.887,6.284,14.441Z" transform="translate(5.571 13.001)"/>
  </g>
</svg>
