<svg xmlns="http://www.w3.org/2000/svg" width="40" height="40" viewBox="0 0 40 40">
  <g id="music_note_beamed_icon" transform="translate(-1 -1.105)">
    <path id="Path_34385" data-name="Path 34385" d="M15.286,20.351c0,3.136-3.2,5.676-7.143,5.676S1,23.487,1,20.351s3.2-5.676,7.143-5.676S15.286,17.218,15.286,20.351ZM41,14.676c0,3.136-3.2,5.676-7.143,5.676s-7.143-2.54-7.143-5.676S29.914,9,33.857,9,41,11.54,41,14.676Z" transform="translate(0 15.078)"/>
    <path id="Path_34386" data-name="Path 34386" d="M30.541,28.005V2h2.838V28.005ZM7.838,4.889V33.784H5V4.889Z" transform="translate(7.622 1.645)" fill-rule="evenodd"/>
    <path id="Path_34387" data-name="Path 34387" d="M5,6.213A2.838,2.838,0,0,1,7.554,3.389l22.7-2.27a2.838,2.838,0,0,1,3.122,2.824v2.54L5,9.321Z" transform="translate(7.622 0)"/>
  </g>
</svg>
