<svg xmlns="http://www.w3.org/2000/svg" width="41.005" height="41.013" viewBox="0 0 41.005 41.013">
  <path id="paint_bucket_icon" d="M17.36,7.2a29.058,29.058,0,0,0-4-4.824A8.807,8.807,0,0,0,11.254.86,2.809,2.809,0,0,0,8.64.8,2.92,2.92,0,0,0,7.365,3.432,11.085,11.085,0,0,0,7.878,6.5a35.7,35.7,0,0,0,3.068,7.053L1.235,23.169a2.9,2.9,0,0,0-.646,2.7,9.263,9.263,0,0,0,1.067,2.651,29.176,29.176,0,0,0,4.82,6.072,29.279,29.279,0,0,0,6.13,4.774,9.456,9.456,0,0,0,2.677,1.057A2.98,2.98,0,0,0,18,39.779L34.648,23.292a5.091,5.091,0,0,1,.148,2.757A34.3,34.3,0,0,0,34.58,29.5v.361h.009a2.967,2.967,0,0,0,5.908,0h.009V29.7a2.939,2.939,0,0,0-.012-.344c-.163-3.67-2.075-8.039-5.514-10.259a12.639,12.639,0,0,0-.625-1.274,29.267,29.267,0,0,0-4.823-6.069A29.3,29.3,0,0,0,23.4,6.973a9.634,9.634,0,0,0-2.677-1.057A2.982,2.982,0,0,0,18,6.559l-.643.634ZM11.337,4.515a27.484,27.484,0,0,1,3.886,4.792l-2.087,2.07a31.121,31.121,0,0,1-2.41-5.69,9.558,9.558,0,0,1-.388-1.976,8.2,8.2,0,0,1,1,.8ZM12.5,16.157a31.486,31.486,0,0,0,4.764,5.969,1.493,1.493,0,0,0,2.1-.073,1.459,1.459,0,0,0-.074-2.076,29.934,29.934,0,0,1-4.636-5.952l3.225-3.195c.16.352.341.713.542,1.072a29.2,29.2,0,0,0,4.823,6.072,29.127,29.127,0,0,0,6.13,4.774c.362.2.723.382,1.082.537L16.047,37.562a1.709,1.709,0,0,1-.2-.029,6.69,6.69,0,0,1-1.8-.74,26.571,26.571,0,0,1-5.472-4.287,26.235,26.235,0,0,1-4.328-5.42A6.478,6.478,0,0,1,3.5,25.3a1.668,1.668,0,0,1-.03-.2Zm8.507-5.681A7.129,7.129,0,0,1,20.3,8.829a7.336,7.336,0,0,1,1.666.708,26.571,26.571,0,0,1,5.472,4.287,30.072,30.072,0,0,1,3.314,3.846,10.462,10.462,0,0,0-3.16.267q-1.173-.967-2.253-2.038a26.162,26.162,0,0,1-4.322-5.423Z" transform="translate(-0.001 0.01)" stroke="#000" stroke-width="1"/>
</svg>
