<svg id="palette_icon" xmlns="http://www.w3.org/2000/svg" width="40" height="40" viewBox="0 0 40 40">
  <path id="Path_34397" data-name="Path 34397" d="M16.284,9.46a3.73,3.73,0,1,0-3.759-3.73A3.745,3.745,0,0,0,16.284,9.46Zm10.024,7.46a3.73,3.73,0,1,0-3.759-3.73A3.745,3.745,0,0,0,26.308,16.919Zm-16.29-2.487A3.759,3.759,0,1,1,6.259,10.7a3.745,3.745,0,0,1,3.759,3.73Zm1.253,14.919a3.73,3.73,0,1,0-3.759-3.73A3.745,3.745,0,0,0,11.271,29.352Z" transform="translate(3.716 2.973)"/>
  <path id="Path_34398" data-name="Path 34398" d="M40,20c0,7.875-4.665,6.462-8.917,5.175C28.55,24.407,26.163,23.683,25,25c-1.507,1.708-1.187,4.548-.877,7.3C24.565,36.238,24.99,40,20,40A20,20,0,1,1,40,20ZM20,37.5c1.528,0,1.635-.427,1.638-.44a5.786,5.786,0,0,0,.175-2.8c-.035-.42-.093-.925-.153-1.478-.13-1.16-.28-2.512-.295-3.655a8.324,8.324,0,0,1,1.76-5.785,4.729,4.729,0,0,1,3.18-1.545,9.426,9.426,0,0,1,2.9.26c.858.192,1.755.465,2.562.71l.07.02c.865.263,1.645.5,2.382.665,1.632.37,2.26.207,2.478.06.1-.065.8-.613.8-3.515A17.5,17.5,0,1,0,20,37.5Z"/>
</svg>
