<svg xmlns="http://www.w3.org/2000/svg" width="39.035" height="41" viewBox="0 0 39.035 41">
  <path id="Path_34505" data-name="Path 34505" d="M41.233,3.1a1.435,1.435,0,0,0-1.4-1.1h-.009c-7.566.047-25.963,1.309-33.391,11.971C2.579,19.511,2.247,26.7,5.451,35.35a1.356,1.356,0,0,0,.108.174,35.2,35.2,0,0,0-1.6,4.747,1.437,1.437,0,0,0,2.81.6c.03-.146,3.69-14.819,16.629-23.4a1.422,1.422,0,0,0,.4-1.981,1.439,1.439,0,0,0-1.992-.4A43.623,43.623,0,0,0,7.289,31.749c-1.9-6.54-1.4-11.967,1.511-16.15,5.736-8.234,19.34-10.22,27.552-10.64-1.767,2.573-3.7,7.29-3.7,15.613,0,4.457-1.271,7.889-3.776,10.2-4.016,3.7-10.54,4.049-15.312,3.691a1.428,1.428,0,1,0-.218,2.849c.955.073,1.975.117,3.035.117,4.858,0,10.525-.947,14.447-4.563,3.117-2.873,4.7-7.009,4.7-12.293,0-13,4.927-15.851,4.951-15.864A1.428,1.428,0,0,0,41.233,3.1Z" transform="translate(-2.759 -1.5)" stroke="#000" stroke-width="1"/>
</svg>
