<svg xmlns="http://www.w3.org/2000/svg" width="26" height="41" viewBox="0 0 26 41">
  <path id="pin_icon" d="M5.865.365A1.25,1.25,0,0,1,6.75,0h17.5A1.25,1.25,0,0,1,25.5,1.25a5.215,5.215,0,0,1-1.615,3.7A7.146,7.146,0,0,1,23,5.693V16.77l.195.12a14.736,14.736,0,0,1,1.878,1.387A7.559,7.559,0,0,1,28,23.75,1.25,1.25,0,0,1,26.75,25h-10V36.25c0,.69-.56,3.75-1.25,3.75s-1.25-3.06-1.25-3.75V25h-10A1.25,1.25,0,0,1,3,23.75a7.565,7.565,0,0,1,2.925-5.472A14.8,14.8,0,0,1,8,16.77V5.693a6.925,6.925,0,0,1-.885-.745A5.22,5.22,0,0,1,5.5,1.25,1.25,1.25,0,0,1,5.865.365Zm3.95,3.52,0,0Zm0,0,0,0A1.25,1.25,0,0,1,10.5,5V17.5a1.25,1.25,0,0,1-.69,1.117H9.805l-.03.017-.135.075a12.3,12.3,0,0,0-2.067,1.45A6.612,6.612,0,0,0,5.76,22.5H25.24a6.612,6.612,0,0,0-1.813-2.34,12.288,12.288,0,0,0-2.2-1.525l-.03-.015h0a1.25,1.25,0,0,1-.69-1.12V5a1.25,1.25,0,0,1,.738-1.145,4.438,4.438,0,0,0,.877-.678A3.383,3.383,0,0,0,22.65,2.5H8.35a3.454,3.454,0,0,0,.535.678A4.45,4.45,0,0,0,9.81,3.883Z" transform="translate(-2.5 0.5)" stroke="#000" stroke-width="1"/>
</svg>
