<svg xmlns="http://www.w3.org/2000/svg" width="41" height="41" viewBox="0 0 41 41">
  <g id="play_circle_icon" transform="translate(0.5 0.5)">
    <path id="Path_34407" data-name="Path 34407" d="M20,37.5A17.5,17.5,0,1,1,37.5,20,17.5,17.5,0,0,1,20,37.5ZM20,40A20,20,0,1,0,0,20,20,20,0,0,0,20,40Z" stroke="#757575" stroke-width="1"/>
    <path id="Path_34408" data-name="Path 34408" d="M6.7,5.143a1.291,1.291,0,0,1,1.342.1l9.034,6.453a1.291,1.291,0,0,1,0,2.1L8.042,20.248A1.291,1.291,0,0,1,6,19.2V6.291a1.291,1.291,0,0,1,.7-1.149Z" transform="translate(8.809 7.256)" stroke="#757575" stroke-width="1"/>
  </g>
</svg>
