<svg xmlns="http://www.w3.org/2000/svg" width="41.001" height="38.519" viewBox="0 0 41.001 38.519">
  <path id="star_half_icon" d="M13.383,12.047,18.842,1.23a1.285,1.285,0,0,1,2.317,0l5.46,10.817,12.244,1.74A1.342,1.342,0,0,1,40,15.049a1.37,1.37,0,0,1-.425,1.112l-8.807,8.389,2.075,11.824a1.326,1.326,0,0,1-1.865,1.48L20,32.216,9.025,37.855a1.3,1.3,0,0,1-.365.125,1.346,1.346,0,0,1-1.5-1.6L9.235,24.551l-8.8-8.389A1.375,1.375,0,0,1,0,15.154,1.45,1.45,0,0,1,.214,14.4a1.282,1.282,0,0,1,.925-.612l12.244-1.74ZM20,29.316a1.25,1.25,0,0,1,.58.14l9.214,4.735L28.057,24.3a1.412,1.412,0,0,1,.4-1.262l7.267-6.925L25.6,14.672a1.312,1.312,0,0,1-.982-.72L20,4.807l0,.007v24.5Z" transform="translate(0.499)" stroke="#000" stroke-width="1"/>
</svg>
