<svg xmlns="http://www.w3.org/2000/svg" width="40" height="40" viewBox="0 0 40 40">
  <g id="_1" data-name="1" transform="translate(-49.87 -48)">
    <path id="Path_34527" data-name="Path 34527" d="M154.3,61.436H133.473A1.478,1.478,0,0,1,132,59.954V49.482A1.478,1.478,0,0,1,133.473,48H154.3a1.478,1.478,0,0,1,1.473,1.482V59.954a1.478,1.478,0,0,1-1.473,1.482Zm-19.351-2.964h17.878V50.964H134.947Z" transform="translate(-74.016)"/>
    <path id="Path_34528" data-name="Path 34528" d="M154.3,276.149H133.473A1.478,1.478,0,0,1,132,274.667V258.572a1.478,1.478,0,0,1,1.473-1.482H154.3a1.478,1.478,0,0,1,1.473,1.482v16.095A1.478,1.478,0,0,1,154.3,276.149Zm-19.351-2.964h17.878V260.054H134.947Z" transform="translate(-74.016 -188.149)"/>
    <path id="Path_34529" data-name="Path 34529" d="M85.057,176.229H80.307a1.482,1.482,0,0,1,0-2.964h4.751a1.864,1.864,0,0,0,1.859-1.865V158.83a1.864,1.864,0,0,0-1.859-1.866H54.683a1.864,1.864,0,0,0-1.859,1.866V171.4a1.864,1.864,0,0,0,1.859,1.865h4.751a1.482,1.482,0,0,1,0,2.964H54.683A4.827,4.827,0,0,1,49.87,171.4V158.83A4.827,4.827,0,0,1,54.683,154H85.057a4.827,4.827,0,0,1,4.813,4.83V171.4A4.827,4.827,0,0,1,85.057,176.229Z" transform="translate(0 -95.358)"/>
    <path id="Path_34530" data-name="Path 34530" d="M117.471,208.912a1.453,1.453,0,0,1-.146-.007c-.047,0-.1-.013-.143-.022a1.338,1.338,0,0,1-.141-.036c-.042-.014-.092-.031-.136-.049s-.088-.04-.13-.062a1.233,1.233,0,0,1-.125-.074c-.04-.027-.079-.055-.117-.086a1.464,1.464,0,0,1-.109-.1c-.035-.035-.067-.071-.1-.109a1.415,1.415,0,0,1-.086-.117q-.041-.061-.074-.124c-.023-.042-.043-.087-.062-.131s-.035-.091-.049-.136-.026-.1-.036-.141a1.352,1.352,0,0,1-.022-.143,1.549,1.549,0,0,1,0-.3c0-.047.013-.1.022-.143a1.343,1.343,0,0,1,.036-.141c.014-.042.031-.092.049-.136s.04-.089.062-.131.047-.084.074-.124a1.415,1.415,0,0,1,.086-.117,1.464,1.464,0,0,1,.1-.109c.035-.035.071-.067.109-.1a1.357,1.357,0,0,1,.117-.086,1.233,1.233,0,0,1,.125-.074q.064-.034.13-.062c.044-.019.091-.035.136-.049s.1-.026.141-.036a1.351,1.351,0,0,1,.143-.022,1.6,1.6,0,0,1,.291,0c.048,0,.1.013.144.022a1.209,1.209,0,0,1,.14.036c.041.014.093.031.137.049s.088.04.13.062a1.345,1.345,0,0,1,.125.074c.04.027.079.055.117.086a1.464,1.464,0,0,1,.109.1c.035.035.066.071.1.109a1.177,1.177,0,0,1,.086.117,1.424,1.424,0,0,1,.074.124c.023.042.043.087.062.131s.035.091.049.136.026.1.036.141a1.35,1.35,0,0,1,.022.143,1.55,1.55,0,0,1,0,.3c0,.047-.013.1-.022.143a1.341,1.341,0,0,1-.036.141c-.014.042-.031.092-.049.136s-.04.089-.062.131-.047.084-.074.124-.056.079-.086.117a1.274,1.274,0,0,1-.1.109c-.035.035-.071.067-.109.1a1.427,1.427,0,0,1-.242.16q-.064.034-.13.062c-.044.019-.091.035-.137.049a1.387,1.387,0,0,1-.14.036c-.047.01-.1.017-.144.022a1.429,1.429,0,0,1-.145.007Z" transform="translate(-59.61 -142.218)"/>
    <path id="Path_34531" data-name="Path 34531" d="M161.471,208.91a1.029,1.029,0,0,1-.146-.007c-.047-.007-.1-.013-.143-.022a1.338,1.338,0,0,1-.141-.036c-.042-.014-.092-.031-.136-.049s-.089-.04-.131-.062-.084-.047-.124-.074a1.419,1.419,0,0,1-.117-.086,1.464,1.464,0,0,1-.109-.1c-.035-.035-.067-.071-.1-.109a1.359,1.359,0,0,1-.086-.117,1.453,1.453,0,0,1-.075-.125c-.022-.042-.042-.086-.061-.13s-.035-.091-.049-.136-.026-.1-.036-.141a1.347,1.347,0,0,1-.022-.143,1.549,1.549,0,0,1,0-.3c0-.047.013-.1.022-.143a1.342,1.342,0,0,1,.036-.141c.014-.042.031-.092.049-.136s.04-.088.061-.13a1.457,1.457,0,0,1,.075-.125c.027-.04.055-.079.086-.117a1.464,1.464,0,0,1,.1-.109c.035-.035.071-.067.109-.1a1.415,1.415,0,0,1,.117-.086q.061-.041.124-.074c.042-.023.087-.043.131-.062s.091-.035.136-.049.1-.026.141-.036a1.35,1.35,0,0,1,.143-.022,1.605,1.605,0,0,1,.3,0c.047,0,.1.013.143.022a1.341,1.341,0,0,1,.141.036c.042.014.092.031.136.049s.088.04.13.062.085.047.125.074a1.415,1.415,0,0,1,.117.086,1.46,1.46,0,0,1,.109.1c.035.035.066.071.1.109a1.175,1.175,0,0,1,.086.117,1.442,1.442,0,0,1,.074.125q.034.064.062.13c.019.044.035.091.049.136s.026.1.036.141a1.351,1.351,0,0,1,.022.143,1.549,1.549,0,0,1,0,.3c0,.047-.013.1-.022.143a1.338,1.338,0,0,1-.036.141c-.014.042-.031.092-.049.136s-.04.088-.062.13a1.444,1.444,0,0,1-.074.125c-.027.04-.056.079-.086.117a1.274,1.274,0,0,1-.1.109c-.035.035-.071.067-.109.1a1.357,1.357,0,0,1-.117.086,1.443,1.443,0,0,1-.125.074q-.064.034-.13.062c-.044.019-.091.035-.136.049s-.1.026-.141.036a1.35,1.35,0,0,1-.143.022A1.476,1.476,0,0,1,161.471,208.91Z" transform="translate(-99.279 -142.216)"/>
    <path id="Path_34532" data-name="Path 34532" d="M192.14,316.964H180.482a1.482,1.482,0,0,1,0-2.964H192.14a1.482,1.482,0,1,1,0,2.964Z" transform="translate(-116.441 -239.517)"/>
    <path id="Path_34533" data-name="Path 34533" d="M192.14,369.964H180.482a1.482,1.482,0,0,1,0-2.964H192.14a1.482,1.482,0,1,1,0,2.964Z" transform="translate(-116.441 -287.2)"/>
  </g>
</svg>
