<svg id="_3669395_call_ic_icon" data-name="3669395_call_ic_icon" xmlns="http://www.w3.org/2000/svg" width="40" height="40" viewBox="0 0 40 40">
  <path id="Path_34519" data-name="Path 34519" d="M0,0H40V40H0Z" fill="none"/>
  <path id="Path_34520" data-name="Path 34520" d="M11.639,18.126A23.426,23.426,0,0,0,21.89,28.369l3.422-3.43a1.561,1.561,0,0,1,1.579-.381,17.708,17.708,0,0,0,5.553.887A1.55,1.55,0,0,1,34,27v5.444A1.55,1.55,0,0,1,32.444,34,26.442,26.442,0,0,1,6,7.556,1.555,1.555,0,0,1,7.556,6H13a1.55,1.55,0,0,1,1.556,1.556,17.708,17.708,0,0,0,.887,5.553,1.561,1.561,0,0,1-.381,1.579Z" transform="translate(0 0)"/>
</svg>
