<svg xmlns="http://www.w3.org/2000/svg" width="44" height="28.6" viewBox="0 0 44 28.6">
  <g id="_4K" data-name="4K" transform="translate(-50.863 -118.09)">
    <path id="Path_34475" data-name="Path 34475" d="M94.863,118.919a.819.819,0,0,0-.308-.637.879.879,0,0,0-.7-.18l-1.895.331a111.023,111.023,0,0,1-38.164,0l-1.92-.335a.879.879,0,0,0-.7.18.819.819,0,0,0-.308.637V145.86a.819.819,0,0,0,.308.637.879.879,0,0,0,.7.18l1.895-.331a111.021,111.021,0,0,1,38.19,0l1.895.331a.879.879,0,0,0,.7-.18.819.819,0,0,0,.308-.637Zm-3.324,2.85v21.241a114.039,114.039,0,0,0-37.351,0V121.769a114.033,114.033,0,0,0,37.351,0Z"/>
    <path id="Path_34476" data-name="Path 34476" d="M171.125,206.66v-3.172a1.087,1.087,0,0,0-2.17,0v3.172h-4.733l5.118-6.773a.977.977,0,0,0-.258-1.417,1.132,1.132,0,0,0-1.512.242l-6.331,8.378a.964.964,0,0,0-.078,1.055,1.1,1.1,0,0,0,.964.55h6.83v3.244a1.087,1.087,0,0,0,2.17,0v-3.244h2.544a1.019,1.019,0,1,0,0-2.034Z" transform="translate(-99.384 -73.228)"/>
    <path id="Path_34477" data-name="Path 34477" d="M278.555,212.955a1.052,1.052,0,0,0,1.085-1.017v-4.5l1.8-1.615,4.632,6.415a1.13,1.13,0,0,0,1.506.272.978.978,0,0,0,.29-1.412l-4.84-6.7,4.693-4.219a.972.972,0,0,0,.032-1.438,1.137,1.137,0,0,0-1.534-.03l-6.576,5.912V199.3a1.087,1.087,0,0,0-2.17,0v12.638a1.052,1.052,0,0,0,1.085,1.017Z" transform="translate(-203.814 -73.229)"/>
  </g>
</svg>
