<svg xmlns="http://www.w3.org/2000/svg" width="36.43" height="44.933" viewBox="0 0 36.43 44.933">
  <g id="_753922_theatre_entertainment_film_movie_theater_icon" data-name="753922_theatre_entertainment_film_movie_theater_icon" transform="translate(-6.024 0.039)">
    <path id="Path_34430" data-name="Path 34430" d="M27.156,13.783V1.057a1.1,1.1,0,0,0-1.1-1.1H7.119a1.092,1.092,0,0,0-1.1,1.1V20.019a10.524,10.524,0,0,0,14.832,9.644,1.419,1.419,0,0,0,.626-1.175V24.106c0-.792-.6-.38-.6-.38V23.72a7.726,7.726,0,0,1-4.292,1.244c-3.334,0-6.081-1.917-6.514-4.4-.012-.184,0-.707.549-.32h0a9.75,9.75,0,0,0,5.963,1.921A10.109,10.109,0,0,0,21.142,21.1a1.042,1.042,0,0,0,.341-.837V16.37a1.092,1.092,0,0,1,1.1-1.1h3.5C26.482,15.236,27.156,15,27.156,13.783Zm-12.492-2.5c-1.5,1.318-3.012,1.536-5.085-.086-.309-.339.1-.727.1-.727.933-.738,3.055-1.986,5,0C14.768,10.6,14.99,11,14.665,11.285Zm9.44-.095c-1.492,1.352-2.975,1.669-5,.161-.594-.422-.008-.928.019-.952.977-.748,3.034-1.868,4.919.073h0S24.386,10.866,24.1,11.19Z"/>
    <path id="Path_34431" data-name="Path 34431" d="M48.855,24.6H31.75a.987.987,0,0,0-.989.989V42.714a9.542,9.542,0,1,0,19.084,0V25.592A.985.985,0,0,0,48.855,24.6ZM34.129,34.041A3.157,3.157,0,0,1,38.5,34a.589.589,0,0,1,.04.837c-1.334,1.152-2.675,1.353-4.5-.046C33.765,34.483,34.125,34.047,34.129,34.041ZM45.723,44.852v0A9.2,9.2,0,0,0,34.9,44.842l-.008,0c-.459.328-.473-.17-.467-.331.4-2.233,2.876-3.958,5.88-3.958,3.064,0,5.585,1.8,5.906,4.1C46.214,45.3,45.723,44.852,45.723,44.852Zm1.249-10.008c-1.358,1.172-2.724,1.358-4.6-.13a.427.427,0,0,1,.113-.6c.816-.658,2.721-1.813,4.479-.085C46.974,34.047,47.233,34.6,46.972,34.844Z" transform="translate(-7.391 -7.362)"/>
  </g>
</svg>
