<svg xmlns="http://www.w3.org/2000/svg" width="41.007" height="38.31" viewBox="0 0 41.007 38.31">
  <path id="_7830770_binocular_icon" data-name="7830770_binocular_icon" d="M37.8,22.523,33.37,11.635a.818.818,0,0,0-.189-.282l-2.413-2.39L28.279,2.417a.825.825,0,0,0-.2-.3,4.95,4.95,0,0,0-6.309,0,.833.833,0,0,0-.248.592v7.469a.834.834,0,0,1-.265.609.858.858,0,0,1-.631.23c-.308-.015-.57-.022-.805-.02a.845.845,0,0,1-.851-.839V2.714a.833.833,0,0,0-.25-.592,4.95,4.95,0,0,0-6.309,0,.821.821,0,0,0-.194.3L9.73,8.963l-2.417,2.39a.79.79,0,0,0-.187.282L2.7,22.523A9.132,9.132,0,0,0,1.651,33.61a9.422,9.422,0,0,0,10.53,4.019,9.251,9.251,0,0,0,6.791-8.9v-8.5a.845.845,0,0,1,.851-.839,9.209,9.209,0,0,1,.938.044.844.844,0,0,1,.766.839v8.456a9.251,9.251,0,0,0,6.791,8.9,9.422,9.422,0,0,0,10.53-4.019A9.132,9.132,0,0,0,37.8,22.523ZM15.568,28.73a5.958,5.958,0,1,1-5.957-5.874A5.916,5.916,0,0,1,15.568,28.73ZM30.887,34.6a5.875,5.875,0,1,1,5.957-5.874A5.916,5.916,0,0,1,30.887,34.6Z" transform="translate(0.253 -0.292)" stroke="#000" stroke-width="1"/>
</svg>
