<svg xmlns="http://www.w3.org/2000/svg" width="41" height="33" viewBox="0 0 41 33">
  <path id="_8541713_crown_icon" data-name="8541713_crown_icon" d="M33,28H7a1,1,0,0,0-1,1v2a1,1,0,0,0,1,1H33a1,1,0,0,0,1-1V29A1,1,0,0,0,33,28ZM37,8a3,3,0,0,0-3,3,2.939,2.939,0,0,0,.275,1.238L29.75,14.95a2,2,0,0,1-2.762-.725L21.894,5.313a3,3,0,1,0-3.787,0l-5.094,8.912a2,2,0,0,1-2.762.725L5.731,12.238A3,3,0,1,0,3,14a3.063,3.063,0,0,0,.481-.05L8,26H32l4.519-12.05A3.063,3.063,0,0,0,37,14a3,3,0,0,0,0-6Z" transform="translate(0.5 0.5)" stroke="#000" stroke-width="1"/>
</svg>
