<svg xmlns="http://www.w3.org/2000/svg" width="61" height="41" viewBox="0 0 61 41">
  <path id="_8665722_money_bill_1_icon" data-name="8665722_money_bill_1_icon" d="M33.708,87.333H32.5V76.958a1.3,1.3,0,0,0-1.292-1.292H27.5a1.186,1.186,0,0,0-1.066.709l-1.3,2.407a1.3,1.3,0,0,0,.06,1.276,1.283,1.283,0,0,0,1.093.608H27.5v6.667H26.292A1.3,1.3,0,0,0,25,88.625v2.407a1.3,1.3,0,0,0,1.292,1.3H33.7A1.3,1.3,0,0,0,35,91.042V88.625A1.3,1.3,0,0,0,33.708,87.333ZM55,64H5a5,5,0,0,0-5,5V99a5,5,0,0,0,5,5H55a5,5,0,0,0,5-5V69A5,5,0,0,0,55,64ZM5,99V92.333A6.662,6.662,0,0,1,11.667,99ZM5,75.667V69h6.667A6.661,6.661,0,0,1,5,75.667ZM30,97.333c-6.136,0-11.115-5.97-11.115-13.333S23.859,70.667,30,70.667,41.115,76.636,41.115,84,36.135,97.333,30,97.333ZM55,99H48.333A6.662,6.662,0,0,1,55,92.333Zm0-23.333A6.662,6.662,0,0,1,48.333,69H55Z" transform="translate(0.5 -63.5)" stroke="#000" stroke-width="1"/>
</svg>
