<svg xmlns="http://www.w3.org/2000/svg" width="38.001" height="40" viewBox="0 0 38.001 40">
  <g id="_9034830_cube_icon" data-name="9034830_cube_icon" transform="translate(-48 -32.002)">
    <path id="Path_34485" data-name="Path 34485" d="M103.133,41.438a.36.36,0,0,0,0-.625L89.165,32.784a5.92,5.92,0,0,0-5.883,0L69.317,40.813a.36.36,0,0,0,0,.625L86.041,51.17a.369.369,0,0,0,.371,0Z" transform="translate(-19.224)"/>
    <path id="Path_34486" data-name="Path 34486" d="M48.543,163.023a.362.362,0,0,0-.543.316V179.07a4.343,4.343,0,0,0,2.157,3.745l14.671,8.8a.362.362,0,0,0,.543-.313V173.046a.362.362,0,0,0-.181-.313Z" transform="translate(0 -119.657)"/>
    <path id="Path_34487" data-name="Path 34487" d="M272,173.145V191.33a.362.362,0,0,0,.543.313l14.67-8.8a4.342,4.342,0,0,0,2.158-3.74V163.375a.362.362,0,0,0-.543-.312l-16.646,9.771A.362.362,0,0,0,272,173.145Z" transform="translate(-203.369 -119.694)"/>
  </g>
</svg>
