<svg xmlns="http://www.w3.org/2000/svg" width="45.526" height="42.394" viewBox="0 0 45.526 42.394">
  <g id="_9035384_hammer_outline_icon" data-name="9035384_hammer_outline_icon" transform="translate(-30.477 -46.42)">
    <path id="Path_34432" data-name="Path 34432" d="M55.216,219.889a2.337,2.337,0,0,0-.386-.518l-1.736-1.713a2.048,2.048,0,0,0-.621-.433,1.982,1.982,0,0,0-2.2.4c-.6.593-1.7,1.674-3.692,3.638-3.8,3.762-10.862,10.066-14.055,12.755a1.515,1.515,0,0,0-.1,2.229l3.692,3.733a1.527,1.527,0,0,0,2.241-.084c2.768-3.254,9.117-10.32,12.876-14.034,1.93-1.9,3.013-2.99,3.625-3.592A2.06,2.06,0,0,0,55.216,219.889Z" transform="translate(0 -153.121)" fill="none" stroke="#000" stroke-linecap="round" stroke-linejoin="round" stroke-width="3"/>
    <path id="Path_34433" data-name="Path 34433" d="M218.7,62.413l-3.248-3.219a.515.515,0,0,0-.379-.151.529.529,0,0,0-.379.151h0a1.08,1.08,0,0,1-.9.31,2.008,2.008,0,0,1-1.167-.46c-.663-.649.1-1.928-.48-2.746a23,23,0,0,0-2.185-2.53,23.921,23.921,0,0,0-7.721-4.973,11.72,11.72,0,0,0-4.45-.875,8.1,8.1,0,0,0-5.113,1.752,10.076,10.076,0,0,0-1.136,1.3,8.644,8.644,0,0,1,1.023-.3,7.529,7.529,0,0,1,2.2-.141,8.843,8.843,0,0,1,4.2,1.561,6.342,6.342,0,0,1,2.3,5c.076,1.58-1.442,3.575-2.882,5.2a.743.743,0,0,0,.038,1.025l2.011,2.01a.757.757,0,0,0,1.055.009,29.331,29.331,0,0,1,3.865-3.263,5.033,5.033,0,0,1,2.021-.766,3.381,3.381,0,0,1,2.017.437,1.293,1.293,0,0,1,.292.225,1.6,1.6,0,0,1-.047,2.248l-.189.179a.521.521,0,0,0,0,.742l3.248,3.219a.521.521,0,0,0,.379.15.535.535,0,0,0,.379-.15l5.251-5.193A.551.551,0,0,0,218.7,62.413Z" transform="translate(-144.455)" fill="none" stroke="#000" stroke-linecap="round" stroke-linejoin="round" stroke-width="3"/>
  </g>
</svg>
