<svg xmlns="http://www.w3.org/2000/svg" width="41" height="31" viewBox="0 0 41 31">
  <path id="_9040568_puzzle_icon" data-name="9040568_puzzle_icon" d="M7.78,6.113A3.75,3.75,0,0,1,11.513,2H17.5a1.25,1.25,0,0,1,1.25,1.25v.955a4.807,4.807,0,0,1-2.18,3.672,1.148,1.148,0,0,0-.288.295.282.282,0,0,0-.03.063l0,.015v.007l.007.025a.5.5,0,0,0,.09.133,2.15,2.15,0,0,0,.675.485A6.893,6.893,0,0,0,20,9.5a6.84,6.84,0,0,0,2.975-.6,2.15,2.15,0,0,0,.677-.485.532.532,0,0,0,.1-.157V8.235a.28.28,0,0,0-.03-.062,1.148,1.148,0,0,0-.288-.295,4.807,4.807,0,0,1-2.18-3.673V3.25A1.25,1.25,0,0,1,22.5,2h5.987A3.75,3.75,0,0,1,32.22,6.113l-.608,7.137h.593c.488,0,1.05-.368,1.688-1.2a3.007,3.007,0,0,1,2.357-1.3,3.408,3.408,0,0,1,2.885,2.155A9.328,9.328,0,0,1,40,17a9.328,9.328,0,0,1-.865,4.1A3.408,3.408,0,0,1,36.25,23.25a3.007,3.007,0,0,1-2.357-1.3c-.638-.833-1.2-1.2-1.687-1.2h-.593l.608,7.137A3.75,3.75,0,0,1,28.488,32H22.5a1.25,1.25,0,0,1-1.25-1.25V29.8a4.807,4.807,0,0,1,2.18-3.673,1.148,1.148,0,0,0,.288-.3.282.282,0,0,0,.03-.062l0-.015v-.008a.535.535,0,0,0-.1-.16,2.148,2.148,0,0,0-.675-.483A6.893,6.893,0,0,0,20,24.5a6.848,6.848,0,0,0-2.975.6,2.148,2.148,0,0,0-.678.485.535.535,0,0,0-.1.158v.007l0,.015a.282.282,0,0,0,.03.062,1.135,1.135,0,0,0,.287.3,4.807,4.807,0,0,1,2.18,3.673v.955A1.25,1.25,0,0,1,17.5,32H11.513A3.75,3.75,0,0,1,7.78,27.888l.61-7.138H7.8c-.487,0-1.05.368-1.687,1.2a3.007,3.007,0,0,1-2.358,1.3A3.408,3.408,0,0,1,.865,21.1,9.328,9.328,0,0,1,0,17a9.328,9.328,0,0,1,.865-4.095A3.408,3.408,0,0,1,3.75,10.75a3.007,3.007,0,0,1,2.358,1.3c.637.832,1.2,1.2,1.687,1.2H8.39ZM11.513,4.5a1.25,1.25,0,0,0-1.245,1.375l0,.017.725,8.5A1.25,1.25,0,0,1,9.75,15.75H7.8a4.807,4.807,0,0,1-3.672-2.18,1.147,1.147,0,0,0-.3-.288.28.28,0,0,0-.062-.03l-.015,0H3.743a.532.532,0,0,0-.16.1,2.15,2.15,0,0,0-.482.675A6.893,6.893,0,0,0,2.5,17a6.848,6.848,0,0,0,.6,2.975,2.158,2.158,0,0,0,.485.677.532.532,0,0,0,.157.1H3.75l.015,0a.28.28,0,0,0,.062-.03,1.147,1.147,0,0,0,.3-.288A4.807,4.807,0,0,1,7.8,18.25H9.75A1.25,1.25,0,0,1,11,19.6l-.725,8.52A1.25,1.25,0,0,0,11.513,29.5h4.7a3.008,3.008,0,0,0-1.157-1.392,3.007,3.007,0,0,1-1.3-2.358,3.408,3.408,0,0,1,2.155-2.885A9.328,9.328,0,0,1,20,22a9.328,9.328,0,0,1,4.1.865A3.408,3.408,0,0,1,26.25,25.75a3.007,3.007,0,0,1-1.3,2.358A3,3,0,0,0,23.792,29.5h4.7a1.25,1.25,0,0,0,1.245-1.375l0-.017L29,19.608A1.25,1.25,0,0,1,30.25,18.25h1.955a4.807,4.807,0,0,1,3.672,2.18,1.135,1.135,0,0,0,.3.288.389.389,0,0,0,.062.03l.015,0h.008a.535.535,0,0,0,.16-.1,2.15,2.15,0,0,0,.482-.675A6.877,6.877,0,0,0,37.5,17a6.84,6.84,0,0,0-.6-2.975,2.15,2.15,0,0,0-.485-.678.538.538,0,0,0-.158-.1H36.25l-.015,0a.282.282,0,0,0-.062.03,1.148,1.148,0,0,0-.3.287,4.807,4.807,0,0,1-3.672,2.18H30.25A1.25,1.25,0,0,1,29,14.392l.725-8.517A1.25,1.25,0,0,0,28.488,4.5H23.793A3.008,3.008,0,0,0,24.95,5.892a3.007,3.007,0,0,1,1.3,2.358A3.408,3.408,0,0,1,24.1,11.135,9.328,9.328,0,0,1,20,12a9.328,9.328,0,0,1-4.095-.865A3.408,3.408,0,0,1,13.75,8.25a3.007,3.007,0,0,1,1.3-2.358A3,3,0,0,0,16.207,4.5Z" transform="translate(0.5 -1.5)" stroke="#000" stroke-width="1"/>
</svg>
