<svg xmlns="http://www.w3.org/2000/svg" width="41" height="41" viewBox="0 0 41 41">
  <g id="_9040318_gear_icon" data-name="9040318_gear_icon" transform="translate(0.5 0.5)">
    <path id="Path_34443" data-name="Path 34443" d="M12.775,4.754A8.021,8.021,0,1,0,20.8,12.775a8.021,8.021,0,0,0-8.021-8.021Zm-5.55,8.021a5.55,5.55,0,1,1,5.55,5.55,5.55,5.55,0,0,1-5.55-5.55Z" transform="translate(7.226 7.226)" stroke="#000" stroke-width="1"/>
    <path id="Path_34444" data-name="Path 34444" d="M24.491,3.357a4.682,4.682,0,0,0-8.981,0l-.235.8a2.183,2.183,0,0,1-3.138,1.3l-.73-.4a4.683,4.683,0,0,0-6.35,6.353l.4.73a2.183,2.183,0,0,1-1.3,3.138l-.8.235a4.682,4.682,0,0,0,0,8.981l.8.235a2.183,2.183,0,0,1,1.3,3.138l-.4.73a4.682,4.682,0,0,0,6.353,6.35l.73-.4a2.183,2.183,0,0,1,3.138,1.3l.235.8a4.682,4.682,0,0,0,8.981,0l.235-.8a2.183,2.183,0,0,1,3.138-1.3l.73.4a4.682,4.682,0,0,0,6.35-6.353l-.4-.73a2.183,2.183,0,0,1,1.3-3.138l.8-.235a4.682,4.682,0,0,0,0-8.981l-.8-.235a2.183,2.183,0,0,1-1.3-3.138l.4-.73a4.683,4.683,0,0,0-6.353-6.35l-.73.4a2.183,2.183,0,0,1-3.138-1.3l-.235-.8Zm-6.583.708a2.181,2.181,0,0,1,4.185,0l.235.8A4.683,4.683,0,0,0,29.061,7.65l.728-.4a2.184,2.184,0,0,1,2.96,2.963l-.4.73a4.683,4.683,0,0,0,2.79,6.73l.8.235a2.181,2.181,0,0,1,0,4.185l-.8.235a4.683,4.683,0,0,0-2.788,6.733l.4.728a2.184,2.184,0,0,1-2.963,2.96l-.728-.4a4.683,4.683,0,0,0-6.733,2.79l-.235.8a2.181,2.181,0,0,1-4.185,0l-.235-.8a4.683,4.683,0,0,0-6.73-2.788l-.73.4a2.184,2.184,0,0,1-2.96-2.963l.4-.728a4.683,4.683,0,0,0-2.788-6.735l-.8-.235a2.181,2.181,0,0,1,0-4.185l.8-.235A4.683,4.683,0,0,0,7.65,10.942l-.4-.73a2.184,2.184,0,0,1,2.963-2.96l.73.4a4.683,4.683,0,0,0,6.73-2.788Z" transform="translate(0 0)" stroke="#000" stroke-width="1"/>
  </g>
</svg>
