<svg xmlns="http://www.w3.org/2000/svg" width="41" height="47.709" viewBox="0 0 41 47.709">
  <path id="_9040375_filetype_doc_icon" data-name="9040375_filetype_doc_icon" d="M40,13.136V40.867a5.777,5.777,0,0,1-5.714,5.838V43.786a2.889,2.889,0,0,0,2.857-2.919V13.136H31.429a4.333,4.333,0,0,1-4.286-4.379V2.919H11.429A2.889,2.889,0,0,0,8.571,5.838V32.11H5.714V5.838A5.777,5.777,0,0,1,11.429,0H27.143ZM17.6,39.892v1.524a4.6,4.6,0,0,1-.334,1.871,2.5,2.5,0,0,1-.92,1.13,2.635,2.635,0,0,1-2.686,0,2.522,2.522,0,0,1-.914-1.127,4.611,4.611,0,0,1-.334-1.874V39.892a4.628,4.628,0,0,1,.334-1.871,2.522,2.522,0,0,1,.914-1.13,2.44,2.44,0,0,1,1.346-.377,2.4,2.4,0,0,1,1.34.379,2.5,2.5,0,0,1,.92,1.127A4.58,4.58,0,0,1,17.6,39.892ZM19.9,41.407v-1.5a6.346,6.346,0,0,0-.586-2.837,4.227,4.227,0,0,0-1.683-1.839,5.061,5.061,0,0,0-2.62-.642,5.137,5.137,0,0,0-2.629.642,4.171,4.171,0,0,0-1.683,1.83,6.4,6.4,0,0,0-.586,2.846v1.5a6.425,6.425,0,0,0,.586,2.84,4.242,4.242,0,0,0,1.686,1.83,5.208,5.208,0,0,0,2.629.631,5.134,5.134,0,0,0,2.617-.631,4.276,4.276,0,0,0,1.686-1.83,6.434,6.434,0,0,0,.583-2.84ZM0,34.813V46.489H4.169a5.39,5.39,0,0,0,2.854-.695,4.208,4.208,0,0,0,1.7-2.011,8.091,8.091,0,0,0,.56-3.164,7.894,7.894,0,0,0-.56-3.138A4.138,4.138,0,0,0,7.037,35.5a5.463,5.463,0,0,0-2.869-.683ZM2.26,36.7H3.869a3.11,3.11,0,0,1,1.74.444A2.591,2.591,0,0,1,6.62,38.465a6.171,6.171,0,0,1,.337,2.2,6.853,6.853,0,0,1-.194,1.728,3.364,3.364,0,0,1-.56,1.232,2.291,2.291,0,0,1-.954.736,3.638,3.638,0,0,1-1.38.239H2.257v-7.9Zm21.206,1.41a5.155,5.155,0,0,0-.294,1.848V41.4a5.02,5.02,0,0,0,.294,1.83,2.43,2.43,0,0,0,.851,1.147,2.376,2.376,0,0,0,1.366.382,2.436,2.436,0,0,0,1.146-.257,2.013,2.013,0,0,0,.78-.724,2.371,2.371,0,0,0,.334-1.063h2.186v.222a3.755,3.755,0,0,1-.646,1.967,3.969,3.969,0,0,1-1.571,1.325,5.622,5.622,0,0,1-4.857-.152,4.126,4.126,0,0,1-1.631-1.83,6.675,6.675,0,0,1-.554-2.849V39.945a6.666,6.666,0,0,1,.563-2.855,4.14,4.14,0,0,1,1.631-1.848,4.944,4.944,0,0,1,2.6-.651,5.119,5.119,0,0,1,1.734.283,4.091,4.091,0,0,1,1.4.794,3.9,3.9,0,0,1,1.331,2.814V38.7H27.943a2.519,2.519,0,0,0-.343-1.109,2.019,2.019,0,0,0-.78-.762,2.253,2.253,0,0,0-1.137-.283,2.29,2.29,0,0,0-1.357.4A2.529,2.529,0,0,0,23.466,38.106Z" transform="translate(0.5 0.5)" stroke="#000" stroke-width="1" fill-rule="evenodd"/>
</svg>
