<svg xmlns="http://www.w3.org/2000/svg" width="41.011" height="41" viewBox="0 0 41.011 41">
  <path id="_9040783_snow_icon" data-name="9040783_snow_icon" d="M21,40a1.349,1.349,0,0,1-1.429-1.25V35.517l-1.847,1.618a1.579,1.579,0,0,1-2.023,0,1.143,1.143,0,0,1,0-1.769l3.868-3.382V22.165l-9.72,4.907L8.436,31.7a1.462,1.462,0,0,1-1.753.882,1.243,1.243,0,0,1-1.009-1.533l.678-2.2-3.2,1.615A1.546,1.546,0,0,1,1.2,30a1.169,1.169,0,0,1,.523-1.708l3.2-1.615-2.527-.593a1.243,1.243,0,0,1-1.009-1.532,1.462,1.462,0,0,1,1.753-.883l5.283,1.238L18.145,20l-9.72-4.908L3.135,16.33a1.46,1.46,0,0,1-1.75-.885A1.243,1.243,0,0,1,2.4,13.915l2.525-.592-3.2-1.615A1.169,1.169,0,0,1,1.2,10a1.546,1.546,0,0,1,1.953-.458l3.2,1.615L5.674,8.95A1.243,1.243,0,0,1,6.686,7.42a1.46,1.46,0,0,1,1.75.885l1.415,4.623,9.723,4.907V8.017L15.706,4.635a1.143,1.143,0,0,1,0-1.769,1.579,1.579,0,0,1,2.023,0l1.847,1.617V1.25a1.442,1.442,0,0,1,2.859,0V4.482l1.85-1.617a1.579,1.579,0,0,1,2.023,0,1.143,1.143,0,0,1,0,1.769L22.433,8.017v9.817l9.72-4.907L33.571,8.3a1.462,1.462,0,0,1,1.753-.883,1.243,1.243,0,0,1,1.009,1.532l-.675,2.2,3.2-1.615A1.546,1.546,0,0,1,40.813,10a1.169,1.169,0,0,1-.523,1.708l-3.2,1.615,2.524.592a1.243,1.243,0,0,1,1.009,1.533,1.462,1.462,0,0,1-1.753.883l-5.283-1.238L23.862,20l9.72,4.908,5.286-1.238a1.461,1.461,0,0,1,1.751.884,1.243,1.243,0,0,1-1.011,1.531l-2.524.593,3.2,1.615A1.169,1.169,0,0,1,40.81,30a1.546,1.546,0,0,1-1.953.458l-3.2-1.615.675,2.208a1.243,1.243,0,0,1-1.012,1.53,1.46,1.46,0,0,1-1.75-.885l-1.415-4.623-9.72-4.907v9.817L26.3,35.365a1.143,1.143,0,0,1,0,1.769,1.579,1.579,0,0,1-2.023,0l-1.85-1.618V38.75A1.349,1.349,0,0,1,21,40Z" transform="translate(-0.5 0.5)" stroke="#000" stroke-width="1"/>
</svg>
