<svg xmlns="http://www.w3.org/2000/svg" width="41.03" height="37.02" viewBox="0 0 41.03 37.02">
  <path id="_9040756_star_icon" data-name="9040756_star_icon" d="M7.163,34.939a1.313,1.313,0,0,0,1.865,1.423L20,30.948l10.972,5.414a1.312,1.312,0,0,0,1.865-1.421L30.765,23.59l8.8-8.054a1.318,1.318,0,0,0-.7-2.28L26.62,11.586,21.16,1.2a1.306,1.306,0,0,0-2.317,0l-5.46,10.386L1.138,13.259a1.32,1.32,0,0,0-.707,2.28l8.807,8.054L7.163,34.944ZM19.425,28.3,10.21,32.844l1.735-9.5a1.323,1.323,0,0,0-.407-1.212L4.273,15.488,14.4,14.106a1.309,1.309,0,0,0,.982-.691L20,4.636l4.617,8.779a1.309,1.309,0,0,0,.982.691l10.13,1.38-7.265,6.647a1.322,1.322,0,0,0-.407,1.214l1.735,9.5L20.575,28.3a1.3,1.3,0,0,0-1.152,0Z" transform="translate(0.514 0.001)" stroke="#000" stroke-width="1"/>
</svg>
