<svg id="_9040546_palette2_icon" data-name="9040546_palette2_icon" xmlns="http://www.w3.org/2000/svg" width="40" height="40" viewBox="0 0 40 40">
  <path id="Path_34453" data-name="Path 34453" d="M0,1.25A1.25,1.25,0,0,1,1.25,0h12.5A1.25,1.25,0,0,1,15,1.25V14.443L25.367,4.115a1.25,1.25,0,0,1,1.767,0l8.837,8.84a1.25,1.25,0,0,1,0,1.77L25.652,25h13.1A1.25,1.25,0,0,1,40,26.25v12.5A1.25,1.25,0,0,1,38.75,40H7.5A7.5,7.5,0,0,1,0,32.61m15-.525,18.32-18.25-7.072-7.07L15,17.97V32.088Zm-3.75.415A3.75,3.75,0,1,0,7.5,36.25,3.75,3.75,0,0,0,11.25,32.5Zm26.25,5v-10H23.145l-10.037,10ZM0,1.25v0Z"/>
  <path id="Path_34454" data-name="Path 34454" d="M0,12.995v.018Q0,13,0,12.995Z" transform="translate(0 16.3)"/>
</svg>
