<svg xmlns="http://www.w3.org/2000/svg" width="39" height="41.01" viewBox="0 0 39 41.01">
  <path id="_9040388_funnel_icon" data-name="9040388_funnel_icon" d="M1.5,2.429A1.445,1.445,0,0,1,2.962,1H38.038A1.445,1.445,0,0,1,39.5,2.429V8.143a1.41,1.41,0,0,1-.374.954L26.346,22.978V36.715a1.432,1.432,0,0,1-1,1.354l-8.769,2.857a1.489,1.489,0,0,1-1.316-.2,1.419,1.419,0,0,1-.607-1.158V22.978L1.874,9.1A1.411,1.411,0,0,1,1.5,8.143ZM4.423,3.857V7.594L17.2,21.475a1.411,1.411,0,0,1,.374.954V37.59l5.846-1.9V22.429a1.41,1.41,0,0,1,.374-.954L36.577,7.594V3.857Z" transform="translate(-1 -0.5)" stroke="#000" stroke-width="1"/>
</svg>
