<svg id="_9040725_robot_icon" data-name="9040725_robot_icon" xmlns="http://www.w3.org/2000/svg" width="42.667" height="40" viewBox="0 0 42.667 40">
  <path id="Path_34455" data-name="Path 34455" d="M11,23.54a1.333,1.333,0,0,1,1.333-1.333h8a1.333,1.333,0,1,1,0,2.667h-8A1.333,1.333,0,0,1,11,23.54ZM3,11.705A6.108,6.108,0,0,1,9.747,5.9a70.881,70.881,0,0,0,13.173,0,6.108,6.108,0,0,1,6.747,5.8v3.085a2.488,2.488,0,0,1-2.04,2.493,66.99,66.99,0,0,1-11.293.923A67.278,67.278,0,0,1,5.04,17.284,2.488,2.488,0,0,1,3,14.791ZM15.112,9.5a.667.667,0,0,0-.579.181l-2.453,2.4q-2.5-.149-4.989-.488a.667.667,0,0,0-.181,1.32c1.467.2,3.285.4,5.387.515a.667.667,0,0,0,.5-.189l2.011-1.963,2.259,4.56A.667.667,0,0,0,18.147,16l2.485-2.587q2.571-.153,5.125-.5a.667.667,0,0,0-.181-1.32c-1.435.2-3.219.387-5.28.5a.667.667,0,0,0-.443.2l-2.011,2.093L15.6,9.86a.667.667,0,0,0-.485-.36Z" transform="translate(5 9.793)"/>
  <path id="Path_34456" data-name="Path 34456" d="M22.667,4.976a2.667,2.667,0,1,0-2.667,0V8H14.667a12,12,0,0,0-12,12v1.333A2.667,2.667,0,0,0,0,24v5.333A2.667,2.667,0,0,0,2.667,32v2.667A5.333,5.333,0,0,0,8,40H34.667A5.333,5.333,0,0,0,40,34.667V32a2.667,2.667,0,0,0,2.667-2.667V24A2.667,2.667,0,0,0,40,21.333V20A12,12,0,0,0,28,8H22.667ZM37.333,20V34.667a2.667,2.667,0,0,1-2.667,2.667H8a2.667,2.667,0,0,1-2.667-2.667V20a9.333,9.333,0,0,1,9.333-9.333H28A9.333,9.333,0,0,1,37.333,20Z" transform="translate(0 0)"/>
</svg>
