<svg xmlns="http://www.w3.org/2000/svg" width="41" height="31" viewBox="0 0 41 31">
  <path id="_9040252_envelope_icon" data-name="9040252_envelope_icon" d="M0,7A5,5,0,0,1,5,2H35a5,5,0,0,1,5,5V27a5,5,0,0,1-5,5H5a5,5,0,0,1-5-5ZM5,4.5A2.5,2.5,0,0,0,2.5,7v.543L20,18.042l17.5-10.5V7A2.5,2.5,0,0,0,35,4.5Zm32.5,5.957L25.73,17.52,37.5,24.762Zm-.085,17.19-14.1-8.678L20,20.958,16.685,18.97l-14.1,8.675A2.5,2.5,0,0,0,5,29.5H35a2.5,2.5,0,0,0,2.415-1.853ZM2.5,24.762,14.27,17.52,2.5,10.457Z" transform="translate(0.5 -1.5)" stroke="#000" stroke-width="1"/>
</svg>
