<svg xmlns="http://www.w3.org/2000/svg" width="41.038" height="41" viewBox="0 0 41.038 41">
  <path id="_9040495_flower3_icon" data-name="9040495_flower3_icon" d="M35.068,22a11.638,11.638,0,0,0,3.806-.893A6.353,6.353,0,0,0,41.554,12a7.724,7.724,0,0,0-10-2.44A10.284,10.284,0,0,0,28.8,12.117a9.127,9.127,0,0,0,1.054-3.45C29.856,4.985,26.578,2,22.536,2s-7.32,2.985-7.32,6.667a9.127,9.127,0,0,0,1.054,3.45A10.281,10.281,0,0,0,13.517,9.56a7.724,7.724,0,0,0-10,2.44A6.353,6.353,0,0,0,6.2,21.107,11.642,11.642,0,0,0,10,22a11.638,11.638,0,0,0-3.807.893A6.353,6.353,0,0,0,3.518,32a7.724,7.724,0,0,0,10,2.44,10.285,10.285,0,0,0,2.752-2.557,9.127,9.127,0,0,0-1.054,3.45c0,3.682,3.277,6.667,7.32,6.667s7.32-2.985,7.32-6.667a9.127,9.127,0,0,0-1.054-3.45,10.281,10.281,0,0,0,2.752,2.557,7.724,7.724,0,0,0,10-2.44,6.353,6.353,0,0,0-2.679-9.107A11.642,11.642,0,0,0,35.068,22ZM26.2,8.667a4.521,4.521,0,0,1-.165.683,13.281,13.281,0,0,1-.67,1.613A41.706,41.706,0,0,1,23.03,15.04l-.494.767q-.25-.382-.494-.767a41.706,41.706,0,0,1-2.331-4.077,13.3,13.3,0,0,1-.67-1.613,4.536,4.536,0,0,1-.165-.683,3.508,3.508,0,0,1,3.66-3.333A3.508,3.508,0,0,1,26.2,8.667Zm-19.508,5a3.862,3.862,0,0,1,5-1.22,5.243,5.243,0,0,1,.571.473,14.578,14.578,0,0,1,1.193,1.333,42.97,42.97,0,0,1,2.716,3.877l.476.773q-.485.006-.97.007-2.528.023-5.047-.2a16.822,16.822,0,0,1-1.867-.277,5.767,5.767,0,0,1-.732-.213,3.176,3.176,0,0,1-1.34-4.553Zm5,17.887a3.862,3.862,0,0,1-5-1.22,3.176,3.176,0,0,1,1.34-4.553s.059-.027.172-.067c.135-.043.318-.093.56-.147a17.35,17.35,0,0,1,1.867-.277q2.516-.223,5.047-.2c.329,0,.651,0,.974.007q-.237.388-.479.773a42.97,42.97,0,0,1-2.716,3.877,14.016,14.016,0,0,1-1.2,1.333,5.278,5.278,0,0,1-.567.473ZM26.2,35.333a3.508,3.508,0,0,1-3.66,3.333,3.508,3.508,0,0,1-3.66-3.333,4.545,4.545,0,0,1,.165-.687,13.488,13.488,0,0,1,.67-1.61,41.492,41.492,0,0,1,2.331-4.077l.494-.767.494.767a42.25,42.25,0,0,1,2.331,4.077,13.5,13.5,0,0,1,.67,1.613,4.121,4.121,0,0,1,.165.683ZM38.384,13.667a3.176,3.176,0,0,1-1.34,4.553,5.8,5.8,0,0,1-.732.213,17.351,17.351,0,0,1-1.867.277c-1.508.15-3.287.2-5.047.2-.329,0-.651,0-.974-.007l.479-.773a42.968,42.968,0,0,1,2.716-3.877,14.015,14.015,0,0,1,1.2-1.333,4.2,4.2,0,0,1,.417-.367c.1-.073.146-.1.15-.107a3.862,3.862,0,0,1,5,1.22Zm-5,17.887a5.322,5.322,0,0,1-.567-.47,14.443,14.443,0,0,1-1.2-1.333A42.634,42.634,0,0,1,28.9,25.867q-.24-.385-.476-.773l.97-.007c1.757,0,3.539.05,5.047.2a17.349,17.349,0,0,1,1.867.277c.242.053.425.1.56.147l.176.067a3.176,3.176,0,0,1,1.34,4.553,3.862,3.862,0,0,1-5,1.22Zm-10.849-6.22A3.508,3.508,0,0,1,18.876,22a3.508,3.508,0,0,1,3.66-3.333A3.508,3.508,0,0,1,26.2,22,3.508,3.508,0,0,1,22.536,25.333Z" transform="translate(-2.017 -1.5)" stroke="#000" stroke-width="1"/>
</svg>
