<svg id="_9040095_fan_icon" data-name="9040095_fan_icon" xmlns="http://www.w3.org/2000/svg" width="40" height="40" viewBox="0 0 40 40">
  <path id="Path_34439" data-name="Path 34439" d="M26.008,5a21.277,21.277,0,0,1-2.4,10.2,5.99,5.99,0,0,0-4.459-1.14,21.3,21.3,0,0,0-5.523-8.907q-.71-.71-1.475-1.362A18.124,18.124,0,0,1,25.927,3Q26.008,3.982,26.008,5Zm0,15a5.827,5.827,0,0,1-.036.651,21.388,21.388,0,0,0,10.01-3.018q.878-.507,1.713-1.083a18.01,18.01,0,0,0-7.6-11.469q-.183.968-.436,1.92a21.253,21.253,0,0,1-4.976,9.237A5.964,5.964,0,0,1,26.008,20ZM25.6,22.184a6.026,6.026,0,0,1-3.215,3.327A21.343,21.343,0,0,0,30,32.642q.9.522,1.818.951A17.947,17.947,0,0,0,37.986,21.26c-.625.219-1.265.42-1.926.6a21.382,21.382,0,0,1-10.463.33ZM20,26a5.992,5.992,0,0,1-3.606-1.2A21.252,21.252,0,0,0,14,34.973c0,.69.03,1.371.081,2.034a18.112,18.112,0,0,0,13.8-.813q-.774-.657-1.493-1.374a21.328,21.328,0,0,1-5.517-8.88A6.375,6.375,0,0,1,20,26Zm-6.01-6a6.333,6.333,0,0,1,.042-.717A21.338,21.338,0,0,0,3.993,22.3q-.875.5-1.707,1.077A18.007,18.007,0,0,0,9.874,34.9q.183-.988.445-1.959a21.283,21.283,0,0,1,4.958-9.225A5.958,5.958,0,0,1,13.988,20ZM3.93,18.1a21.338,21.338,0,0,1,10.481-.321,6.025,6.025,0,0,1,3.215-3.3A21.3,21.3,0,0,0,9.991,7.319q-.873-.5-1.785-.936A17.95,17.95,0,0,0,2.016,18.7q.929-.333,1.914-.6ZM20,23a3,3,0,1,0-3.005-3A3,3,0,0,0,20,23Z" transform="translate(0 0)"/>
  <path id="Path_34440" data-name="Path 34440" d="M20,37.5A17.5,17.5,0,1,1,37.5,20,17.5,17.5,0,0,1,20,37.5ZM20,40A20,20,0,1,0,0,20,20,20,0,0,0,20,40Z"/>
</svg>
