<svg xmlns="http://www.w3.org/2000/svg" width="41.003" height="29" viewBox="0 0 41.003 29">
  <path id="_9040857_wifi_2_icon" data-name="9040857_wifi_2_icon" d="M42.075,14.719a1.884,1.884,0,0,0-.234-2.86,34.44,34.44,0,0,0-38.431,0,1.855,1.855,0,0,0-.78,1.372,1.876,1.876,0,0,0,.546,1.488,1.907,1.907,0,0,0,2.425.25,30.818,30.818,0,0,1,34.049,0,1.9,1.9,0,0,0,2.425-.25ZM33.955,23.1a1.82,1.82,0,0,0-.372-2.88,23.564,23.564,0,0,0-21.916,0,1.82,1.82,0,0,0-.372,2.88l.056.058a1.932,1.932,0,0,0,2.273.346,19.934,19.934,0,0,1,18,0,1.928,1.928,0,0,0,2.273-.349Zm-7.387,7.625a1.626,1.626,0,0,0-.149-2.534,7.232,7.232,0,0,0-7.588,0,1.626,1.626,0,0,0-.149,2.534l2.626,2.711a1.819,1.819,0,0,0,2.633,0l2.63-2.714Z" transform="translate(-2.121 -5.5)" stroke="#000" stroke-width="1"/>
</svg>
