<svg id="_9040674_thermometer_sun_icon" data-name="9040674_thermometer_sun_icon" xmlns="http://www.w3.org/2000/svg" width="36" height="40" viewBox="0 0 36 40">
  <path id="Path_34459" data-name="Path 34459" d="M9.5,28.251a3.75,3.75,0,1,1-5-3.538V3.25a1.25,1.25,0,1,1,2.5,0V24.713a3.75,3.75,0,0,1,2.5,3.538Z" transform="translate(3 3)"/>
  <path id="Path_34460" data-name="Path 34460" d="M2.483,6.25a6.207,6.207,0,1,1,12.414,0V25.126a8.793,8.793,0,0,1-.083,12.332,8.647,8.647,0,0,1-12.247,0,8.793,8.793,0,0,1-.083-12.332ZM8.69,2.5A3.737,3.737,0,0,0,4.966,6.25V26.218l-.415.375A6.28,6.28,0,0,0,2.89,33.482a6.192,6.192,0,0,0,11.6,0,6.28,6.28,0,0,0-1.661-6.889l-.412-.378V6.25A3.737,3.737,0,0,0,8.69,2.5ZM21.1,5a1.246,1.246,0,0,1,1.241,1.25v2.5a1.241,1.241,0,1,1-2.483,0V6.25A1.246,1.246,0,0,1,21.1,5ZM31.638,9.393a1.256,1.256,0,0,1,0,1.768l-1.755,1.77a1.237,1.237,0,0,1-1.758,0,1.258,1.258,0,0,1,0-1.77l1.758-1.768A1.235,1.235,0,0,1,31.638,9.393ZM19.862,13.75A1.246,1.246,0,0,1,21.1,12.5a7.5,7.5,0,0,1,0,15,1.25,1.25,0,0,1,0-2.5,5,5,0,0,0,0-10A1.246,1.246,0,0,1,19.862,13.75ZM31.034,20a1.246,1.246,0,0,1,1.241-1.25h2.483a1.25,1.25,0,0,1,0,2.5H32.276A1.246,1.246,0,0,1,31.034,20Zm-2.91,7.07a1.235,1.235,0,0,1,1.758,0l1.755,1.77a1.256,1.256,0,0,1,0,1.768,1.235,1.235,0,0,1-1.756,0l-1.758-1.768a1.256,1.256,0,0,1,0-1.77ZM21.1,30a1.246,1.246,0,0,1,1.241,1.25v2.5a1.241,1.241,0,1,1-2.483,0v-2.5A1.246,1.246,0,0,1,21.1,30Z" transform="translate(0)"/>
</svg>
