<svg xmlns="http://www.w3.org/2000/svg" width="31.421" height="39.183" viewBox="0 0 31.421 39.183">
  <path id="_9040552_scissors_icon" data-name="9040552_scissors_icon" d="M5.8,7.334C4.246,5.094,5.614,2.363,7.975,1L17.2,16.774,26.43,1c2.361,1.363,3.729,4.094,2.174,6.334L19.255,20.28,23.2,27.022a6.334,6.334,0,1,1-2.012,1.614L17.2,23.118,13.22,28.633a6.334,6.334,0,1,1-2.012-1.614L15.15,20.28Zm6.334,25.336a3.8,3.8,0,1,0-3.8,3.8A3.8,3.8,0,0,0,12.135,32.669Zm17.735,0a3.8,3.8,0,1,0-3.8,3.8A3.8,3.8,0,0,0,29.87,32.669Z" transform="translate(-1.492 -0.318)" stroke="#000" stroke-width="1"/>
</svg>
