<svg xmlns="http://www.w3.org/2000/svg" width="35" height="40" viewBox="0 0 35 40">
  <g id="_icons" transform="translate(-3.3 -2.731)">
    <g id="Group_65577" data-name="Group 65577" transform="translate(3.3 2.731)">
      <path id="Path_34491" data-name="Path 34491" d="M13.008,8.015h16.06a1.9,1.9,0,0,0,2.008-2.008A1.9,1.9,0,0,0,29.068,4H13.008A1.9,1.9,0,0,0,11,6.008,1.9,1.9,0,0,0,13.008,8.015Z" transform="translate(3.924 -1.453)"/>
      <path id="Path_34492" data-name="Path 34492" d="M29.068,11H13.008A1.9,1.9,0,0,0,11,13.008a1.9,1.9,0,0,0,2.008,2.008h16.06a1.9,1.9,0,0,0,2.008-2.008A1.9,1.9,0,0,0,29.068,11Z" transform="translate(3.924 5.936)"/>
      <path id="Path_34493" data-name="Path 34493" d="M29.068,18H13.008A1.9,1.9,0,0,0,11,20.008a1.9,1.9,0,0,0,2.008,2.008h16.06a1.9,1.9,0,0,0,2.008-2.008A1.9,1.9,0,0,0,29.068,18Z" transform="translate(3.924 13.368)"/>
      <path id="Path_34494" data-name="Path 34494" d="M11.129,3.672,7.717,8.691l-1-1a1.941,1.941,0,0,0-2.811,0,1.941,1.941,0,0,0,0,2.811l2.61,2.811a1.823,1.823,0,0,0,1.405.6h.2a1.69,1.69,0,0,0,1.405-.8l4.818-7.227a2.123,2.123,0,0,0-.4-2.811A1.975,1.975,0,0,0,11.129,3.672Z" transform="translate(-3.3 -2.731)"/>
      <path id="Path_34495" data-name="Path 34495" d="M11.129,10.672,7.717,15.691l-1-1a1.941,1.941,0,0,0-2.811,0,1.941,1.941,0,0,0,0,2.811l2.61,2.811a1.823,1.823,0,0,0,1.405.6h.2a1.69,1.69,0,0,0,1.405-.8l4.818-7.227a1.975,1.975,0,0,0-.6-2.811A1.785,1.785,0,0,0,11.129,10.672Z" transform="translate(-3.3 4.679)"/>
      <path id="Path_34496" data-name="Path 34496" d="M11.129,17.672,7.717,22.691l-1-1a1.941,1.941,0,0,0-2.811,0,1.941,1.941,0,0,0,0,2.811l2.61,2.811a1.823,1.823,0,0,0,1.405.6h.2a1.69,1.69,0,0,0,1.405-.8l4.818-7.227a1.975,1.975,0,0,0-.6-2.811A1.785,1.785,0,0,0,11.129,17.672Z" transform="translate(-3.3 12.089)"/>
    </g>
  </g>
</svg>
