<svg xmlns="http://www.w3.org/2000/svg" width="35" height="41" viewBox="0 0 35 41">
  <g id="about" transform="translate(-3.5 -1.5)">
    <path id="Path_34469" data-name="Path 34469" d="M18.813,22.125a9.94,9.94,0,0,0,9.813-10.062A9.94,9.94,0,0,0,18.813,2,9.94,9.94,0,0,0,9,12.063a9.94,9.94,0,0,0,9.812,10.062Zm0-17.25a7.1,7.1,0,0,1,7.009,7.188,7.011,7.011,0,1,1-14.018,0A7.1,7.1,0,0,1,18.813,4.875Z" transform="translate(2.188)" stroke="#000" stroke-width="1"/>
    <path id="Path_34470" data-name="Path 34470" d="M22.417,18H19.583A15.7,15.7,0,0,0,4,33.813,1.427,1.427,0,0,0,5.417,35.25H36.583A1.427,1.427,0,0,0,38,33.813,15.7,15.7,0,0,0,22.417,18ZM6.918,32.375a12.819,12.819,0,0,1,12.665-11.5h2.833a12.819,12.819,0,0,1,12.665,11.5Z" transform="translate(0 6.75)" stroke="#000" stroke-width="1"/>
  </g>
</svg>
