<svg xmlns="http://www.w3.org/2000/svg" width="35.349" height="55.103" viewBox="0 0 35.349 55.103">
  <path id="balloon_icon" d="M20.174,34.294c8.254-1.642,13.74-8.6,13.74-17.12a13.74,13.74,0,0,0-27.479,0C6.435,25.693,11.92,32.652,20.174,34.294Zm17.174-17.12c0,9.745-6.145,17.954-15.526,20.269l.838,1.673a.86.86,0,1,1-1.539.769l-.027-.058a8.341,8.341,0,0,0,.127,1,13.852,13.852,0,0,0,1.439,3.445,7.156,7.156,0,0,1,.261,5.6,16.244,16.244,0,0,1-2.02,3.83l-.014.024a.859.859,0,0,1-1.429-.955,14.5,14.5,0,0,0,1.831-3.445,5.4,5.4,0,0,0-.168-4.28l-.045-.1a14.841,14.841,0,0,1-1.539-3.785,10.913,10.913,0,0,1-.179-1.546l-.137.275a.859.859,0,1,1-1.535-.769l.838-1.673C9.145,35.129,3,26.919,3,17.174a17.174,17.174,0,0,1,34.349,0Zm-23.831-1.7a6.88,6.88,0,0,1,4.957-4.957,2.114,2.114,0,0,0,1.7-1.93,1.52,1.52,0,0,0-1.711-1.577,10.315,10.315,0,0,0-8.45,8.453,1.515,1.515,0,0,0,1.573,1.711A2.114,2.114,0,0,0,13.518,15.474Z" transform="translate(-2.5 0.5)" stroke="#000" stroke-width="1" fill-rule="evenodd"/>
</svg>
