<svg xmlns="http://www.w3.org/2000/svg" width="41" height="41" viewBox="0 0 41 41">
  <g id="camera_reels_icon" transform="translate(0.5 0.5)">
    <path id="Path_34413" data-name="Path 34413" d="M15,7.5A7.5,7.5,0,1,1,7.5,0,7.5,7.5,0,0,1,15,7.5ZM2.5,7.5a5,5,0,1,0,5-5A5,5,0,0,0,2.5,7.5Z" stroke="#000" stroke-width="1"/>
    <path id="Path_34414" data-name="Path 34414" d="M22.5,6h1.25a5,5,0,0,1,4.958,4.346L36.482,6.89A2.5,2.5,0,0,1,40,9.173V27.827a2.5,2.5,0,0,1-3.515,2.283l-7.778-3.455A5,5,0,0,1,23.75,31H5a5,5,0,0,1-5-5V11A5,5,0,0,1,5,6Zm15,21.825V9.175l-8.75,3.888V23.938l8.75,3.89ZM2.5,11V26A2.5,2.5,0,0,0,5,28.5H23.75a2.5,2.5,0,0,0,2.5-2.5V11a2.5,2.5,0,0,0-2.5-2.5H5A2.5,2.5,0,0,0,2.5,11Z" transform="translate(0 9)" stroke="#000" stroke-width="1"/>
    <path id="Path_34415" data-name="Path 34415" d="M13.5,15A7.5,7.5,0,1,0,6,7.5,7.5,7.5,0,0,0,13.5,15Zm-5-7.5a5,5,0,1,1,5,5A5,5,0,0,1,8.5,7.5Z" transform="translate(9)" stroke="#000" stroke-width="1"/>
  </g>
</svg>
