<svg xmlns="http://www.w3.org/2000/svg" width="41.004" height="41" viewBox="0 0 41.004 41">
  <g id="cart_dash_icon" transform="translate(0.5 -0.5)">
    <path id="Path_34405" data-name="Path 34405" d="M7.351,7a1.351,1.351,0,1,0,0,2.7H18.163a1.351,1.351,0,0,0,0-2.7Z" transform="translate(9.892 9.984)" stroke="#000" stroke-width="1"/>
    <path id="Path_34406" data-name="Path 34406" d="M1.333,1a1.333,1.333,0,1,0,0,2.667h2.96L5.363,7.952,9.358,29.245a1.333,1.333,0,0,0,1.309,1.088h2.667a5.333,5.333,0,1,0,5.333,5.333,5.333,5.333,0,0,0-5.333-5.333H32a5.333,5.333,0,1,0,5.333,5.333A5.333,5.333,0,0,0,32,30.333h2.667a1.333,1.333,0,0,0,1.309-1.088l4-21.333a1.333,1.333,0,0,0-1.309-1.579H7.707L6.627,2.011A1.333,1.333,0,0,0,5.333,1Zm10.44,26.667L8.272,9h28.79l-3.5,18.667Zm4.227,8A2.667,2.667,0,1,1,13.334,33,2.667,2.667,0,0,1,16,35.667Zm18.667,0A2.667,2.667,0,1,1,32,33,2.667,2.667,0,0,1,34.668,35.667Z" transform="translate(0 0)" stroke="#000" stroke-width="1"/>
  </g>
</svg>
