<svg xmlns="http://www.w3.org/2000/svg" width="50.909" height="35" viewBox="0 0 50.909 35">
  <g id="cloud_check_icon" transform="translate(0 -2)">
    <path id="Path_34409" data-name="Path 34409" d="M22.037,6.466a1.591,1.591,0,0,1,0,2.253l-9.545,9.545a1.591,1.591,0,0,1-2.253,0L5.466,13.492a1.593,1.593,0,0,1,2.253-2.253l3.646,3.65,8.419-8.422a1.591,1.591,0,0,1,2.253,0Z" transform="translate(10.908 8.725)" fill-rule="evenodd"/>
    <path id="Path_34410" data-name="Path 34410" d="M14.019,6.27A17.6,17.6,0,0,1,25.455,2,16.343,16.343,0,0,1,41.892,16.57,10.255,10.255,0,0,1,40.368,37H12.03A11.877,11.877,0,0,1,0,25.285,11.8,11.8,0,0,1,9.361,13.852,13.381,13.381,0,0,1,14.019,6.27ZM16.1,8.679c-2.409,2.078-3.669,4.582-3.669,6.542v1.425l-1.416.156a8.652,8.652,0,0,0-7.83,8.483,8.694,8.694,0,0,0,8.849,8.534H40.368a7.226,7.226,0,0,0,7.36-7.086,7.226,7.226,0,0,0-7.36-7.089H38.777V18.052A13.1,13.1,0,0,0,25.455,5.182a14.414,14.414,0,0,0-9.358,3.5Z"/>
  </g>
</svg>
