<svg xmlns="http://www.w3.org/2000/svg" width="40.141" height="27.597" viewBox="0 0 40.141 27.597">
  <g id="eye_icon" transform="translate(0 -2.5)">
    <path id="Path_34426" data-name="Path 34426" d="M40.141,16.3S32.615,2.5,20.071,2.5,0,16.3,0,16.3,7.526,30.1,20.071,30.1,40.141,16.3,40.141,16.3Zm-37.2,0a32.948,32.948,0,0,1,4.165-5.126c3.229-3.234,7.644-6.164,12.963-6.164s9.732,2.93,12.966,6.164A32.948,32.948,0,0,1,37.2,16.3c-.146.218-.306.459-.489.723a33.084,33.084,0,0,1-3.675,4.4c-3.234,3.234-7.649,6.164-12.966,6.164S10.339,24.658,7.1,21.424A32.951,32.951,0,0,1,2.94,16.3Z"/>
    <path id="Path_34427" data-name="Path 34427" d="M14.5,19.553c-3.464,0-.5-2.35-.5,1.114s-4.189-1.114-.725-1.114-.841,3.464-.841,0,5.528,0,2.064,0Zm-10-6.272a8.781,8.781,0,1,1,8.781,8.781A8.781,8.781,0,0,1,4.5,13.281Z" transform="translate(6.79 3.018)"/>
  </g>
</svg>
