<svg xmlns="http://www.w3.org/2000/svg" width="41" height="41" viewBox="0 0 41 41">
  <path id="gift_icon" d="M7.5,6.25a6.25,6.25,0,0,1,12.5,0,6.25,6.25,0,1,1,12.5,0v.015A7.418,7.418,0,0,1,32.4,7.5h5.1A2.5,2.5,0,0,1,40,10v5a2.5,2.5,0,0,1-2.5,2.5V36.25A3.75,3.75,0,0,1,33.75,40H6.25A3.75,3.75,0,0,1,2.5,36.25V17.5A2.5,2.5,0,0,1,0,15V10A2.5,2.5,0,0,1,2.5,7.5H7.6a7.42,7.42,0,0,1-.1-1.235ZM10.17,7.5H17.5V6.25a3.75,3.75,0,1,0-7.5,0,4.346,4.346,0,0,0,.112,1.075,1.3,1.3,0,0,0,.058.175Zm12.33,0h7.33a1.4,1.4,0,0,0,.057-.175A4.346,4.346,0,0,0,30,6.25a3.75,3.75,0,0,0-7.5,0ZM2.5,10v5h15V10Zm20,0v5h15V10ZM35,17.5H22.5v20H33.75A1.25,1.25,0,0,0,35,36.25Zm-17.5,20v-20H5V36.25A1.25,1.25,0,0,0,6.25,37.5Z" transform="translate(0.5 0.5)" stroke="#000" stroke-width="1"/>
</svg>
