<svg xmlns="http://www.w3.org/2000/svg" width="41" height="41" viewBox="0 0 41 41">
  <path id="globe_icon" d="M0,20A20,20,0,1,1,20,40,20,20,0,0,1,0,20ZM18.75,2.693c-1.675.51-3.338,2.05-4.718,4.638A19.925,19.925,0,0,0,12.863,10H18.75V2.693ZM10.225,10a23.168,23.168,0,0,1,1.6-3.848A16.75,16.75,0,0,1,13.318,3.82,17.563,17.563,0,0,0,5.638,10ZM8.77,18.75a34.256,34.256,0,0,1,.78-6.25H4.185a17.4,17.4,0,0,0-1.64,6.25H8.77Zm3.347-6.25a31.25,31.25,0,0,0-.845,6.25H18.75V12.5Zm9.132,0v6.25h7.475a31.237,31.237,0,0,0-.843-6.25Zm-9.975,8.75a31.249,31.249,0,0,0,.842,6.25H18.75V21.25Zm9.975,0V27.5h6.632a31.134,31.134,0,0,0,.845-6.25ZM12.863,30a19.91,19.91,0,0,0,1.17,2.67c1.38,2.588,3.045,4.125,4.718,4.638V30Zm.455,6.18a16.74,16.74,0,0,1-1.492-2.332A23.17,23.17,0,0,1,10.225,30H5.638a17.56,17.56,0,0,0,7.68,6.18ZM9.55,27.5a34.13,34.13,0,0,1-.78-6.25H2.545a17.316,17.316,0,0,0,1.64,6.25Zm17.132,8.68A17.56,17.56,0,0,0,34.362,30H29.775a23.174,23.174,0,0,1-1.6,3.848A16.72,16.72,0,0,1,26.682,36.18ZM21.25,30v7.308c1.675-.51,3.337-2.05,4.717-4.638A19.91,19.91,0,0,0,27.138,30H21.25Zm9.2-2.5h5.365a17.316,17.316,0,0,0,1.64-6.25H31.23a34.125,34.125,0,0,1-.78,6.25Zm7.005-8.75a17.4,17.4,0,0,0-1.64-6.25H30.45a34.256,34.256,0,0,1,.78,6.25Zm-9.28-12.6A23.137,23.137,0,0,1,29.775,10h4.588a17.56,17.56,0,0,0-7.68-6.18,16.969,16.969,0,0,1,1.493,2.333ZM27.137,10a19.915,19.915,0,0,0-1.17-2.67C24.587,4.742,22.925,3.2,21.25,2.693V10Z" transform="translate(0.5 0.5)" stroke="#000" stroke-width="1"/>
</svg>
