<svg xmlns="http://www.w3.org/2000/svg" width="33" height="41" viewBox="0 0 33 41">
  <path id="headset_icon" d="M18,2.667A13.333,13.333,0,0,0,4.667,16v2.667H7.333A2.667,2.667,0,0,1,10,21.333v8A2.667,2.667,0,0,1,7.333,32H4.667A2.667,2.667,0,0,1,2,29.333V16a16,16,0,0,1,32,0V32a6.667,6.667,0,0,1-6.667,6.667H21.643A2.667,2.667,0,0,1,19.333,40H16.667a2.667,2.667,0,1,1,0-5.333h2.667A2.667,2.667,0,0,1,21.643,36h5.691a4,4,0,0,0,4-4H28.667A2.667,2.667,0,0,1,26,29.333v-8a2.667,2.667,0,0,1,2.667-2.667h2.667V16A13.333,13.333,0,0,0,18,2.667Z" transform="translate(-1.5 0.5)" stroke="#000" stroke-width="1"/>
</svg>
