<svg xmlns="http://www.w3.org/2000/svg" width="35.288" height="41.002" viewBox="0 0 35.288 41.002">
  <path id="hourglass_bottom_icon" d="M2,2.429A1.429,1.429,0,0,1,3.429,1h31.43a1.429,1.429,0,0,1,0,2.857H32V6.715a12.859,12.859,0,0,1-7.309,11.6A2,2,0,0,0,23.43,20v2A2.008,2.008,0,0,0,24.7,23.687,12.858,12.858,0,0,1,32,35.288v2.857h2.857a1.429,1.429,0,0,1,0,2.857H3.429a1.429,1.429,0,0,1,0-2.857H6.286V35.288a12.859,12.859,0,0,1,7.309-11.6A2,2,0,0,0,14.858,22V20a2.008,2.008,0,0,0-1.266-1.686,12.858,12.858,0,0,1-7.306-11.6V3.857H3.429A1.429,1.429,0,0,1,2,2.429ZM9.143,3.857V6.715a10,10,0,0,0,5.683,9.023A4.844,4.844,0,0,1,17.715,20V22a2.6,2.6,0,0,0,2.857,0V20a4.845,4.845,0,0,1,2.889-4.263,10,10,0,0,0,5.683-9.023V3.857Z" transform="translate(-1.5 -0.5)" stroke="#000" stroke-width="1"/>
</svg>
