<svg xmlns="http://www.w3.org/2000/svg" width="32" height="40" viewBox="0 0 32 40">
  <g id="human_resource" data-name="human resource" transform="translate(-2.312 0.008)">
    <path id="Path_34497" data-name="Path 34497" d="M30.02,4.387c-9.329-9.5-24.965-2.616-24.965,11.2,0,.95.374,0-2.487,5.8a2.554,2.554,0,0,0,.107,2.429A2.425,2.425,0,0,0,4.747,25c.439,0,.309-.716.309,5a5.021,5.021,0,0,0,4.876,5h1.625v3.332a1.626,1.626,0,1,0,3.251,0v-5a1.761,1.761,0,0,0-1.625-1.666H9.931A1.646,1.646,0,0,1,8.306,30V23.331a1.761,1.761,0,0,0-1.625-1.666H6.063c2.243-4.715,2.243-4.465,2.243-5C8.306-1.661,31.06.005,31.06,15a16.721,16.721,0,0,1-4.388,11.38c-.7.716-.488.75-.488,11.946a1.626,1.626,0,1,0,3.251,0v-10.1C35.075,21.665,36.521,11.085,30.02,4.387Z" transform="translate(0 0)"/>
    <path id="Path_34498" data-name="Path 34498" d="M23.212,13.664a6.488,6.488,0,0,0,0-3.769A1.784,1.784,0,1,0,21.434,6.8a7.111,7.111,0,0,0-3.271-1.884,1.778,1.778,0,1,0-3.555,0A7.111,7.111,0,0,0,11.319,6.8,1.784,1.784,0,0,0,9.542,9.9a6.489,6.489,0,0,0,0,3.769,1.784,1.784,0,1,0,1.778,3.093,7.111,7.111,0,0,0,3.289,1.884,1.778,1.778,0,1,0,3.555,0,7.111,7.111,0,0,0,3.289-1.884,1.779,1.779,0,0,0,1.76-3.093Zm-6.826,1.671a3.555,3.555,0,1,1,3.555-3.555A3.555,3.555,0,0,1,16.386,15.335Z" transform="translate(3.197 2.448)"/>
  </g>
</svg>
