<svg xmlns="http://www.w3.org/2000/svg" width="41.002" height="40.998" viewBox="0 0 41.002 40.998">
  <g id="Layer_25" data-name="Layer 25" transform="translate(0.503 0.5)">
    <path id="Path_34521" data-name="Path 34521" d="M37.213,3.006A4.423,4.423,0,0,0,33.122,0a4.262,4.262,0,0,0-3.43,1.768,4.2,4.2,0,0,0-2.82-1.1,4.244,4.244,0,0,0-3.187,1.47,4.24,4.24,0,0,0-7.368,0A4.244,4.244,0,0,0,13.123.672a4.2,4.2,0,0,0-2.82,1.1A4.262,4.262,0,0,0,6.874,0a4.423,4.423,0,0,0-4.09,3.006A4.632,4.632,0,0,0,0,7.344a4.577,4.577,0,0,0,3.785,4.614A4.78,4.78,0,0,0,5,14.608c0,.027,0,.052,0,.079,0,.044,0,.066,2.5,24.748A.625.625,0,0,0,8.124,40H31.872a.625.625,0,0,0,.625-.562L35,14.749c0-.021,0-.042,0-.062s0-.052,0-.079a4.78,4.78,0,0,0,1.219-2.65A4.577,4.577,0,0,0,40,7.344a4.632,4.632,0,0,0-2.784-4.338ZM8.686,38.748c-.369-3.653-2.415-23.819-2.437-24.061,0-.1.007-.194.014-.288a3.455,3.455,0,0,1,3.423-3.149,3.42,3.42,0,0,1,2.908,1.612.652.652,0,0,0,.1.12l1.031,25.767ZM14.8,11.737c.072-.044.147-.082.222-.121.05-.026.1-.05.153-.073s.125-.054.192-.078.139-.048.209-.069c.055-.017.111-.034.167-.047.086-.021.174-.036.263-.051.045-.007.089-.017.136-.022a3.343,3.343,0,0,1,.841,0c.049.006.1.019.145.027.091.016.182.03.271.052.057.015.111.035.167.052.077.024.156.046.231.076.058.023.114.051.171.077s.14.062.207.1.111.066.166.1.125.077.187.121.1.079.154.12.117.093.173.144.093.091.139.137.107.109.157.168.082.1.121.153.062.083.091.125V38.748h-4.4L13.923,12.5a3.468,3.468,0,0,1,.8-.711c.027-.017.053-.036.081-.052Zm5.819.991c.029-.042.059-.084.091-.125s.079-.1.121-.153.1-.114.157-.168.091-.094.139-.137.114-.1.173-.144.1-.082.154-.12.125-.082.187-.121.109-.069.166-.1.137-.067.207-.1.113-.054.171-.077c.076-.029.154-.052.231-.076.056-.017.111-.037.167-.052.089-.022.18-.036.271-.052.048-.008.1-.021.145-.027a3.343,3.343,0,0,1,.841,0c.046.006.091.015.136.022.089.014.177.03.263.051.056.014.112.031.167.047.071.021.141.043.209.069s.129.05.192.078.1.047.153.073c.076.038.15.077.222.121.027.016.054.034.081.052a3.468,3.468,0,0,1,.8.709L25.022,38.748h-4.4ZM31.31,38.748H26.273L27.3,12.981a.652.652,0,0,0,.1-.12,3.42,3.42,0,0,1,2.908-1.612A3.455,3.455,0,0,1,33.732,14.4c.007.086.014.172.015.26Zm4.312-28a.625.625,0,0,0-.625.625,3.632,3.632,0,0,1-.347,1.554c-.009-.022-.022-.042-.032-.062a4.806,4.806,0,0,0-.246-.492c-.018-.03-.033-.062-.051-.091a4.773,4.773,0,0,0-.342-.49c-.027-.034-.055-.067-.083-.1a4.709,4.709,0,0,0-.414-.444l0,0A4.746,4.746,0,0,0,33,10.865l-.107-.074a4.643,4.643,0,0,0-.517-.3c-.029-.014-.059-.026-.089-.04a4.621,4.621,0,0,0-.516-.207c-.032-.011-.062-.023-.1-.033a4.583,4.583,0,0,0-.594-.14c-.044-.008-.088-.013-.133-.019A4.577,4.577,0,0,0,30.31,10a4.85,4.85,0,0,0-.506.027c-.057.006-.114.019-.171.027-.108.016-.216.031-.322.054-.067.014-.133.036-.2.053-.092.024-.187.047-.277.078-.07.023-.138.052-.207.078-.084.032-.169.062-.25.1s-.136.068-.2.1-.156.08-.232.125-.131.083-.2.125-.144.095-.214.147-.125.1-.187.146-.133.111-.2.169-.114.109-.169.166c-.035.036-.073.067-.107.1a4.692,4.692,0,0,0-.837-.711l-.059-.037c-.12-.078-.242-.15-.369-.216-.044-.024-.09-.046-.136-.069-.1-.05-.21-.1-.318-.139-.059-.024-.119-.047-.179-.068-.1-.035-.2-.062-.307-.092-.062-.018-.129-.037-.2-.052-.111-.024-.222-.042-.335-.059-.059-.009-.118-.021-.177-.028a4.443,4.443,0,0,0-1.077,0c-.059.007-.116.018-.174.027-.125.019-.246.041-.366.07-.062.016-.129.033-.192.051-.114.032-.226.069-.337.111-.062.022-.121.044-.181.068-.125.051-.241.109-.357.17-.042.022-.086.041-.125.062a4.661,4.661,0,0,0-.449.286c-.038.027-.073.059-.111.088-.106.081-.209.166-.307.256-.049.044-.094.091-.141.137s-.1.091-.142.139c-.045-.049-.095-.092-.142-.139s-.092-.093-.141-.137c-.1-.091-.2-.176-.308-.257-.037-.028-.072-.062-.109-.087a4.633,4.633,0,0,0-.449-.287c-.041-.024-.085-.042-.125-.062-.117-.062-.236-.119-.357-.17l-.181-.068c-.111-.041-.222-.078-.337-.111-.062-.018-.125-.036-.192-.051-.121-.029-.243-.051-.366-.071-.058-.009-.115-.02-.174-.027a4.444,4.444,0,0,0-1.077,0c-.062.007-.118.019-.177.028-.112.017-.224.034-.335.059-.066.015-.131.034-.2.052-.1.028-.206.057-.306.092-.062.021-.119.044-.179.068-.108.042-.214.089-.318.139-.046.022-.091.045-.136.069q-.187.1-.368.216l-.062.037a4.692,4.692,0,0,0-.837.711c-.034-.037-.072-.069-.107-.1-.056-.057-.111-.112-.169-.166s-.13-.114-.2-.169-.121-.1-.184-.146-.142-.1-.214-.147-.129-.086-.2-.125-.154-.084-.232-.125-.134-.071-.2-.1-.167-.069-.25-.1-.137-.055-.207-.078c-.091-.031-.184-.054-.277-.078-.067-.018-.132-.039-.2-.053-.106-.023-.214-.038-.322-.054-.057-.008-.113-.021-.171-.027A4.849,4.849,0,0,0,9.686,10a4.578,4.578,0,0,0-.638.049c-.045.006-.089.012-.133.019a4.584,4.584,0,0,0-.594.14c-.032.01-.062.022-.1.033a4.786,4.786,0,0,0-.515.207c-.029.014-.059.026-.089.041a4.7,4.7,0,0,0-.517.3L7,10.865a4.687,4.687,0,0,0-.477.381l-.006,0a4.749,4.749,0,0,0-.414.437c-.028.034-.056.067-.084.1a4.745,4.745,0,0,0-.341.489c-.019.031-.034.062-.052.092a4.687,4.687,0,0,0-.246.492c-.009.022-.023.041-.031.062A3.632,3.632,0,0,1,5,11.374a.625.625,0,0,0-.625-.625A3.279,3.279,0,0,1,1.249,7.343,3.405,3.405,0,0,1,3.479,4.08a.625.625,0,0,0,.409-.424A3.152,3.152,0,0,1,6.874,1.25,3.1,3.1,0,0,1,9.639,3.075a.625.625,0,0,0,1.062.1,3.022,3.022,0,0,1,2.422-1.257A3.1,3.1,0,0,1,15.87,3.7a.612.612,0,0,0,.613.343.625.625,0,0,0,.544-.444,3.052,3.052,0,0,1,5.942,0,.625.625,0,0,0,.544.444.61.61,0,0,0,.613-.343,3.1,3.1,0,0,1,2.746-1.782,3.022,3.022,0,0,1,2.421,1.257.625.625,0,0,0,1.062-.1A3.1,3.1,0,0,1,33.122,1.25a3.152,3.152,0,0,1,2.986,2.406.625.625,0,0,0,.409.424,3.405,3.405,0,0,1,2.23,3.264,3.279,3.279,0,0,1-3.125,3.405Z" transform="translate(0)" stroke="#000" stroke-width="1"/>
    <path id="Path_34522" data-name="Path 34522" d="M13,8H11a1,1,0,0,0,0,2h2a1,1,0,0,0,0-2Z" transform="translate(-4.001)" stroke="#000" stroke-width="1"/>
    <path id="Path_34523" data-name="Path 34523" d="M33,8H31a1,1,0,0,0,0,2h2a1,1,0,0,0,0-2Z" transform="translate(-12.002)" stroke="#000" stroke-width="1"/>
    <path id="Path_34524" data-name="Path 34524" d="M23,12H21a1,1,0,0,0,0,2h2a1,1,0,0,0,0-2Z" transform="translate(-8.002 -4.646)" stroke="#000" stroke-width="1"/>
    <path id="Path_34525" data-name="Path 34525" d="M53,8H51a1,1,0,0,0,0,2h2a1,1,0,0,0,0-2Z" transform="translate(-20.003)" stroke="#000" stroke-width="1"/>
    <path id="Path_34526" data-name="Path 34526" d="M43,12H41a1,1,0,0,0,0,2h2a1,1,0,0,0,0-2Z" transform="translate(-16.002 -4.646)" stroke="#000" stroke-width="1"/>
  </g>
</svg>
