<svg xmlns="http://www.w3.org/2000/svg" width="41.434" height="41.599" viewBox="0 0 41.434 41.599">
  <g id="Layer_1" transform="translate(-0.198 -0.335)">
    <path id="Path_34512" data-name="Path 34512" d="M7.746,27.412H7.708V27.5L1.132,43.181,30.073,31.044l-16.8-16.8ZM17.737,34.4l-3.343,1.4V17.729l3.343,3.343Zm1.672-11.662,3.343,3.343V32.3l-3.343,1.4ZM12.723,36.508l-3.343,1.4V27.837l3.343-7.973ZM7.708,31.823v6.787L4.254,40.059ZM24.424,31.6V27.758l2.708,2.708Z" transform="translate(0 -2.181)" stroke="#000" stroke-width="1"/>
    <path id="Path_34513" data-name="Path 34513" d="M26.343,9a3.343,3.343,0,1,0,3.343,3.343A3.346,3.346,0,0,0,26.343,9Zm0,5.015a1.672,1.672,0,1,1,1.672-1.672A1.673,1.673,0,0,1,26.343,14.015Z" transform="translate(-3.595 -1.315)" stroke="#000" stroke-width="1"/>
    <path id="Path_34514" data-name="Path 34514" d="M44.343,1a3.343,3.343,0,1,0,3.343,3.343A3.346,3.346,0,0,0,44.343,1Zm0,5.015a1.672,1.672,0,1,1,1.672-1.672A1.673,1.673,0,0,1,44.343,6.015Z" transform="translate(-6.554)" stroke="#000" stroke-width="1"/>
    <path id="Path_34515" data-name="Path 34515" d="M39.343,17a3.343,3.343,0,1,0,3.343,3.343A3.346,3.346,0,0,0,39.343,17Zm0,5.015a1.672,1.672,0,1,1,1.672-1.672A1.673,1.673,0,0,1,39.343,22.015Z" transform="translate(-5.733 -2.63)" stroke="#000" stroke-width="1"/>
    <path id="Path_34516" data-name="Path 34516" d="M35.808,30.236l1.182,1.182a5.959,5.959,0,0,1,8.417,0l1.182-1.182A7.631,7.631,0,0,0,35.808,30.236Z" transform="translate(-5.702 -4.439)" stroke="#000" stroke-width="1"/>
    <path id="Path_34517" data-name="Path 34517" d="M18.475,13.081a5.857,5.857,0,0,0,0-8.273L17.293,5.99a4.184,4.184,0,0,1,0,5.91Z" transform="translate(-2.657 -0.625)" stroke="#000" stroke-width="1"/>
    <path id="Path_34518" data-name="Path 34518" d="M35.475,12.262a7.938,7.938,0,0,0,0-11.212L34.293,2.232a6.265,6.265,0,0,1,0,8.848Z" transform="translate(-5.451 -0.008)" stroke="#000" stroke-width="1"/>
    <rect id="Rectangle_5791" data-name="Rectangle 5791" width="1.672" height="1.672" transform="translate(23.584 16.877)" stroke="#000" stroke-width="1"/>
    <rect id="Rectangle_5792" data-name="Rectangle 5792" width="1.672" height="1.672" transform="translate(36.953 10.192)" stroke="#000" stroke-width="1"/>
    <rect id="Rectangle_5793" data-name="Rectangle 5793" width="1.672" height="1.672" transform="translate(20.241 2.672)" stroke="#000" stroke-width="1"/>
  </g>
</svg>
