<svg xmlns="http://www.w3.org/2000/svg" width="36.273" height="48.039" viewBox="0 0 36.273 48.039">
  <path id="lightbulb_icon" d="M2,17.631A17.63,17.63,0,1,1,31.895,30.3a5.72,5.72,0,0,0-1.331,1.819l-2.239,5.2a1.469,1.469,0,0,1-1.349.887,1.469,1.469,0,1,1,0,2.938,1.469,1.469,0,1,1,0,2.938l-.658,1.313a2.938,2.938,0,0,1-2.627,1.625H15.569a2.938,2.938,0,0,1-2.627-1.625l-.658-1.313a1.469,1.469,0,1,1,0-2.938,1.469,1.469,0,1,1,0-2.938,1.469,1.469,0,0,1-1.352-.887L8.7,32.112A5.771,5.771,0,0,0,7.365,30.3,17.583,17.583,0,0,1,2,17.631ZM19.63,2.94A14.692,14.692,0,0,0,9.408,28.186a8.629,8.629,0,0,1,1.986,2.765l1.86,4.311H26.012l1.857-4.311a8.629,8.629,0,0,1,1.986-2.765A14.692,14.692,0,0,0,19.63,2.94Z" transform="translate(-1.5 0.524)" stroke="#000" stroke-width="1"/>
</svg>
