<svg xmlns="http://www.w3.org/2000/svg" width="41.11" height="41.11" viewBox="0 0 41.11 41.11">
  <path id="magic_icon" d="M24.251,6.489a1.319,1.319,0,0,0,2.639,0V1.662a1.319,1.319,0,0,0-2.639,0Zm11.875.092a1.319,1.319,0,1,0-1.866-1.866L30.849,8.127a1.319,1.319,0,1,0,1.866,1.866Zm-17.7,3.412a1.319,1.319,0,1,0,1.866-1.866L16.881,4.715a1.319,1.319,0,1,0-1.866,1.866Zm-1.639,6.6a1.319,1.319,0,1,0,0-2.639H11.962a1.319,1.319,0,1,0,0,2.639Zm22.392,0a1.319,1.319,0,1,0,0-2.639H34.353a1.319,1.319,0,1,0,0,2.639Zm-4.919,9.236a1.319,1.319,0,1,0,1.866-1.866l-3.412-3.412a1.319,1.319,0,1,0-1.866,1.866Zm-10.01,3.053a1.319,1.319,0,0,0,2.639,0V24.053a1.319,1.319,0,0,0-2.639,0Zm4.893-13.45a1.319,1.319,0,0,0,0-1.863L27.276,11.7a1.32,1.32,0,0,0-1.866,0L22,15.112a1.319,1.319,0,0,0,0,1.866l1.868,1.868a1.32,1.32,0,0,0,1.866,0l3.412-3.412Zm-7.917,7.916a1.319,1.319,0,0,0,0-1.863l-1.868-1.868a1.32,1.32,0,0,0-1.866,0L.886,36.223a1.319,1.319,0,0,0,0,1.866l1.868,1.868a1.32,1.32,0,0,0,1.866,0L21.227,23.345Z" transform="translate(0.111 0.157)" stroke="#000" stroke-width="1"/>
</svg>
