<svg xmlns="http://www.w3.org/2000/svg" width="26.251" height="41.402" viewBox="0 0 26.251 41.402">
  <g id="phone_icon" transform="translate(-2.5 0.5)">
    <path id="Path_34422" data-name="Path 34422" d="M23.2,2.525A2.525,2.525,0,0,1,25.726,5.05v30.3A2.525,2.525,0,0,1,23.2,37.877H8.05a2.525,2.525,0,0,1-2.525-2.525V5.05A2.525,2.525,0,0,1,8.05,2.525ZM8.05,0A5.05,5.05,0,0,0,3,5.05v30.3A5.05,5.05,0,0,0,8.05,40.4H23.2a5.05,5.05,0,0,0,5.05-5.05V5.05A5.05,5.05,0,0,0,23.2,0Z" transform="translate(0)" stroke="#000" stroke-width="1"/>
    <path id="Path_34423" data-name="Path 34423" d="M9.525,17.05A2.525,2.525,0,1,0,7,14.525,2.525,2.525,0,0,0,9.525,17.05Z" transform="translate(6.1 18.301)" stroke="#000" stroke-width="1"/>
  </g>
</svg>
