<svg xmlns="http://www.w3.org/2000/svg" width="41.006" height="33" viewBox="0 0 41.006 33">
  <g id="piggy_bank_icon" transform="translate(0.411 -1.027)">
    <path id="Path_34424" data-name="Path 34424" d="M7.272,10.416A1.886,1.886,0,1,1,5.386,8.53a1.886,1.886,0,0,1,1.886,1.886Zm2.862-3.762a16.838,16.838,0,0,1,9.353.048,1.257,1.257,0,1,0,.719-2.41A19.375,19.375,0,0,0,9.44,4.234a1.258,1.258,0,1,0,.694,2.419Z" transform="translate(5.158 3.112)" stroke="#000" stroke-width="1"/>
    <path id="Path_34425" data-name="Path 34425" d="M19.885,1.527c-7.487,0-14.011,4.362-15.895,10.56H2.607A2.5,2.5,0,0,0,.684,13a2.593,2.593,0,0,0-.551,2.086l.639,3.738a3.792,3.792,0,0,0,3.717,3.182H5.15a14.469,14.469,0,0,0,2.88,3.538L6.2,31.886a1.3,1.3,0,0,0,.2,1.128,1.25,1.25,0,0,0,1.007.513h5.03a1.259,1.259,0,0,0,1.185-.85l1.212-3.458a19.04,19.04,0,0,0,10.158-.013l1.366,3.512a1.258,1.258,0,0,0,1.169.809h5.03a1.25,1.25,0,0,0,1.009-.518,1.3,1.3,0,0,0,.193-1.133L31.841,25.46a13.189,13.189,0,0,0,4.482-9.746c0-.371-.018-.742-.05-1.1a6.377,6.377,0,0,0,1.773-1.137c.792.783,2.05.783,2.05-1.068,0,.571-1.257.571-1.159-.067a2.461,2.461,0,0,0,.226-.653,1.812,1.812,0,0,0-.508-1.651,1.44,1.44,0,0,0-1.778-.251,1.883,1.883,0,0,0-.943,1.439,1.838,1.838,0,0,0,.8,1.674,5.291,5.291,0,0,1-.651.392c-1.343-6.82-8.259-11.763-16.2-11.763ZM6.184,13.643c1.144-5.289,6.707-9.556,13.7-9.556,7.912,0,13.923,5.412,13.923,11.628a10.754,10.754,0,0,1-4.2,8.315,1.294,1.294,0,0,0-.415,1.37l1.66,5.568H28.376L26.892,27.16a1.251,1.251,0,0,0-1.582-.737,16.47,16.47,0,0,1-10.85,0,1.252,1.252,0,0,0-1.6.778l-1.32,3.766H9.081l1.592-5.5a1.293,1.293,0,0,0-.428-1.367,11.855,11.855,0,0,1-3.229-3.945,1.255,1.255,0,0,0-1.122-.7H4.486a1.264,1.264,0,0,1-1.237-1.06L2.61,14.65H4.956a1.263,1.263,0,0,0,1.227-1.006ZM37.925,11.45a1.458,1.458,0,0,1-.246.538q-.056-.03-.111-.064c-.367-.23-.395-.448-.382-.571a.6.6,0,0,1,.294-.443.2.2,0,0,1,.284.031.523.523,0,0,1,.161.509Z" transform="translate(0)" stroke="#000" stroke-width="1" fill-rule="evenodd"/>
  </g>
</svg>
