<svg xmlns="http://www.w3.org/2000/svg" width="26.251" height="41.402" viewBox="0 0 26.251 41.402">
  <path id="plug_cable_icon" d="M12.1,0a1.263,1.263,0,0,1,1.263,1.263V7.575h7.575V1.263a1.263,1.263,0,0,1,2.525,0V7.575h2.525a1.263,1.263,0,0,1,1.263,1.263v7.575a8.838,8.838,0,0,1-8.838,8.838c-.005,1.1-.025,2.134-.1,3.081a10.821,10.821,0,0,1-.8,3.6,5.26,5.26,0,0,1-2.449,2.6,9.262,9.262,0,0,1-4.225.828,6.5,6.5,0,0,0-4.985,1.813A4.853,4.853,0,0,0,4.525,40.4H2a7.387,7.387,0,0,1,2.013-4.969,9.018,9.018,0,0,1,6.825-2.606,6.784,6.784,0,0,0,3.076-.553,2.742,2.742,0,0,0,1.3-1.389,8.352,8.352,0,0,0,.581-2.752c.068-.859.088-1.813.093-2.881A8.838,8.838,0,0,1,7.05,16.413V8.838A1.263,1.263,0,0,1,8.313,7.575h2.525V1.263A1.263,1.263,0,0,1,12.1,0ZM9.575,10.1v6.313a6.313,6.313,0,0,0,6.313,6.313h2.525a6.313,6.313,0,0,0,6.313-6.313V10.1Z" transform="translate(-1.5 0.5)" stroke="#000" stroke-width="1"/>
</svg>
