<svg xmlns="http://www.w3.org/2000/svg" width="31.977" height="36.402" viewBox="0 0 31.977 36.402">
  <path id="trash3_icon" d="M13.169,2.213h6.638a1.106,1.106,0,0,1,1.106,1.106V5.532h-8.85V3.319A1.106,1.106,0,0,1,13.169,2.213Zm9.957,3.319V3.319A3.319,3.319,0,0,0,19.807,0H13.169A3.319,3.319,0,0,0,9.85,3.319V5.532H2.106a1.106,1.106,0,1,0,0,2.213H3.3L5.184,31.331A4.425,4.425,0,0,0,9.6,35.4H23.381a4.425,4.425,0,0,0,4.412-4.072L29.68,7.744h1.19a1.106,1.106,0,1,0,0-2.213H23.126Zm4.332,2.213L25.587,31.154a2.213,2.213,0,0,1-2.206,2.036H9.6A2.213,2.213,0,0,1,7.39,31.153L5.518,7.744ZM10.893,9.957A1.106,1.106,0,0,1,12.061,11L13.167,29.8a1.106,1.106,0,1,1-2.208.133L9.85,11.129a1.106,1.106,0,0,1,1.04-1.173Zm11.191,0a1.106,1.106,0,0,1,1.04,1.173L22.018,29.937a1.106,1.106,0,1,1-2.208-.133L20.916,11a1.106,1.106,0,0,1,1.168-1.04Zm-5.6,0a1.106,1.106,0,0,1,1.106,1.106V29.87a1.106,1.106,0,0,1-2.213,0V11.063A1.106,1.106,0,0,1,16.488,9.957Z" transform="translate(-0.5 0.5)" stroke="#000" stroke-width="1"/>
</svg>
