<svg width="41" height="41" viewBox="0 0 41 41" fill="none" xmlns="http://www.w3.org/2000/svg">
<path d="M23.2779 0L23.3165 0.00643393L23.3551 0.0128679L23.3937 0.0193019L23.4259 0.0321699L23.458 0.0450378L23.4902 0.0579057L23.5224 0.0707736L23.5545 0.0900756L23.5867 0.109377L23.6189 0.128679L23.6446 0.154415L23.6703 0.180151L23.6961 0.205887L23.7218 0.231623L23.7476 0.263793L23.7733 0.295963L23.799 0.328132L23.8248 0.360302L23.8505 0.392472L23.8762 0.431076L23.8955 0.46968L23.9148 0.508284L23.9341 0.546888L23.9534 0.585491L23.9727 0.624095L23.992 0.669133L24.0113 0.714171L24.0306 0.759209L24.0499 0.804246L24.0693 0.849284L24.0886 0.894322L24.1079 0.93936L24.1272 0.984398L24.1465 1.03587L24.1658 1.08734L24.1851 1.13881L24.2044 1.19028L24.2237 1.24176L25.0858 4.49091L25.356 4.57455L25.9544 4.78687L26.5463 5.02493L27.1254 5.28229L27.6916 5.55895L27.7366 5.58469L30.6512 3.89899L30.6962 3.87325L30.7413 3.84751L30.7863 3.82178L30.8314 3.79604L30.8764 3.77031L30.9214 3.75101L30.9665 3.7317L31.0115 3.7124L31.0565 3.6931L31.1016 3.6738L31.1466 3.6545L31.1917 3.63519L31.2367 3.62233L31.2817 3.60946L31.3268 3.59659L31.3718 3.58372L31.4168 3.57085L31.4555 3.55799L31.4941 3.54512L31.5327 3.53868L31.5713 3.53225L31.6099 3.52582L31.6485 3.51938H31.6871H31.7257H31.7643H31.8029L31.8415 3.52582L31.8801 3.53225L31.9123 3.53868L31.9444 3.54512L31.9766 3.55799L32.0088 3.57085L32.0409 3.58372L32.0731 3.60302L32.1053 3.62233L32.1375 3.64163L32.1696 3.66736L32.2018 3.6931L32.234 3.71884L36.4804 7.96526L36.5061 7.99743L36.5319 8.0296L36.5576 8.06177L36.5769 8.09394L36.5962 8.12611L36.6155 8.15828L36.6284 8.19045L36.6412 8.22261L36.6541 8.25478L36.667 8.29339L36.6734 8.33199L36.6798 8.3706L36.6863 8.4092V8.4478V8.48641V8.52501V8.56362L36.6798 8.60222L36.6734 8.64082L36.667 8.67943L36.6605 8.71803L36.6541 8.75663L36.6412 8.80167L36.6284 8.84671L36.6155 8.89175L36.6026 8.93679L36.5898 8.98182L36.5705 9.02686L36.5512 9.0719L36.5319 9.11694L36.5125 9.16197L36.4932 9.20701L36.4739 9.25205L36.4482 9.29709L36.4225 9.34213L36.3967 9.38716L36.371 9.4322L36.3453 9.47724L36.3195 9.52228L36.2938 9.56732L34.6081 12.4819L34.6403 12.5462L34.9169 13.1124L35.1743 13.6915L35.4123 14.2834L35.6247 14.8818L35.7083 15.152L38.9575 16.0142L39.0089 16.027L39.0604 16.0399L39.1119 16.0528L39.1633 16.0656L39.2148 16.0785L39.2599 16.0914L39.3049 16.1042L39.3499 16.1171L39.395 16.13L39.44 16.1493L39.485 16.1686L39.5301 16.1879L39.5751 16.2072L39.6137 16.2265L39.6523 16.2458L39.6909 16.2651L39.7295 16.2844L39.7681 16.3037L39.8067 16.3294L39.8389 16.3552L39.8711 16.3809L39.9033 16.4066L39.9354 16.4324L39.9676 16.4581L39.9933 16.4838L40.0191 16.5096L40.0448 16.5417L40.0705 16.5739L40.0898 16.6061L40.1091 16.6382L40.1284 16.6704L40.1413 16.7026L40.1542 16.7348L40.167 16.7669L40.1799 16.8055L40.1863 16.8441L40.1928 16.8827L40.1992 16.9213V16.9599V16.9986V23.0014V23.0401V23.0787L40.1928 23.1173L40.1863 23.1559L40.1799 23.1945L40.167 23.2266L40.1542 23.2588L40.1413 23.291L40.1284 23.3231L40.1091 23.3553L40.0898 23.3875L40.0705 23.4197L40.0448 23.4454L40.0191 23.4711L39.9933 23.4969L39.9676 23.5226L39.9354 23.5483L39.9033 23.5741L39.8711 23.5998L39.8389 23.6255L39.8067 23.6513L39.7681 23.677L39.7295 23.6963L39.6909 23.7156L39.6523 23.7349L39.6137 23.7542L39.5751 23.7735L39.5301 23.7928L39.485 23.8121L39.44 23.8314L39.395 23.8507L39.3499 23.87L39.3049 23.8893L39.2599 23.9086L39.2148 23.9279L39.1633 23.9472L39.1119 23.9665L39.0604 23.9858L39.0089 24.0051L38.9575 24.0244L35.7083 24.8866L35.6247 25.1568L35.4123 25.7552L35.1743 26.3471L34.9169 26.9262L34.6403 27.4924L34.6081 27.531L36.2938 30.4391L36.3195 30.4842L36.3453 30.5292L36.371 30.5742L36.3967 30.6193L36.4225 30.6643L36.4482 30.7093L36.4739 30.7544L36.4932 30.7994L36.5125 30.8445L36.5319 30.8895L36.5512 30.9345L36.5705 30.9796L36.5898 31.0246L36.6026 31.0696L36.6155 31.1147L36.6284 31.1597L36.6412 31.2048L36.6541 31.2498L36.6605 31.2948L36.667 31.3334L36.6734 31.372L36.6798 31.4106L36.6863 31.4493V31.4879V31.5265V31.5651V31.6037L36.6798 31.6423L36.6734 31.6809L36.667 31.7195L36.6541 31.7581L36.6412 31.7903L36.6284 31.8224L36.6026 31.8417L36.5833 31.8739L36.564 31.9061L36.5447 31.9382L36.519 31.9704L36.4932 32.0026L36.4675 32.0347L32.2211 36.2812L32.1889 36.3069L32.1568 36.3326L32.1246 36.3584L32.0924 36.3777L32.0602 36.397L32.0345 36.4098L32.0023 36.4227L31.9702 36.4356L31.938 36.4484L31.9058 36.4549L31.8737 36.4613L31.8351 36.4678L31.7964 36.4742H31.7578H31.7192H31.6806H31.642L31.6034 36.4678L31.5648 36.4613L31.5262 36.4549L31.4876 36.4484L31.449 36.4356L31.4104 36.4227L31.3654 36.4098L31.3203 36.397L31.2753 36.3841L31.2303 36.3712L31.1852 36.3519L31.1402 36.3326L31.0951 36.3133L31.0501 36.294L31.0051 36.2812L30.96 36.2619L30.915 36.2426L30.87 36.2233L30.8249 36.1975L30.7799 36.1718L30.7348 36.1461L30.6898 36.1203L30.6448 36.0946L27.7237 34.4153L27.6658 34.4475L27.0997 34.7241L26.5206 34.9815L25.9287 35.2196L25.3303 35.4319L25.0601 35.5155L24.1979 38.7647L24.1786 38.8162L24.1593 38.8676L24.14 38.9191L24.1207 38.9706L24.1014 39.022L24.0821 39.0671L24.0628 39.1121L24.0435 39.1572L24.0242 39.2022L24.0049 39.2472L23.9856 39.2923L23.9663 39.3373L23.947 39.3823L23.9277 39.4209L23.9084 39.4595L23.8891 39.4982L23.8698 39.5368L23.8505 39.5754L23.8248 39.614L23.799 39.6461L23.7733 39.6783L23.7476 39.7105L23.7218 39.7426L23.6961 39.7748L23.6703 39.8005L23.6446 39.8263L23.6189 39.852L23.5931 39.8778L23.561 39.8971L23.5288 39.9164L23.4966 39.9357L23.4645 39.9485L23.4323 39.9614L23.4001 39.9743L23.3679 39.9871L23.3293 39.9936L23.2907 40L23.2521 40.0064H23.2135H23.1749H17.172H17.1334H17.0948L17.0562 40L17.0176 39.9936L16.979 39.9871L16.9404 39.9743L16.9082 39.9614L16.8761 39.9485L16.8439 39.9357L16.8117 39.9164L16.7796 39.8971L16.7474 39.8778L16.7152 39.852L16.6831 39.8263L16.6573 39.8005L16.6316 39.7748L16.6058 39.7426L16.5801 39.7105L16.5544 39.6783L16.5286 39.6461L16.5029 39.614L16.4772 39.5754L16.4579 39.5368L16.4386 39.4982L16.4193 39.4595L16.4 39.4209L16.3807 39.3823L16.3614 39.3373L16.3421 39.2923L16.3228 39.2472L16.3034 39.2022L16.2906 39.1572L16.2777 39.1121L16.2648 39.0671L16.252 39.022L16.2391 38.9706L16.2262 38.9191L16.2134 38.8676L16.2005 38.8162L16.1876 38.7647L15.3255 35.5155L15.0553 35.4319L14.4569 35.2196L13.865 34.9815L13.2859 34.7241L12.7197 34.4475L12.649 34.4089L9.75367 36.0881L9.70863 36.1139L9.66359 36.1396L9.61855 36.1654L9.57351 36.1911L9.52848 36.2168L9.48344 36.2426L9.4384 36.2683L9.39336 36.2876L9.34833 36.3069L9.30329 36.3262L9.25825 36.3455L9.21321 36.3648L9.16818 36.3841L9.12314 36.397L9.0781 36.4098L9.03306 36.4227L8.98802 36.4356L8.94299 36.4484L8.89795 36.4549L8.85934 36.4613L8.82074 36.4678L8.78214 36.4742L8.74353 36.4806H8.70493H8.66633H8.62772L8.58912 36.4742L8.55051 36.4678L8.51191 36.4613L8.47331 36.4549L8.4347 36.442L8.40253 36.4291L8.37036 36.4163L8.33819 36.4034L8.30602 36.3841L8.27385 36.3648L8.24168 36.3455L8.20951 36.3198L8.17734 36.294L8.14517 36.2683L3.89875 32.0219L3.87302 31.9897L3.84728 31.9575L3.82154 31.9254L3.80224 31.8932L3.78294 31.861L3.76364 31.8289L3.75077 31.7967L3.7379 31.7645L3.72503 31.7323L3.7186 31.7002L3.71217 31.668L3.70573 31.6294L3.72503 31.5844V31.5458V31.5072V31.4686V31.4299L3.73147 31.3913L3.7379 31.3527L3.74434 31.3141L3.75077 31.2755L3.76364 31.2369L3.77651 31.1983L3.78937 31.1533L3.80224 31.1083L3.81511 31.0632L3.82798 31.0182L3.84728 30.9731L3.86658 30.9281L3.88588 30.8831L3.90519 30.838L3.92449 30.793L3.94379 30.7479L3.96309 30.7029L3.98239 30.6579L4.00813 30.6128L4.03387 30.5678L4.0596 30.5228L4.08534 30.4777L4.11107 30.4327L5.78391 27.5245L5.75817 27.4731L5.48151 26.9069L5.22415 26.3278L4.98609 25.7359L4.77377 25.1375L4.69013 24.8673L1.44098 24.0051L1.3895 23.9858L1.33803 23.9665L1.28656 23.9472L1.23509 23.9279L1.18362 23.9086L1.13858 23.8893L1.09354 23.87L1.0485 23.8507L1.00347 23.8314L0.958427 23.8121L0.91339 23.7928L0.868352 23.7735L0.823314 23.7542L0.78471 23.7349L0.746106 23.7156L0.707503 23.6963L0.668899 23.677L0.630295 23.6577L0.591691 23.632L0.559521 23.6062L0.527351 23.5805L0.495181 23.5548L0.463012 23.529L0.430842 23.5033L0.405106 23.4776L0.37937 23.4518L0.353634 23.4261L0.327898 23.4004L0.308596 23.3682L0.289294 23.336L0.269992 23.3038L0.257125 23.2717L0.244257 23.2395L0.231389 23.2073L0.218521 23.1752L0.212087 23.1366L0.205653 23.098L0.199219 23.0594V23.0207V22.9821V16.9792V16.9406V16.902L0.205653 16.8634L0.212087 16.8248L0.218521 16.7862L0.231389 16.7476L0.244257 16.7155L0.257125 16.6833L0.269992 16.6511L0.289294 16.6189L0.308596 16.5868L0.327898 16.5546L0.353634 16.5224L0.37937 16.4903L0.405106 16.4645L0.430842 16.4388L0.463012 16.4131L0.495181 16.3873L0.527351 16.3616L0.559521 16.3359L0.591691 16.3101L0.630295 16.2844L0.668899 16.2651L0.707503 16.2458L0.746106 16.2265L0.78471 16.2072L0.823314 16.1879L0.868352 16.1686L0.91339 16.1493L0.958427 16.13L1.00347 16.1107L1.0485 16.0978L1.09354 16.0849L1.13858 16.0721L1.18362 16.0592L1.23509 16.0463L1.28656 16.0335L1.33803 16.0206L1.3895 16.0077L1.44098 15.9949L4.69013 15.1327L4.77377 14.8625L4.98609 14.2641L5.22415 13.6722L5.48151 13.0931L5.75817 12.5269L5.78391 12.4755L4.09821 9.56732L4.07247 9.52228L4.04673 9.47724L4.021 9.4322L3.99526 9.38716L3.96953 9.34213L3.95022 9.29709L3.93092 9.25205L3.91805 9.19414L3.89875 9.14911L3.87945 9.10407L3.86015 9.05903L3.84085 9.01399L3.82154 8.96896L3.80868 8.92392L3.79581 8.87888L3.78294 8.83384L3.77007 8.7888L3.7572 8.7502L3.74434 8.7116L3.7379 8.67299L3.73147 8.63439L3.72503 8.59578L3.7186 8.55718V8.51858V8.47997V8.44137V8.40277L3.72503 8.36416L3.73147 8.32556L3.7379 8.29339L3.74434 8.26122L3.7572 8.22905L3.77007 8.19688L3.78937 8.16471L3.80868 8.13254L3.82798 8.10037L3.84728 8.0682L3.87302 8.03603L3.89875 8.00386L3.92449 7.97169L8.17091 3.72527L8.20308 3.69953L8.23525 3.6738L8.26742 3.64806L8.29959 3.62876L8.33176 3.60946L8.35749 3.59659L8.38966 3.58372L8.42183 3.57085L8.454 3.55799L8.49261 3.54512L8.53121 3.53868L8.56982 3.53225L8.60842 3.52582H8.64702H8.68563H8.72423H8.76283L8.80144 3.53225L8.84004 3.53868L8.87865 3.54512L8.91725 3.55155L8.96229 3.55799L9.00733 3.57085L9.05236 3.58372L9.0974 3.59659L9.14244 3.60946L9.18748 3.62233L9.23251 3.64163L9.27755 3.66093L9.32259 3.68023L9.36763 3.69953L9.41267 3.71884L9.4577 3.73814L9.50274 3.76387L9.54778 3.78961L9.59282 3.81535L9.63785 3.84108L9.68289 3.86682L9.72793 3.89255L9.77297 3.91829L12.6683 5.59112L12.7262 5.55895L13.2924 5.28229L13.8714 5.02493L14.4633 4.78687L15.0617 4.57455L15.3319 4.49091L16.1941 1.24176L16.2069 1.19028L16.2198 1.13881L16.2327 1.08734L16.2455 1.03587L16.2584 0.984398L16.2713 0.93936L16.2841 0.894322L16.297 0.849284L16.3099 0.804246L16.3292 0.759209L16.3485 0.714171L16.3678 0.669133L16.3871 0.624095L16.4064 0.585491L16.4257 0.546888L16.445 0.508284L16.4643 0.46968L16.4836 0.431076L16.5093 0.392472L16.5351 0.360302L16.5608 0.328132L16.5865 0.295963L16.6123 0.263793L16.638 0.231623L16.6638 0.205887L16.6895 0.180151L16.7217 0.154415L16.7538 0.128679L16.786 0.109377L16.8182 0.0900756L16.8503 0.0707736L16.8825 0.0579057L16.9147 0.0450378L16.9468 0.0321699L16.9854 0.0193019L17.0241 0.0128679L17.0627 0.00643393L17.1013 0H17.1399H17.1785H23.1814H23.22H23.2779ZM19.4754 11.2788L19.1215 11.3109L18.7741 11.3624L18.4331 11.4267L18.0921 11.5039L17.7575 11.594L17.4294 11.697L17.1077 11.8128L16.7924 11.9415L16.4836 12.083L16.1812 12.231L15.8852 12.3918L15.5957 12.5655L15.3126 12.7521L15.036 12.9451L14.7657 13.151L14.5084 13.3634L14.2574 13.5885L14.013 13.8202L13.7813 14.0647L13.5561 14.3156L13.3438 14.5729L13.1379 14.8432L12.9449 15.1198L12.7583 15.4029L12.5846 15.6925L12.4238 15.9884L12.2758 16.2908L12.1342 16.5996L12.0056 16.9149L11.8897 17.2366L11.7868 17.5647L11.6967 17.8993L11.6195 18.2403L11.5552 18.5813L11.5037 18.9287L11.4715 19.2826L11.4522 19.6365L11.4458 19.9968L11.4522 20.3571L11.4715 20.711L11.5037 21.0648L11.5552 21.4123L11.6195 21.7533L11.6967 22.0943L11.7868 22.4288L11.8897 22.757L12.0056 23.0787L12.1342 23.3939L12.2758 23.7027L12.4238 24.0051L12.5846 24.3011L12.7583 24.5906L12.9449 24.8737L13.1379 25.1504L13.3438 25.4206L13.5561 25.678L13.7813 25.9289L14.013 26.1734L14.2574 26.405L14.5084 26.6302L14.7657 26.8425L15.036 27.0484L15.3126 27.2414L15.5957 27.428L15.8852 27.6017L16.1812 27.7626L16.4836 27.9106L16.7924 28.0521L17.1077 28.1808L17.4294 28.2966L17.7575 28.3995L18.0921 28.4896L18.4331 28.5668L18.7741 28.6312L19.1215 28.6826L19.4754 28.7148L19.8293 28.7341L20.1896 28.7405L20.5499 28.7341L20.9037 28.7148L21.2576 28.6826L21.605 28.6312L21.946 28.5668L22.287 28.4896L22.6216 28.3995L22.9497 28.2966L23.2714 28.1808L23.5867 28.0521L23.8955 27.9106L24.1979 27.7626L24.4939 27.6017L24.7834 27.428L25.0665 27.2414L25.3432 27.0484L25.6134 26.8425L25.8708 26.6302L26.1217 26.405L26.3662 26.1734L26.5978 25.9289L26.823 25.678L27.0353 25.4206L27.2412 25.1504L27.4342 24.8737L27.6208 24.5906L27.7945 24.3011L27.9554 24.0051L28.1034 23.7027L28.2449 23.3939L28.3736 23.0787L28.4894 22.757L28.5923 22.4288L28.6824 22.0943L28.7596 21.7533L28.824 21.4123L28.8754 21.0648L28.9076 20.711L28.9269 20.3571L28.9333 19.9968L28.9269 19.6365L28.9076 19.2826L28.8754 18.9287L28.824 18.5813L28.7596 18.2403L28.6824 17.8993L28.5923 17.5647L28.4894 17.2366L28.3736 16.9149L28.2449 16.5996L28.1034 16.2908L27.9554 15.9884L27.7945 15.6925L27.6208 15.4029L27.4342 15.1198L27.2412 14.8432L27.0353 14.5729L26.823 14.3156L26.5978 14.0647L26.3662 13.8202L26.1217 13.5885L25.8708 13.3634L25.6134 13.151L25.3432 12.9451L25.0665 12.7521L24.7834 12.5655L24.4939 12.3918L24.1979 12.231L23.8955 12.083L23.5867 11.9415L23.2714 11.8128L22.9497 11.697L22.6216 11.594L22.287 11.5039L21.946 11.4267L21.605 11.3624L21.2576 11.3109L20.9037 11.2788L20.5499 11.2594L20.1896 11.253L19.8293 11.2594L19.4754 11.2788Z" fill="#838383"/>
</svg>
