<svg xmlns="http://www.w3.org/2000/svg" width="18.5" height="18.5" viewBox="0 0 18.5 18.5">
  <g id="noun-check-box-3637772" transform="translate(-222.148 -142.946)">
    <path id="Path_12408" data-name="Path 12408" d="M218.59,155.2H208.206a3.8,3.8,0,0,1-3.808-3.808V141a3.8,3.8,0,0,1,3.808-3.808H218.59A3.8,3.8,0,0,1,222.4,141v10.384A3.8,3.8,0,0,1,218.59,155.2Zm-10.384-17.307A3.1,3.1,0,0,0,205.09,141v10.384a3.1,3.1,0,0,0,3.115,3.115H218.59a3.1,3.1,0,0,0,3.115-3.115V141a3.1,3.1,0,0,0-3.115-3.115Z" transform="translate(18 6)" stroke="#000" stroke-width="0.5"/>
  </g>
</svg>
