<svg xmlns="http://www.w3.org/2000/svg" width="20" height="20" viewBox="0 0 20 20">
  <g id="Dark_grey_-_after_selection" data-name="Dark grey - after selection" transform="translate(-438 -306)">
    <rect id="Rectangle_5562" data-name="Rectangle 5562" width="20" height="20" transform="translate(438 306)" fill="none"/>
    <g id="trash-can" transform="translate(443 308.5)">
      <path id="XMLID_1089_" d="M93.039,91.879l-.323-1.008a.479.479,0,0,0-.453-.34H83.85a.479.479,0,0,0-.453.34l-.323,1.008a.351.351,0,0,0,.321.464h9.322A.351.351,0,0,0,93.039,91.879Z" transform="translate(-83.057 -87.888)" fill="#707070"/>
      <path id="XMLID_835_" d="M102.044,190.06a.666.666,0,0,0,.65.609h5.572a.666.666,0,0,0,.65-.609l.994-9.37H101.05Z" transform="translate(-100.508 -175.67)" fill="#707070"/>
      <path id="XMLID_831_" d="M196.812,1.421a.416.416,0,0,1,.4-.429h1.358a.416.416,0,0,1,.4.429V2h.922V1.421A1.375,1.375,0,0,0,198.569,0h-1.358a1.375,1.375,0,0,0-1.321,1.421V2h.922Z" transform="translate(-192.89 0)" fill="#707070"/>
    </g>
  </g>
</svg>
