<svg xmlns="http://www.w3.org/2000/svg" width="24" height="24" viewBox="0 0 24 24">
  <g id="instagram" transform="translate(-2312 -9111)">
    <path id="instagram-logo-fill-svgrepo-com" d="M35.833,33.934a1.9,1.9,0,1,1-1.9-1.9A1.9,1.9,0,0,1,35.833,33.934Zm4.035-2.611v5.222a3.327,3.327,0,0,1-3.323,3.323H31.323A3.327,3.327,0,0,1,28,36.545V31.323A3.327,3.327,0,0,1,31.323,28h5.222A3.327,3.327,0,0,1,39.868,31.323Zm-3.086,2.611a2.848,2.848,0,1,0-2.848,2.848A2.848,2.848,0,0,0,36.782,33.934Zm.949-3.086a.712.712,0,1,0-.712.712A.712.712,0,0,0,37.732,30.848Z" transform="translate(2290.066 9089.066)" fill="#fff"/>
    <g id="Ellipse_126" data-name="Ellipse 126" transform="translate(2312 9111)" fill="none" stroke="#fff" stroke-width="1.5">
      <circle cx="12" cy="12" r="12" stroke="none"/>
      <circle cx="12" cy="12" r="11.25" fill="none"/>
    </g>
  </g>
</svg>
