<svg width="20" height="18" viewBox="0 0 20 18" fill="none" xmlns="http://www.w3.org/2000/svg">
<path d="M0 5.63941C0.227853 5.14507 0.573561 4.81682 1.14712 4.80496C1.44569 4.79705 1.74818 4.80496 2.04675 4.80496C2.1371 4.80496 2.22746 4.80496 2.34532 4.80496C2.34532 4.46485 2.34139 4.13661 2.34532 3.81232C2.34924 3.65017 2.34532 3.48012 2.3846 3.32588C2.50638 2.79199 2.96995 2.41629 3.51208 2.40838C3.90886 2.40047 4.30564 2.40838 4.72992 2.40838C4.72992 1.98918 4.72599 1.59371 4.72992 1.19428C4.73384 0.790892 4.89491 0.454739 5.23276 0.245137C5.42919 0.12254 5.67668 0.0197169 5.90061 0.0157622C7.31094 -0.00401153 8.71734 -0.00401153 10.1277 0.0078527C10.603 0.0118074 10.9566 0.260956 11.1727 0.684114C11.3848 1.09936 11.5891 1.51461 11.7855 1.93777C11.8562 2.08805 11.9387 2.14341 12.1076 2.14341C14.3076 2.1355 16.5036 2.13946 18.7036 2.13946C19.3832 2.13946 19.8664 2.52307 19.9804 3.15187C20 3.24679 20 3.34961 20 3.44453C20 5.93997 20 8.43541 20 10.9309C20 11.7178 19.4972 12.2201 18.7115 12.2201C18.354 12.2201 17.9965 12.2201 17.6154 12.2201C17.6154 12.5839 17.6154 12.928 17.6154 13.276C17.6154 14.1342 17.1322 14.6206 16.2836 14.6206C15.9379 14.6206 15.5962 14.6206 15.2308 14.6206C15.2308 14.9884 15.2151 15.3364 15.2347 15.6805C15.2819 16.4715 14.6808 17.033 13.8951 17.0291C9.76625 17.0133 5.6374 17.0133 1.50854 17.0291C0.824985 17.037 0.298566 16.8551 0 16.2025C0 12.6828 0 9.15913 0 5.63941ZM14.0444 8.12694C13.9501 8.12694 13.8715 8.12694 13.7969 8.12694C11.5969 8.12694 9.4009 8.12694 7.20094 8.12694C6.65488 8.12694 6.26989 7.88175 6.03025 7.39136C5.8299 6.98007 5.62561 6.56877 5.42919 6.15352C5.37419 6.03093 5.30348 5.98347 5.16598 5.98347C3.88922 5.99138 2.60852 5.98742 1.33176 5.98742C1.26891 5.98742 1.20605 5.99534 1.15498 5.99534C1.15498 9.28568 1.15498 12.5523 1.15498 15.8229C5.46062 15.8229 9.74661 15.8229 14.0483 15.8229C14.0444 13.2642 14.0444 10.7094 14.0444 8.12694ZM17.6154 11.0218C18.0279 11.0218 18.4207 11.0218 18.8097 11.0218C18.8097 8.45519 18.8097 5.90438 18.8097 3.32984C18.7115 3.32984 18.629 3.32984 18.5465 3.32984C16.3897 3.32984 14.229 3.32193 12.0723 3.33379C11.4477 3.33775 11.0155 3.0886 10.7562 2.51121C10.5834 2.12364 10.3791 1.74794 10.1984 1.36038C10.1395 1.22987 10.0687 1.17846 9.91947 1.18241C8.64663 1.19032 7.37773 1.18637 6.10489 1.18637C6.04203 1.18637 5.97918 1.18637 5.92025 1.18637C5.92025 1.60557 5.92025 1.99709 5.92025 2.40047C6.50167 2.40047 7.06737 2.40443 7.63308 2.40047C8.19485 2.39652 8.5877 2.64567 8.83127 3.15187C9.02377 3.55526 9.22805 3.95073 9.41269 4.35412C9.47554 4.49649 9.55412 4.53999 9.70733 4.53999C11.9191 4.53603 14.1269 4.53603 16.3386 4.53603C17.1086 4.53603 17.6115 5.0462 17.6154 5.82133C17.6193 6.66369 17.6154 7.50209 17.6154 8.34445C17.6154 9.23427 17.6154 10.1201 17.6154 11.0218ZM3.52779 4.80496C4.12493 4.80496 4.70634 4.80496 5.28383 4.80496C5.81418 4.80496 6.19132 5.04224 6.42703 5.51681C6.63131 5.93206 6.84345 6.34731 7.03987 6.77046C7.10273 6.90493 7.17737 6.94447 7.3188 6.94447C9.50304 6.94052 11.6873 6.95634 13.8755 6.93261C14.6376 6.9247 15.2583 7.44673 15.2426 8.31677C15.2112 9.94612 15.2347 11.5755 15.2347 13.2009C15.2347 13.276 15.2347 13.3512 15.2347 13.4223C15.6551 13.4223 16.044 13.4223 16.429 13.4223C16.429 10.8557 16.429 8.30095 16.429 5.72641C16.3426 5.72641 16.264 5.72641 16.1894 5.72641C14.009 5.72641 11.8326 5.72246 9.65233 5.73037C9.04734 5.73432 8.63485 5.47726 8.38342 4.93151C8.20271 4.53999 7.99843 4.15638 7.81772 3.76486C7.75879 3.63435 7.68808 3.5869 7.53879 3.5869C6.26596 3.59481 4.99312 3.59085 3.72422 3.59085C3.66136 3.59085 3.59851 3.59481 3.53172 3.59876C3.52779 4.00214 3.52779 4.38971 3.52779 4.80496Z" fill="black"/>
</svg>
