<svg width="21" height="25" viewBox="0 0 21 25" fill="none" xmlns="http://www.w3.org/2000/svg">
<path d="M15.1621 1H3.84912C3.11445 1.00079 2.4101 1.29299 1.89061 1.81248C1.37112 2.33198 1.07892 3.03633 1.07812 3.771V21.5C1.07892 22.2347 1.37112 22.939 1.89061 23.4585C2.4101 23.978 3.11445 24.2702 3.84912 24.271H17.1491C17.8838 24.2702 18.5881 23.978 19.1076 23.4585C19.6271 22.939 19.9193 22.2347 19.9201 21.5V5.759L15.1621 1ZM18.8121 21.5C18.8116 21.9408 18.6362 22.3634 18.3244 22.675C18.0126 22.9866 17.5899 23.1617 17.1491 23.162H3.84912C3.40832 23.1617 2.98565 22.9866 2.67386 22.675C2.36207 22.3634 2.18666 21.9408 2.18613 21.5V3.771C2.18666 3.33011 2.36204 2.90743 2.6738 2.59567C2.98556 2.28391 3.40823 2.10853 3.84912 2.108H14.7031L18.8121 6.218V21.5Z" stroke="#3D3D3D"/>
</svg>
