<svg width="19" height="19" viewBox="0 0 19 19" fill="none" xmlns="http://www.w3.org/2000/svg">
<g opacity="0.5">
<path fill-rule="evenodd" clip-rule="evenodd" d="M8.88038 2.16899C8.88011 1.68372 8.68723 1.21841 8.34409 0.875277C8.00096 0.532142 7.53564 0.339254 7.05038 0.338989H2.16837C1.68311 0.339254 1.2178 0.532142 0.874664 0.875277C0.53153 1.21841 0.338644 1.68372 0.338379 2.16899V7.04999C0.338644 7.53525 0.53153 8.00057 0.874664 8.3437C1.2178 8.68684 1.68311 8.87972 2.16837 8.87999H7.04938C7.53464 8.87972 7.99995 8.68684 8.34309 8.3437C8.68622 8.00057 8.87911 7.53525 8.87938 7.04999L8.88038 2.16899ZM7.66038 2.16899V7.04999C7.66038 7.13023 7.64457 7.20968 7.61387 7.28381C7.58316 7.35794 7.53816 7.4253 7.48142 7.48203C7.42469 7.53877 7.35733 7.58378 7.2832 7.61448C7.20907 7.64519 7.12962 7.66099 7.04938 7.66099H2.16837C2.08814 7.66099 2.00868 7.64519 1.93456 7.61448C1.86043 7.58378 1.79307 7.53877 1.73634 7.48203C1.6796 7.4253 1.6346 7.35794 1.60389 7.28381C1.57318 7.20968 1.55737 7.13023 1.55737 7.04999V2.16899C1.55737 2.00694 1.62175 1.85153 1.73634 1.73695C1.85092 1.62236 2.00633 1.55799 2.16837 1.55799H7.04938C7.21142 1.55799 7.36684 1.62236 7.48142 1.73695C7.59601 1.85153 7.66038 2.00694 7.66038 2.16899Z" fill="black"/>
<path fill-rule="evenodd" clip-rule="evenodd" d="M8.88038 11.932C8.88011 11.4467 8.68723 10.9814 8.34409 10.6383C8.00096 10.2951 7.53564 10.1023 7.05038 10.102H2.16837C1.68311 10.1023 1.2178 10.2951 0.874664 10.6383C0.53153 10.9814 0.338644 11.4467 0.338379 11.932V16.813C0.338644 17.2983 0.53153 17.7636 0.874664 18.1067C1.2178 18.4498 1.68311 18.6427 2.16837 18.643H7.04938C7.53464 18.6427 7.99995 18.4498 8.34309 18.1067C8.68622 17.7636 8.87911 17.2983 8.87938 16.813L8.88038 11.932ZM7.66038 11.932V16.813C7.66038 16.975 7.59601 17.1304 7.48142 17.245C7.36684 17.3596 7.21142 17.424 7.04938 17.424H2.16837C2.00633 17.424 1.85092 17.3596 1.73634 17.245C1.62175 17.1304 1.55737 16.975 1.55737 16.813V11.932C1.55737 11.7699 1.62175 11.6145 1.73634 11.4999C1.85092 11.3854 2.00633 11.321 2.16837 11.321H7.04938C7.21142 11.321 7.36684 11.3854 7.48142 11.4999C7.59601 11.6145 7.66038 11.7699 7.66038 11.932Z" fill="black"/>
<path fill-rule="evenodd" clip-rule="evenodd" d="M18.6436 2.16899C18.6433 1.68355 18.4503 1.21809 18.1069 0.874924C17.7636 0.531761 17.298 0.338989 16.8126 0.338989H11.9316C11.4461 0.338989 10.9806 0.531761 10.6372 0.874924C10.2939 1.21809 10.1009 1.68355 10.1006 2.16899V7.04999C10.1009 7.53543 10.2939 8.00089 10.6372 8.34406C10.9806 8.68722 11.4461 8.87999 11.9316 8.87999H16.8126C17.298 8.87999 17.7636 8.68722 18.1069 8.34406C18.4503 8.00089 18.6433 7.53543 18.6436 7.04999V2.16899ZM17.4236 2.16899V7.04999C17.4236 7.13023 17.4078 7.20968 17.3771 7.28381C17.3464 7.35794 17.3014 7.4253 17.2446 7.48203C17.1879 7.53877 17.1205 7.58378 17.0464 7.61448C16.9723 7.64519 16.8928 7.66099 16.8126 7.66099H11.9316C11.8513 7.66099 11.7719 7.64519 11.6978 7.61448C11.6236 7.58378 11.5563 7.53877 11.4995 7.48203C11.4428 7.4253 11.3978 7.35794 11.3671 7.28381C11.3364 7.20968 11.3206 7.13023 11.3206 7.04999V2.16899C11.3206 2.00694 11.385 1.85153 11.4995 1.73695C11.6141 1.62236 11.7695 1.55799 11.9316 1.55799H16.8126C16.9746 1.55799 17.13 1.62236 17.2446 1.73695C17.3592 1.85153 17.4236 2.00694 17.4236 2.16899Z" fill="black"/>
<path fill-rule="evenodd" clip-rule="evenodd" d="M18.6436 11.932C18.6433 11.4465 18.4503 10.9811 18.1069 10.6379C17.7636 10.2947 17.298 10.102 16.8126 10.102H11.9316C11.4461 10.102 10.9806 10.2947 10.6372 10.6379C10.2939 10.9811 10.1009 11.4465 10.1006 11.932V16.813C10.1009 17.2984 10.2939 17.7639 10.6372 18.1071C10.9806 18.4502 11.4461 18.643 11.9316 18.643H16.8126C17.298 18.643 17.7636 18.4502 18.1069 18.1071C18.4503 17.7639 18.6433 17.2984 18.6436 16.813V11.932ZM17.4236 11.932V16.813C17.4236 16.975 17.3592 17.1304 17.2446 17.245C17.13 17.3596 16.9746 17.424 16.8126 17.424H11.9316C11.7695 17.424 11.6141 17.3596 11.4995 17.245C11.385 17.1304 11.3206 16.975 11.3206 16.813V11.932C11.3206 11.7699 11.385 11.6145 11.4995 11.4999C11.6141 11.3854 11.7695 11.321 11.9316 11.321H16.8126C16.9746 11.321 17.13 11.3854 17.2446 11.4999C17.3592 11.6145 17.4236 11.7699 17.4236 11.932Z" fill="black"/>
</g>
</svg>
