<svg width="40" height="41" viewBox="0 0 40 41" fill="none" xmlns="http://www.w3.org/2000/svg">
<path d="M23.0787 0L23.1173 0.00643393L23.1559 0.0128679L23.1945 0.0193019L23.2266 0.0321699L23.2588 0.0450378L23.291 0.0579057L23.3231 0.0707736L23.3553 0.0900756L23.3875 0.109377L23.4197 0.128679L23.4454 0.154415L23.4711 0.180151L23.4969 0.205887L23.5226 0.231623L23.5483 0.263793L23.5741 0.295963L23.5998 0.328133L23.6255 0.360302L23.6513 0.392472L23.677 0.431076L23.6963 0.46968L23.7156 0.508284L23.7349 0.546888L23.7542 0.585491L23.7735 0.624095L23.7928 0.669133L23.8121 0.714171L23.8314 0.759209L23.8507 0.804246L23.87 0.849284L23.8893 0.894322L23.9086 0.93936L23.9279 0.984398L23.9472 1.03587L23.9665 1.08734L23.9858 1.13881L24.0051 1.19028L24.0244 1.24176L24.8866 4.49091L25.1568 4.57455L25.7552 4.78687L26.3471 5.02493L26.9262 5.28229L27.4924 5.55895L27.5374 5.58469L30.452 3.89899L30.497 3.87325L30.5421 3.84752L30.5871 3.82178L30.6321 3.79604L30.6772 3.77031L30.7222 3.75101L30.7673 3.7317L30.8123 3.7124L30.8573 3.6931L30.9024 3.6738L30.9474 3.6545L30.9924 3.63519L31.0375 3.62233L31.0825 3.60946L31.1276 3.59659L31.1726 3.58372L31.2176 3.57085L31.2562 3.55799L31.2948 3.54512L31.3334 3.53868L31.372 3.53225L31.4106 3.52582L31.4493 3.51938H31.4879H31.5265H31.5651H31.6037L31.6423 3.52582L31.6809 3.53225L31.713 3.53868L31.7452 3.54512L31.7774 3.55799L31.8096 3.57085L31.8417 3.58372L31.8739 3.60302L31.9061 3.62233L31.9382 3.64163L31.9704 3.66736L32.0026 3.6931L32.0347 3.71884L36.2812 7.96526L36.3069 7.99743L36.3326 8.0296L36.3584 8.06177L36.3777 8.09394L36.397 8.12611L36.4163 8.15828L36.4291 8.19044L36.442 8.22262L36.4549 8.25478L36.4677 8.29339L36.4742 8.33199L36.4806 8.3706L36.487 8.4092V8.4478V8.48641V8.52501V8.56361L36.4806 8.60222L36.4742 8.64082L36.4677 8.67943L36.4613 8.71803L36.4549 8.75663L36.442 8.80167L36.4291 8.84671L36.4163 8.89175L36.4034 8.93679L36.3905 8.98182L36.3712 9.02686L36.3519 9.0719L36.3326 9.11694L36.3133 9.16197L36.294 9.20701L36.2747 9.25205L36.249 9.29709L36.2233 9.34213L36.1975 9.38716L36.1718 9.4322L36.146 9.47724L36.1203 9.52228L36.0946 9.56732L34.4089 12.4819L34.441 12.5462L34.7177 13.1124L34.9751 13.6915L35.2131 14.2834L35.4254 14.8818L35.5091 15.152L38.7582 16.0142L38.8097 16.027L38.8612 16.0399L38.9127 16.0528L38.9641 16.0656L39.0156 16.0785L39.0606 16.0914L39.1057 16.1042L39.1507 16.1171L39.1958 16.13L39.2408 16.1493L39.2858 16.1686L39.3309 16.1879L39.3759 16.2072L39.4145 16.2265L39.4531 16.2458L39.4917 16.2651L39.5303 16.2844L39.5689 16.3037L39.6075 16.3294L39.6397 16.3552L39.6719 16.3809L39.704 16.4066L39.7362 16.4324L39.7684 16.4581L39.7941 16.4838L39.8198 16.5096L39.8456 16.5417L39.8713 16.5739L39.8906 16.6061L39.9099 16.6383L39.9292 16.6704L39.9421 16.7026L39.955 16.7348L39.9678 16.7669L39.9807 16.8055L39.9871 16.8441L39.9936 16.8827L40 16.9213V16.9599V16.9986V23.0014V23.0401V23.0787L39.9936 23.1173L39.9871 23.1559L39.9807 23.1945L39.9678 23.2266L39.955 23.2588L39.9421 23.291L39.9292 23.3231L39.9099 23.3553L39.8906 23.3875L39.8713 23.4197L39.8456 23.4454L39.8198 23.4711L39.7941 23.4969L39.7684 23.5226L39.7362 23.5483L39.704 23.5741L39.6719 23.5998L39.6397 23.6255L39.6075 23.6513L39.5689 23.677L39.5303 23.6963L39.4917 23.7156L39.4531 23.7349L39.4145 23.7542L39.3759 23.7735L39.3309 23.7928L39.2858 23.8121L39.2408 23.8314L39.1958 23.8507L39.1507 23.87L39.1057 23.8893L39.0606 23.9086L39.0156 23.9279L38.9641 23.9472L38.9127 23.9665L38.8612 23.9858L38.8097 24.0051L38.7582 24.0244L35.5091 24.8866L35.4254 25.1568L35.2131 25.7552L34.9751 26.3471L34.7177 26.9262L34.441 27.4924L34.4089 27.531L36.0946 30.4391L36.1203 30.4842L36.146 30.5292L36.1718 30.5742L36.1975 30.6193L36.2233 30.6643L36.249 30.7093L36.2747 30.7544L36.294 30.7994L36.3133 30.8445L36.3326 30.8895L36.3519 30.9345L36.3712 30.9796L36.3905 31.0246L36.4034 31.0696L36.4163 31.1147L36.4291 31.1597L36.442 31.2048L36.4549 31.2498L36.4613 31.2948L36.4677 31.3334L36.4742 31.372L36.4806 31.4106L36.487 31.4493V31.4879V31.5265V31.5651V31.6037L36.4806 31.6423L36.4742 31.6809L36.4677 31.7195L36.4549 31.7581L36.442 31.7903L36.4291 31.8224L36.4034 31.8417L36.3841 31.8739L36.3648 31.9061L36.3455 31.9382L36.3198 31.9704L36.294 32.0026L36.2683 32.0347L32.0219 36.2812L31.9897 36.3069L31.9575 36.3326L31.9254 36.3584L31.8932 36.3777L31.861 36.397L31.8353 36.4098L31.8031 36.4227L31.7709 36.4356L31.7388 36.4484L31.7066 36.4549L31.6744 36.4613L31.6358 36.4678L31.5972 36.4742H31.5586H31.52H31.4814H31.4428L31.4042 36.4678L31.3656 36.4613L31.327 36.4549L31.2884 36.4484L31.2498 36.4356L31.2112 36.4227L31.1662 36.4098L31.1211 36.397L31.0761 36.3841L31.031 36.3712L30.986 36.3519L30.941 36.3326L30.8959 36.3133L30.8509 36.294L30.8059 36.2812L30.7608 36.2619L30.7158 36.2426L30.6707 36.2233L30.6257 36.1975L30.5807 36.1718L30.5356 36.1461L30.4906 36.1203L30.4456 36.0946L27.5245 34.4153L27.4666 34.4475L26.9004 34.7241L26.3214 34.9815L25.7295 35.2196L25.1311 35.4319L24.8609 35.5155L23.9987 38.7647L23.9794 38.8162L23.9601 38.8676L23.9408 38.9191L23.9215 38.9706L23.9022 39.022L23.8829 39.0671L23.8636 39.1121L23.8443 39.1572L23.825 39.2022L23.8057 39.2472L23.7864 39.2923L23.7671 39.3373L23.7478 39.3823L23.7285 39.4209L23.7092 39.4595L23.6899 39.4981L23.6706 39.5368L23.6513 39.5754L23.6255 39.614L23.5998 39.6461L23.5741 39.6783L23.5483 39.7105L23.5226 39.7426L23.4969 39.7748L23.4711 39.8005L23.4454 39.8263L23.4197 39.852L23.3939 39.8778L23.3617 39.8971L23.3296 39.9164L23.2974 39.9357L23.2652 39.9485L23.2331 39.9614L23.2009 39.9743L23.1687 39.9871L23.1301 39.9936L23.0915 40L23.0529 40.0064H23.0143H22.9757H16.9728H16.9342H16.8956L16.857 40L16.8184 39.9936L16.7798 39.9871L16.7412 39.9743L16.709 39.9614L16.6769 39.9485L16.6447 39.9357L16.6125 39.9164L16.5803 39.8971L16.5482 39.8778L16.516 39.852L16.4838 39.8263L16.4581 39.8005L16.4324 39.7748L16.4066 39.7426L16.3809 39.7105L16.3552 39.6783L16.3294 39.6461L16.3037 39.614L16.2779 39.5754L16.2586 39.5368L16.2393 39.4981L16.22 39.4595L16.2007 39.4209L16.1814 39.3823L16.1621 39.3373L16.1428 39.2923L16.1235 39.2472L16.1042 39.2022L16.0914 39.1572L16.0785 39.1121L16.0656 39.0671L16.0528 39.022L16.0399 38.9706L16.027 38.9191L16.0142 38.8676L16.0013 38.8162L15.9884 38.7647L15.1263 35.5155L14.856 35.4319L14.2577 35.2196L13.6658 34.9815L13.0867 34.7241L12.5205 34.4475L12.4497 34.4089L9.55445 36.0881L9.50941 36.1139L9.46437 36.1396L9.41933 36.1654L9.3743 36.1911L9.32926 36.2168L9.28422 36.2426L9.23918 36.2683L9.19415 36.2876L9.14911 36.3069L9.10407 36.3262L9.05903 36.3455L9.01399 36.3648L8.96896 36.3841L8.92392 36.397L8.87888 36.4098L8.83384 36.4227L8.78881 36.4356L8.74377 36.4484L8.69873 36.4549L8.66013 36.4613L8.62152 36.4678L8.58292 36.4742L8.54431 36.4806H8.50571H8.46711H8.4285L8.3899 36.4742L8.35129 36.4678L8.31269 36.4613L8.27409 36.4549L8.23548 36.442L8.20331 36.4291L8.17114 36.4163L8.13897 36.4034L8.1068 36.3841L8.07463 36.3648L8.04246 36.3455L8.01029 36.3198L7.97812 36.294L7.94595 36.2683L3.69953 32.0219L3.6738 31.9897L3.64806 31.9575L3.62233 31.9254L3.60302 31.8932L3.58372 31.861L3.56442 31.8289L3.55155 31.7967L3.53868 31.7645L3.52582 31.7323L3.51938 31.7002L3.51295 31.668L3.50651 31.6294L3.52582 31.5844V31.5458V31.5072V31.4686V31.4299L3.53225 31.3913L3.53868 31.3527L3.54512 31.3141L3.55155 31.2755L3.56442 31.2369L3.57729 31.1983L3.59016 31.1533L3.60302 31.1083L3.61589 31.0632L3.62876 31.0182L3.64806 30.9731L3.66736 30.9281L3.68667 30.8831L3.70597 30.838L3.72527 30.793L3.74457 30.7479L3.76387 30.7029L3.78317 30.6579L3.80891 30.6128L3.83465 30.5678L3.86038 30.5228L3.88612 30.4777L3.91185 30.4327L5.58469 27.5245L5.55895 27.4731L5.28229 26.9069L5.02493 26.3278L4.78687 25.7359L4.57455 25.1375L4.49091 24.8673L1.24176 24.0051L1.19028 23.9858L1.13881 23.9665L1.08734 23.9472L1.03587 23.9279L0.984398 23.9086L0.93936 23.8893L0.894322 23.87L0.849284 23.8507L0.804246 23.8314L0.759209 23.8121L0.714171 23.7928L0.669133 23.7735L0.624095 23.7542L0.585491 23.7349L0.546888 23.7156L0.508284 23.6963L0.46968 23.677L0.431076 23.6577L0.392472 23.632L0.360302 23.6062L0.328133 23.5805L0.295963 23.5548L0.263793 23.529L0.231623 23.5033L0.205887 23.4776L0.180151 23.4518L0.154415 23.4261L0.128679 23.4004L0.109377 23.3682L0.0900756 23.336L0.0707737 23.3038L0.0579058 23.2717L0.0450378 23.2395L0.0321699 23.2073L0.0193019 23.1752L0.0128679 23.1366L0.006434 23.098L0 23.0594V23.0207V22.9821V16.9792V16.9406V16.902L0.006434 16.8634L0.0128679 16.8248L0.0193019 16.7862L0.0321699 16.7476L0.0450378 16.7155L0.0579058 16.6833L0.0707737 16.6511L0.0900756 16.6189L0.109377 16.5868L0.128679 16.5546L0.154415 16.5224L0.180151 16.4903L0.205887 16.4645L0.231623 16.4388L0.263793 16.4131L0.295963 16.3873L0.328133 16.3616L0.360302 16.3359L0.392472 16.3101L0.431076 16.2844L0.46968 16.2651L0.508284 16.2458L0.546888 16.2265L0.585491 16.2072L0.624095 16.1879L0.669133 16.1686L0.714171 16.1493L0.759209 16.13L0.804246 16.1107L0.849284 16.0978L0.894322 16.0849L0.93936 16.0721L0.984398 16.0592L1.03587 16.0463L1.08734 16.0335L1.13881 16.0206L1.19028 16.0077L1.24176 15.9949L4.49091 15.1327L4.57455 14.8625L4.78687 14.2641L5.02493 13.6722L5.28229 13.0931L5.55895 12.5269L5.58469 12.4755L3.89899 9.56732L3.87325 9.52228L3.84751 9.47724L3.82178 9.4322L3.79604 9.38716L3.77031 9.34213L3.75101 9.29709L3.7317 9.25205L3.71884 9.19414L3.69953 9.14911L3.68023 9.10407L3.66093 9.05903L3.64163 9.01399L3.62233 8.96896L3.60946 8.92392L3.59659 8.87888L3.58372 8.83384L3.57085 8.7888L3.55799 8.7502L3.54512 8.7116L3.53868 8.67299L3.53225 8.63439L3.52582 8.59579L3.51938 8.55718V8.51858V8.47997V8.44137V8.40277L3.52582 8.36416L3.53225 8.32556L3.53868 8.29339L3.54512 8.26122L3.55799 8.22905L3.57085 8.19688L3.59016 8.16471L3.60946 8.13254L3.62876 8.10037L3.64806 8.0682L3.6738 8.03603L3.69953 8.00386L3.72527 7.97169L7.97169 3.72527L8.00386 3.69953L8.03603 3.6738L8.0682 3.64806L8.10037 3.62876L8.13254 3.60946L8.15828 3.59659L8.19045 3.58372L8.22262 3.57085L8.25479 3.55799L8.29339 3.54512L8.33199 3.53868L8.3706 3.53225L8.4092 3.52582H8.4478H8.48641H8.52501H8.56362L8.60222 3.53225L8.64082 3.53868L8.67943 3.54512L8.71803 3.55155L8.76307 3.55799L8.80811 3.57085L8.85314 3.58372L8.89818 3.59659L8.94322 3.60946L8.98826 3.62233L9.0333 3.64163L9.07833 3.66093L9.12337 3.68023L9.16841 3.69953L9.21345 3.71884L9.25848 3.73814L9.30352 3.76387L9.34856 3.78961L9.3936 3.81535L9.43864 3.84108L9.48367 3.86682L9.52871 3.89255L9.57375 3.91829L12.469 5.59112L12.5269 5.55895L13.0931 5.28229L13.6722 5.02493L14.2641 4.78687L14.8625 4.57455L15.1327 4.49091L15.9949 1.24176L16.0077 1.19028L16.0206 1.13881L16.0335 1.08734L16.0463 1.03587L16.0592 0.984398L16.0721 0.93936L16.0849 0.894322L16.0978 0.849284L16.1107 0.804246L16.13 0.759209L16.1493 0.714171L16.1686 0.669133L16.1879 0.624095L16.2072 0.585491L16.2265 0.546888L16.2458 0.508284L16.2651 0.46968L16.2844 0.431076L16.3101 0.392472L16.3359 0.360302L16.3616 0.328133L16.3873 0.295963L16.4131 0.263793L16.4388 0.231623L16.4645 0.205887L16.4903 0.180151L16.5224 0.154415L16.5546 0.128679L16.5868 0.109377L16.6189 0.0900756L16.6511 0.0707736L16.6833 0.0579057L16.7155 0.0450378L16.7476 0.0321699L16.7862 0.0193019L16.8248 0.0128679L16.8634 0.00643393L16.902 0H16.9406H16.9792H22.9821H23.0207H23.0787ZM19.2762 11.2788L18.9223 11.3109L18.5749 11.3624L18.2339 11.4267L17.8929 11.5039L17.5583 11.594L17.2302 11.697L16.9085 11.8128L16.5932 11.9415L16.2844 12.083L15.982 12.231L15.686 12.3918L15.3965 12.5655L15.1134 12.7521L14.8367 12.9452L14.5665 13.151L14.3092 13.3634L14.0582 13.5885L13.8137 13.8202L13.5821 14.0647L13.3569 14.3156L13.1446 14.5729L12.9387 14.8432L12.7457 15.1198L12.5591 15.4029L12.3854 15.6925L12.2245 15.9884L12.0766 16.2908L11.935 16.5996L11.8063 16.9149L11.6905 17.2366L11.5876 17.5647L11.4975 17.8993L11.4203 18.2403L11.356 18.5813L11.3045 18.9287L11.2723 19.2826L11.253 19.6365L11.2466 19.9968L11.253 20.3571L11.2723 20.711L11.3045 21.0648L11.356 21.4123L11.4203 21.7533L11.4975 22.0943L11.5876 22.4288L11.6905 22.757L11.8063 23.0787L11.935 23.3939L12.0766 23.7027L12.2245 24.0051L12.3854 24.3011L12.5591 24.5906L12.7457 24.8737L12.9387 25.1504L13.1446 25.4206L13.3569 25.678L13.5821 25.9289L13.8137 26.1734L14.0582 26.405L14.3092 26.6302L14.5665 26.8425L14.8367 27.0484L15.1134 27.2414L15.3965 27.428L15.686 27.6017L15.982 27.7626L16.2844 27.9106L16.5932 28.0521L16.9085 28.1808L17.2302 28.2966L17.5583 28.3995L17.8929 28.4896L18.2339 28.5668L18.5749 28.6312L18.9223 28.6826L19.2762 28.7148L19.63 28.7341L19.9903 28.7405L20.3507 28.7341L20.7045 28.7148L21.0584 28.6826L21.4058 28.6312L21.7468 28.5668L22.0878 28.4896L22.4224 28.3995L22.7505 28.2966L23.0722 28.1808L23.3875 28.0521L23.6963 27.9106L23.9987 27.7626L24.2947 27.6017L24.5842 27.428L24.8673 27.2414L25.144 27.0484L25.4142 26.8425L25.6715 26.6302L25.9225 26.405L26.167 26.1734L26.3986 25.9289L26.6238 25.678L26.8361 25.4206L27.042 25.1504L27.235 24.8737L27.4216 24.5906L27.5953 24.3011L27.7562 24.0051L27.9041 23.7027L28.0457 23.3939L28.1744 23.0787L28.2902 22.757L28.3931 22.4288L28.4832 22.0943L28.5604 21.7533L28.6247 21.4123L28.6762 21.0648L28.7084 20.711L28.7277 20.3571L28.7341 19.9968L28.7277 19.6365L28.7084 19.2826L28.6762 18.9287L28.6247 18.5813L28.5604 18.2403L28.4832 17.8993L28.3931 17.5647L28.2902 17.2366L28.1744 16.9149L28.0457 16.5996L27.9041 16.2908L27.7562 15.9884L27.5953 15.6925L27.4216 15.4029L27.235 15.1198L27.042 14.8432L26.8361 14.5729L26.6238 14.3156L26.3986 14.0647L26.167 13.8202L25.9225 13.5885L25.6715 13.3634L25.4142 13.151L25.144 12.9452L24.8673 12.7521L24.5842 12.5655L24.2947 12.3918L23.9987 12.231L23.6963 12.083L23.3875 11.9415L23.0722 11.8128L22.7505 11.697L22.4224 11.594L22.0878 11.5039L21.7468 11.4267L21.4058 11.3624L21.0584 11.3109L20.7045 11.2788L20.3507 11.2594L19.9903 11.253L19.63 11.2594L19.2762 11.2788Z" fill="#838383"/>
</svg>
