<svg width="145" height="29" viewBox="0 0 145 29" fill="none" xmlns="http://www.w3.org/2000/svg">
<path d="M49.2781 23.123H36.2021L49.2111 6.75797V2.67499H30.2171V7.06897H42.7071L29.8711 23.123V27.517H49.2781V23.123Z" fill="#0F0F0F"/>
<path d="M52.5332 9.11499V27.515H57.3772V9.11499H52.5332Z" fill="#0F0F0F"/>
<path d="M87.4282 14.785C87.4282 10.737 84.6282 8.62598 81.0282 8.62598C80.0235 8.64357 79.0411 8.92444 78.179 9.44052C77.3169 9.9566 76.6052 10.6898 76.1152 11.567C74.8702 9.59499 73.6592 8.62598 70.9952 8.62598C69.9065 8.5761 68.8276 8.85238 67.8969 9.41946C66.9662 9.98654 66.2261 10.8186 65.7712 11.809H65.7022V9.10898H61.0662V27.515H65.9102V16.31C65.9102 14.303 66.6372 12.71 68.9202 12.71C71.8262 12.71 71.8262 14.89 71.8262 16.447V27.518H76.6702V16.48C76.6702 14.3 77.5352 12.709 79.9572 12.709C81.3762 12.709 82.5862 13.609 82.5862 16.342V27.517H87.4302V14.785H87.4282Z" fill="#0F0F0F"/>
<path d="M105.868 13.089V9.11499H90.9561V12.99H99.7441L90.2991 23.75V27.515H106.214V23.536H96.5611L105.868 13.087V13.089Z" fill="#0F0F0F"/>
<path d="M120.33 22.119C120.095 22.7432 119.665 23.2752 119.104 23.6366C118.544 23.9979 117.882 24.1695 117.216 24.126C113.306 24.126 113.03 21.012 112.891 19.626H125.519V18.761C125.519 10.354 120.502 8.62402 116.87 8.62402C108.808 8.62402 108.047 15.717 108.047 17.931C108.047 25.508 112.026 27.999 117.216 27.999C119.035 28.0913 120.831 27.558 122.304 26.4879C123.778 25.4177 124.841 23.8752 125.316 22.117L120.33 22.119ZM113.03 16.48C113.307 14.058 114.518 12.605 116.801 12.605C118.358 12.605 120.26 13.505 120.538 16.48H113.03Z" fill="#0F0F0F"/>
<path d="M139.567 22.119C139.332 22.7432 138.902 23.2752 138.341 23.6366C137.781 23.9979 137.119 24.1695 136.453 24.126C132.543 24.126 132.266 21.012 132.128 19.626H144.756V18.761C144.756 10.354 139.739 8.62402 136.106 8.62402C128.045 8.62402 127.284 15.717 127.284 17.931C127.284 25.508 131.263 27.999 136.453 27.999C138.272 28.0913 140.068 27.558 141.542 26.4879C143.015 25.4177 144.078 23.8752 144.553 22.117L139.567 22.119ZM132.267 16.48C132.544 14.058 133.755 12.605 136.039 12.605C137.596 12.605 139.499 13.505 139.775 16.48H132.267Z" fill="#0F0F0F"/>
<path fill-rule="evenodd" clip-rule="evenodd" d="M54.9551 0.672974C55.553 0.672974 56.1375 0.850263 56.6346 1.18243C57.1317 1.51461 57.5192 1.98674 57.748 2.53912C57.9768 3.0915 58.0367 3.69933 57.92 4.28574C57.8034 4.87214 57.5155 5.41078 57.0927 5.83356C56.6699 6.25633 56.1313 6.54425 55.5449 6.66089C54.9585 6.77753 54.3507 6.71766 53.7983 6.48886C53.2459 6.26006 52.7738 5.87259 52.4416 5.37546C52.1094 4.87833 51.9321 4.29388 51.9321 3.69598C51.9321 3.299 52.0103 2.90589 52.1623 2.53912C52.3142 2.17236 52.5369 1.83909 52.8176 1.55838C53.0983 1.27767 53.4315 1.055 53.7983 0.903076C54.165 0.751156 54.5582 0.672974 54.9551 0.672974Z" fill="#FF6600"/>
<path fill-rule="evenodd" clip-rule="evenodd" d="M5.54718 25.8409C8.10052 27.3202 11.0965 27.8437 14.0002 27.3179C14.1617 27.2888 14.3075 27.2027 14.4109 27.0753C14.5144 26.9479 14.5688 26.7877 14.5642 26.6236C14.5596 26.4595 14.4964 26.3025 14.3859 26.1811C14.2754 26.0597 14.1251 25.982 13.9622 25.9619C13.8775 25.9519 13.7925 25.9403 13.7072 25.9269C13.4012 25.9023 13.0958 25.8629 12.7912 25.8089C11.3545 25.5516 9.99464 24.9727 8.8134 24.1154C7.63216 23.2581 6.66014 22.1448 5.97009 20.8586C5.28005 19.5725 4.88987 18.147 4.82875 16.6887C4.76763 15.2305 5.03716 13.7773 5.61717 12.4379C5.75299 12.1262 5.77779 11.7773 5.68741 11.4495C5.59703 11.1216 5.39695 10.8347 5.12056 10.6366C4.84417 10.4385 4.5082 10.3412 4.16872 10.3609C3.82923 10.3806 3.50677 10.5162 3.25517 10.7449C2.56281 11.375 1.97245 12.1087 1.50517 12.9199C-1.42283 17.9919 1.08018 23.2609 5.54718 25.8409Z" fill="#FF6600"/>
<path fill-rule="evenodd" clip-rule="evenodd" d="M5.5461 4.20995C2.98845 5.6815 1.03725 8.01441 0.0410989 10.792C-0.0141506 10.9463 -0.012283 11.1153 0.0463479 11.2685C0.104979 11.4216 0.21649 11.5486 0.360709 11.6266C0.504929 11.7046 0.672311 11.7283 0.832527 11.6935C0.992742 11.6587 1.13521 11.5677 1.23411 11.4369C1.28544 11.3703 1.3381 11.3036 1.3921 11.2369C1.5661 10.9843 1.75276 10.7396 1.95209 10.503C2.89323 9.38731 4.07455 8.49901 5.4076 7.90456C6.74065 7.31012 8.19089 7.0249 9.64977 7.07031C11.1087 7.11571 12.5384 7.49052 13.8319 8.16671C15.1254 8.8429 16.2492 9.80294 17.1191 10.9749C17.3212 11.2485 17.6111 11.4445 17.9403 11.5301C18.2695 11.6157 18.6181 11.5858 18.9279 11.4454C19.2377 11.3049 19.4899 11.0624 19.6425 10.7584C19.795 10.4544 19.8387 10.1073 19.7661 9.77496C19.5663 8.8613 19.2259 7.98419 18.7571 7.17495C15.8291 2.10295 10.0131 1.63493 5.5461 4.21493V4.20995Z" fill="#52CE00"/>
<path fill-rule="evenodd" clip-rule="evenodd" d="M24.2801 15.026C24.2845 12.075 23.2396 9.21859 21.3321 6.96699C21.226 6.84232 21.0788 6.75969 20.9171 6.73405C20.7554 6.70841 20.5899 6.74146 20.4504 6.82719C20.311 6.91292 20.2068 7.0457 20.1566 7.20155C20.1065 7.35739 20.1138 7.52602 20.1771 7.67698C20.2104 7.75565 20.2438 7.83499 20.2771 7.91499C20.4104 8.19166 20.5291 8.47565 20.6331 8.76698C21.1289 10.1399 21.3077 11.6072 21.1561 13.0589C21.0044 14.5107 20.5264 15.9094 19.7576 17.1502C18.9889 18.3911 17.9494 19.4419 16.717 20.2241C15.4845 21.0063 14.0912 21.4996 12.6411 21.667C12.3032 21.7053 11.9887 21.8583 11.7501 22.1005C11.5114 22.3427 11.363 22.6594 11.3297 22.9978C11.2963 23.3362 11.38 23.6758 11.5668 23.9599C11.7536 24.244 12.0322 24.4555 12.3561 24.559C13.2478 24.8434 14.1782 24.9878 15.1141 24.987C20.9711 24.987 24.2831 20.187 24.2831 15.026H24.2801Z" fill="#2A7FFF"/>
</svg>
