<svg width="24" height="25" viewBox="0 0 24 25" fill="none" xmlns="http://www.w3.org/2000/svg">
<path d="M0 17.4514C0.0650148 17.1153 0.119194 16.7793 0.20588 16.4432C0.498447 15.2446 1.08358 14.214 1.92877 13.3402C3.12071 12.108 4.31265 10.8758 5.50459 9.64355C6.13307 8.99383 6.9891 9.02744 7.50921 9.69956C7.87763 10.17 7.87763 10.8646 7.52005 11.3351C7.4442 11.4247 7.36835 11.5143 7.28166 11.6039C6.12223 12.8025 4.9628 14.0011 3.80337 15.1998C2.904 16.1295 2.51391 17.2497 2.62227 18.5604C2.76313 20.1847 3.98758 21.641 5.54793 22.0106C6.9891 22.3467 8.24605 21.977 9.30796 20.8904C10.4891 19.6694 11.6702 18.4484 12.8513 17.2273C13.328 16.7345 13.924 16.6336 14.4766 16.9473C15.1701 17.3506 15.3868 18.3587 14.8342 18.9413C13.4364 20.4199 12.0386 21.8986 10.5757 23.2989C9.6547 24.1838 8.48444 24.6207 7.22748 24.7663C7.1733 24.7775 7.12996 24.7999 7.07578 24.8111C6.68569 24.8111 6.2956 24.8111 5.90551 24.8111C5.86217 24.7999 5.81883 24.7775 5.77549 24.7663C5.25537 24.6319 4.71358 24.5647 4.21513 24.3743C2.16716 23.5565 0.834357 22.0442 0.227552 19.8598C0.13003 19.5014 0.0758506 19.1205 0 18.762C0 18.3251 0 17.8883 0 17.4514Z" fill="#5587E9"/>
<path d="M24.0005 6.54102C23.968 8.57979 23.3287 10.1705 22.0718 11.4923C20.8907 12.7358 19.6879 13.968 18.4959 15.189C17.8675 15.8387 17.0114 15.8051 16.4913 15.133C16.1229 14.6625 16.1229 13.9792 16.4805 13.4975C16.5563 13.4079 16.6322 13.3183 16.7189 13.2286C17.8783 12.0188 19.0486 10.8202 20.208 9.61038C21.4866 8.27734 21.7684 6.28337 20.8907 4.73749C19.5687 2.39626 16.5888 1.99298 14.7034 3.91974C13.5115 5.14076 12.3304 6.37299 11.1384 7.59401C10.6508 8.09811 10.044 8.18772 9.50223 7.86286C8.83041 7.45959 8.61369 6.47381 9.14465 5.9025C10.5425 4.41263 11.9295 2.88915 13.4356 1.5113C14.866 0.211857 16.6105 -0.20262 18.5068 0.0886339C21.1832 0.50311 23.3937 2.69871 23.8705 5.44322C23.9572 5.8689 23.9789 6.30578 24.0005 6.54102Z" fill="#5587E9"/>
<path d="M8.18109 17.5408C7.791 17.5184 7.40091 17.2831 7.16252 16.779C6.93497 16.2973 6.98915 15.8268 7.29255 15.39C7.35757 15.3003 7.43342 15.2107 7.50927 15.1323C9.88231 12.6679 12.2662 10.2146 14.6392 7.76136C15.1485 7.23486 15.712 7.12284 16.2754 7.4253C16.9689 7.80617 17.1748 8.74714 16.7089 9.39686C16.6439 9.49768 16.5572 9.5873 16.4813 9.66571C14.1083 12.1302 11.7244 14.5834 9.35136 17.0479C9.05879 17.3503 8.73372 17.552 8.18109 17.5408Z" fill="#5587E9"/>
</svg>
