<svg xmlns="http://www.w3.org/2000/svg" width="20" height="20" viewBox="0 0 20 20">
  <g id="Normal_icon_-_black" data-name="Normal icon - black" transform="translate(-341 -55)">
    <g id="Rectangle_2946" data-name="Rectangle 2946" transform="translate(341 55)" fill="#fff" stroke="#707070" stroke-width="1" opacity="0">
      <rect width="20" height="20" stroke="none"/>
      <rect x="0.5" y="0.5" width="19" height="19" fill="none"/>
    </g>
    <g id="noun-dashboard-4463423" transform="translate(254.338 38.34)">
      <path id="Path_12442" data-name="Path 12442" d="M96.052,19.338a1.831,1.831,0,0,0-1.83-1.83H89.34a1.831,1.831,0,0,0-1.83,1.83v4.881a1.831,1.831,0,0,0,1.83,1.83h4.881a1.831,1.831,0,0,0,1.83-1.83V19.338Zm-1.22,0v4.881a.611.611,0,0,1-.611.611H89.34a.611.611,0,0,1-.611-.611V19.338a.611.611,0,0,1,.611-.611h4.881a.611.611,0,0,1,.611.611Z" stroke="#000" stroke-width="0.5" fill-rule="evenodd"/>
      <path id="Path_12443" data-name="Path 12443" d="M96.052,299.34a1.831,1.831,0,0,0-1.83-1.83H89.34a1.831,1.831,0,0,0-1.83,1.83v4.881a1.831,1.831,0,0,0,1.83,1.83h4.881a1.831,1.831,0,0,0,1.83-1.83Zm-1.22,0v4.881a.611.611,0,0,1-.611.611H89.34a.611.611,0,0,1-.611-.611V299.34a.611.611,0,0,1,.611-.611h4.881A.611.611,0,0,1,94.832,299.34Z" transform="translate(0 -270.239)" stroke="#000" stroke-width="0.5" fill-rule="evenodd"/>
      <path id="Path_12444" data-name="Path 12444" d="M376.052,19.338a1.831,1.831,0,0,0-1.831-1.83h-4.881a1.831,1.831,0,0,0-1.831,1.83v4.881a1.831,1.831,0,0,0,1.831,1.83h4.881a1.831,1.831,0,0,0,1.831-1.83V19.338Zm-1.22,0v4.881a.611.611,0,0,1-.611.611h-4.881a.611.611,0,0,1-.611-.611V19.338a.611.611,0,0,1,.611-.611h4.881a.611.611,0,0,1,.611.611Z" transform="translate(-270.237)" stroke="#000" stroke-width="0.5" fill-rule="evenodd"/>
      <path id="Path_12445" data-name="Path 12445" d="M376.052,299.34a1.831,1.831,0,0,0-1.831-1.83h-4.881a1.831,1.831,0,0,0-1.831,1.83v4.881a1.831,1.831,0,0,0,1.831,1.83h4.881a1.831,1.831,0,0,0,1.831-1.83Zm-1.22,0v4.881a.611.611,0,0,1-.611.611h-4.881a.611.611,0,0,1-.611-.611V299.34a.611.611,0,0,1,.611-.611h4.881A.611.611,0,0,1,374.832,299.34Z" transform="translate(-270.237 -270.239)" stroke="#000" stroke-width="0.5" fill-rule="evenodd"/>
    </g>
  </g>
</svg>
