<svg xmlns="http://www.w3.org/2000/svg" width="17.933" height="23" viewBox="0 0 17.933 23">
  <g id="Notes_new_icon" data-name="Notes new icon" transform="translate(-10 -2)">
    <path id="Path_34356" data-name="Path 34356" d="M36.542,38H26.958a.958.958,0,1,0,0,1.917h9.583a.958.958,0,1,0,0-1.917Z" transform="translate(-13.01 -27.375)" fill="#989898"/>
    <path id="Path_34357" data-name="Path 34357" d="M36.542,54H26.958a.958.958,0,1,0,0,1.917h9.583a.958.958,0,1,0,0-1.917Z" transform="translate(-13.01 -39.542)" fill="#989898"/>
    <path id="Path_34358" data-name="Path 34358" d="M32.708,70h-5.75a.958.958,0,1,0,0,1.917h5.75a.958.958,0,1,0,0-1.917Z" transform="translate(-13.01 -51.708)" fill="#989898"/>
    <path id="Path_34359" data-name="Path 34359" d="M25.243,4.875h-2.69A2.787,2.787,0,0,0,19.863,2H18.07a2.787,2.787,0,0,0-2.69,2.875H12.69A2.787,2.787,0,0,0,10,7.75V22.125A2.787,2.787,0,0,0,12.69,25H25.243a2.787,2.787,0,0,0,2.69-2.875V7.75A2.787,2.787,0,0,0,25.243,4.875Zm-8.07,0a.929.929,0,0,1,.9-.958h1.793a.929.929,0,0,1,.9.958V6.792H17.173Zm8.966,17.25a.929.929,0,0,1-.9.958H12.69a.929.929,0,0,1-.9-.958V7.75a.929.929,0,0,1,.9-.958h2.69V7.75a.929.929,0,0,0,.9.958h5.38a.929.929,0,0,0,.9-.958V6.792h2.69a.929.929,0,0,1,.9.958Z" fill="#989898"/>
  </g>
</svg>
