<svg xmlns="http://www.w3.org/2000/svg" width="22.283" height="27.674" viewBox="0 0 22.283 27.674">
  <g id="noun_notification_4003825_1_" data-name="noun_notification_4003825 (1)" transform="translate(-4.25 -2.25)">
    <g id="Group_670" data-name="Group 670" transform="translate(4.25 2.25)">
      <path id="Path_328" data-name="Path 328" d="M25.454,23.537H25.1v-8.87A9.639,9.639,0,0,0,16.47,5.145V3.314a1.078,1.078,0,0,0-2.156,0V5.145a9.639,9.639,0,0,0-8.626,9.523v8.87H5.328a1.064,1.064,0,1,0,0,2.129H25.454a1.064,1.064,0,1,0,0-2.129Zm-17.611,0v-8.87a7.548,7.548,0,0,1,15.095,0v8.87Zm11.5,5.322a1.086,1.086,0,0,1-1.078,1.064h-5.75a1.064,1.064,0,1,1,0-2.129h5.75A1.086,1.086,0,0,1,19.345,28.859Z" transform="translate(-4.25 -2.25)" fill="#262626"/>
    </g>
  </g>
</svg>
