<svg width="27" height="26" viewBox="0 0 27 26" fill="none" xmlns="http://www.w3.org/2000/svg">
<path d="M13.704 0.500001C11.2212 0.499209 8.79404 1.2347 6.72935 2.61345C4.66466 3.9922 3.05521 5.95228 2.10457 8.24579C1.15392 10.5393 0.904781 13.0632 1.38865 15.4983C1.87252 17.9334 3.06767 20.1704 4.82294 21.9262C6.57821 23.682 8.81475 24.8779 11.2497 25.3625C13.6847 25.8472 16.2087 25.5988 18.5025 24.6489C20.7963 23.699 22.7569 22.0902 24.1363 20.0259C25.5157 17.9617 26.252 15.5347 26.252 13.052C26.252 9.7237 24.9301 6.53165 22.577 4.17781C20.2239 1.82397 17.0323 0.501061 13.704 0.500001ZM18.378 16.543C19.1453 15.541 19.5611 14.3141 19.5611 13.052C19.5611 11.7899 19.1453 10.563 18.378 9.561L21.952 5.983C23.646 7.94858 24.5778 10.4571 24.5778 13.052C24.5778 15.6469 23.646 18.1554 21.952 20.121L18.378 16.543ZM9.51995 13.052C9.51995 12.2245 9.76534 11.4156 10.2251 10.7275C10.6848 10.0394 11.3383 9.50317 12.1028 9.18649C12.8673 8.86981 13.7086 8.78695 14.5202 8.9484C15.3318 9.10984 16.0773 9.50832 16.6625 10.0935C17.2476 10.6786 17.6461 11.4241 17.8076 12.2357C17.969 13.0474 17.8861 13.8886 17.5695 14.6531C17.2528 15.4177 16.7165 16.0711 16.0285 16.5309C15.3404 16.9906 14.5315 17.236 13.704 17.236C12.5943 17.236 11.5301 16.7952 10.7454 16.0105C9.96077 15.2259 9.51995 14.1617 9.51995 13.052ZM20.773 4.8L17.195 8.378C16.1929 7.61069 14.966 7.19489 13.704 7.19489C12.4419 7.19489 11.215 7.61069 10.213 8.378L6.63495 4.8C8.60053 3.10597 11.1091 2.17412 13.704 2.17412C16.2988 2.17412 18.8074 3.10597 20.773 4.8ZM5.45195 5.983L9.02995 9.561C8.26265 10.563 7.84685 11.7899 7.84685 13.052C7.84685 14.3141 8.26265 15.541 9.02995 16.543L5.45195 20.121C3.75792 18.1554 2.82608 15.6469 2.82608 13.052C2.82608 10.4571 3.75792 7.94858 5.45195 5.983ZM6.63495 21.3L10.213 17.722C11.215 18.4893 12.4419 18.9051 13.704 18.9051C14.966 18.9051 16.1929 18.4893 17.195 17.722L20.773 21.3C18.8074 22.994 16.2988 23.9259 13.704 23.9259C11.1091 23.9259 8.60053 22.994 6.63495 21.3Z" fill="#262626" stroke="#262626" stroke-width="0.5"/>
</svg>
