<svg width="40" height="34" viewBox="0 0 40 34" fill="none" xmlns="http://www.w3.org/2000/svg">
<path d="M2.45452 14.4027L26.2797 4.58641C28.6315 3.56394 36.6075 0.291931 36.6075 0.291931C36.6075 0.291931 40.2887 -1.13946 39.9818 2.33686C39.8795 3.76826 39.062 8.77888 38.2435 14.1978L35.6873 30.2513C35.6873 30.2513 35.4827 32.6031 33.7415 33.012C32.0002 33.421 29.1401 31.5807 28.6291 31.1714C28.2202 30.8648 20.9601 26.2634 18.3013 24.0139C17.5854 23.4006 16.7676 22.1732 18.4036 20.7419C22.0848 17.3675 26.4819 13.1751 29.1401 10.5166C30.3672 9.28952 31.5942 6.42644 26.4816 9.90335L12.0639 19.6174C12.0639 19.6174 10.4276 20.6398 7.36018 19.7197C4.29278 18.7995 0.713854 17.5724 0.713854 17.5724C0.713854 17.5724 -1.7403 16.0387 2.45217 14.403L2.45452 14.4027Z" fill="#838383"/>
</svg>
