<svg xmlns="http://www.w3.org/2000/svg" width="130" height="130" viewBox="0 0 130 130">
  <g id="profile-circle-svgrepo-com" transform="translate(-2 -2.01)">
    <path id="Path_34381" data-name="Path 34381" d="M67,132.01a65,65,0,1,0-65-65A65,65,0,0,0,67,132.01Z" transform="translate(0 0)" fill="#292d32" opacity="0.4"/>
    <path id="Path_34382" data-name="Path 34382" d="M32.576,6.94a24.294,24.294,0,0,0-.324,48.586h1.168A24.3,24.3,0,0,0,32.576,6.94Z" transform="translate(34.424 27.154)" fill="#292d32"/>
    <path id="Path_34383" data-name="Path 34383" d="M93.446,39.908A65.01,65.01,0,0,1,49.333,57.1,65.01,65.01,0,0,1,5.221,39.908c1.562-5.9,5.791-11.287,11.972-15.439,17.762-11.806,46.65-11.806,64.282,0C87.72,28.621,91.884,34.005,93.446,39.908Z" transform="translate(17.671 74.912)" fill="#292d32"/>
  </g>
</svg>
