<svg xmlns="http://www.w3.org/2000/svg" width="16" height="16" viewBox="0 0 16 16">
  <g id="Publicly_shared" data-name="Publicly shared" transform="translate(-4767 1095)">
    <rect id="Rectangle_3039" data-name="Rectangle 3039" width="16" height="16" transform="translate(4767 -1095)" fill="none"/>
    <g id="noun-copy-1512212" transform="translate(4768.649 -1094.176)">
      <path id="Path_34104" data-name="Path 34104" d="M108.27,33.6a.336.336,0,0,0-.3.336v2.015H103.9a.336.336,0,0,0-.3.336V48.042a.336.336,0,0,0,.336.336h9.4a.336.336,0,0,0,.336-.336V45.019H116.7a.336.336,0,0,0,.336-.336V33.936a.336.336,0,0,0-.336-.336h-8.428Zm.367.672h7.725V44.348h-2.687v-8.06a.336.336,0,0,0-.336-.336h-4.7V34.272Zm-4.366,2.351H113V47.706h-8.732Z" transform="translate(-103.599 -33.6)"/>
    </g>
  </g>
</svg>
