<svg width="23" height="22" viewBox="0 0 23 22" fill="none" xmlns="http://www.w3.org/2000/svg">
<path d="M17.381 21.411L11.229 17.753L5.89403 20.92L5.07503 21.406C4.98934 21.457 4.89178 21.4847 4.79206 21.4863C4.69234 21.4879 4.59393 21.4634 4.50665 21.4151C4.41936 21.3669 4.34623 21.2966 4.29454 21.2113C4.24285 21.126 4.2144 21.0287 4.21203 20.929C4.21233 20.8825 4.21803 20.8362 4.22903 20.791L5.80003 13.811L0.423027 9.08698C0.361486 9.03384 0.312254 8.96794 0.278752 8.89386C0.24525 8.81978 0.228282 8.73928 0.229027 8.65798C0.228706 8.51541 0.281821 8.3779 0.377897 8.27257C0.473973 8.16724 0.606033 8.10174 0.748027 8.08898L7.87403 7.42898L10.704 0.855981C10.7481 0.753465 10.8213 0.666124 10.9145 0.604756C11.0078 0.543387 11.1169 0.510681 11.2285 0.510681C11.3401 0.510681 11.4493 0.543387 11.5425 0.604756C11.6357 0.666124 11.7089 0.753465 11.753 0.855981L12.782 3.24598L14.582 7.42898L21.708 8.08898C21.8194 8.09929 21.9254 8.14204 22.0127 8.21194C22.1001 8.28184 22.165 8.37581 22.1995 8.48224C22.2339 8.58867 22.2365 8.70287 22.2067 8.81071C22.1769 8.91856 22.1162 9.0153 22.032 9.08898L16.656 13.811L18.229 20.791C18.2483 20.8748 18.2484 20.9618 18.2293 21.0456C18.2103 21.1294 18.1726 21.2079 18.1191 21.2751C18.0656 21.3424 17.9976 21.3967 17.9202 21.4341C17.8428 21.4715 17.758 21.4909 17.672 21.491C17.5696 21.4912 17.469 21.4635 17.381 21.411Z" fill="#989898"/>
</svg>
