<svg width="19" height="19" viewBox="0 0 19 19" fill="none" xmlns="http://www.w3.org/2000/svg">
<path d="M18.439 10.375L8.93203 0.867973C8.82383 0.756496 8.69456 0.667619 8.55174 0.606506C8.40891 0.545393 8.25538 0.513267 8.10003 0.511978H2.03903C1.72427 0.513033 1.42272 0.638534 1.20016 0.861099C0.977593 1.08366 0.852076 1.38522 0.851022 1.69997V7.73097C0.846581 7.88716 0.876118 8.04245 0.937585 8.1861C0.999051 8.32976 1.09098 8.45834 1.20702 8.56297L10.714 18.07C10.8243 18.1829 10.9561 18.2726 11.1015 18.3339C11.247 18.3951 11.4032 18.4267 11.561 18.4267C11.7189 18.4267 11.8751 18.3951 12.0205 18.3339C12.166 18.2726 12.2977 18.1829 12.408 18.07L18.439 12.039C18.6538 11.8155 18.7738 11.5175 18.7738 11.2075C18.7738 10.8975 18.6538 10.5985 18.439 10.375ZM5.60503 6.74998C5.31133 6.74998 5.02421 6.66288 4.78001 6.49971C4.5358 6.33654 4.34547 6.10461 4.23307 5.83326C4.12068 5.56191 4.09127 5.26333 4.14857 4.97527C4.20587 4.6872 4.34729 4.4226 4.55497 4.21492C4.76265 4.00724 5.02725 3.86581 5.31532 3.80851C5.60338 3.75121 5.90197 3.78062 6.17332 3.89301C6.44467 4.00541 6.67659 4.19575 6.83976 4.43996C7.00293 4.68416 7.09004 4.97127 7.09004 5.26498C7.09191 5.46059 7.05473 5.65462 6.98071 5.8357C6.90668 6.01678 6.79727 6.18127 6.6589 6.31956C6.52052 6.45784 6.35596 6.56713 6.17483 6.64104C5.9937 6.71494 5.79964 6.75198 5.60403 6.74998H5.60503Z" fill="#989898"/>
</svg>
