<svg xmlns="http://www.w3.org/2000/svg" width="16" height="16" viewBox="0 0 16 16">
  <g id="Tag" transform="translate(4620 15627)">
    <rect id="Rectangle_5376" data-name="Rectangle 5376" width="16" height="16" transform="translate(-4620 -15627)" fill="none"/>
    <path id="tag-svgrepo-com" d="M10.546,16.568a1.774,1.774,0,0,1-1.258-.519L4.193,10.962a.589.589,0,0,1-.173-.417V4.61a.594.594,0,0,1,.59-.59h5.928a.589.589,0,0,1,.417.173l5.095,5.095a1.789,1.789,0,0,1,0,2.508L11.8,16.049a1.774,1.774,0,0,1-1.258.519ZM5.2,10.3l4.922,4.914a.6.6,0,0,0,.841,0l4.254-4.254a.6.6,0,0,0,0-.841L10.294,5.2H5.2v5.1ZM7.542,8.525a.983.983,0,1,1,.983-.983A.983.983,0,0,1,7.542,8.525Z" transform="translate(-4622.291 -15629.295)" fill="#707070"/>
  </g>
</svg>
