<svg width="20" height="28" viewBox="0 0 20 28" fill="none" xmlns="http://www.w3.org/2000/svg">
<path d="M19.614 7.39799L19.003 5.56799C18.9434 5.38814 18.8286 5.23167 18.6749 5.12088C18.5212 5.0101 18.3364 4.95064 18.147 4.95099H2.23198C2.04252 4.95064 1.85777 5.0101 1.70407 5.12088C1.55037 5.23167 1.43555 5.38814 1.37598 5.56799L0.764978 7.39799C0.732794 7.49422 0.723955 7.59672 0.739183 7.69704C0.754411 7.79736 0.793273 7.89262 0.852564 7.97496C0.911854 8.0573 0.989875 8.12437 1.08019 8.17063C1.1705 8.21688 1.27051 8.241 1.37198 8.24099H19.006C19.1075 8.24116 19.2077 8.21716 19.2981 8.17097C19.3886 8.12478 19.4667 8.05773 19.5261 7.97537C19.5855 7.893 19.6245 7.79769 19.6397 7.69729C19.655 7.59689 19.6462 7.4943 19.614 7.39799Z" fill="#707070"/>
<path d="M3.60606 26.891C3.63978 27.1953 3.7845 27.4765 4.01254 27.6807C4.24058 27.8849 4.53593 27.9979 4.84206 27.998H15.4361C15.7422 27.9979 16.0375 27.8849 16.2656 27.6807C16.4936 27.4765 16.6383 27.1953 16.6721 26.891L18.5621 9.87903H1.71606L3.60606 26.891Z" fill="#707070"/>
<path d="M8.54408 2.351C8.54435 2.16251 8.61933 1.98182 8.75261 1.84854C8.88589 1.71526 9.06659 1.64026 9.25508 1.64H11.6721C11.8606 1.64026 12.0412 1.71526 12.1745 1.84854C12.3078 1.98182 12.3828 2.16251 12.3831 2.351V3.31H14.0241V2.351C14.0233 1.72737 13.7751 1.12955 13.3339 0.688763C12.8927 0.24798 12.2947 0.000264416 11.6711 0L9.25407 0C8.63079 0.00079382 8.03327 0.248743 7.59254 0.689469C7.15182 1.13019 6.90387 1.72772 6.90308 2.351V3.31H8.54408V2.351Z" fill="#707070"/>
</svg>
