<svg width="25" height="40" viewBox="0 0 25 40" fill="none" xmlns="http://www.w3.org/2000/svg">
<path d="M24.5982 10.0082L23.6913 10.9151C23.1896 11.4168 22.3728 11.4168 21.8711 10.9151L18.5972 7.6412C17.7867 6.83077 16.4039 7.40322 16.4039 8.54811V28.2493H16.391C16.5389 30.7706 15.2461 33.8516 12.7505 36.3472C8.98135 40.1163 3.89365 41.1326 1.37874 38.6241C-1.13617 36.1156 -0.113484 31.0215 3.65566 27.2523C6.18987 24.7181 9.31581 23.4317 11.8629 23.6183C12.2295 23.644 12.5447 23.3481 12.5447 22.9751V1.2864C12.5447 0.578879 13.1235 0 13.8311 0H15.87C16.2109 0 16.5389 0.135072 16.7769 0.379487L24.5982 8.18792C25.0999 8.68962 25.0999 9.50648 24.5982 10.0082Z" fill="#838383"/>
</svg>
