<svg width="14" height="14" viewBox="0 0 14 14" fill="none" xmlns="http://www.w3.org/2000/svg">
<path d="M13.9913 13.2525C13.9773 13.29 13.9615 13.3266 13.9488 13.3645C13.9038 13.5086 13.8235 13.6392 13.7152 13.7443C13.6069 13.8495 13.4741 13.9258 13.3287 13.9665C13.1834 14.0072 13.0302 14.0109 12.883 13.9772C12.7359 13.9436 12.5995 13.8736 12.4863 13.7738C12.4437 13.738 12.4066 13.6988 12.3683 13.6605C10.6205 11.9127 8.87284 10.1645 7.12531 8.41581C7.08591 8.37154 7.04908 8.32504 7.01501 8.27654C6.95624 8.33276 6.91706 8.36853 6.87958 8.40431C5.11928 10.1646 3.35898 11.9258 1.59867 13.6878C1.30865 13.9786 0.972631 14.0732 0.589765 13.9365C-7.82652e-05 13.7265 -0.188317 12.9893 0.217972 12.5094C0.26056 12.4608 0.305277 12.4165 0.349995 12.3714C2.0978 10.6236 3.84604 8.87576 5.5947 7.12795C5.64513 7.08426 5.69788 7.04332 5.7527 7.00529C5.69437 6.96538 5.63848 6.922 5.58533 6.8754C3.82702 5.11879 2.06913 3.36147 0.311666 1.60344C-0.124861 1.16648 -0.102289 0.529794 0.375973 0.193349C0.510977 0.0979523 0.689847 0.0630302 0.848274 0H0.957725C1.29034 0.042588 1.52031 0.243603 1.74603 0.471023C3.45522 2.1876 5.16769 3.9012 6.88341 5.61182C6.91791 5.64674 6.95454 5.67953 7.02225 5.74384C7.05016 5.6943 7.08252 5.6474 7.11893 5.60372C8.82812 3.89254 10.5373 2.18164 12.2465 0.471023C12.4727 0.243603 12.7022 0.0400327 13.0352 0H13.1443C13.3095 0.0677149 13.485 0.116265 13.637 0.207403C13.8397 0.329631 13.9224 0.548107 13.9913 0.76488V1.0647C13.9245 1.34152 13.7465 1.54168 13.5506 1.73716C11.8292 3.45289 10.1096 5.1706 8.39188 6.89031C8.34328 6.92787 8.29089 6.96027 8.23558 6.98698C8.32076 7.05768 8.35994 7.08791 8.39529 7.12284C10.1175 8.84424 11.8399 10.5655 13.5625 12.2866C13.7563 12.4791 13.9279 12.6784 13.9913 12.951V13.2525Z" fill="black"/>
</svg>
