<svg width="20" height="21" viewBox="0 0 20 21" fill="none" xmlns="http://www.w3.org/2000/svg">
<path d="M0.00278247 9.98031C0.00278247 8.33378 -0.00347809 6.68099 0.00278247 5.03446C0.0153036 2.73058 1.48028 0.777279 3.66521 0.188786C4.10345 0.0698347 4.573 0.0134896 5.03002 0.00722908C8.34186 0.000968513 11.6537 -0.00529205 14.9655 0.00722908C17.4385 0.0134896 19.4418 1.67254 19.9114 4.09538C19.9677 4.40215 19.9928 4.71518 19.9928 5.0282C19.999 8.34004 20.0053 11.6519 19.9928 14.9637C19.9865 17.3427 18.4464 19.3023 16.155 19.8595C15.7731 19.9534 15.3662 19.991 14.9718 19.991C11.66 20.0035 8.34812 20.0035 5.03628 19.9972C2.56335 19.991 0.559973 18.3256 0.0904304 15.9028C0.0278247 15.571 0.00904304 15.2204 0.00904304 14.8761C0.00278247 13.2483 0.00278247 11.6143 0.00278247 9.98031ZM17.9956 7.01906C12.6491 7.01906 7.33391 7.01906 1.9999 7.01906C1.9999 7.10671 1.9999 7.1881 1.9999 7.26323C1.9999 9.81128 1.9999 12.3593 1.9999 14.9011C1.9999 16.6979 3.30836 18.0064 5.10514 18.0064C8.3669 18.0064 11.6349 18.0064 14.8967 18.0064C15.1221 18.0064 15.3537 17.9876 15.5728 17.9438C17.0002 17.6558 17.9956 16.4663 18.0019 14.995C18.0144 12.3906 18.0082 9.79249 18.0082 7.1881C18.0019 7.13801 18.0019 7.08167 17.9956 7.01906ZM2.00616 4.98438C3.60261 4.98438 5.18027 4.98438 6.77671 4.98438C6.58264 4.02025 6.39482 3.07491 6.20074 2.12956C6.18822 2.07948 6.08805 2.01061 6.02545 2.01061C5.64981 1.99809 5.27418 1.99183 4.90481 2.01061C4.03459 2.04817 3.30836 2.3925 2.73239 3.04986C2.25033 3.59453 2.01868 4.23937 2.00616 4.98438ZM13.2439 1.99183C13.2439 2.06069 13.2376 2.09826 13.2439 2.13582C13.4192 3.0123 13.6007 3.89504 13.7698 4.77152C13.8073 4.95934 13.8762 5.00316 14.0578 5.00316C15.2911 4.9969 16.5244 4.9969 17.7577 4.9969C17.8329 4.9969 17.908 4.99064 17.9894 4.98438C17.9956 4.93429 18.0019 4.90299 18.0019 4.87795C17.9456 3.60079 17.0816 2.48015 15.8608 2.12956C14.9968 1.87914 14.1204 2.04191 13.2439 1.99183ZM11.7789 4.9969C11.5848 4.02025 11.397 3.08117 11.2155 2.14208C11.1904 2.00435 11.109 1.99809 10.9963 1.99809C10.1324 1.99809 9.26216 1.99809 8.3982 1.99809C8.34812 1.99809 8.29803 2.01061 8.22917 2.02313C8.37942 2.7744 8.52341 3.50689 8.67367 4.23937C8.72375 4.48979 8.71123 4.83413 8.87401 4.95934C9.03678 5.08455 9.36859 5.00316 9.62527 5.00316C10.3265 4.9969 11.0339 4.9969 11.7789 4.9969Z" fill="black"/>
<path d="M7.00205 11.9962C7.00205 11.0258 7.00205 10.0617 7.00205 9.0913C7.00205 8.19604 7.80966 7.73276 8.57971 8.18978C10.2012 9.1539 11.8227 10.1243 13.4379 11.1009C14.1892 11.558 14.1954 12.447 13.4442 12.904C11.8227 13.8869 10.1949 14.8573 8.56719 15.8277C7.80966 16.2784 7.00205 15.8089 7.00205 14.9261C6.99579 13.9495 7.00205 12.9729 7.00205 11.9962ZM11.0589 12.0025C10.364 11.583 9.70035 11.1886 9.01795 10.7817C9.01795 11.6143 9.01795 12.3969 9.01795 13.2233C9.70661 12.8163 10.364 12.4219 11.0589 12.0025Z" fill="black"/>
</svg>
