<svg xmlns="http://www.w3.org/2000/svg" width="171.42" height="21.2" viewBox="0 0 171.42 21.2">
  <g id="Visa_Cards" data-name="Visa Cards" transform="translate(-0.5 -0.5)">
    <path id="Path_34600" data-name="Path 34600" d="M28.711,1H2.813A1.813,1.813,0,0,0,1,2.813V19.388A1.813,1.813,0,0,0,2.813,21.2h25.9a1.813,1.813,0,0,0,1.813-1.813V2.813A1.813,1.813,0,0,0,28.711,1Z" fill="#fff" stroke="#f3f3f3" stroke-width="1"/>
    <path id="Path_34601" data-name="Path 34601" d="M14.079,14.95h-2L13.33,7.7h2Z" fill="#15195a"/>
    <path id="Path_34602" data-name="Path 34602" d="M21.33,7.876a5.218,5.218,0,0,0-1.794-.309c-1.975,0-3.366.987-3.375,2.4-.016,1.042,1,1.62,1.753,1.967.774.355,1.037.587,1.037.9-.008.486-.625.71-1.2.71a4.2,4.2,0,0,1-1.877-.386l-.263-.116-.28,1.628a6.443,6.443,0,0,0,2.231.386c2.1,0,3.465-.972,3.481-2.476.008-.826-.526-1.458-1.679-1.975-.7-.332-1.128-.556-1.128-.9.008-.309.362-.625,1.152-.625a3.592,3.592,0,0,1,1.49.278l.181.077Z" fill="#15195a"/>
    <path id="Path_34603" data-name="Path 34603" d="M24.91,7.7h1.547L28.07,14.95H26.218s-.181-.833-.239-1.088H23.412l-.42,1.088h-2.1L23.864,8.3A1,1,0,0,1,24.91,7.7Zm-.123,2.654s-.634,1.612-.8,2.029H25.65c-.082-.363-.461-2.1-.461-2.1l-.14-.625c-.059.161-.144.382-.2.531C24.809,10.291,24.783,10.359,24.786,10.352Z" fill="#15195a" fill-rule="evenodd"/>
    <path id="Path_34604" data-name="Path 34604" d="M3.413,7.7H6.631c.436.015.79.146.905.61l.7,3.332h0l.214,1L10.409,7.7h2.115L9.38,14.943H7.265l-1.783-6.3a8.468,8.468,0,0,0-2.1-.8Z" fill="#15195a" fill-rule="evenodd"/>
    <path id="Path_34605" data-name="Path 34605" d="M101.344,1H72.71A1.71,1.71,0,0,0,71,2.71V19.42a1.71,1.71,0,0,0,1.71,1.71h28.634a1.71,1.71,0,0,0,1.71-1.71V2.71A1.71,1.71,0,0,0,101.344,1Z"/>
    <path id="Path_34606" data-name="Path 34606" d="M82.959,19.026V17.967a.63.63,0,0,0-.665-.672.659.659,0,0,0-.594.3.619.619,0,0,0-.559-.3.559.559,0,0,0-.495.251v-.209h-.368v1.69h.371v-.939a.4.4,0,0,1,.414-.449c.244,0,.368.159.368.445v.94H81.8v-.936a.4.4,0,0,1,.414-.449c.251,0,.371.159.371.445v.94Zm2.072-.845v-.845h-.368v.2a.641.641,0,0,0-.534-.247.889.889,0,0,0,0,1.775.64.64,0,0,0,.534-.248v.205h.368Zm-1.368,0a.512.512,0,1,1,.513.541.507.507,0,0,1-.513-.541Zm9.237-.889a.954.954,0,0,1,.363.068.887.887,0,0,1,.289.187.854.854,0,0,1,.191.282.94.94,0,0,1,0,.706.854.854,0,0,1-.191.282.887.887,0,0,1-.289.187,1,1,0,0,1-.727,0,.877.877,0,0,1-.288-.187.865.865,0,0,1-.19-.282.94.94,0,0,1,0-.706.866.866,0,0,1,.19-.282.878.878,0,0,1,.288-.187A.953.953,0,0,1,92.9,17.292Zm0,.348a.551.551,0,0,0-.21.04.5.5,0,0,0-.167.111.516.516,0,0,0-.111.171.615.615,0,0,0,0,.439.517.517,0,0,0,.111.171.5.5,0,0,0,.167.111.575.575,0,0,0,.42,0,.506.506,0,0,0,.168-.111.512.512,0,0,0,.112-.171.615.615,0,0,0,0-.439.5.5,0,0,0-.28-.282.549.549,0,0,0-.21-.04Zm-5.868.542a.81.81,0,0,0-.8-.888.888.888,0,0,0,.025,1.775,1.025,1.025,0,0,0,.693-.237l-.18-.272a.8.8,0,0,1-.492.177.469.469,0,0,1-.506-.414h1.255C87.027,18.276,87.032,18.231,87.032,18.181Zm-1.259-.148a.435.435,0,0,1,.449-.41.419.419,0,0,1,.427.41Zm2.807-.265a1.089,1.089,0,0,0-.527-.145c-.2,0-.322.074-.322.2s.128.145.286.166l.173.025c.368.053.591.209.591.506,0,.322-.283.552-.769.552a1.222,1.222,0,0,1-.732-.219l.173-.286a.9.9,0,0,0,.562.177c.251,0,.385-.074.385-.205,0-.1-.1-.148-.3-.177l-.173-.025c-.378-.053-.583-.223-.583-.5,0-.336.276-.541.7-.541a1.263,1.263,0,0,1,.689.177Zm1.767-.1h-.6v.765c0,.171.06.283.244.283a.678.678,0,0,0,.325-.1l.106.315a.864.864,0,0,1-.46.131c-.435,0-.587-.233-.587-.626v-.769h-.342v-.336h.342v-.513h.371v.513h.6Zm1.273-.378a.786.786,0,0,1,.262.046l-.113.347a.6.6,0,0,0-.23-.043c-.241,0-.361.156-.361.435v.948h-.368V17.336h.362v.2a.5.5,0,0,1,.445-.247Z" fill="#fff"/>
    <path id="Path_34607" data-name="Path 34607" d="M89.824,4.436H84.247V14.459h5.577Z" fill="#7673c0"/>
    <path id="Path_34608" data-name="Path 34608" d="M84.6,9.447a6.363,6.363,0,0,1,2.436-5.011,6.374,6.374,0,1,0,0,10.023A6.363,6.363,0,0,1,84.6,9.447Z" fill="#eb001b"/>
    <path id="Path_34609" data-name="Path 34609" d="M97.348,9.446a6.374,6.374,0,0,1-10.313,5.012,6.375,6.375,0,0,0,0-10.023A6.374,6.374,0,0,1,97.348,9.446Z" fill="#00a1df"/>
    <path id="Path_34610" data-name="Path 34610" d="M109.21,1H107V21.13h26.921c3.429,0,4.419-.99,4.419-2.21V1H109.21Z" fill="#4d4d4d" fill-rule="evenodd"/>
    <path id="Path_34611" data-name="Path 34611" d="M120.145,7.5a2.213,2.213,0,0,1,1.015.245v.914a1.422,1.422,0,0,0-1.035-.448,1.363,1.363,0,0,0-1.383,1.368,1.342,1.342,0,0,0,1.421,1.374,1.357,1.357,0,0,0,1-.436v.915a2.4,2.4,0,0,1-1.035.232,2.131,2.131,0,0,1-2.233-2.079A2.165,2.165,0,0,1,120.145,7.5Zm-3.9.025a1.918,1.918,0,0,1,1.243.442l-.432.532a.872.872,0,0,0-.665-.323c-.356,0-.615.191-.615.442,0,.215.145.329.64.5.939.323,1.217.61,1.217,1.243a1.329,1.329,0,0,1-1.459,1.308,1.672,1.672,0,0,1-1.465-.758l.533-.483a.985.985,0,0,0,.9.531.589.589,0,0,0,.641-.562.473.473,0,0,0-.247-.412,3.424,3.424,0,0,0-.571-.227c-.775-.263-1.041-.544-1.041-1.092A1.214,1.214,0,0,1,116.243,7.53Zm9.431.069h.9l1.129,2.676L128.847,7.6h.894l-1.828,4.086h-.444Zm-15.965.006h1.211A2.052,2.052,0,0,1,113.191,9.6a1.954,1.954,0,0,1-.768,1.529,2.292,2.292,0,0,1-1.509.46h-1.205Zm3.862,0h.825v3.983h-.825Zm16.543,0h2.341v.675h-1.516v.884h1.46v.675h-1.46v1.075h1.516v.674h-2.341Zm2.888,0h1.223c.952,0,1.5.43,1.5,1.176a1.076,1.076,0,0,1-.963,1.129l1.332,1.678h-1.015l-1.143-1.6h-.107v1.6H133Zm.824.627V9.439h.241c.527,0,.806-.215.806-.616s-.279-.591-.793-.591Zm-23.293.048v2.634h.222a1.629,1.629,0,0,0,1.129-.317,1.329,1.329,0,0,0,.457-1,1.3,1.3,0,0,0-.457-.992,1.592,1.592,0,0,0-1.129-.322Z" fill="#fff" fill-rule="evenodd"/>
    <path id="Path_34612" data-name="Path 34612" d="M123.679,7.477A2.187,2.187,0,0,1,125.93,9.6h0a2.255,2.255,0,0,1-4.5,0h0a2.187,2.187,0,0,1,2.251-2.118Zm14.66,5.109c-1.047.737-8.883,6-22.451,8.543h22.451V12.586Z" fill="#f47216" fill-rule="evenodd"/>
    <path id="Path_34613" data-name="Path 34613" d="M169.614,1H143.807A1.807,1.807,0,0,0,142,2.807V19.323a1.807,1.807,0,0,0,1.807,1.807h25.807a1.806,1.806,0,0,0,1.806-1.807V2.807A1.806,1.806,0,0,0,169.614,1Z" fill="#006fcf" stroke="#f3f3f3" stroke-width="1"/>
    <path id="Path_34614" data-name="Path 34614" d="M147.865,15.655v-4.25h4.813l.516.63.533-.63H171.2v3.957a2.109,2.109,0,0,1-.985.293h-9.672l-.582-.67v.67h-1.908V14.512a1.691,1.691,0,0,1-.824.16h-.649v.984h-2.889l-.515-.643-.524.643ZM142.258,8.2l1.083-2.366h1.872l.615,1.325V5.836h2.328l.365.958.355-.958h10.449v.482a2.335,2.335,0,0,1,1.452-.482l3.39.011.6,1.308V5.836h1.948l.536.751V5.836h1.966v4.25h-1.966l-.514-.754v.754H163.88l-.288-.67h-.77l-.283.67H160.6a1.976,1.976,0,0,1-1.273-.472v.472H156.4l-.581-.67v.67H144.936l-.288-.67h-.767l-.285.67h-1.338Zm.006,1.34,1.46-3.182h1.107l1.459,3.182h-.971l-.269-.637h-1.566l-.269.637Zm2.478-1.328L144.264,7.1l-.478,1.114Zm1.649,1.328V6.359l1.351,0,.786,2.052.767-2.057h1.34V9.542h-.849V7.2l-.9,2.345h-.744l-.9-2.345V9.542Zm4.825,0V6.359h2.77v.712h-1.912v.544h1.867v.67h-1.867v.565h1.912v.691Zm3.261,0V6.36h1.889a1.072,1.072,0,0,1,1.187,1.032,1,1,0,0,1-.931.977l1.117,1.172H156.7l-1.018-1.131h-.358V9.542Zm1.82-2.471h-.971v.67h.983a.376.376,0,0,0,.39-.335A.381.381,0,0,0,156.3,7.072Zm2.469,2.47H157.9V6.359h.866Zm2.056,0h-.187a1.438,1.438,0,0,1-1.455-1.578,1.505,1.505,0,0,1,1.686-1.6h.939v.754h-.973a.785.785,0,0,0-.792.858.806.806,0,0,0,.916.875h.223Zm.386,0,1.461-3.182h1.107l1.459,3.182h-.972l-.268-.637h-1.566l-.27.637Zm2.479-1.328L163.209,7.1l-.479,1.114Zm1.647,1.328V6.359h1.079l1.378,2v-2h.849V9.542H167.6L166.183,7.49V9.542Zm-16.888,5.569V11.929h2.77v.712H149.3v.544h1.867v.67H149.3v.565h1.912v.691Zm13.573,0V11.929h2.77v.712h-1.912v.544h1.858v.67h-1.858v.565h1.912v.691Zm-10.695,0,1.348-1.572-1.381-1.611h1.07l.822,1,.825-1h1.028l-1.363,1.591,1.351,1.591h-1.069l-.8-.98-.779.98Zm3.8,0V11.929H157A1.087,1.087,0,0,1,158.219,13c0,.731-.573,1.107-1.329,1.107H156v1.005Zm1.813-2.463H156v.733h.939a.381.381,0,0,0,.421-.366A.373.373,0,0,0,156.938,12.649Zm1.65,2.462V11.929h1.889a1.072,1.072,0,0,1,1.187,1.032,1,1,0,0,1-.932.977l1.117,1.173h-1.037l-1.018-1.131h-.357v1.131Zm1.819-2.471h-.97v.67h.983a.375.375,0,0,0,.389-.335A.38.38,0,0,0,160.407,12.641Zm4.775,2.471V14.42h1.7c.251,0,.36-.127.36-.267s-.108-.269-.36-.269h-.768a.922.922,0,0,1-1.039-.953c0-.51.341-1,1.332-1h1.653l-.357.716h-1.43c-.273,0-.357.134-.357.263a.288.288,0,0,0,.313.277h.8c.744,0,1.067.4,1.067.913a.988.988,0,0,1-1.108,1.013Zm2.991,0V14.42h1.7c.252,0,.36-.127.36-.267s-.108-.269-.36-.269H169.1a.921.921,0,0,1-1.039-.953c0-.51.34-1,1.332-1h1.653l-.358.716h-1.429c-.274,0-.358.134-.358.263a.288.288,0,0,0,.313.277h.8c.744,0,1.067.4,1.067.913a.988.988,0,0,1-1.108,1.013Z" fill="#fff" fill-rule="evenodd"/>
    <path id="Path_34615" data-name="Path 34615" d="M65.49,1H36.718A1.718,1.718,0,0,0,35,2.718V19.509a1.718,1.718,0,0,0,1.718,1.718H65.49a1.718,1.718,0,0,0,1.718-1.718V2.718A1.718,1.718,0,0,0,65.49,1Z"/>
    <path id="Path_34616" data-name="Path 34616" d="M44.5,19.108V18.04a.621.621,0,0,0-.658-.676.7.7,0,0,0-.6.3.619.619,0,0,0-.569-.3.6.6,0,0,0-.515.249V17.4h-.338v1.707h.338v-.977a.4.4,0,0,1,.427-.444c.249,0,.391.16.391.444v.978h.338v-.978a.4.4,0,0,1,.427-.444c.249,0,.391.16.391.444v.978Zm5.549-1.69h-.623V16.9h-.337v.515H48.73v.3h.356v.8c0,.391.142.623.569.623a.994.994,0,0,0,.462-.125l-.107-.3a.585.585,0,0,1-.32.089.249.249,0,0,1-.267-.285V17.7h.623v-.287Zm3.166-.053a.532.532,0,0,0-.462.249V17.4h-.338v1.707h.338v-.959c0-.285.142-.463.374-.463a1.038,1.038,0,0,1,.231.036l.107-.32A1.2,1.2,0,0,0,53.211,17.364Zm-4.784.178a1.22,1.22,0,0,0-.693-.178c-.427,0-.694.2-.694.534,0,.285.2.444.569.5l.178.018c.2.036.32.107.32.2,0,.125-.142.215-.409.215a.937.937,0,0,1-.569-.178l-.178.267a1.292,1.292,0,0,0,.73.215c.5,0,.765-.231.765-.551,0-.3-.215-.444-.587-.5l-.178-.018c-.16-.018-.3-.071-.3-.178,0-.125.142-.215.338-.215a1.28,1.28,0,0,1,.534.142Zm5.158.712a.84.84,0,0,0,.889.889.883.883,0,0,0,.6-.2l-.178-.267a.719.719,0,0,1-.444.16.569.569,0,0,1,0-1.136.719.719,0,0,1,.444.16l.178-.267a.886.886,0,0,0-.6-.2.8.8,0,0,0-.889.854ZM51.2,17.364a.818.818,0,0,0-.836.889.835.835,0,0,0,.871.889,1.088,1.088,0,0,0,.694-.231l-.178-.249a.85.85,0,0,1-.5.178.5.5,0,0,1-.515-.444H52v-.142a.8.8,0,0,0-.8-.889Zm-.018.32a.425.425,0,0,1,.445.427H50.7A.482.482,0,0,1,51.184,17.685Zm-4.606.569V17.4h-.338v.215a.651.651,0,0,0-.551-.249.891.891,0,0,0,0,1.779.654.654,0,0,0,.551-.249v.215h.338Zm-1.369,0a.526.526,0,1,1,.534.569A.514.514,0,0,1,45.208,18.254Zm13.144-.889a.532.532,0,0,0-.462.249V17.4h-.338v1.707h.337v-.959c0-.285.142-.463.374-.463a1.039,1.039,0,0,1,.231.036l.107-.32a1.2,1.2,0,0,0-.249-.036Zm-1.316.889V17.4H56.7v.215a.652.652,0,0,0-.551-.249.891.891,0,0,0,0,1.779A.654.654,0,0,0,56.7,18.9v.215h.338Zm-1.369,0a.526.526,0,1,1,.534.569A.514.514,0,0,1,55.667,18.254Zm4.8,0v-1.53h-.338v.889a.652.652,0,0,0-.551-.249.891.891,0,0,0,0,1.779.654.654,0,0,0,.551-.249v.215h.338Zm-1.369,0a.526.526,0,1,1,.534.569.514.514,0,0,1-.534-.569Z" fill="#fff"/>
    <path id="Path_34617" data-name="Path 34617" d="M54.207,4.452H48.035V14.519h6.172Z" fill="#ff5f00"/>
    <path id="Path_34618" data-name="Path 34618" d="M48.658,9.486a6.42,6.42,0,0,1,2.437-5.033,6.4,6.4,0,1,0,0,10.067A6.42,6.42,0,0,1,48.658,9.486Z" fill="#eb001b"/>
    <path id="Path_34619" data-name="Path 34619" d="M61.465,9.486a6.4,6.4,0,0,1-10.349,5.033,6.417,6.417,0,0,0,0-10.067A6.4,6.4,0,0,1,61.465,9.486Z" fill="#f79e1b"/>
  </g>
</svg>
