<svg xmlns="http://www.w3.org/2000/svg" width="36" height="36" viewBox="0 0 36 36">
  <g id="Wikipedia" transform="translate(19941 -11261)">
    <rect id="Rectangle_4973" data-name="Rectangle 4973" width="36" height="36" rx="6" transform="translate(-19941 11261)" fill="#fff"/>
    <g id="wikipedia-logotype-of-earth-puzzle-svgrepo-com" transform="translate(-19938 11265)">
      <g id="Group_64710" data-name="Group 64710" transform="translate(0 0)">
        <path id="Path_34186" data-name="Path 34186" d="M30.487,13.161a.158.158,0,0,0-.027-.054l-.073-.093.019-.074a.147.147,0,0,0,0-.078A15.79,15.79,0,0,0,27.928,7.9a.152.152,0,0,0-.063-.049l-.186-.078a.151.151,0,0,0-.146.017l-.149.1c-.1-.128-.205-.266-.263-.343-.255-.279-.469-.564-.566-.695a.147.147,0,0,0,0-.083l-.076-.227a3.132,3.132,0,0,0-.672-.717,1.964,1.964,0,0,0-.326-.186,1.018,1.018,0,0,0-.3-.062.15.15,0,0,0-.088.024c-.4-.288-1.275-.99-1.285-1a.159.159,0,0,0-.05-.026l-.174-.054a.118.118,0,0,0-.14.028.73.73,0,0,1-.181.064,3.534,3.534,0,0,1-.47.086l-.035.005c-.185.024-.251.1-.272.16l-.253.4a.147.147,0,0,0-.017.039.271.271,0,0,0,0,.137c0-.007-.007-.013-.009-.02a.8.8,0,0,0-.219-.267,1.648,1.648,0,0,0-.948-.062,6.374,6.374,0,0,0-.911.252c-.075.029-.474.162-.679.215-.12.031-.225.062-.316.09-.066.02-.125.038-.18.052-.089.023-.54.156-1.376.405-.321.1-.53.133-.529.133a2.638,2.638,0,0,1-.273.015,1.018,1.018,0,0,1-.3-.031s0-.033,0-.033l0-.356A.392.392,0,0,0,16.3,5.53a1.275,1.275,0,0,0-.545-.106,3.012,3.012,0,0,0-.669.044,1.113,1.113,0,0,0-.611.334.587.587,0,0,0-.184.452s.012.21.028.365a.392.392,0,0,0,.045.148,5.151,5.151,0,0,1-.708.255,6.26,6.26,0,0,1-1.081.228.151.151,0,0,0-.137.162c.013.17.148.924.162,1.008.007.043.069.42.1.524s.094.315.094.315a.416.416,0,0,0,.219.261.915.915,0,0,0,1.034-.3l.147-.172a.325.325,0,0,1,.294-.071.65.65,0,0,1,.3.275c-.083.028-.186.061-.263.081-.152.041-1.629.516-1.629.516s-.572.183-1.026.293a5.662,5.662,0,0,1-.8.153.534.534,0,0,1-.113,0l.047-.083a.116.116,0,0,0,.006-.016l0,0a.263.263,0,0,0,.02-.069.206.206,0,0,0,0-.02c0-.012,0-.022,0-.032a.082.082,0,0,0,0-.009c0-.022,0-.039,0-.039s0-.011-.013-.029a.205.205,0,0,0-.019-.036,1.18,1.18,0,0,0-.164-.239.423.423,0,0,0-.1-.079.449.449,0,0,0-.2-.057,1.491,1.491,0,0,0-.709.154,1.4,1.4,0,0,0-.706.495.334.334,0,0,0-.008.312,2.353,2.353,0,0,0,.318.338h0a1.936,1.936,0,0,1-.61.348l-.02.008-.025.009a5.848,5.848,0,0,1-1.048.259c-.243.031-.463.046-.623.054a1.5,1.5,0,0,0,.316-.455,1.237,1.237,0,0,0-.091-1.13A2.868,2.868,0,0,0,6.983,9.7a.447.447,0,0,0-.469-.038,1.982,1.982,0,0,1,.119-.418c.1-.24.315-.66.315-.66A7.822,7.822,0,0,0,7.4,7.694a1.922,1.922,0,0,0,.135-.638A.152.152,0,0,0,7.5,6.964s-.147-.186-.226-.289a.623.623,0,0,0,.448-.068,2.116,2.116,0,0,0,.543-.711l.3-.6a.152.152,0,0,0-.007-.146l-.248-.4a.15.15,0,0,0-.1-.068c-.03-.006-.08-.017-.374.084a3.307,3.307,0,0,0-.326.131L7.431,4.77c0-.008-.03-.034-.036-.041-.068-.07-.2-.079-.412-.031a1.49,1.49,0,0,0-.757.46,1.083,1.083,0,0,0-.154.263,4.013,4.013,0,0,1-.894.6.59.59,0,0,0-.26.106,10.118,10.118,0,0,0-.961.986.326.326,0,0,0-.058.082.78.78,0,0,0-.067.311c0,.007,0,.014,0,.02-.189.25-.31.39-.374.459a.347.347,0,0,0-.057,0,1.421,1.421,0,0,0-.264.14.162.162,0,0,0-.042.04c-.115.164-.382.6-.468.748a.6.6,0,0,0-.059.035.146.146,0,0,0-.066.019L2.3,9.083a.151.151,0,0,0-.055.053,15.355,15.355,0,0,0-1.969,5.11.154.154,0,0,0,0,.067l.013.048-.054.121a.164.164,0,0,0-.011.036A15.661,15.661,0,0,0,.1,18.931.156.156,0,0,0,.124,19l.055.078-.033.083a.153.153,0,0,0-.009.076,15.334,15.334,0,0,0,2.006,5.81.148.148,0,0,0,.04.045l.02.015.017.06a.136.136,0,0,0,.016.037,15.51,15.51,0,0,0,28.722-6.687.16.16,0,0,0-.01-.07l-.041-.1.054-.09a.144.144,0,0,0,.02-.067c.022-.341.033-.683.033-1.016A15.515,15.515,0,0,0,30.487,13.161Zm.053,2.112c.021-.02.034-.06.031-.158q.079.581.113,1.169a.741.741,0,0,0-.036.182s-.02.141-.047.138a.1.1,0,0,1-.029-.007c-.037-.019-.1-.094-.141-.418a6.137,6.137,0,0,1-.047-.888s-.013-.047.014-.057.057.03.057.03A.054.054,0,0,0,30.54,15.273Zm-.335-2c.065.243.117.489.17.735-.075-.31-.16-.6-.225-.8Zm-.056-.071c.018.055.035.113.053.174-.019-.061-.037-.123-.054-.175Zm-.044-.056.006.007-.049-.055h0l.043.047S30.1,13.142,30.1,13.143Zm-.61-1.9s0,0,0,0a15,15,0,0,1,.594,1.638.233.233,0,0,0-.039,0l-.011,0,0-.005s-.094-.275-.311-.824a5.85,5.85,0,0,1-.254-.731l0-.009S29.461,11.25,29.494,11.239Zm.565,1.851Zm-.02-.218h0v0ZM27.779,8.511a.721.721,0,0,0,.114-.07.309.309,0,0,0,.031-.03q.388.553.728,1.138c-.028,0-.049.039.006.186.035.093.041.126.034.131s-.057-.061-.057-.061c-.279-.355-.855-1.293-.855-1.293l-.055-.038Zm-.184.08.025-.01.018-.008.05-.022.011,0h0l0,0c.307.5.857,1.293.857,1.293s.223.289.273.291-.025-.223-.025-.223-.025-.091,0-.1c.206.371.4.751.57,1.135h0a.1.1,0,0,0-.044.1,2,2,0,0,0,.15.5s.313.8.513,1.355a.539.539,0,0,1-.242.114.791.791,0,0,0-.586.4.544.544,0,0,0-.087.282l0,0c0,.006,0,.012,0,.018a.731.731,0,0,0,.007.107c0,.01,0,.02,0,.03.005.029.011.055.018.08,0,.009,0,.021.007.029l0,.005a.829.829,0,0,0,.051.13s.108.178.161.269a1.1,1.1,0,0,1,.011,1.087.911.911,0,0,1-.459.259c-.259.058-.193-.246-.22-.408a2.14,2.14,0,0,0-.372-1.081c-.295-.345-.827.268-1.093.472a10.634,10.634,0,0,1-2.012,1.483l-.038-.5a3.287,3.287,0,0,0-.17-.687,5.017,5.017,0,0,0-.584-1.241.762.762,0,0,0-.374-.352.588.588,0,0,0-.221-.045.41.41,0,0,0-.431.367.816.816,0,0,1-.247.379c-.132.076-.487.283-.731.163a.345.345,0,0,1-.1-.073c-.046-.05-.084-.1-.124-.157a1.874,1.874,0,0,1-.122-.185,1.672,1.672,0,0,1-.224-.673.615.615,0,0,1,.111-.486s.029-.089.486-.089c.512,0,.606-.158.606-.158a.38.38,0,0,0,.09-.29,2.47,2.47,0,0,0-.234-.9c-.02-.037-.049-.082-.08-.127a5.918,5.918,0,0,0-.428-.555l-.276-.05.276.049c.178-.066.424-.163.688-.282a8.555,8.555,0,0,0,1.047-.59,2.25,2.25,0,0,1,.869-.328s.075,0,.082.1a1.312,1.312,0,0,0,.065.33.972.972,0,0,0,.822.617,1.163,1.163,0,0,0,.21.005.83.83,0,0,0,.1-.016c.026,0,.055-.007.079-.013a.911.911,0,0,0,.124-.045l.024-.008a.94.94,0,0,0,.108-.06l.011-.006a.733.733,0,0,0,.2-.195.56.56,0,0,0-.149-.691s-.289-.31-.3-.334a.038.038,0,0,1,.013-.052.112.112,0,0,1,.036-.018c.051-.014.41-.115.754-.227C27.317,8.694,27.473,8.64,27.595,8.591ZM25.71,18.407a.638.638,0,0,0,.767.3c.256-.064.341-.2.483-.513s.217-.328.217-.328.057-.081.317-.051a.351.351,0,0,1,.316.213,1.74,1.74,0,0,1,.119.726,1.3,1.3,0,0,1-.2.669c-.086.133-.53.089-.53.089s-.764-.085-.832.833A3.3,3.3,0,0,0,26.61,21.9a1.078,1.078,0,0,0,.32.439,1.779,1.779,0,0,1,.183.158.3.3,0,0,1,.04.045h0c-.544.44-.705.583-1.139.89a9.574,9.574,0,0,1-1.036.662,2.513,2.513,0,0,1-1.181.256s-.172-.019-.088-.144a2.633,2.633,0,0,0,.232-.583c.043-.155.125-.548-.19-.673a1.82,1.82,0,0,0-.909.059,4.954,4.954,0,0,0-1.919.973c-.54.593-.086.858-.086.858a2.045,2.045,0,0,0,.417.22c.194.069.155.131.107.167a5.783,5.783,0,0,1-1.328.595,9.832,9.832,0,0,1-1.939.363l-1.352.085c-.1-.2-.209-.382-.209-.382a1.389,1.389,0,0,1-.165-.412.955.955,0,0,1,.092-.7,1.622,1.622,0,0,1,.824-.707,2.3,2.3,0,0,1,.9,0A.8.8,0,0,0,18.824,24a.58.58,0,0,0,.254-.316c.009-.022.017-.049.025-.074s.016-.042.023-.067a1.406,1.406,0,0,0,.037-.178c.079-.52,0-1.488-.7-1.68a1.112,1.112,0,0,0-1.063.17,3.807,3.807,0,0,1-.495.473c-.122.06-.308.169-.308.169a1.939,1.939,0,0,1-.438.2c-.11.024-.481-.462-.565-.878-.006-.028-.014-.057-.017-.085a8.76,8.76,0,0,1-.1-1.251c0-.087,0-.18.006-.282v-.005l.373-.019a10.114,10.114,0,0,0,2.181-.295,5.726,5.726,0,0,0,1.5-.686.8.8,0,0,0,.393-.458.908.908,0,0,0,.02-.1c0-.011.005-.02.007-.032s0,0,0,0c.051-.39-.411-.649-.411-.649a2.813,2.813,0,0,1-.444-.28.123.123,0,0,1-.032-.117.137.137,0,0,1,.025-.05,1.606,1.606,0,0,1,.872-.709,5.134,5.134,0,0,1,1.391-.364c.281-.03.375.071.414.119a.294.294,0,0,1,.007.247,3.516,3.516,0,0,1-.195.42c-.059.107-.157.366-.095.489s.254.179.5.134a9.006,9.006,0,0,0,1.472-.468c.573-.238,1.528-.706,1.528-.706l.007,0v0h0l.025-.213v0L25,16.669A12.6,12.6,0,0,0,25.71,18.407Zm1.555,4.143-.006.19a1.671,1.671,0,0,1,.043.848,3.241,3.241,0,0,1-.3,1c-.015.027-.031.055-.046.08l-.014.02c-.014.021-.029.04-.044.059s-.045.055-.081.1c-.018.019-.035.038-.053.055l-.021.019c-.02.02-.042.041-.066.06L26.661,25a.822.822,0,0,1-.413.207,1.556,1.556,0,0,0-1.041.36c-.005.005-.011.008-.016.013l-.034.036-.019.018-.006.007a.991.991,0,0,0-.1.131,1.381,1.381,0,0,0-.212.869.3.3,0,0,0,.407.252,3.091,3.091,0,0,0,1.035-.606c.285-.226.11.076.11.076a4.884,4.884,0,0,1-.729.982,4.3,4.3,0,0,0-.533.661c-.1.134-.175.254-.241.359h0l0,0c-.375.2-.914.469-1.253.608l.053-.02-.053.022a3.819,3.819,0,0,1-.424.151l.008,0a.417.417,0,0,1-.194.029h0s0-.008,0-.013,0,0,0,0a.941.941,0,0,1,.139-.138.421.421,0,0,0,.121-.243.073.073,0,0,0-.046-.074.7.7,0,0,0-.437.007,3.242,3.242,0,0,0-.368.1l-.008,0c-.156.053-.3.11-.4.157h0l.03-.012c-.149.066-.245.117-.245.117a2.714,2.714,0,0,0-.446.265l.006-.006-.019.016a.711.711,0,0,0-.062.055l-.012.011a.4.4,0,0,0-.057.072l-.007.01a.159.159,0,0,0-.022.071s0,0,0,0a.107.107,0,0,0,.026.071s.035.057.191.107a.045.045,0,0,1,.03.02.012.012,0,0,1,0,.007.03.03,0,0,1-.006.015.076.076,0,0,1-.013.014l-.009.007a.284.284,0,0,1-.03.02l.005,0a1.693,1.693,0,0,1-.256.1,9.541,9.541,0,0,1-1.126.279c-.414.085-.772.163-1.013.216h0a1.79,1.79,0,0,0-.106-.286l-.016-.034c-.02-.042-.04-.082-.06-.12,0-.007-.008-.016-.012-.022-.024-.043-.047-.083-.069-.12l-.028-.046c-.01-.017-.02-.032-.029-.047l-.065-.1c-.095-.151-.252-.238-.721-.16a5.418,5.418,0,0,0-1.019.312,2.086,2.086,0,0,1-.994.244.548.548,0,0,1-.259-.1.679.679,0,0,1-.248-.518c0-.135.091-.252.313-.338a5.448,5.448,0,0,1,1.5-.243,1.264,1.264,0,0,0,1.042-.533.431.431,0,0,0-.015-.611.757.757,0,0,0-.134-.094,3.852,3.852,0,0,0-.457-.221.871.871,0,0,1-.1-.056l-.008-.006-.02-.014c-.016-.011-.031-.021-.049-.035-.051-.039-.1-.081-.154-.125a1.132,1.132,0,0,1-.358-.487c-.007-.025-.02-.059-.031-.088l-.153-.1-.1-.067h0l0,0h0l.018-.017-.018.017,0,0h0l.254.167c.221-.018.508-.039.765-.051a13.115,13.115,0,0,0,1.77-.244,7.721,7.721,0,0,0,1.684-.588c.519-.269.544-.458.544-.458a.165.165,0,0,0,.015-.137.323.323,0,0,0-.133-.165c-.216-.158-.312-.115-.5-.309a.18.18,0,0,1-.047-.075c-.059-.186.215-.409.215-.409s.185-.26,1.211-.656,1.2-.263,1.252-.219a.109.109,0,0,1,.031.047.482.482,0,0,1,.006.231c-.021.1-.149.439-.217.619a.519.519,0,0,0-.036.291.253.253,0,0,0,.219.194,2.066,2.066,0,0,0,1.032-.134,10.573,10.573,0,0,0,2.57-1.736l.009-.007.005-.195h0S27.264,22.549,27.265,22.55ZM12.453,27.815a1.608,1.608,0,0,0,.471.371s.142.062.139.1,0,.093-.111.154a2.716,2.716,0,0,1-1.237.259c-.817.014-1.178.007-1.418-.21-.2-.178.05-.555.05-.555a.551.551,0,0,0,0-.438c-.1-.253-.668-.257-.668-.257l-.788-.04c-.932-.025-2.163-.129-2.711-.2l-.009,0h0l-.016-.024a3.892,3.892,0,0,1-.5-1.39.423.423,0,0,1,.256-.311.719.719,0,0,1,.117-.046c.246-.076.214.163.937.294a.882.882,0,0,0,.608-.059.432.432,0,0,0,.179-.226,1.437,1.437,0,0,0-.171-1.022s-.437-.8-.977-.83H6.592c-.273-.011-.2.177-.631.278,0,0-.577.056-.759-.29A2.766,2.766,0,0,1,4.9,22.164c0-.011,0-.019,0-.029a2.086,2.086,0,0,1,.022-.322c0-.02.01-.042.016-.071s.02-.072.034-.124a1.39,1.39,0,0,0,.041-.205v0l1.09-.118A7.328,7.328,0,0,1,7.846,21.2a.807.807,0,0,1,.626.44.124.124,0,0,1,0,.056.16.16,0,0,1-.077.1.9.9,0,0,0-.285.269v0h0c-.007.012-.014.026-.02.041h0a.61.61,0,0,0,.069.571,1.141,1.141,0,0,0,1.048.431,11.688,11.688,0,0,0,1.361-.3,1.224,1.224,0,0,0,.69-.39.472.472,0,0,0,.086-.208c.045-.3-.463-.692-.463-.692a3.139,3.139,0,0,1-.273-.226.038.038,0,0,1-.008-.027c.007-.02.036-.029.036-.029a3.35,3.35,0,0,0,.409-.125,9.091,9.091,0,0,1,1.01-.367c.552-.173,1.689-.375,1.689-.375s.628-.1,1.411-.164l0,0h0l.1-.111.03-.033-.128.148q0,.111-.008.229a4.4,4.4,0,0,0,.217,1.766,1.606,1.606,0,0,0,.526.7.657.657,0,0,0,.608,0,6.3,6.3,0,0,0,.585-.312c.226-.144.218-.2.491-.456a.772.772,0,0,1,.625-.182.648.648,0,0,1,.524.4,1.965,1.965,0,0,1,.1,1.136c-.048.2-.134.33-.321.3a5.838,5.838,0,0,0-.608-.07,2.6,2.6,0,0,0-.721.061,1.747,1.747,0,0,0-1.029.869,1.22,1.22,0,0,0-.079,1.085c.051.139.191.333.314.57l.228.076h0l-.226-.075a15.2,15.2,0,0,0-1.685.3,7.11,7.11,0,0,0-2.079.692S12.223,27.556,12.453,27.815Zm-6.282-.807,0,.042h0Zm-1.2-5.8h0Zm9.472-6.389a10.179,10.179,0,0,0-.447-1.8c.488-.067.884-.129,1.334-.217.3-.059.626-.129,1.022-.22,0,0,.917-.163,1.107-.5.111-.2.309-.463-.012-.731l0,0h0s-.037-.049-.238-.094c-.085-.019-.161-.036-.233-.059a.947.947,0,0,1-.289-.138.34.34,0,0,1-.166-.262s-.015-.134.259-.288a2.313,2.313,0,0,1,.43-.226c.1-.04.207-.082.334-.123a3.008,3.008,0,0,1,1.1-.089s.247.027.206.193a4.624,4.624,0,0,0-.188.59.4.4,0,0,0,.062.268.367.367,0,0,0,.084.081.643.643,0,0,0,.136.077,1.511,1.511,0,0,0,.541.085c.085,0,.142-.005.142-.005a4.737,4.737,0,0,0,1.1-.241c.427-.138.856-.287,1.115-.379l.261-.092.007,0v0a2.546,2.546,0,0,1,.707,1.3s.081.282-.085.3c-.145.019-.483.021-.483.021s-.128.013-.337.056a.54.54,0,0,0-.37.418,1.716,1.716,0,0,0,.235,1.238c.353.661.8.631.8.631a1.23,1.23,0,0,0,.734-.256,1.01,1.01,0,0,0,.333-.546c.014-.064.043-.128.093-.128a.753.753,0,0,0,.155-.017c.121-.017.21.068.308.269a7.26,7.26,0,0,1,.5,1.024,3.913,3.913,0,0,1,.192.963,3.217,3.217,0,0,0,.039.373l.1.137h0v0l-.1-.142a25.34,25.34,0,0,1-2.37,1.058,3.7,3.7,0,0,1-.8.235s-.051,0-.01-.053a1.555,1.555,0,0,0,.152-.222,1.574,1.574,0,0,0,.194-.7c0-.292-.337-.577-.807-.527a5.676,5.676,0,0,0-1.46.389A1.693,1.693,0,0,0,18.762,17.5c-.063.366.333.578.333.578s.447.226.5.348a.33.33,0,0,1,.015.236.489.489,0,0,1-.236.235c-.2.113-.728.387-.728.387a4.6,4.6,0,0,1-1.675.455s-.921.078-1.45.105h-.019a4.351,4.351,0,0,0-.2-1.6,2.136,2.136,0,0,0-.159-.348,1.929,1.929,0,0,0-.833-.747,1.469,1.469,0,0,0-.955-.026.727.727,0,0,0-.485.4c-.114.2-.252.183-.252.183s-.412.008-.559-.609c0-.012-.007-.02-.01-.032-.02-.1-.032-.179-.042-.261,0-.018-.007-.039-.008-.056C12,16.7,12,16.651,12,16.6s-.006-.079-.006-.114a.924.924,0,0,1,.173-.637.585.585,0,0,1,.412-.187,1.776,1.776,0,0,1,.764.1.953.953,0,0,0,.729-.112.631.631,0,0,0,.346-.369A1,1,0,0,0,14.439,14.822Zm5.089-8.969c.214-.055.625-.191.713-.225a6.058,6.058,0,0,1,.854-.237,1.431,1.431,0,0,1,.724.011.549.549,0,0,1,.117.146.857.857,0,0,0,.347.4.987.987,0,0,0,.645.1c.515-.129.573-.416.52-.514a.96.96,0,0,0-.269-.26,1.947,1.947,0,0,1-.329-.255A.075.075,0,0,1,22.84,5a3.789,3.789,0,0,0,.5-.092,1.31,1.31,0,0,0,.219-.076l.082.025c.16.128,1.079.863,1.391,1.069a.151.151,0,0,0,.2-.03l.006-.007a1.229,1.229,0,0,1,.094.08.475.475,0,0,1,.293.1,3.035,3.035,0,0,1,.575.593l.046.138a.151.151,0,0,0,.011.155,8.917,8.917,0,0,0,.634.786c.035.048.325.439.485.608a3.045,3.045,0,0,1-.364.121,4.66,4.66,0,0,0-.659.241s-.269.087-.166.306c.01.02.021.035.031.053a.208.208,0,0,0,.025.047l.007.007a.879.879,0,0,0,.19.216s.016.016.039.042l.042.048.019.023a.868.868,0,0,1,.065.1.366.366,0,0,1,.058.157c.007.158-.06.23-.23.324a.976.976,0,0,1-.324.113.814.814,0,0,1-.6-.116.927.927,0,0,1-.237-.5.462.462,0,0,0-.346-.377,1.049,1.049,0,0,0-.739.128s-.321.17-.663.392a8.029,8.029,0,0,1-1.4.636l-.046.21h0l.022-.1.023-.107h0c-.028-.027-.079-.08-.141-.149-.154-.171-.39-.445-.6-.7s-.4-.485-.468-.584a1.533,1.533,0,0,1-.226-.38.169.169,0,0,1,0-.076.638.638,0,0,1,.128-.273c.072-.085.158-.1.333-.064a.824.824,0,0,0,.568.025c.278-.089.291-.3.311-.512a1.349,1.349,0,0,0-.282-.683,1.721,1.721,0,0,0-.158-.2.869.869,0,0,0-.7-.239c-.2.013-.316.158-.432.222a.649.649,0,0,1-.43.086.791.791,0,0,1-.182-.1.88.88,0,0,1-.231-.284c-.11-.193-.2-.369-.263-.485C19.4,5.887,19.461,5.87,19.528,5.853ZM13.639,10.19a.833.833,0,0,1,.244-.073l.23-.013.152.01.054.005a.822.822,0,0,0,.418-.051h0l.014-.006a.675.675,0,0,0,.09-.04.726.726,0,0,0,.453-.651,1.5,1.5,0,0,0-.587-1.009.606.606,0,0,0-.2-.08.748.748,0,0,0-.569.119c-.182.136-.255.31-.366.366s-.266.177-.43.143h-.005c-.167-.04-.175-.413-.246-.834q-.043-.255-.072-.424c-.008-.048-.015-.089-.021-.126a7.219,7.219,0,0,0,.939-.213,3.517,3.517,0,0,0,.962-.385.144.144,0,0,0,.053-.1,1.249,1.249,0,0,0,.19-.142s.188-.088.007-.265h0a1.864,1.864,0,0,0-.27-.229.114.114,0,0,1-.046-.054.11.11,0,0,1-.007-.037.517.517,0,0,1,.071-.1.824.824,0,0,1,.451-.24,2.737,2.737,0,0,1,.591-.037,1.332,1.332,0,0,1,.372.052c-.01.11-.026.261-.023.308a.338.338,0,0,0,.115.249.235.235,0,0,0,.129.147,1.329,1.329,0,0,0,.766.059,5.676,5.676,0,0,0,.573-.143c.821-.244,1.281-.38,1.366-.4l.024-.007c.042.084.111.214.229.415a1.185,1.185,0,0,0,.95.627,1.127,1.127,0,0,0,.606-.234.293.293,0,0,1,.239-.116c.259-.017.324.2.537.508a.531.531,0,0,1,.082.546.373.373,0,0,1-.445.12c-.109-.023-.121-.036-.246-.059a.483.483,0,0,0-.525.238.583.583,0,0,0,.052.751s.743,1,1.31,1.612c-.428.147-.983.333-.983.333a7.732,7.732,0,0,1-1.254.347c-.5.068-.608,0-.675-.072s.012-.3.012-.3.2-.414.105-.629S18.313,9.8,18.3,9.8a2.453,2.453,0,0,0-1.341.281c-.571.32-.646.495-.646.495a.5.5,0,0,0,.034.562.875.875,0,0,0,.565.345s.308.024.379.114a.184.184,0,0,1,.023.189s-.1.278-.671.395a21.547,21.547,0,0,1-2.743.535,9.739,9.739,0,0,1-.379-2.1C13.5,10.367,13.529,10.262,13.639,10.19ZM7.73,14.1s.143.018.122.07a.661.661,0,0,1-.126.125,1.305,1.305,0,0,0-.2.2.781.781,0,0,0-.209.5.315.315,0,0,0,.006.07.874.874,0,0,0,.721.652,2.716,2.716,0,0,0,1.228-.1,1.894,1.894,0,0,0,.839-.5.6.6,0,0,0,.178-.558.94.94,0,0,0-.174-.38.414.414,0,0,0-.2-.133s-.031-.008-.033-.027a.029.029,0,0,1,.01-.023.662.662,0,0,1,.153-.158,1.623,1.623,0,0,1,.261-.115,21.959,21.959,0,0,1,3.331-.643v0s.154.619.272,1.017a8.066,8.066,0,0,1,.187.876.326.326,0,0,1-.1.317,1.31,1.31,0,0,1-.429.17.77.77,0,0,1-.3-.061A1.212,1.212,0,0,0,13,15.334a1.672,1.672,0,0,0-.69.052.988.988,0,0,0-.647.928,2.013,2.013,0,0,0,.161,1.09.968.968,0,0,0,.742.638.693.693,0,0,0,.582-.317,1.4,1.4,0,0,1,.177-.226,1.266,1.266,0,0,1,.8-.052,1.536,1.536,0,0,1,.82.807,3.7,3.7,0,0,1,.22,1.615L15.34,20v0l-.177-.135c-.494.041-1.066.108-1.066.108a18.508,18.508,0,0,0-2.475.549,4.027,4.027,0,0,0-1.2.479.318.318,0,0,0-.035.438,1.439,1.439,0,0,0,.31.325c.206.163.373.318.349.4a.207.207,0,0,1-.087.115,3.364,3.364,0,0,1-1.474.457s-.762.147-1-.083-.131-.385-.131-.385.016-.052.187-.159a.477.477,0,0,0,.2-.52A1.347,1.347,0,0,0,7.5,20.828a23.408,23.408,0,0,0-2.469.229H5.03c0-.078,0-.161-.007-.25-.028-.5-.064-1.271-.131-1.72s-.191-1.144-.6-1.164c0,0-.2-.016-.492.266-.266.258-.507-.213-.52-.5a1.938,1.938,0,0,1,.123-.842.262.262,0,0,1,.085-.1.484.484,0,0,1,.272-.071,1,1,0,0,1,.314.143.414.414,0,0,0,.367.039.315.315,0,0,0,.1-.067,1.1,1.1,0,0,0,.353-.782,7.5,7.5,0,0,0,0-1.719v0c.115-.02.268-.047.44-.074.192-.029.409-.059.636-.081A10.16,10.16,0,0,1,7.73,14.1ZM2.694,9.232a.433.433,0,0,1,.085-.05.15.15,0,0,0,.086-.066c0-.006.326-.545.466-.75l.118-.071a.139.139,0,0,0,.039.01A.15.15,0,0,0,3.6,8.268a4.552,4.552,0,0,0,.532-.641.153.153,0,0,0,0-.19.691.691,0,0,1,.035-.116l.007-.008A10.087,10.087,0,0,1,5.1,6.361a.306.306,0,0,1,.131-.046A.175.175,0,0,0,5.276,6.3,4.134,4.134,0,0,0,6.3,5.621a.17.17,0,0,0,.048-.081.706.706,0,0,1,.117-.2,1.128,1.128,0,0,1,.432-.3c-.057.051-.129.116-.221.214s-.124.16-.116.19.053.032.113.011c.031-.01.069-.025.115-.045l.005,0h0c.117-.05.288-.132.53-.256l.01.014a.15.15,0,0,0,.2.047A2.937,2.937,0,0,1,7.8,5.095a3.855,3.855,0,0,1-.434.737s-.113.166-.2.125a.45.45,0,0,0-.274-.026,1.062,1.062,0,0,0-.587.426c-.238.321-.266.561-.138.633s.315-.023.427-.123a.742.742,0,0,1,.191-.135.149.149,0,0,0,.063.066.256.256,0,0,1-.006.05,3.475,3.475,0,0,1-.49,1.179c-.111.193-.255.479-.322.616h0a9.475,9.475,0,0,0-1.438.369c-.184.07-.187.025-.187.025-.026-.031-.008-.087.021-.143a.844.844,0,0,1,.059-.1c.027-.039.051-.067.051-.067a2.159,2.159,0,0,0,.275-.517C4.888,7.966,4.542,8,4.542,8a.9.9,0,0,0-.582.372,1.546,1.546,0,0,0-.269.547.953.953,0,0,1-.058.155.287.287,0,0,1-.136.1,3.428,3.428,0,0,1-.37.119.618.618,0,0,1-.28-.045.361.361,0,0,0-.179,0A.063.063,0,0,0,2.694,9.232Zm-.22.177v0l0,0h0l-.051.076.05-.076ZM1.441,11.4l0,.014c-.018.064-.025.1-.025.1a.227.227,0,0,0,0,.064c.005.019.014.029.031.028s.038-.041.046-.02a.335.335,0,0,1-.012.127c-.027.14-.158.514-.209.666s-.108.256-.149.249a.042.042,0,0,1-.028-.022.124.124,0,0,1-.013-.048.13.13,0,0,0-.01-.04c-.007-.015-.02-.022-.041,0Q1.215,11.949,1.441,11.4ZM.933,12.834v0a.357.357,0,0,1,.026-.055c.009-.014.018-.015.015.03,0,.1.059.109.059.109.04-.006.084-.052.128-.126h0l0-.007c.018-.03.036-.065.055-.1l.014-.033c.014-.031.029-.065.043-.1L1.3,12.5c.014-.034.027-.071.041-.109.007-.019.014-.036.02-.055l.034-.1c.008-.022.015-.044.022-.067s.011-.036.017-.054c.013-.041.026-.082.037-.122s.017-.058.024-.087l.024-.087.02-.078c.011-.045.021-.087.03-.126.005-.021.008-.038.012-.058s.01-.046.014-.067l.005-.023h0c.012-.061.019-.1.019-.113,0-.033-.017-.058-.046-.042s-.038,0-.038,0a.126.126,0,0,1,0-.03V11.28a2.588,2.588,0,0,1,.1-.3c.045-.114.092-.226.141-.334l.014-.03c.024-.051.047-.1.071-.151l0-.009a8.726,8.726,0,0,1,.518-.918.3.3,0,0,0,.072-.017.893.893,0,0,1,.335.036A.952.952,0,0,0,3.421,9.4L3.434,9.4l0,0,.032-.022.01-.007.042-.033.017-.014c.015-.012.03-.025.045-.04L3.6,9.266h0a.946.946,0,0,0,.21-.279l.109-.3A.643.643,0,0,1,4.247,8.3a.588.588,0,0,1,.25-.053c.1,0,.118.041.121.072a.092.092,0,0,1,0,.034.982.982,0,0,1-.177.275,1.142,1.142,0,0,0-.2.36A.32.32,0,0,0,4.22,9.2a.141.141,0,0,0,.074.075s.072.042.283-.028a11.342,11.342,0,0,1,1.337-.319h0v0a1.89,1.89,0,0,0-.142.786.365.365,0,0,0,.349.3A.732.732,0,0,0,6.282,10c.006,0,.009.009.016.011a.445.445,0,0,0,.328-.07.244.244,0,0,1,.038-.013.8.8,0,0,1,.132.438.922.922,0,0,1-.307.735.528.528,0,0,1-.3.095.757.757,0,0,1-.287-.051.743.743,0,0,0-.479.025,1.686,1.686,0,0,0-.571.653,3.153,3.153,0,0,0-.307,1.325,6.412,6.412,0,0,0,.088.867l.2.13h0l-.2-.131a6.328,6.328,0,0,1-1.469.177c-.548,0-.532-.29-.463-.479a.7.7,0,0,1,.031-.073l.008-.017c.009-.019.019-.036.026-.048s.015-.024.015-.024A2.349,2.349,0,0,0,3,13.023s.068-.526-.428-.491A.636.636,0,0,0,1.984,13a2.929,2.929,0,0,0-.026.419,1.053,1.053,0,0,1-.224.771.505.505,0,0,1-.461.149s-.4-.176-.48-.216a.27.27,0,0,0-.175-.027Q.749,13.455.933,12.834ZM.473,18.973l-.08-.113A15.566,15.566,0,0,1,.3,17.181a15.366,15.366,0,0,1,.22-2.593l.068-.152A.146.146,0,0,0,.6,14.391a.554.554,0,0,1,.122.042,2.93,2.93,0,0,0,.494.216.443.443,0,0,0,.363-.088c.02-.014.042-.036.064-.054s.036-.028.054-.046.027-.031.041-.045.048-.05.072-.079l-.007.006a1.29,1.29,0,0,0,.161-.258c0,.008-.005.016-.009.027.018-.036.034-.072.047-.106a.664.664,0,0,0,.022-.082c0-.01,0-.022.006-.033s.007-.033.01-.051l0,.009c.015-.091.025-.193.033-.289v.006c.012-.151.015-.275.015-.28v0h0s0-.127,0-.156a.093.093,0,0,1,0-.012.253.253,0,0,1,.063-.223.44.44,0,0,1,.345-.11.278.278,0,0,1,.267.114.393.393,0,0,1,.07.161.242.242,0,0,1-.02.1s-.111.189-.151.281a1.269,1.269,0,0,0-.147.655h0c.045.256.446.377.446.377a2.267,2.267,0,0,0,.776.008l.939-.151.164-.188v0l-.161.185c.024.342.051,1.013.046,1.238-.005.275-.046.855-.335.991,0,0-.1.051-.261-.072a.7.7,0,0,0-.413-.131.572.572,0,0,0-.51.395,2.778,2.778,0,0,0-.087,1.083c.026.274.264.741.563.741a.447.447,0,0,0,.318-.166c.171-.177.272-.192.348-.19s.226.082.323.859a14.14,14.14,0,0,1,.125,2.008l.177.115h0l-.179-.117c-.1.012-.215.023-.336.033a3.816,3.816,0,0,1-1.295-.18,1.477,1.477,0,0,1-.932-.622c0-.007-.007-.015-.008-.023a.4.4,0,0,1-.013-.092c0-.009,0-.016,0-.025A.921.921,0,0,1,2.223,20a1.911,1.911,0,0,0,.038-.723c-.007-.036-.015-.072-.024-.106l-.005-.032a.216.216,0,0,1-.007-.025c0-.007-.007-.013-.009-.019a.954.954,0,0,0-.446-.591.8.8,0,0,0-.495-.157s-.283-.043-.272.436a2.939,2.939,0,0,0,.071.679s.054.169-.033.191-.223-.109-.223-.109-.061-.056-.146-.138l-.032-.034c-.057-.057-.12-.122-.18-.189l.028-.069A.151.151,0,0,0,.473,18.973ZM1.021,21.8s0,0,0,0a1.652,1.652,0,0,1,.261.525c.1.3.167.547.167.547A1.044,1.044,0,0,1,1.5,23.1Q1.23,22.463,1.021,21.8ZM2.5,25.066l-.025-.09a.152.152,0,0,0-.056-.081l-.037-.028A15.165,15.165,0,0,1,1.628,23.4s0-.009,0-.012a.129.129,0,0,0,.005-.034c0-.009,0-.022,0-.034s0-.038-.007-.063c0-.007,0-.011,0-.02h0a4.688,4.688,0,0,0-.235-.776,7.493,7.493,0,0,0-.322-.778v0l-.017-.032v0a.459.459,0,0,0-.083-.123c-.008-.01-.027-.028-.04-.021a15.053,15.053,0,0,1-.449-2.038c.024.028.05.058.08.091h0c.053.059.115.126.188.2h0c.327.338.43.125.43.125a.346.346,0,0,0,.011-.044l0-.009c0-.012,0-.026.007-.042s0-.013,0-.019,0-.033.005-.054c0,0,0-.006,0-.008v0c0-.04,0-.088,0-.142a.022.022,0,0,0,0,0s0,0,0-.005c0-.028-.006-.057-.009-.088s0-.032-.006-.049c-.005-.032-.012-.068-.02-.1,0-.014,0-.025-.008-.039v0a1.006,1.006,0,0,1-.033-.514.15.15,0,0,1,.044-.062l.019-.012a.143.143,0,0,1,.051-.014.176.176,0,0,1,.019,0,.96.96,0,0,1,.838.528.887.887,0,0,1,.006.446,1.565,1.565,0,0,0-.006.691,1.138,1.138,0,0,0,.441.594,2.993,2.993,0,0,0,1.426.5,4.168,4.168,0,0,0,.783.007l.223-.229v0l-.223.227c-.013.059-.027.125-.043.188a1.931,1.931,0,0,0-.007.774,2.435,2.435,0,0,0,.528,1.318,1.17,1.17,0,0,0,.878.238.715.715,0,0,0,.429-.215.237.237,0,0,1,.206-.071,1.2,1.2,0,0,1,.62.628c.215.429.262.9-.1.985a1.905,1.905,0,0,1-.973-.255.625.625,0,0,0-.635.02c-.287.215-.294.544-.151.949a6,6,0,0,0,.455.96l.213.089h0l-.213-.089a6.745,6.745,0,0,1-1.227-.327c-.1-.049-.176-.074-.232-.105a.2.2,0,0,1-.065-.054.241.241,0,0,1-.025-.173.984.984,0,0,0-.227-.553,6.179,6.179,0,0,0-.68-.628c-.322-.242-.459-.17-.459-.17s-.145.078-.015.39a1.194,1.194,0,0,0,.259.422s.063.067.027.085-.146-.066-.238-.144c-.042-.035-.213-.193-.385-.354C2.627,25.254,2.562,25.163,2.5,25.066Zm7.769,6.4c.4.053.908.111,1.081.127l0,0a.288.288,0,0,1-.029.093c-.03.069.034.12.093.151C11.032,31.725,10.65,31.6,10.272,31.462Zm1.266.044,0,0,.046,0a.873.873,0,0,0-.136-.095l-.014-.009.012.008c-.016-.009-.031-.02-.049-.029-.21-.112-1.124-.715-1.406-.906a3.981,3.981,0,0,0-.7-.4l-.047-.017A.426.426,0,0,0,9,30.031c-.167.052-.143.119-.242.167a.33.33,0,0,1-.289-.034l-.008,0c-.046-.02-.1-.046-.156-.078l-.053-.028-.085-.046a2.855,2.855,0,0,1-.549-.4l-.066-.059c-.049-.044-.1-.091-.156-.144-.375-.357.48-.035.48-.035s.186.079.1-.116a.76.76,0,0,0-.043-.08c-.009-.017-.022-.035-.034-.053l-.031-.047c-.016-.024-.035-.049-.054-.074l-.031-.043-.066-.086-.037-.047-.072-.088-.052-.061L7.487,28.6,7.4,28.5l-.043-.048-.1-.113.005.006c-.063-.069-.126-.136-.189-.2-.121-.124-.218-.233-.31-.339l.008.008a6.4,6.4,0,0,1-.43-.563l-.167-.195,0,.006-.007-.007-.057.163a4.107,4.107,0,0,0,.505.634s.743.821,1.156,1.343c0,0,.024.047-.047,0a1.282,1.282,0,0,0-.548-.17c-.167.016-.136.119-.136.119s.072.378,1.208,1.014a1.857,1.857,0,0,0,.667.23s.083.012.186-.1.136-.1.207-.079a2.279,2.279,0,0,1,.525.333c.358.258,1.053.656,1.3.822a1.2,1.2,0,0,1,.166.126c-.511-.041-1.071-.108-1.366-.15-.132-.052-.262-.106-.392-.161l-.208-.126a6.185,6.185,0,0,0-.624-.273L8.6,30.739a14.912,14.912,0,0,1-1.619-.955.316.316,0,0,0,.256,0c-.017-.171-.212-.309-.323-.393-.041-.031-.069-.085-.107-.119a5.565,5.565,0,0,0-.465-.358,3.644,3.644,0,0,1-.418-.249c0-.026.037-.089.012-.155a1.909,1.909,0,0,0-.715-.727c-.109-.068-.293-.1-.393-.167-.074-.005-.113-.007-.131.046s.063.157.095.2a1.543,1.543,0,0,0,.287.333,2.243,2.243,0,0,1,.249.191h.036c-.046-.128-.183-.2-.285-.274s-.136-.19-.215-.274a.127.127,0,0,1,.024-.06c.33,0,.543.305.691.5.066.087.172.138.179.286a.161.161,0,0,1-.083-.012H5.64c.057.157.248.144.382.227a5.553,5.553,0,0,1,.715.631c.079.071.216.141.238.263a.742.742,0,0,1-.38-.167l-.041-.028c-.153-.111-.3-.229-.45-.346a1.1,1.1,0,0,1-.117-.126c-.024-.031-.032-.079-.06-.107s-.079-.044-.107-.083H5.772a.162.162,0,0,0,.011.06,15.286,15.286,0,0,1-2.8-3.083l.047.039c.351.275.439.261.462.236a.028.028,0,0,0,.009-.018.351.351,0,0,0-.09-.254,1.5,1.5,0,0,1-.1-.138c-.014-.022-.028-.044-.042-.067a.96.96,0,0,1-.094-.2s0-.007,0-.011a.289.289,0,0,1-.008-.047.115.115,0,0,1,.005-.04s0-.006,0-.008c.044-.1.093-.092.093-.092s.04-.016.179.089a3.9,3.9,0,0,1,.606.513.559.559,0,0,1,.144.354.269.269,0,0,0,0,.029.469.469,0,0,0,.138.324c.167.182.522.516,1.764.707l.019,0,.058-.164v0h0l0,0h0l.168.2h.005a15.579,15.579,0,0,0,1.67.17s1.418.049,1.8.049c.326,0,.322.144.314.187a.089.089,0,0,1,0,.01.81.81,0,0,1-.068.195.969.969,0,0,0-.092.347.393.393,0,0,0,.048.239s.176.429,1.32.46a4.41,4.41,0,0,0,1.7-.207c.219-.09.307-.192.325-.288.042-.211-.257-.4-.257-.4s-.239-.145-.34-.223a.129.129,0,0,1-.06-.1.26.26,0,0,1,.023-.087.366.366,0,0,1,.17-.149,7.981,7.981,0,0,1,1.616-.518A10.86,10.86,0,0,1,16.5,26.58l.012,0a1.909,1.909,0,0,0,.393.647,2.3,2.3,0,0,0,.868.516c.365.139.2.386.2.386-.208.451-.829.469-1.011.491a9.121,9.121,0,0,0-.921.135,1.573,1.573,0,0,0-.89.356c-.2.23-.121.469,0,.721A.843.843,0,0,0,16,30.2a2.469,2.469,0,0,0,.967-.256,8.558,8.558,0,0,1,.846-.282c.134-.039.317-.117.451.078a3.117,3.117,0,0,1,.37.738l.165-.036v0l-.077.017c-.049.01-.076.018-.076.018a8.479,8.479,0,0,0-.973.322,12.105,12.105,0,0,1-1.8.43s-.388.046-.637.107c.029-.009.053-.015.053-.015s.288-.059.578-.1a2.98,2.98,0,0,0-.837.188.088.088,0,0,0-.008.1.142.142,0,0,0,.068.06,1.221,1.221,0,0,0,.5.085.646.646,0,0,1,.142.011h0a.012.012,0,0,1,0,.008v0a.043.043,0,0,1-.021.016.536.536,0,0,1-.051.019,3.838,3.838,0,0,1-.836.168,1.155,1.155,0,0,1-.549,0h0c-.024-.012-.022-.024-.022-.024a.071.071,0,0,1,0-.016.175.175,0,0,1,.021-.048.063.063,0,0,0,.01-.035c0-.04-.029-.089-.1-.127a.289.289,0,0,0-.081-.032l.01.006a1.651,1.651,0,0,0-.48-.051c-.424,0-1.268.005-2.058-.042A.177.177,0,0,0,11.538,31.506Zm1.867.733q-.394-.053-.782-.126a1.443,1.443,0,0,1,.4.013,2.657,2.657,0,0,1,.4.1C13.432,32.236,13.42,32.238,13.4,32.24Zm3.091.109c.206-.027.454-.043.592-.058a.891.891,0,0,1,.124-.007C16.974,32.312,16.735,32.332,16.5,32.349Zm1.082-.109a.381.381,0,0,0-.154-.025c-.086,0-.174,0-.263,0a3.359,3.359,0,0,0-.439.028c-.1.014-.208.032-.3.048l-.087.012a1.33,1.33,0,0,0-.321.071c-.169.006-.338.012-.508.012a15.56,15.56,0,0,1-1.8-.109c.018-.019-.024-.043-.053-.056l-.026-.012s-.026-.012-.08-.031h0l-.017-.006.009,0-.116-.033h0c-.035-.009-.073-.019-.117-.028h0c-.091-.02-.2-.04-.329-.056l.013,0c-.069-.008-.142-.017-.221-.022a3.134,3.134,0,0,0-.453,0h-.031q-.234-.05-.467-.106c-.086-.035-.213-.1-.162-.167a.142.142,0,0,0,.02-.151c.333.02.769.044.769.044s.9.033,1.387-.006c.221-.019.152.1.152.1a.106.106,0,0,0,.062.159,1.921,1.921,0,0,0,1.006.047c.775-.086.945-.26.945-.26s.09-.083-.106-.12l-.031-.006-.012,0H15.81l-.006,0H15.8l-.005,0h-.01s0,0,0,0h-.065l-.038,0h-.14l-.017,0c-.043-.006-.082-.01-.114-.017l-.048-.006c-.073-.02-.086-.046,0-.069a2.756,2.756,0,0,1,.353-.053s.677-.094,1.225-.235c0,0,.584-.138,1.163-.342.228-.08.42-.138.569-.18l.132-.193h0l-.129.191a.4.4,0,0,1-.077.336c-.047.078-.177.178-.112.357s.508.121.764.044.472-.148.642-.209.216.026.216.026.074.053-.173.183a1.216,1.216,0,0,1-.19.076l-.027.008c-.055.017-.112.031-.171.045l-.046.01-.144.028-.059.01-.112.017-.062.008-.11.014c-.026,0-.048.006-.068.007l-.033,0-.02,0-.036,0-.025,0-.012,0-.033.006h-.006a2.279,2.279,0,0,0-.245.076c-.326.113-.021.213-.021.213a2.927,2.927,0,0,0,.456.08A14.007,14.007,0,0,1,17.578,32.24Zm6.215-2.354-.02.02A15.214,15.214,0,0,1,19.292,31.9c-.144-.011-.245-.031-.3-.038-.13-.018-.234-.043-.265-.109a.028.028,0,0,1,0-.02c.014-.043.147-.039.147-.039h0l.072-.009a5.82,5.82,0,0,0,.734-.149q.085-.023.169-.05c.469-.152.582-.3.563-.4a.065.065,0,0,0-.023-.04.062.062,0,0,0-.014-.01.155.155,0,0,0-.036-.016l-.02-.006A.388.388,0,0,0,20.256,31h-.012a.718.718,0,0,0-.09.007h-.007a1.552,1.552,0,0,0-.272.063c-.282.092-.7.226-.8.247a.543.543,0,0,1-.073.011h.006a.32.32,0,0,1-.1-.007l-.012,0a.106.106,0,0,1-.064-.043h0A.21.21,0,0,1,18.874,31,.418.418,0,0,0,19,30.79a.653.653,0,0,0,.011-.154c0-.013,0-.026,0-.039s0-.031,0-.048l.03-.006s.695-.162.986-.212A6.428,6.428,0,0,0,21.249,30c.28-.136.42-.243.453-.324s-.119-.129-.119-.129-.177-.042-.153-.1.088-.115.365-.239a5.991,5.991,0,0,1,.972-.345c.347-.085.22.059.22.059a1.558,1.558,0,0,0-.236.3c-.026.082.009.085.036.1a.827.827,0,0,0,.308-.02,11.061,11.061,0,0,0,1.608-.707l.042-.024.118-.2h0c-.007.01-.009.018-.015.028a4.175,4.175,0,0,0-.24.43.983.983,0,0,0-.094.26c-.007.095-.076.082-.076.082a.879.879,0,0,0-.352.081l-.018.006-.023.012a1.373,1.373,0,0,0-.217.132l-.042.028c-.008.007-.018.013-.025.019a4.439,4.439,0,0,0-.462.433l-.011.015c-.046.051-.07.081-.07.081s-.128.17,0,.17a1.212,1.212,0,0,0,.524-.247C23.849,29.8,23.793,29.885,23.793,29.885Zm2.663-2.252c-.194.215-.292.3-.292.3s-.033.034-.07.077l0,0a.006.006,0,0,1,0,0h0a.509.509,0,0,0-.061.089,15.424,15.424,0,0,1-2.05,1.659c.015-.024.022-.044.012-.052h0s0,0,0,0c-.039-.031-.188.077-.188.077s-.022.019-.056.043h0a1.223,1.223,0,0,1-.16.1c-.017.008-.033.016-.049.022l-.03.01a.178.178,0,0,1-.06.01c-.119-.01.144-.261.144-.261a1.549,1.549,0,0,1,.339-.278.628.628,0,0,1,.193-.075.753.753,0,0,0,.435-.209.436.436,0,0,0,.105-.115c.064-.1.132-.247.306-.564l.03-.053h0c.333-.186.451-.243.53-.29.356-.212.78-.471.892-.558C26.421,27.575,26.65,27.419,26.456,27.633Zm2.151-2.773c.091-.2.166-.411.258-.616a1.528,1.528,0,0,0,.215-.7.212.212,0,0,1-.035-.048h-.072a2.863,2.863,0,0,1-.25.143c-.121.085-.229.2-.345.286a.682.682,0,0,0-.167.131c-.06.09-.048.243-.12.321v.047c.095-.034.139-.146.215-.2.092-.07.169-.162.262-.227.058-.041.125-.062.179-.107a.132.132,0,0,1,.06.025,1.841,1.841,0,0,1-.262.739c-.028.065-.036.166-.083.214-.022.022-.069.028-.094.047l-.239.263c-.076.1-.11.242-.191.345a.163.163,0,0,0,.011.083.261.261,0,0,0,.048.024,4.466,4.466,0,0,0,.371-.369A15.452,15.452,0,0,1,26.6,27.53l.039-.05c.007-.008.01-.014.015-.021.092-.127.028-.121.028-.121a.192.192,0,0,0-.078.02l-.028.012-.014.006h0a1.707,1.707,0,0,0-.179.1c-.241.153-.412.259-.412.259s-.518.3-.847.489l-.009.006,0,0,.009-.005-.009.005a7.5,7.5,0,0,1,.729-.93,8.146,8.146,0,0,0,.572-.76,1.718,1.718,0,0,0,.2-.485A.11.11,0,0,0,26.612,26c0-.006-.014-.005-.02-.008a.042.042,0,0,0-.022-.01c-.072-.011-.227.067-.466.245a4.181,4.181,0,0,1-.536.348l-.019.007.019-.009a.809.809,0,0,1-.24.074.231.231,0,0,1-.281-.219.743.743,0,0,1,0-.2.841.841,0,0,1,.32-.594,2.147,2.147,0,0,1,.763-.155.885.885,0,0,0,.324-.093,2.149,2.149,0,0,0,.6-.618,3.614,3.614,0,0,0,.478-1.638c0-.007,0-.013,0-.02,0-.061,0-.119,0-.173,0-.02,0-.04-.006-.059,0-.041-.009-.08-.016-.116,0-.016-.006-.033-.009-.048a1.227,1.227,0,0,0-.035-.131h0A13.076,13.076,0,0,0,28.635,21.5a4.332,4.332,0,0,0,.569-.71c.014-.025.026-.042.036-.057l.009-.012a.1.1,0,0,1,.02-.02l0,0c.005,0,.009,0,.011.006v.005a.078.078,0,0,1,0,.024s0,0,0,.006v0a1.593,1.593,0,0,0-.1.65V21.4l0,0s0,.008,0,.013a.719.719,0,0,0,.018.127c0,.013.007.024.01.036a.289.289,0,0,0,.057.111,0,0,0,0,0,0,0c.006.006.012.006.018.009.134.092.453-.248.453-.248a1.512,1.512,0,0,0,.291-.621,2.082,2.082,0,0,0,.07-.612.187.187,0,0,0-.014-.066.323.323,0,0,1-.028-.257c0-.011.011-.032.018-.049a5.326,5.326,0,0,1,.557-1.129A14.99,14.99,0,0,1,28.607,24.86Zm-.278.242a.4.4,0,0,1-.191.275v.012h-.012c.021-.143.13-.183.179-.287Zm.906-4.126-.023.084s0,.007,0,.015l0-.016S29.222,21.024,29.235,20.976Zm1.448-2.837-.073.123a.151.151,0,0,0-.01.134l.033.081,0,.007,0,0-.014.022c-.055.087-.123.2-.206.334a3.137,3.137,0,0,0-.442,1.135,1.173,1.173,0,0,0-.016.311.461.461,0,0,0,.014.059.027.027,0,0,1,0,.005c.006.018.011.033.017.046v0h0l.018.044,0,.006a.092.092,0,0,1,.006.023.867.867,0,0,1-.02.16c0,.016-.007.032-.011.049s-.007.029-.011.044c-.009.033-.02.068-.033.1,0,.012-.009.024-.014.036a1.139,1.139,0,0,1-.055.124.164.164,0,0,0-.008.017.8.8,0,0,1-.246.31s-.227.164-.259.047a.68.68,0,0,1-.011-.291,4.264,4.264,0,0,0,.076-.624c-.01-.149-.144-.03-.144-.03s-.031.036-.09.11-.387.493-.513.64a8.667,8.667,0,0,1-1.292,1.184.017.017,0,0,0-.006,0l-.006-.008a1.194,1.194,0,0,0-.08-.115c-.032-.042-.06-.075-.079-.1-.085-.11-.241-.061-.431-.521a2.813,2.813,0,0,1-.23-1.118c0-.038,0-.074,0-.108a.612.612,0,0,1,.205-.486c.124-.115.67-.064.67-.064s.268.055.508-.342a1.936,1.936,0,0,0,.188-1.066,1.866,1.866,0,0,0-.045-.305c-.076-.324-.188-.607-.632-.653s-.643.5-.643.5a1.837,1.837,0,0,1-.184.329c-.094.119-.349.086-.349.086a.351.351,0,0,1-.381-.244c-.132-.273-.434-.99-.434-.99a4.142,4.142,0,0,1-.207-.619l-.218-.089h0l.218.088a8.081,8.081,0,0,0,1.208-.793c.564-.474,1.114-.971,1.254-1.1a.641.641,0,0,1,.393-.221c.125.007.221.1.3.432s.093.614.128.778.086.354.281.393a.812.812,0,0,0,.554-.215.523.523,0,0,0,.087-.1l.005-.008c.014-.02.027-.04.04-.063a1.056,1.056,0,0,0,.136-.551,2.02,2.02,0,0,0-.229-.942s-.105-.185-.144-.236-.046-.072,0-.158c.011-.021.025-.047.043-.076a.785.785,0,0,1,.275-.27,1.424,1.424,0,0,1,.339-.12.838.838,0,0,0,.189-.078v0h0l0,.008c.159.494.341,1.316.341,1.316a2.953,2.953,0,0,1,.062.353c.007.112-.019.115-.069.056a.071.071,0,0,0-.1-.022s-.053.022-.053.233.025.707.065,1.089a1.388,1.388,0,0,0,.186.642s.125.186.159-.174c0-.014,0-.02,0-.032.006.165.016.331.016.5C30.712,17.493,30.7,17.816,30.682,18.139Z" transform="translate(0 -4.51)" opacity="0.88"/>
        <path id="Path_34187" data-name="Path 34187" d="M22.914,80.086l.048.053,0-.006Z" transform="translate(-15.705 -56.308)" opacity="0.88"/>
        <path id="Path_34188" data-name="Path 34188" d="M15.359,35.144h0Z" transform="translate(-10.527 -25.506)" opacity="0.88"/>
        <path id="Path_34189" data-name="Path 34189" d="M52.816,74.016h0Z" transform="translate(-36.199 -52.148)" opacity="0.88"/>
        <path id="Path_34190" data-name="Path 34190" d="M70.651,72.053c-.347-.086-.64.086-1,.059a.355.355,0,0,1-.083-.107c-.252.007-.53.568-.274.739a1.231,1.231,0,0,0,.691,0,.44.44,0,0,1,.309.012c.1.074.082.356.047.513-.04.294-.08.588-.119.883-.035.178-.071.357-.108.536a.517.517,0,0,0,.406-.322,1.969,1.969,0,0,0,.036-.238c.063-.25.071-.548.131-.81.038-.169.012-.331.047-.488a2.285,2.285,0,0,0,.013-.62A.586.586,0,0,0,70.651,72.053Z" transform="translate(-47.421 -50.769)" opacity="0.88"/>
        <path id="Path_34191" data-name="Path 34191" d="M16.684,8.476V8.452h-.048c-.056.041-.2.066-.273.107.009.041.006.031.036.048-.042.116-.18.2-.251.3-.111.151-.236.291-.346.441a1.045,1.045,0,0,1-.107.166c-.071.062-.275.056-.357.119h-.024a1.911,1.911,0,0,1,.346-.488V9.131a.647.647,0,0,0-.3.142c.014.027.011.022.036.036-.044.072-.109.125-.155.19-.059.083-.092.181-.155.262,0,.012.008.023.012.036a1.989,1.989,0,0,0,.441-.143h.035a3.044,3.044,0,0,1-.321.477.873.873,0,0,1-.143.227c.011.013,0,0,.012.012a.724.724,0,0,0,.286-.071c.025,0,.023,0,.036.012a1.383,1.383,0,0,1-.179.334v.012a.46.46,0,0,0,.191-.048c.115-.09.142-.282.226-.406,0-.02-.008-.04-.012-.059a.447.447,0,0,0-.262.048H15.4a2.2,2.2,0,0,1,.345-.525c.137-.195.265-.382.4-.572.073-.1.176-.187.25-.286A1.42,1.42,0,0,1,16.684,8.476Z" transform="translate(-10.342 -7.212)" opacity="0.88"/>
        <path id="Path_34192" data-name="Path 34192" d="M30.384,71.929c-.018.041-.016.107-.035.155-.1.253-.137.306.024.548a.159.159,0,0,0,.119-.036C30.539,72.4,30.547,72.022,30.384,71.929Z" transform="translate(-20.741 -50.717)" opacity="0.88"/>
        <path id="Path_34193" data-name="Path 34193" d="M29.672,66.523c-.05-.081-.148-.1-.215-.167-.021-.007-.012,0-.024-.012.154-.08.317-.167.477-.238.043.047.241.239.31.2l.035-.011c0-.068-.007-.136-.012-.2a1.217,1.217,0,0,0-.62-.321v.012h-.012a.447.447,0,0,0,.191.2v.036a2.165,2.165,0,0,0-.393.132,1.119,1.119,0,0,0-.263.071h-.035c.052-.144.222-.262.31-.382a1.859,1.859,0,0,1,.584-.655c-.007-.11-.324-.337-.441-.262-.029.015-.009-.006-.023.023s.041.1.023.167a2.639,2.639,0,0,1-.31.572V65.7c-.123-.042-.216-.158-.333-.215a.788.788,0,0,1,.166-.274,1.668,1.668,0,0,1,.453-.537c0-.159-.258-.324-.429-.321,0,.073.038.114.024.178a3.306,3.306,0,0,1-.2.56,1.092,1.092,0,0,1-.143.321.388.388,0,0,1-.179-.023.409.409,0,0,0-.119.011v.024a2.119,2.119,0,0,0,.691.382c-.038.2-.237.329-.334.477a.2.2,0,0,1-.119-.024.3.3,0,0,0-.048.012.4.4,0,0,0,.3.358.954.954,0,0,1,.37-.226,1.16,1.16,0,0,1,.227.571c.022.1-.014.21.012.3.046.155.128.2.2.309h.084a1.644,1.644,0,0,0-.143-.774Z" transform="translate(-19.528 -45.525)" opacity="0.88"/>
        <path id="Path_34194" data-name="Path 34194" d="M37.764,84.913a2.354,2.354,0,0,1,.25.167,1.507,1.507,0,0,0,.954.143c.169-.038.345-.038.393-.191.053-.084-.02-.2-.047-.249a1.308,1.308,0,0,0-.441-.453,4.378,4.378,0,0,0-2.538-.81c-.05.032-.151.007-.214.023a.67.67,0,0,0-.2.107c0,.293.435.451.679.512a.606.606,0,0,0,.358-.059c.064-.247-.234-.283-.37-.406h-.025v-.012a3.216,3.216,0,0,1,2.121.608,1.051,1.051,0,0,1,.346.393.244.244,0,0,1,0,.2c-.048.132-.206.121-.358.155a1.3,1.3,0,0,1-.989-.274c-.033.057.015.144-.036.2-.053.144-.237.106-.405.143a1.428,1.428,0,0,1-.87-.19c-.045-.032-.077-.086-.119-.12a.19.19,0,0,0-.012-.06.524.524,0,0,0,.071-.083.791.791,0,0,1,.716.179c-.005.023,0,.021-.013.034-.022.046-.074.051-.143.048v.021a.407.407,0,0,0,.25-.059c0-.024.008-.048.012-.071a.85.85,0,0,0-.12-.132.871.871,0,0,0-.821-.047.316.316,0,0,0,.167.333,1.716,1.716,0,0,0,.632.31c.087.025.166,0,.262.023a.813.813,0,0,0,.322,0c.152-.039.363-.2.19-.382v-.01Zm-1.1-1.131c.042.029.066.088.107.12a.1.1,0,0,1-.012.06c-.078.21-.514.055-.62-.024-.033-.024-.046-.075-.071-.107,0-.025,0-.023.012-.035.033-.092.126-.061.2-.107A.69.69,0,0,1,36.668,83.782Z" transform="translate(-24.617 -58.662)" opacity="0.88"/>
        <path id="Path_34195" data-name="Path 34195" d="M49.039,91.7c0-.011.007-.023.012-.035l-.882-.036c-.037.025-.094.01-.143.024a1.044,1.044,0,0,0-.179.072c.008.02,0,.012.012.023a.958.958,0,0,0,.572,0h.024v-.024c-.126-.04-.356.06-.452,0h-.012V91.71c.317-.021.671-.013,1-.012-.032.022-.1.016-.131.036l-.035.012v.024l.214.035c.011.012,0,0,.012.011a.632.632,0,0,1-.476-.011v-.024a1.165,1.165,0,0,0-.346.035c-.04.009-.081,0-.108.012a.141.141,0,0,0-.083.024.118.118,0,0,0,.024.059c.076.019.21.02.3.047v-.011h.012v-.012c-.045-.017-.169-.007-.215-.034h-.024a1.033,1.033,0,0,1,.5-.036c.02.007.012,0,.024.012l-.191.035c.008.02,0,.011.012.023a.176.176,0,0,0,.1.012.114.114,0,0,1-.036.048.232.232,0,0,1,.012.024A2.169,2.169,0,0,0,49,91.97c.085-.019.188.016.25-.024h.1v-.024a2.167,2.167,0,0,0-.667.048h-.036c.01-.013,0,0,.011-.013.047-.054.142-.027.226-.047.133-.031.351-.085.465,0,.031.02.012,0,.012.035a.154.154,0,0,0,.071-.01h.083v-.025a1.456,1.456,0,0,1-.358-.131C49.107,91.749,49.13,91.705,49.039,91.7Z" transform="translate(-32.794 -64.218)" opacity="0.88"/>
        <path id="Path_34196" data-name="Path 34196" d="M90.82,62.35c-.043.039-.106.049-.155.084a2.059,2.059,0,0,0-.417.44c-.086.121-.161.254-.238.382a.875.875,0,0,1-.084.166v.024a.634.634,0,0,0,.238-.131c.2-.123.376-.235.559-.369.089-.065.155-.166.25-.227a.6.6,0,0,0-.024-.358A.658.658,0,0,0,90.82,62.35Zm-.143.428c-.072.053-.141.127-.215.179a1.436,1.436,0,0,0-.19.12H90.26a1.194,1.194,0,0,1,.345-.4c.051-.038.115-.047.167-.085h.047a.089.089,0,0,0,.025.024C90.832,62.7,90.735,62.734,90.676,62.778Z" transform="translate(-61.633 -44.152)" opacity="0.88"/>
        <path id="Path_34197" data-name="Path 34197" d="M71.657,84.731h-.12c-.079.063-.208.071-.3.12a2.115,2.115,0,0,0-.25.154c-.062.045-.1.126-.156.178,0,.059,0,.069.048.084.012.008,0,.006.022.012.013-.014.025-.019.036-.036s-.008-.031-.012-.07a.994.994,0,0,1,.369-.25c.044-.018.135-.07.191-.036h.024a1.469,1.469,0,0,1-.358.536v.034c.219-.057.366-.495.513-.655a.1.1,0,0,0-.012-.047Z" transform="translate(-48.548 -59.491)" opacity="0.88"/>
        <path id="Path_34198" data-name="Path 34198" d="M91.894,43.812a.558.558,0,0,0,.132.215c.026.019.039.012.059.036.395.034.555-.646.394-1.037-.029-.068-.156-.266-.274-.19h-.024c.008-.02,0-.011.012-.024a.192.192,0,0,0-.023-.107l-.072-.011c-.012.009,0,0-.023.011.008.072.033.074.036.155A.934.934,0,0,0,91.894,43.812Zm.13-.631a.667.667,0,0,1,.119-.155c.025,0,.022,0,.035-.012a.254.254,0,0,1,.167.048.82.82,0,0,1-.047.751c-.023.025-.069.035-.095.059C91.954,43.853,91.934,43.4,92.025,43.181Z" transform="translate(-62.946 -30.68)" opacity="0.88"/>
        <path id="Path_34199" data-name="Path 34199" d="M92.363,42.831v-.19c-.03-.137-.018-.318-.047-.452a4.391,4.391,0,0,0-.107-.8.743.743,0,0,0-.2-.024c-.031.032-.054.047-.048.084.025.108.165.13.2.238,0,.052.007.1.012.155.041.169.033.387.071.56v.143a1.149,1.149,0,0,1,.023.382,1.024,1.024,0,0,1-.261.322,1.537,1.537,0,0,1-.895.559c-.007.02,0,.012-.012.024.007.149.144.119.239.179L91.41,44c.037-.022.058-.073.083-.108.06-.079.17-.121.227-.2h.012c0,.363.008.771.012,1.12h.035a5.51,5.51,0,0,0,.072-1.217c.157-.146.257-.358.417-.5v-.024h.012c0,.377.011.762.011,1.144a2.292,2.292,0,0,0,0,.465v.072h.024c.032-.128.04-.308.071-.452v-.2a1.92,1.92,0,0,0,0-.632C92.344,43.263,92.4,43.018,92.363,42.831Z" transform="translate(-62.438 -29.77)" opacity="0.88"/>
        <path id="Path_34200" data-name="Path 34200" d="M67.384,86.528c-.071.063-.243.069-.321.131H67.05c.031-.045.087-.064.12-.107a.717.717,0,0,1,.059-.1c-.006-.025,0-.022-.012-.035V86.4a1.785,1.785,0,0,0-1.108.394c-.047.041-.074.1-.12.144a.228.228,0,0,0,.011.071c.212.014.608-.115.655-.285.009-.007,0,0,0-.012v-.024a.647.647,0,0,0-.428.107h-.012a1.214,1.214,0,0,1,.524-.274c.052-.016.166-.045.216-.012.011,0,.022.008.035.012a.517.517,0,0,1-.31.286v.024a3.5,3.5,0,0,0,.512-.191,2.046,2.046,0,0,0,.334-.119,1.529,1.529,0,0,0,.321-.453C67.573,86.106,67.55,86.378,67.384,86.528Zm-.941.238V86.8c-.023.015-.039.047-.059.059-.062.036-.144.033-.2.072-.027,0-.033,0-.047-.012h-.012C66.153,86.819,66.35,86.772,66.442,86.766Z" transform="translate(-45.228 -60.406)" opacity="0.88"/>
        <path id="Path_34201" data-name="Path 34201" d="M66.993,52.8c-.134-.083-.152-.5-.2-.691-.1-.366-.146-.75-.25-1.12a2.049,2.049,0,0,1-.131-.775,1,1,0,0,1,.119-.131c.067-.046.175-.069.227-.131.008-.015-.006-.038-.012-.072a1.713,1.713,0,0,0-.381.154c-.239.1-.473.162-.715.262a.876.876,0,0,1-.251.095v.072l.024.012c.013.014.311-.118.406-.035.107.037.093.177.155.262a2.754,2.754,0,0,1-.275.632c-.175.4-.353.78-.547,1.155A3.044,3.044,0,0,1,64.9,53v.012c-.065-.089-.059-.317-.095-.44-.106-.372-.174-.78-.286-1.144-.02-.07-.092-.385-.047-.452.015-.164.248-.236.381-.286,0-.028-.007-.056-.012-.084a3.324,3.324,0,0,0-.62.215c-.179.067-.343.094-.524.155a1.418,1.418,0,0,1-.3.095v.012h-.012a.13.13,0,0,0,.023.071c.049.033.31-.106.418-.023.167.057.172.323.227.5.145.476.219,1,.358,1.49.034.122.118.507.036.608-.044.132-.266.185-.393.238,0,.024.007.048.011.071a2.919,2.919,0,0,0,.514-.168c.32-.107.623-.2.931-.31-.005-.028-.008-.056-.013-.083a1.3,1.3,0,0,1-.417.071l-.071-.06c-.02-.063-.041-.126-.06-.19a2.257,2.257,0,0,1,.274-.56c.2-.389.38-.783.559-1.191a2.549,2.549,0,0,0,.251-.559c.056.033.04.132.059.2.041.143.063.3.107.452.085.3.118.625.2.941a.767.767,0,0,1,.024.441c-.054.122-.253.2-.381.25a.184.184,0,0,0,.024.072s.272-.087.32-.107c.333-.141.674-.289,1.012-.417,0-.029-.007-.057-.012-.083C67.3,52.762,67.109,52.872,66.993,52.8Z" transform="translate(-43.442 -35.605)" opacity="0.88"/>
        <path id="Path_34202" data-name="Path 34202" d="M56.08,15.3c.057.028.057.1.084.155a2.315,2.315,0,0,1,.166.37v.1c.028.076.119.085.179.131a.216.216,0,0,0,.095-.036,1.9,1.9,0,0,0-.238-.6,1.021,1.021,0,0,1-.072-.19c-.007-.033.02-.051,0-.083s-.021-.026-.046-.048-.01-.005,0-.024c.02-.043.064-.086.082-.131.04-.094.038-.174.12-.226-.012-.124-.192-.138-.334-.131a.185.185,0,0,1-.072.023.072.072,0,0,0,.06.047,1.358,1.358,0,0,1-.371.882c-.062.084-.167.137-.226.227H55.5v.011A1.54,1.54,0,0,0,56.08,15.3Z" transform="translate(-38.036 -11.415)" opacity="0.88"/>
        <path id="Path_34203" data-name="Path 34203" d="M48.805,14.584l.18.059a.437.437,0,0,0,.13-.012c0-.2-.11-.275-.179-.405a.636.636,0,0,0-.107-.2c.021-.072.219-.093.3-.119.193-.064.413-.127.608-.191a1.216,1.216,0,0,0,.274-.071c.044,0,.066.008.084.035a1.711,1.711,0,0,1,.047.632,2.285,2.285,0,0,1-.583,1.192v.012c.116-.019.171-.132.249-.19a1.82,1.82,0,0,0,.644-1.037c.066-.26-.042-.516.06-.738H50.5a.877.877,0,0,0-.418-.167.637.637,0,0,1-.19.155c-.108.046-.253.033-.345.1a.17.17,0,0,1-.1-.238c0-.027,0-.034-.012-.048a.733.733,0,0,0-.382-.048c-.041.037-.076.045-.1.108h-.012c-.007.023.006.015.012.023s.049,0,.072.012c.136.014.132.17.2.25-.008.021,0,.012-.012.024a3.121,3.121,0,0,1-.465.155c-.056.014-.125-.02-.166-.025a.436.436,0,0,0-.251.083c.033.048.131.036.167.083C48.634,14.18,48.691,14.4,48.805,14.584Z" transform="translate(-33.132 -10.531)" opacity="0.88"/>
        <path id="Path_34204" data-name="Path 34204" d="M52.6,30.857c.239.072.41.342.547.524.06.08.154.145.215.226.256.34.544.647.8.99.1.133.232.249.321.393a.157.157,0,0,0,.1-.024c.064-.28.1-.562.179-.846a2.6,2.6,0,0,0,.094-.429c.1.035.178.182.239.262.187.247.449.452.62.715a.137.137,0,0,0,.084-.024c.054-.4.1-.81.157-1.214v-.119c.054-.241.041-.531.094-.774.072-.328-.031-.647.3-.727.006-.032.017-.044,0-.072s0-.012-.012-.024-.011-.007-.035-.012a1.777,1.777,0,0,1-.465.143c-.095.023-.192,0-.262.048l-.036.012c0,.024.007.048.012.072.136.045.261-.009.321.107a1.135,1.135,0,0,1,.012.453c-.076.35-.045.75-.12,1.1-.026.12.007.353-.047.441V32.1c-.072-.034-.12-.128-.167-.191-.107-.14-.264-.253-.37-.393a1.337,1.337,0,0,0-.215-.251,3.406,3.406,0,0,1,.132-.679,1.294,1.294,0,0,1,.119-.418.6.6,0,0,1,.226-.143.1.1,0,0,0-.012-.059c0-.012-.007-.024-.011-.036a3.87,3.87,0,0,0-.453.143,2.123,2.123,0,0,0-.382.083c0,.028,0,.034.012.048s.007.024.012.036c.419-.024.355.2.274.525-.025.1-.008.233-.06.31v.023h-.012a2.984,2.984,0,0,0-.321-.369l-.131-.119a1.318,1.318,0,0,0-.085-.132c.008-.131.115-.165.216-.2a.165.165,0,0,0-.035-.1,8.539,8.539,0,0,1-.93.238v.012h-.012a.1.1,0,0,0,.012.059v.024a1.361,1.361,0,0,1,.251.012.855.855,0,0,1,.321.3c.117.154.3.286.416.44a1.144,1.144,0,0,0,.215.251,3.174,3.174,0,0,1-.119.62c-.026.1-.01.221-.059.3-.008.021,0,.012-.012.024a4.709,4.709,0,0,0-.477-.572c-.277-.367-.584-.7-.87-1.06a.16.16,0,0,1,.024-.107.241.241,0,0,1,.19-.143c.005-.036.01-.041-.012-.072-.005-.011-.008-.023-.012-.036a5.814,5.814,0,0,0-.691.215c-.12.034-.28.017-.37.083l-.035.012a.183.183,0,0,0,.035.084A.916.916,0,0,1,52.6,30.857Z" transform="translate(-35.831 -21.776)" opacity="0.88"/>
        <path id="Path_34205" data-name="Path 34205" d="M85.244,25.282c-.027.414-.382.546-.762.381a1.8,1.8,0,0,1-.657-.6c-.057-.075-.145-.137-.2-.215a1.746,1.746,0,0,0-.155-.215v-.012h-.023a2.491,2.491,0,0,0,.155.358,2.366,2.366,0,0,0,.846,1.06c.183.129.488.333.751.143.46-.331.236-1.563.047-2.026a3.336,3.336,0,0,0-.143-.321c-.09-.173-.184-.426-.44-.429a.524.524,0,0,0-.167.178c-.234.531.246,1.129.465,1.419A.887.887,0,0,0,85.244,25.282Zm-.475-1.3h.059a1.359,1.359,0,0,1,.3.4,3.1,3.1,0,0,0,.094.322c-.007.021,0,.012-.011.024-.031.031-.162-.126-.191-.155C84.886,24.447,84.619,24.213,84.769,23.984Z" transform="translate(-57.191 -17.465)" opacity="0.88"/>
        <path id="Path_34206" data-name="Path 34206" d="M11.736,23.131a1.9,1.9,0,0,0,.572-1.025.3.3,0,0,1-.048-.071,1.126,1.126,0,0,0-.274-.024,1.922,1.922,0,0,1-.119.262c-.081.185-.153.369-.227.549a2.772,2.772,0,0,1-.19.512v.024C11.575,23.335,11.66,23.209,11.736,23.131Zm.048-.381c.071-.169.12-.337.2-.488a.183.183,0,0,1,.107.024c.029.015.008-.006.024.024.025.059-.053.154-.083.2-.054.09-.085.178-.143.262s-.138.137-.19.215h-.012A1.027,1.027,0,0,1,11.784,22.751Z" transform="translate(-7.848 -16.505)" opacity="0.88"/>
        <path id="Path_34207" data-name="Path 34207" d="M7.393,24.744h.166l.084-.107a2.579,2.579,0,0,0,.309-.334h.036v.166a.962.962,0,0,0-.274.334v.1c-.061.265.067.4.3.381.151-.14.4-.255.37-.535-.013-.01,0,0-.012-.011-.024.005-.023,0-.035.012-.087.045-.233.429-.406.322a.18.18,0,0,1-.143-.048.767.767,0,0,1,.275-.369A3.381,3.381,0,0,0,8.1,24.1L8.06,24.09c-.042-.014-.075.051-.108.084a1.853,1.853,0,0,0-.262.286,1.841,1.841,0,0,0-.489.036H7.166c.03-.077.259-.331.191-.441,0-.012-.007-.024-.012-.036-.217,0-.479.387-.548.548a1.181,1.181,0,0,1-.083.238v.012l.488-.06C7.263,24.743,7.349,24.772,7.393,24.744Zm-.405-.226H6.916a.378.378,0,0,1,.322-.286v.059l-.166.215A.156.156,0,0,0,6.987,24.519Z" transform="translate(-4.601 -17.88)" opacity="0.88"/>
        <path id="Path_34208" data-name="Path 34208" d="M24.831,45.12v.012c.019.026.019.08.036.107-.007.02,0,.012-.012.024-.049.033-.122.019-.19.035-.142.036-.6.147-.7.048a.222.222,0,0,1-.12-.19.1.1,0,0,0-.059.012h-.025q.066.346.131.691H23.9v.012l1.252-.215L24.974,45c-.033-.05-.141-.044-.2-.07a.8.8,0,0,1-.3-.226,1.806,1.806,0,0,1-.262-1.359,1.011,1.011,0,0,1,.763-.74.848.848,0,0,1,.548.084,1.2,1.2,0,0,1,.631.894,1.057,1.057,0,0,1-.417,1.263c.023.23.048.461.071.691a1.744,1.744,0,0,0,.37-.059c.189-.046.383-.053.56-.1.13-.031.317-.005.417-.072a2.241,2.241,0,0,0-.1-.489c-.017-.069,0-.139-.036-.19v-.024l-.083.012c.005.36-.251.311-.536.382a2.156,2.156,0,0,1-.477.083v-.155a2.976,2.976,0,0,1,.261-.143,1.429,1.429,0,0,0,.37-.392,1.413,1.413,0,0,0,.143-.347,1.13,1.13,0,0,0,.013-.5,2.506,2.506,0,0,0-.048-.274,1.307,1.307,0,0,0-.739-.763,2.979,2.979,0,0,0-.512-.107,1.487,1.487,0,0,0-.572.072,1.506,1.506,0,0,0-1.144,1,1.353,1.353,0,0,0,.012.727A1.211,1.211,0,0,0,24.831,45.12Z" transform="translate(-16.212 -30.474)" opacity="0.88"/>
        <path id="Path_34209" data-name="Path 34209" d="M32.807,71.438c-.024.1.229.334.31.394.04.03.094.1.155.071a.2.2,0,0,0,.06-.012c.014-.032.035-.072.012-.107C33.336,71.634,32.948,71.467,32.807,71.438Z" transform="translate(-22.484 -50.381)" opacity="0.88"/>
        <path id="Path_34210" data-name="Path 34210" d="M35.787,67.4c.012-.005.025-.008.036-.013-.006-.156-.3-.222-.465-.177-.072.02-.154.064-.226.083l-.167.012c-.019-.194-.114-.345-.119-.547a1.29,1.29,0,0,0,.524-.1.131.131,0,0,0-.035-.095.735.735,0,0,0-.477.035.1.1,0,0,1-.059-.012c-.067-.085-.035-.256-.1-.345V66.2c.128-.028.338-.051.4-.143.009-.012,0,0,.012-.023A.131.131,0,0,1,35.1,66a.58.58,0,0,0-.429.047c-.05-.161.01-.289-.154-.334.035-.061.152-.059.226-.083a2.3,2.3,0,0,0,.346-.143c.008-.02,0-.012.012-.024-.007-.06-.023-.059-.048-.1a.5.5,0,0,0-.405.1H34.62a.81.81,0,0,1,.119-.286c.033-.049.1-.042.12-.107h.012v-.013c-.024-.031-.048-.064-.072-.094-.056-.039-.137-.044-.19-.085a.474.474,0,0,0-.2.024.678.678,0,0,0,.036.107,1.2,1.2,0,0,1-.132.56,1.226,1.226,0,0,1-.584.167.5.5,0,0,1-.131-.072c-.009-.012,0,0-.012-.023.169-.159.291-.513.524-.584,0-.02.008-.04.012-.059-.059-.06-.342-.358-.489-.263l-.035.012c0,.1.051.178.023.286a2.543,2.543,0,0,1-.286.644c-.066.105-.209.219-.215.37.194-.02.242-.22.393-.275l.131.12a1.266,1.266,0,0,1,.083.357q.084.387.167.774c.008.128.016.255.024.382.032.115.126.315.25.343a.049.049,0,0,0,.059-.012c.042-.034.019-.094.048-.143.067-.048.185-.036.274-.06.243-.064.528-.06.8-.12C35.474,67.385,35.686,67.461,35.787,67.4Zm-1.931-1.548a.83.83,0,0,1,.37-.06c.126.059.081.245.155.358-.025.059-.316.147-.405.154C33.959,66.18,33.938,65.922,33.856,65.853Zm.155.584a1.326,1.326,0,0,0,.393-.132h.012a1.259,1.259,0,0,0,.1.382c-.043.1-.306.1-.405.155A1.055,1.055,0,0,1,34.011,66.437Zm.214,1a3.455,3.455,0,0,1-.107-.5,2.949,2.949,0,0,0,.428-.1,1.735,1.735,0,0,0,.132.5c0,.007,0,.017,0,.024A2.052,2.052,0,0,1,34.226,67.438Z" transform="translate(-22.699 -45.773)" opacity="0.88"/>
        <path id="Path_34211" data-name="Path 34211" d="M4.445,39.845a.153.153,0,0,1,.059.024c.235-.016.284-.2.4-.334.1.247.026.679-.2.739-.1.067-.242-.02-.3-.071A1.426,1.426,0,0,1,4.1,39.44c-.025-.1.01-.314-.035-.394,0-.121.028-.341-.036-.4v-.012H4.005c0,.743-.043,1.888.536,2.05a.343.343,0,0,0,.393-.179,1.355,1.355,0,0,0-.059-1.334c-.1.01-.249.253-.3.333-.025,0-.022,0-.036-.012s-.026-.02-.048-.036a7.642,7.642,0,0,1,.048-.81c.314.031.584.21.905.227A.367.367,0,0,1,5.47,38.7c0-.028,0-.033-.012-.048a1.208,1.208,0,0,0-.357-.095v-.012H5.089c.044-.354-.056-.627-.3-.727l-.405-.072c-.069-.025-.1-.08-.155-.119-.018-.115-.04-.243.048-.31-.007-.043-.01-.051-.036-.072v-.012H4.231a.893.893,0,0,0-.1.239.511.511,0,0,0,.274.608l.358.059c.095.036.137.114.2.179,0,.154-.151.171-.274.131-.193-.062-.4-.106-.6-.178a.694.694,0,0,0-.167-.06c-.008.075-.016.151-.024.226l.5.155C4.4,39.015,4.236,39.52,4.445,39.845Z" transform="translate(-2.679 -26.939)" opacity="0.88"/>
        <path id="Path_34212" data-name="Path 34212" d="M6.707,60.623c.073.038.088.205.119.286a.858.858,0,0,0,.311.465v.012h.025a1.589,1.589,0,0,0-.143-.37c-.105-.257-.188-.528-.274-.787-.05-.151-.084-.3-.131-.441a.8.8,0,0,0-.06-.215v-.035a1.415,1.415,0,0,1,.274.072h.06a.713.713,0,0,0-.06-.215c-.036-.059-.267-.059-.333-.106a1.794,1.794,0,0,1-.251-.394,2.809,2.809,0,0,0-.643-.739.671.671,0,0,0-.465-.2l-.083.059a1.049,1.049,0,0,0,.178.786v.023a.36.36,0,0,1-.155-.083H5.063a.43.43,0,0,0,.047.2c.014.059.109.106.167.119a7.774,7.774,0,0,0,.286.918c.087.229.131.446.226.666.047.108.158.186.191.3h.035a2.593,2.593,0,0,0-.119-.286c-.109-.263-.2-.543-.287-.809-.059-.176-.1-.345-.155-.513a.789.789,0,0,0-.047-.179v-.012a.775.775,0,0,1,.19.083c.139.06.272.083.417.143a1.441,1.441,0,0,0,.37.119,1.635,1.635,0,0,0,.131.465v.035c-.181-.124-.178-.3-.5-.274a.225.225,0,0,1-.059.048.419.419,0,0,0,0,.274c.077.194.323.6.524.656C6.559,60.751,6.672,60.683,6.707,60.623ZM6.4,59.264a1.217,1.217,0,0,1-.334-.095c-.269-.1-.513-.186-.75-.3-.029-.108-.229-.495-.12-.631l.024-.036c.024-.006.023,0,.036-.012.367.044.736.491.917.739a1.311,1.311,0,0,0,.227.31v.024Zm-.309.894c0-.117.046-.117.095-.179.028,0,.034,0,.048-.011.185,0,.227.084.334.155a.469.469,0,0,1,.023.177l-.107.131a.9.9,0,0,0-.1.059C6.182,60.486,6.175,60.285,6.089,60.158Z" transform="translate(-3.452 -41.138)" opacity="0.88"/>
        <path id="Path_34213" data-name="Path 34213" d="M74.185,11.633a1.015,1.015,0,0,0,.547.441c.288.072.428-.266.536-.394s.356-.162.441-.334a.362.362,0,0,0-.012-.238,2.17,2.17,0,0,0-.429-.559c.007-.072.041-.075.071-.119.075.036.1.142.155.2.069.078.164.12.239.191a.305.305,0,0,0,.238-.084h.012c-.029-.08-.133-.135-.19-.191-.125-.125-.22-.282-.346-.4v-.012a1.362,1.362,0,0,0-.31.262c-.075-.029-.118-.11-.179-.154a1.128,1.128,0,0,0-.75-.346.754.754,0,0,1-.167.059.765.765,0,0,0-.393.37.862.862,0,0,0,.059.584A3.764,3.764,0,0,0,74.185,11.633Zm-.06-1.657c.2,0,.3.138.418.227a3.635,3.635,0,0,1,.75.786c.1.132.227.207.226.44-.036.035-.047.068-.107.083-.012.009,0,0-.023.012a9.366,9.366,0,0,0-.608-.775c-.064-.085-.163-.154-.226-.238-.109-.144-.239-.26-.358-.393a.5.5,0,0,0-.094-.108C74.113,9.985,74.112,9.994,74.125,9.976Zm-.3.167h.047c.059.09.162.152.227.238.178.236.4.443.571.679.108.146.229.283.334.429a1.021,1.021,0,0,0,.167.226.358.358,0,0,1-.059.12c-.211.049-.316-.088-.429-.2a5.353,5.353,0,0,1-.692-.977C73.92,10.536,73.728,10.314,73.828,10.143Z" transform="translate(-50.456 -8.199)" opacity="0.88"/>
      </g>
    </g>
  </g>
</svg>
