<svg xmlns="http://www.w3.org/2000/svg" width="36" height="25.609" viewBox="0 0 36 25.609">
  <g id="youtube" transform="translate(-1 -3.11)">
    <path id="Path_34247" data-name="Path 34247" d="M36.259,7.1a4.552,4.552,0,0,0-3.173-3.231C30.268,3.11,19,3.11,19,3.11s-11.268,0-14.086.757A4.55,4.55,0,0,0,1.741,7.1,49.294,49.294,0,0,0,1,15.914s0,5.978.741,8.816a4.555,4.555,0,0,0,3.173,3.231c2.818.757,14.086.757,14.086.757s11.268,0,14.086-.757a4.552,4.552,0,0,0,3.173-3.231A49.3,49.3,0,0,0,37,15.914,49.294,49.294,0,0,0,36.259,7.1Z" transform="translate(0 0)" fill="red"/>
    <path id="Path_34248" data-name="Path 34248" d="M6.593,15.084l7.951-4.578L6.593,5.9v9.182Z" transform="translate(9.555 5.439)" fill="#fff"/>
  </g>
</svg>
